G75*
%MOIN*%
%OFA0B0*%
%FSLAX24Y24*%
%IPPOS*%
%LPD*%
%AMOC8*
5,1,8,0,0,1.08239X$1,22.5*
%
%ADD10C,0.0000*%
%ADD11C,0.0004*%
%ADD12C,0.1261*%
%ADD13C,0.0680*%
%ADD14C,0.0820*%
%ADD15R,0.0595X0.0595*%
%ADD16C,0.0316*%
%ADD17OC8,0.0680*%
%ADD18R,0.0740X0.0740*%
%ADD19R,0.0555X0.0555*%
%ADD20R,0.0840X0.0840*%
D10*
X007411Y004067D02*
X051112Y004067D01*
X051112Y030838D01*
X007411Y030838D01*
X009970Y022303D02*
X009972Y022351D01*
X009978Y022399D01*
X009988Y022446D01*
X010001Y022492D01*
X010019Y022537D01*
X010039Y022581D01*
X010064Y022623D01*
X010092Y022662D01*
X010122Y022699D01*
X010156Y022733D01*
X010193Y022765D01*
X010231Y022794D01*
X010272Y022819D01*
X010315Y022841D01*
X010360Y022859D01*
X010406Y022873D01*
X010453Y022884D01*
X010501Y022891D01*
X010549Y022894D01*
X010597Y022893D01*
X010645Y022888D01*
X010693Y022879D01*
X010739Y022867D01*
X010784Y022850D01*
X010828Y022830D01*
X010870Y022807D01*
X010910Y022780D01*
X010948Y022750D01*
X010983Y022717D01*
X011015Y022681D01*
X011045Y022643D01*
X011071Y022602D01*
X011093Y022559D01*
X011113Y022515D01*
X011128Y022470D01*
X011140Y022423D01*
X011148Y022375D01*
X011152Y022327D01*
X011152Y022279D01*
X011148Y022231D01*
X011140Y022183D01*
X011128Y022136D01*
X011113Y022091D01*
X011093Y022047D01*
X011071Y022004D01*
X011045Y021963D01*
X011015Y021925D01*
X010983Y021889D01*
X010948Y021856D01*
X010910Y021826D01*
X010870Y021799D01*
X010828Y021776D01*
X010784Y021756D01*
X010739Y021739D01*
X010693Y021727D01*
X010645Y021718D01*
X010597Y021713D01*
X010549Y021712D01*
X010501Y021715D01*
X010453Y021722D01*
X010406Y021733D01*
X010360Y021747D01*
X010315Y021765D01*
X010272Y021787D01*
X010231Y021812D01*
X010193Y021841D01*
X010156Y021873D01*
X010122Y021907D01*
X010092Y021944D01*
X010064Y021983D01*
X010039Y022025D01*
X010019Y022069D01*
X010001Y022114D01*
X009988Y022160D01*
X009978Y022207D01*
X009972Y022255D01*
X009970Y022303D01*
X009970Y011082D02*
X009972Y011130D01*
X009978Y011178D01*
X009988Y011225D01*
X010001Y011271D01*
X010019Y011316D01*
X010039Y011360D01*
X010064Y011402D01*
X010092Y011441D01*
X010122Y011478D01*
X010156Y011512D01*
X010193Y011544D01*
X010231Y011573D01*
X010272Y011598D01*
X010315Y011620D01*
X010360Y011638D01*
X010406Y011652D01*
X010453Y011663D01*
X010501Y011670D01*
X010549Y011673D01*
X010597Y011672D01*
X010645Y011667D01*
X010693Y011658D01*
X010739Y011646D01*
X010784Y011629D01*
X010828Y011609D01*
X010870Y011586D01*
X010910Y011559D01*
X010948Y011529D01*
X010983Y011496D01*
X011015Y011460D01*
X011045Y011422D01*
X011071Y011381D01*
X011093Y011338D01*
X011113Y011294D01*
X011128Y011249D01*
X011140Y011202D01*
X011148Y011154D01*
X011152Y011106D01*
X011152Y011058D01*
X011148Y011010D01*
X011140Y010962D01*
X011128Y010915D01*
X011113Y010870D01*
X011093Y010826D01*
X011071Y010783D01*
X011045Y010742D01*
X011015Y010704D01*
X010983Y010668D01*
X010948Y010635D01*
X010910Y010605D01*
X010870Y010578D01*
X010828Y010555D01*
X010784Y010535D01*
X010739Y010518D01*
X010693Y010506D01*
X010645Y010497D01*
X010597Y010492D01*
X010549Y010491D01*
X010501Y010494D01*
X010453Y010501D01*
X010406Y010512D01*
X010360Y010526D01*
X010315Y010544D01*
X010272Y010566D01*
X010231Y010591D01*
X010193Y010620D01*
X010156Y010652D01*
X010122Y010686D01*
X010092Y010723D01*
X010064Y010762D01*
X010039Y010804D01*
X010019Y010848D01*
X010001Y010893D01*
X009988Y010939D01*
X009978Y010986D01*
X009972Y011034D01*
X009970Y011082D01*
X008789Y006035D02*
X008791Y006083D01*
X008797Y006131D01*
X008807Y006178D01*
X008820Y006224D01*
X008838Y006269D01*
X008858Y006313D01*
X008883Y006355D01*
X008911Y006394D01*
X008941Y006431D01*
X008975Y006465D01*
X009012Y006497D01*
X009050Y006526D01*
X009091Y006551D01*
X009134Y006573D01*
X009179Y006591D01*
X009225Y006605D01*
X009272Y006616D01*
X009320Y006623D01*
X009368Y006626D01*
X009416Y006625D01*
X009464Y006620D01*
X009512Y006611D01*
X009558Y006599D01*
X009603Y006582D01*
X009647Y006562D01*
X009689Y006539D01*
X009729Y006512D01*
X009767Y006482D01*
X009802Y006449D01*
X009834Y006413D01*
X009864Y006375D01*
X009890Y006334D01*
X009912Y006291D01*
X009932Y006247D01*
X009947Y006202D01*
X009959Y006155D01*
X009967Y006107D01*
X009971Y006059D01*
X009971Y006011D01*
X009967Y005963D01*
X009959Y005915D01*
X009947Y005868D01*
X009932Y005823D01*
X009912Y005779D01*
X009890Y005736D01*
X009864Y005695D01*
X009834Y005657D01*
X009802Y005621D01*
X009767Y005588D01*
X009729Y005558D01*
X009689Y005531D01*
X009647Y005508D01*
X009603Y005488D01*
X009558Y005471D01*
X009512Y005459D01*
X009464Y005450D01*
X009416Y005445D01*
X009368Y005444D01*
X009320Y005447D01*
X009272Y005454D01*
X009225Y005465D01*
X009179Y005479D01*
X009134Y005497D01*
X009091Y005519D01*
X009050Y005544D01*
X009012Y005573D01*
X008975Y005605D01*
X008941Y005639D01*
X008911Y005676D01*
X008883Y005715D01*
X008858Y005757D01*
X008838Y005801D01*
X008820Y005846D01*
X008807Y005892D01*
X008797Y005939D01*
X008791Y005987D01*
X008789Y006035D01*
X047371Y011082D02*
X047373Y011130D01*
X047379Y011178D01*
X047389Y011225D01*
X047402Y011271D01*
X047420Y011316D01*
X047440Y011360D01*
X047465Y011402D01*
X047493Y011441D01*
X047523Y011478D01*
X047557Y011512D01*
X047594Y011544D01*
X047632Y011573D01*
X047673Y011598D01*
X047716Y011620D01*
X047761Y011638D01*
X047807Y011652D01*
X047854Y011663D01*
X047902Y011670D01*
X047950Y011673D01*
X047998Y011672D01*
X048046Y011667D01*
X048094Y011658D01*
X048140Y011646D01*
X048185Y011629D01*
X048229Y011609D01*
X048271Y011586D01*
X048311Y011559D01*
X048349Y011529D01*
X048384Y011496D01*
X048416Y011460D01*
X048446Y011422D01*
X048472Y011381D01*
X048494Y011338D01*
X048514Y011294D01*
X048529Y011249D01*
X048541Y011202D01*
X048549Y011154D01*
X048553Y011106D01*
X048553Y011058D01*
X048549Y011010D01*
X048541Y010962D01*
X048529Y010915D01*
X048514Y010870D01*
X048494Y010826D01*
X048472Y010783D01*
X048446Y010742D01*
X048416Y010704D01*
X048384Y010668D01*
X048349Y010635D01*
X048311Y010605D01*
X048271Y010578D01*
X048229Y010555D01*
X048185Y010535D01*
X048140Y010518D01*
X048094Y010506D01*
X048046Y010497D01*
X047998Y010492D01*
X047950Y010491D01*
X047902Y010494D01*
X047854Y010501D01*
X047807Y010512D01*
X047761Y010526D01*
X047716Y010544D01*
X047673Y010566D01*
X047632Y010591D01*
X047594Y010620D01*
X047557Y010652D01*
X047523Y010686D01*
X047493Y010723D01*
X047465Y010762D01*
X047440Y010804D01*
X047420Y010848D01*
X047402Y010893D01*
X047389Y010939D01*
X047379Y010986D01*
X047373Y011034D01*
X047371Y011082D01*
X047435Y014291D02*
X047437Y014312D01*
X047443Y014332D01*
X047452Y014352D01*
X047464Y014369D01*
X047479Y014383D01*
X047497Y014395D01*
X047517Y014403D01*
X047537Y014408D01*
X047558Y014409D01*
X047579Y014406D01*
X047599Y014400D01*
X047618Y014389D01*
X047635Y014376D01*
X047648Y014360D01*
X047659Y014342D01*
X047667Y014322D01*
X047671Y014302D01*
X047671Y014280D01*
X047667Y014260D01*
X047659Y014240D01*
X047648Y014222D01*
X047635Y014206D01*
X047618Y014193D01*
X047599Y014182D01*
X047579Y014176D01*
X047558Y014173D01*
X047537Y014174D01*
X047517Y014179D01*
X047497Y014187D01*
X047479Y014199D01*
X047464Y014213D01*
X047452Y014230D01*
X047443Y014250D01*
X047437Y014270D01*
X047435Y014291D01*
X048435Y015291D02*
X048437Y015312D01*
X048443Y015332D01*
X048452Y015352D01*
X048464Y015369D01*
X048479Y015383D01*
X048497Y015395D01*
X048517Y015403D01*
X048537Y015408D01*
X048558Y015409D01*
X048579Y015406D01*
X048599Y015400D01*
X048618Y015389D01*
X048635Y015376D01*
X048648Y015360D01*
X048659Y015342D01*
X048667Y015322D01*
X048671Y015302D01*
X048671Y015280D01*
X048667Y015260D01*
X048659Y015240D01*
X048648Y015222D01*
X048635Y015206D01*
X048618Y015193D01*
X048599Y015182D01*
X048579Y015176D01*
X048558Y015173D01*
X048537Y015174D01*
X048517Y015179D01*
X048497Y015187D01*
X048479Y015199D01*
X048464Y015213D01*
X048452Y015230D01*
X048443Y015250D01*
X048437Y015270D01*
X048435Y015291D01*
X047371Y022303D02*
X047373Y022351D01*
X047379Y022399D01*
X047389Y022446D01*
X047402Y022492D01*
X047420Y022537D01*
X047440Y022581D01*
X047465Y022623D01*
X047493Y022662D01*
X047523Y022699D01*
X047557Y022733D01*
X047594Y022765D01*
X047632Y022794D01*
X047673Y022819D01*
X047716Y022841D01*
X047761Y022859D01*
X047807Y022873D01*
X047854Y022884D01*
X047902Y022891D01*
X047950Y022894D01*
X047998Y022893D01*
X048046Y022888D01*
X048094Y022879D01*
X048140Y022867D01*
X048185Y022850D01*
X048229Y022830D01*
X048271Y022807D01*
X048311Y022780D01*
X048349Y022750D01*
X048384Y022717D01*
X048416Y022681D01*
X048446Y022643D01*
X048472Y022602D01*
X048494Y022559D01*
X048514Y022515D01*
X048529Y022470D01*
X048541Y022423D01*
X048549Y022375D01*
X048553Y022327D01*
X048553Y022279D01*
X048549Y022231D01*
X048541Y022183D01*
X048529Y022136D01*
X048514Y022091D01*
X048494Y022047D01*
X048472Y022004D01*
X048446Y021963D01*
X048416Y021925D01*
X048384Y021889D01*
X048349Y021856D01*
X048311Y021826D01*
X048271Y021799D01*
X048229Y021776D01*
X048185Y021756D01*
X048140Y021739D01*
X048094Y021727D01*
X048046Y021718D01*
X047998Y021713D01*
X047950Y021712D01*
X047902Y021715D01*
X047854Y021722D01*
X047807Y021733D01*
X047761Y021747D01*
X047716Y021765D01*
X047673Y021787D01*
X047632Y021812D01*
X047594Y021841D01*
X047557Y021873D01*
X047523Y021907D01*
X047493Y021944D01*
X047465Y021983D01*
X047440Y022025D01*
X047420Y022069D01*
X047402Y022114D01*
X047389Y022160D01*
X047379Y022207D01*
X047373Y022255D01*
X047371Y022303D01*
X048159Y029263D02*
X048161Y029311D01*
X048167Y029359D01*
X048177Y029406D01*
X048190Y029452D01*
X048208Y029497D01*
X048228Y029541D01*
X048253Y029583D01*
X048281Y029622D01*
X048311Y029659D01*
X048345Y029693D01*
X048382Y029725D01*
X048420Y029754D01*
X048461Y029779D01*
X048504Y029801D01*
X048549Y029819D01*
X048595Y029833D01*
X048642Y029844D01*
X048690Y029851D01*
X048738Y029854D01*
X048786Y029853D01*
X048834Y029848D01*
X048882Y029839D01*
X048928Y029827D01*
X048973Y029810D01*
X049017Y029790D01*
X049059Y029767D01*
X049099Y029740D01*
X049137Y029710D01*
X049172Y029677D01*
X049204Y029641D01*
X049234Y029603D01*
X049260Y029562D01*
X049282Y029519D01*
X049302Y029475D01*
X049317Y029430D01*
X049329Y029383D01*
X049337Y029335D01*
X049341Y029287D01*
X049341Y029239D01*
X049337Y029191D01*
X049329Y029143D01*
X049317Y029096D01*
X049302Y029051D01*
X049282Y029007D01*
X049260Y028964D01*
X049234Y028923D01*
X049204Y028885D01*
X049172Y028849D01*
X049137Y028816D01*
X049099Y028786D01*
X049059Y028759D01*
X049017Y028736D01*
X048973Y028716D01*
X048928Y028699D01*
X048882Y028687D01*
X048834Y028678D01*
X048786Y028673D01*
X048738Y028672D01*
X048690Y028675D01*
X048642Y028682D01*
X048595Y028693D01*
X048549Y028707D01*
X048504Y028725D01*
X048461Y028747D01*
X048420Y028772D01*
X048382Y028801D01*
X048345Y028833D01*
X048311Y028867D01*
X048281Y028904D01*
X048253Y028943D01*
X048228Y028985D01*
X048208Y029029D01*
X048190Y029074D01*
X048177Y029120D01*
X048167Y029167D01*
X048161Y029215D01*
X048159Y029263D01*
D11*
X007411Y030838D02*
X007411Y004067D01*
D12*
X009380Y006035D03*
X010561Y011082D03*
X010561Y022303D03*
X047962Y022303D03*
X048750Y029263D03*
X047962Y011082D03*
D13*
X048450Y008009D02*
X048450Y007409D01*
X050230Y007409D02*
X050230Y008009D01*
X050230Y005449D02*
X050230Y004849D01*
X048450Y004849D02*
X048450Y005449D01*
X041224Y005404D02*
X041224Y006004D01*
X040224Y006004D02*
X040224Y005404D01*
X038224Y005404D02*
X038224Y006004D01*
X037224Y006004D02*
X037224Y005404D01*
X036224Y005404D02*
X036224Y006004D01*
X035224Y006004D02*
X035224Y005404D01*
X034224Y005404D02*
X034224Y006004D01*
X033224Y006004D02*
X033224Y005404D01*
X032224Y005404D02*
X032224Y006004D01*
X031224Y006004D02*
X031224Y005404D01*
X031224Y010117D02*
X031224Y010717D01*
X032224Y010717D02*
X032224Y010117D01*
X033224Y010117D02*
X033224Y010717D01*
X034224Y010717D02*
X034224Y010117D01*
X035224Y010117D02*
X035224Y010717D01*
X036224Y010717D02*
X036224Y010117D01*
X037224Y010117D02*
X037224Y010717D01*
X038224Y010717D02*
X038224Y010117D01*
X040224Y010117D02*
X040224Y010717D01*
X041224Y010717D02*
X041224Y010117D01*
X031916Y014421D02*
X031316Y014421D01*
X031316Y015421D02*
X031916Y015421D01*
X031916Y016421D02*
X031316Y016421D01*
X036242Y024672D02*
X036242Y025272D01*
X037242Y025272D02*
X037242Y024672D01*
X038242Y024672D02*
X038242Y025272D01*
X039242Y025272D02*
X039242Y024672D01*
X041344Y028963D02*
X041344Y029563D01*
X042344Y029563D02*
X042344Y028963D01*
X043344Y028963D02*
X043344Y029563D01*
X044344Y029563D02*
X044344Y028963D01*
X023691Y025272D02*
X023691Y024672D01*
X022691Y024672D02*
X022691Y025272D01*
X021691Y025272D02*
X021691Y024672D01*
X020691Y024672D02*
X020691Y025272D01*
X017179Y028963D02*
X017179Y029563D01*
X016179Y029563D02*
X016179Y028963D01*
X015179Y028963D02*
X015179Y029563D01*
X014179Y029563D02*
X014179Y028963D01*
X013420Y009567D02*
X012820Y009567D01*
X012820Y008567D02*
X013420Y008567D01*
X013420Y007567D02*
X012820Y007567D01*
X012820Y006567D02*
X013420Y006567D01*
D14*
X024224Y008067D03*
X025224Y008067D03*
X026224Y008067D03*
X027224Y008067D03*
X028224Y008067D03*
X029224Y008067D03*
X031224Y008067D03*
X032224Y008067D03*
X033224Y008067D03*
X034224Y008067D03*
X035224Y008067D03*
X036224Y008067D03*
X037224Y008067D03*
X038224Y008067D03*
X040224Y008067D03*
X041224Y008067D03*
X042224Y008067D03*
X043224Y008067D03*
X044224Y008067D03*
X045224Y008067D03*
X046224Y008067D03*
X047224Y008067D03*
X045224Y027067D03*
X044224Y027067D03*
X034224Y027067D03*
X033224Y027067D03*
X032224Y027067D03*
X031224Y027067D03*
X030224Y027067D03*
X029224Y027067D03*
X027624Y027067D03*
X026624Y027067D03*
D15*
X028239Y022598D03*
X029239Y022598D03*
X030239Y022598D03*
X031239Y022598D03*
X032239Y022598D03*
X033239Y022598D03*
X033239Y018598D03*
X032239Y018598D03*
X031239Y018598D03*
X030239Y018598D03*
X029239Y018598D03*
X028239Y018598D03*
X025324Y021492D03*
X024324Y021492D03*
X023324Y021492D03*
X022324Y021492D03*
X021324Y021492D03*
X020324Y021492D03*
X019324Y021492D03*
X018324Y021492D03*
X017324Y021492D03*
X016324Y021492D03*
X015324Y021492D03*
X014324Y021492D03*
X017324Y014492D03*
X018324Y014492D03*
X019324Y014492D03*
X020324Y014492D03*
X021324Y014492D03*
X022324Y014492D03*
X047553Y015291D03*
X047553Y016291D03*
X048553Y016291D03*
X048553Y017291D03*
X047553Y017291D03*
X047553Y018291D03*
X048553Y018291D03*
X048553Y019291D03*
X047553Y019291D03*
X047553Y020291D03*
X048553Y020291D03*
X048553Y014291D03*
X048553Y013291D03*
X047553Y013291D03*
D16*
X047553Y014291D03*
X048553Y015291D03*
D17*
X026439Y023897D03*
D18*
X027017Y028437D03*
X035443Y027098D03*
X041466Y020405D03*
X041466Y018437D03*
X048553Y012334D03*
X040135Y009185D03*
X037135Y009185D03*
X035135Y009185D03*
X033135Y009185D03*
X031135Y009185D03*
X028029Y009567D03*
X026242Y012354D03*
X019576Y015996D03*
X023513Y017059D03*
X027096Y017059D03*
X016466Y025326D03*
X011742Y024000D03*
X032348Y006948D03*
X034348Y006948D03*
X036348Y006948D03*
X038348Y006948D03*
X041348Y006948D03*
X025915Y006429D03*
D19*
X028742Y025067D03*
X029742Y025067D03*
X031742Y025067D03*
X032742Y025067D03*
X034970Y024933D03*
D20*
X046191Y019027D03*
M02*
