G75*
%MOIN*%
%OFA0B0*%
%FSLAX24Y24*%
%IPPOS*%
%LPD*%
%AMOC8*
5,1,8,0,0,1.08239X$1,22.5*
%
%ADD10C,0.0000*%
%ADD11C,0.0004*%
%ADD12C,0.0600*%
%ADD13C,0.0740*%
%ADD14R,0.0515X0.0515*%
%ADD15OC8,0.0600*%
%ADD16R,0.0660X0.0660*%
%ADD17C,0.0400*%
%ADD18C,0.0320*%
%ADD19C,0.0160*%
%ADD20R,0.0475X0.0475*%
%ADD21C,0.0500*%
%ADD22R,0.0760X0.0760*%
%ADD23C,0.0240*%
%ADD24C,0.0560*%
D10*
X007411Y004067D02*
X051112Y004067D01*
X051112Y030838D01*
X007411Y030838D01*
X009970Y022303D02*
X009972Y022351D01*
X009978Y022399D01*
X009988Y022446D01*
X010001Y022492D01*
X010019Y022537D01*
X010039Y022581D01*
X010064Y022623D01*
X010092Y022662D01*
X010122Y022699D01*
X010156Y022733D01*
X010193Y022765D01*
X010231Y022794D01*
X010272Y022819D01*
X010315Y022841D01*
X010360Y022859D01*
X010406Y022873D01*
X010453Y022884D01*
X010501Y022891D01*
X010549Y022894D01*
X010597Y022893D01*
X010645Y022888D01*
X010693Y022879D01*
X010739Y022867D01*
X010784Y022850D01*
X010828Y022830D01*
X010870Y022807D01*
X010910Y022780D01*
X010948Y022750D01*
X010983Y022717D01*
X011015Y022681D01*
X011045Y022643D01*
X011071Y022602D01*
X011093Y022559D01*
X011113Y022515D01*
X011128Y022470D01*
X011140Y022423D01*
X011148Y022375D01*
X011152Y022327D01*
X011152Y022279D01*
X011148Y022231D01*
X011140Y022183D01*
X011128Y022136D01*
X011113Y022091D01*
X011093Y022047D01*
X011071Y022004D01*
X011045Y021963D01*
X011015Y021925D01*
X010983Y021889D01*
X010948Y021856D01*
X010910Y021826D01*
X010870Y021799D01*
X010828Y021776D01*
X010784Y021756D01*
X010739Y021739D01*
X010693Y021727D01*
X010645Y021718D01*
X010597Y021713D01*
X010549Y021712D01*
X010501Y021715D01*
X010453Y021722D01*
X010406Y021733D01*
X010360Y021747D01*
X010315Y021765D01*
X010272Y021787D01*
X010231Y021812D01*
X010193Y021841D01*
X010156Y021873D01*
X010122Y021907D01*
X010092Y021944D01*
X010064Y021983D01*
X010039Y022025D01*
X010019Y022069D01*
X010001Y022114D01*
X009988Y022160D01*
X009978Y022207D01*
X009972Y022255D01*
X009970Y022303D01*
X009970Y011082D02*
X009972Y011130D01*
X009978Y011178D01*
X009988Y011225D01*
X010001Y011271D01*
X010019Y011316D01*
X010039Y011360D01*
X010064Y011402D01*
X010092Y011441D01*
X010122Y011478D01*
X010156Y011512D01*
X010193Y011544D01*
X010231Y011573D01*
X010272Y011598D01*
X010315Y011620D01*
X010360Y011638D01*
X010406Y011652D01*
X010453Y011663D01*
X010501Y011670D01*
X010549Y011673D01*
X010597Y011672D01*
X010645Y011667D01*
X010693Y011658D01*
X010739Y011646D01*
X010784Y011629D01*
X010828Y011609D01*
X010870Y011586D01*
X010910Y011559D01*
X010948Y011529D01*
X010983Y011496D01*
X011015Y011460D01*
X011045Y011422D01*
X011071Y011381D01*
X011093Y011338D01*
X011113Y011294D01*
X011128Y011249D01*
X011140Y011202D01*
X011148Y011154D01*
X011152Y011106D01*
X011152Y011058D01*
X011148Y011010D01*
X011140Y010962D01*
X011128Y010915D01*
X011113Y010870D01*
X011093Y010826D01*
X011071Y010783D01*
X011045Y010742D01*
X011015Y010704D01*
X010983Y010668D01*
X010948Y010635D01*
X010910Y010605D01*
X010870Y010578D01*
X010828Y010555D01*
X010784Y010535D01*
X010739Y010518D01*
X010693Y010506D01*
X010645Y010497D01*
X010597Y010492D01*
X010549Y010491D01*
X010501Y010494D01*
X010453Y010501D01*
X010406Y010512D01*
X010360Y010526D01*
X010315Y010544D01*
X010272Y010566D01*
X010231Y010591D01*
X010193Y010620D01*
X010156Y010652D01*
X010122Y010686D01*
X010092Y010723D01*
X010064Y010762D01*
X010039Y010804D01*
X010019Y010848D01*
X010001Y010893D01*
X009988Y010939D01*
X009978Y010986D01*
X009972Y011034D01*
X009970Y011082D01*
X008789Y006035D02*
X008791Y006083D01*
X008797Y006131D01*
X008807Y006178D01*
X008820Y006224D01*
X008838Y006269D01*
X008858Y006313D01*
X008883Y006355D01*
X008911Y006394D01*
X008941Y006431D01*
X008975Y006465D01*
X009012Y006497D01*
X009050Y006526D01*
X009091Y006551D01*
X009134Y006573D01*
X009179Y006591D01*
X009225Y006605D01*
X009272Y006616D01*
X009320Y006623D01*
X009368Y006626D01*
X009416Y006625D01*
X009464Y006620D01*
X009512Y006611D01*
X009558Y006599D01*
X009603Y006582D01*
X009647Y006562D01*
X009689Y006539D01*
X009729Y006512D01*
X009767Y006482D01*
X009802Y006449D01*
X009834Y006413D01*
X009864Y006375D01*
X009890Y006334D01*
X009912Y006291D01*
X009932Y006247D01*
X009947Y006202D01*
X009959Y006155D01*
X009967Y006107D01*
X009971Y006059D01*
X009971Y006011D01*
X009967Y005963D01*
X009959Y005915D01*
X009947Y005868D01*
X009932Y005823D01*
X009912Y005779D01*
X009890Y005736D01*
X009864Y005695D01*
X009834Y005657D01*
X009802Y005621D01*
X009767Y005588D01*
X009729Y005558D01*
X009689Y005531D01*
X009647Y005508D01*
X009603Y005488D01*
X009558Y005471D01*
X009512Y005459D01*
X009464Y005450D01*
X009416Y005445D01*
X009368Y005444D01*
X009320Y005447D01*
X009272Y005454D01*
X009225Y005465D01*
X009179Y005479D01*
X009134Y005497D01*
X009091Y005519D01*
X009050Y005544D01*
X009012Y005573D01*
X008975Y005605D01*
X008941Y005639D01*
X008911Y005676D01*
X008883Y005715D01*
X008858Y005757D01*
X008838Y005801D01*
X008820Y005846D01*
X008807Y005892D01*
X008797Y005939D01*
X008791Y005987D01*
X008789Y006035D01*
X047371Y011082D02*
X047373Y011130D01*
X047379Y011178D01*
X047389Y011225D01*
X047402Y011271D01*
X047420Y011316D01*
X047440Y011360D01*
X047465Y011402D01*
X047493Y011441D01*
X047523Y011478D01*
X047557Y011512D01*
X047594Y011544D01*
X047632Y011573D01*
X047673Y011598D01*
X047716Y011620D01*
X047761Y011638D01*
X047807Y011652D01*
X047854Y011663D01*
X047902Y011670D01*
X047950Y011673D01*
X047998Y011672D01*
X048046Y011667D01*
X048094Y011658D01*
X048140Y011646D01*
X048185Y011629D01*
X048229Y011609D01*
X048271Y011586D01*
X048311Y011559D01*
X048349Y011529D01*
X048384Y011496D01*
X048416Y011460D01*
X048446Y011422D01*
X048472Y011381D01*
X048494Y011338D01*
X048514Y011294D01*
X048529Y011249D01*
X048541Y011202D01*
X048549Y011154D01*
X048553Y011106D01*
X048553Y011058D01*
X048549Y011010D01*
X048541Y010962D01*
X048529Y010915D01*
X048514Y010870D01*
X048494Y010826D01*
X048472Y010783D01*
X048446Y010742D01*
X048416Y010704D01*
X048384Y010668D01*
X048349Y010635D01*
X048311Y010605D01*
X048271Y010578D01*
X048229Y010555D01*
X048185Y010535D01*
X048140Y010518D01*
X048094Y010506D01*
X048046Y010497D01*
X047998Y010492D01*
X047950Y010491D01*
X047902Y010494D01*
X047854Y010501D01*
X047807Y010512D01*
X047761Y010526D01*
X047716Y010544D01*
X047673Y010566D01*
X047632Y010591D01*
X047594Y010620D01*
X047557Y010652D01*
X047523Y010686D01*
X047493Y010723D01*
X047465Y010762D01*
X047440Y010804D01*
X047420Y010848D01*
X047402Y010893D01*
X047389Y010939D01*
X047379Y010986D01*
X047373Y011034D01*
X047371Y011082D01*
X047435Y014291D02*
X047437Y014312D01*
X047443Y014332D01*
X047452Y014352D01*
X047464Y014369D01*
X047479Y014383D01*
X047497Y014395D01*
X047517Y014403D01*
X047537Y014408D01*
X047558Y014409D01*
X047579Y014406D01*
X047599Y014400D01*
X047618Y014389D01*
X047635Y014376D01*
X047648Y014360D01*
X047659Y014342D01*
X047667Y014322D01*
X047671Y014302D01*
X047671Y014280D01*
X047667Y014260D01*
X047659Y014240D01*
X047648Y014222D01*
X047635Y014206D01*
X047618Y014193D01*
X047599Y014182D01*
X047579Y014176D01*
X047558Y014173D01*
X047537Y014174D01*
X047517Y014179D01*
X047497Y014187D01*
X047479Y014199D01*
X047464Y014213D01*
X047452Y014230D01*
X047443Y014250D01*
X047437Y014270D01*
X047435Y014291D01*
X048435Y015291D02*
X048437Y015312D01*
X048443Y015332D01*
X048452Y015352D01*
X048464Y015369D01*
X048479Y015383D01*
X048497Y015395D01*
X048517Y015403D01*
X048537Y015408D01*
X048558Y015409D01*
X048579Y015406D01*
X048599Y015400D01*
X048618Y015389D01*
X048635Y015376D01*
X048648Y015360D01*
X048659Y015342D01*
X048667Y015322D01*
X048671Y015302D01*
X048671Y015280D01*
X048667Y015260D01*
X048659Y015240D01*
X048648Y015222D01*
X048635Y015206D01*
X048618Y015193D01*
X048599Y015182D01*
X048579Y015176D01*
X048558Y015173D01*
X048537Y015174D01*
X048517Y015179D01*
X048497Y015187D01*
X048479Y015199D01*
X048464Y015213D01*
X048452Y015230D01*
X048443Y015250D01*
X048437Y015270D01*
X048435Y015291D01*
X047371Y022303D02*
X047373Y022351D01*
X047379Y022399D01*
X047389Y022446D01*
X047402Y022492D01*
X047420Y022537D01*
X047440Y022581D01*
X047465Y022623D01*
X047493Y022662D01*
X047523Y022699D01*
X047557Y022733D01*
X047594Y022765D01*
X047632Y022794D01*
X047673Y022819D01*
X047716Y022841D01*
X047761Y022859D01*
X047807Y022873D01*
X047854Y022884D01*
X047902Y022891D01*
X047950Y022894D01*
X047998Y022893D01*
X048046Y022888D01*
X048094Y022879D01*
X048140Y022867D01*
X048185Y022850D01*
X048229Y022830D01*
X048271Y022807D01*
X048311Y022780D01*
X048349Y022750D01*
X048384Y022717D01*
X048416Y022681D01*
X048446Y022643D01*
X048472Y022602D01*
X048494Y022559D01*
X048514Y022515D01*
X048529Y022470D01*
X048541Y022423D01*
X048549Y022375D01*
X048553Y022327D01*
X048553Y022279D01*
X048549Y022231D01*
X048541Y022183D01*
X048529Y022136D01*
X048514Y022091D01*
X048494Y022047D01*
X048472Y022004D01*
X048446Y021963D01*
X048416Y021925D01*
X048384Y021889D01*
X048349Y021856D01*
X048311Y021826D01*
X048271Y021799D01*
X048229Y021776D01*
X048185Y021756D01*
X048140Y021739D01*
X048094Y021727D01*
X048046Y021718D01*
X047998Y021713D01*
X047950Y021712D01*
X047902Y021715D01*
X047854Y021722D01*
X047807Y021733D01*
X047761Y021747D01*
X047716Y021765D01*
X047673Y021787D01*
X047632Y021812D01*
X047594Y021841D01*
X047557Y021873D01*
X047523Y021907D01*
X047493Y021944D01*
X047465Y021983D01*
X047440Y022025D01*
X047420Y022069D01*
X047402Y022114D01*
X047389Y022160D01*
X047379Y022207D01*
X047373Y022255D01*
X047371Y022303D01*
X048159Y029263D02*
X048161Y029311D01*
X048167Y029359D01*
X048177Y029406D01*
X048190Y029452D01*
X048208Y029497D01*
X048228Y029541D01*
X048253Y029583D01*
X048281Y029622D01*
X048311Y029659D01*
X048345Y029693D01*
X048382Y029725D01*
X048420Y029754D01*
X048461Y029779D01*
X048504Y029801D01*
X048549Y029819D01*
X048595Y029833D01*
X048642Y029844D01*
X048690Y029851D01*
X048738Y029854D01*
X048786Y029853D01*
X048834Y029848D01*
X048882Y029839D01*
X048928Y029827D01*
X048973Y029810D01*
X049017Y029790D01*
X049059Y029767D01*
X049099Y029740D01*
X049137Y029710D01*
X049172Y029677D01*
X049204Y029641D01*
X049234Y029603D01*
X049260Y029562D01*
X049282Y029519D01*
X049302Y029475D01*
X049317Y029430D01*
X049329Y029383D01*
X049337Y029335D01*
X049341Y029287D01*
X049341Y029239D01*
X049337Y029191D01*
X049329Y029143D01*
X049317Y029096D01*
X049302Y029051D01*
X049282Y029007D01*
X049260Y028964D01*
X049234Y028923D01*
X049204Y028885D01*
X049172Y028849D01*
X049137Y028816D01*
X049099Y028786D01*
X049059Y028759D01*
X049017Y028736D01*
X048973Y028716D01*
X048928Y028699D01*
X048882Y028687D01*
X048834Y028678D01*
X048786Y028673D01*
X048738Y028672D01*
X048690Y028675D01*
X048642Y028682D01*
X048595Y028693D01*
X048549Y028707D01*
X048504Y028725D01*
X048461Y028747D01*
X048420Y028772D01*
X048382Y028801D01*
X048345Y028833D01*
X048311Y028867D01*
X048281Y028904D01*
X048253Y028943D01*
X048228Y028985D01*
X048208Y029029D01*
X048190Y029074D01*
X048177Y029120D01*
X048167Y029167D01*
X048161Y029215D01*
X048159Y029263D01*
D11*
X007411Y030838D02*
X007411Y004067D01*
D12*
X012820Y006567D02*
X013420Y006567D01*
X013420Y007567D02*
X012820Y007567D01*
X012820Y008567D02*
X013420Y008567D01*
X013420Y009567D02*
X012820Y009567D01*
X031224Y010117D02*
X031224Y010717D01*
X032224Y010717D02*
X032224Y010117D01*
X033224Y010117D02*
X033224Y010717D01*
X034224Y010717D02*
X034224Y010117D01*
X035224Y010117D02*
X035224Y010717D01*
X036224Y010717D02*
X036224Y010117D01*
X037224Y010117D02*
X037224Y010717D01*
X038224Y010717D02*
X038224Y010117D01*
X040224Y010117D02*
X040224Y010717D01*
X041224Y010717D02*
X041224Y010117D01*
X041224Y006004D02*
X041224Y005404D01*
X040224Y005404D02*
X040224Y006004D01*
X038224Y006004D02*
X038224Y005404D01*
X037224Y005404D02*
X037224Y006004D01*
X036224Y006004D02*
X036224Y005404D01*
X035224Y005404D02*
X035224Y006004D01*
X034224Y006004D02*
X034224Y005404D01*
X033224Y005404D02*
X033224Y006004D01*
X032224Y006004D02*
X032224Y005404D01*
X031224Y005404D02*
X031224Y006004D01*
X031316Y014421D02*
X031916Y014421D01*
X031916Y015421D02*
X031316Y015421D01*
X031316Y016421D02*
X031916Y016421D01*
X036242Y024672D02*
X036242Y025272D01*
X037242Y025272D02*
X037242Y024672D01*
X038242Y024672D02*
X038242Y025272D01*
X039242Y025272D02*
X039242Y024672D01*
X041344Y028963D02*
X041344Y029563D01*
X042344Y029563D02*
X042344Y028963D01*
X043344Y028963D02*
X043344Y029563D01*
X044344Y029563D02*
X044344Y028963D01*
X023691Y025272D02*
X023691Y024672D01*
X022691Y024672D02*
X022691Y025272D01*
X021691Y025272D02*
X021691Y024672D01*
X020691Y024672D02*
X020691Y025272D01*
X017179Y028963D02*
X017179Y029563D01*
X016179Y029563D02*
X016179Y028963D01*
X015179Y028963D02*
X015179Y029563D01*
X014179Y029563D02*
X014179Y028963D01*
X048450Y008009D02*
X048450Y007409D01*
X050230Y007409D02*
X050230Y008009D01*
X050230Y005449D02*
X050230Y004849D01*
X048450Y004849D02*
X048450Y005449D01*
D13*
X047224Y008067D03*
X046224Y008067D03*
X045224Y008067D03*
X044224Y008067D03*
X043224Y008067D03*
X042224Y008067D03*
X041224Y008067D03*
X040224Y008067D03*
X038224Y008067D03*
X037224Y008067D03*
X036224Y008067D03*
X035224Y008067D03*
X034224Y008067D03*
X033224Y008067D03*
X032224Y008067D03*
X031224Y008067D03*
X029224Y008067D03*
X028224Y008067D03*
X027224Y008067D03*
X026224Y008067D03*
X025224Y008067D03*
X024224Y008067D03*
X026624Y027067D03*
X027624Y027067D03*
X029224Y027067D03*
X030224Y027067D03*
X031224Y027067D03*
X032224Y027067D03*
X033224Y027067D03*
X034224Y027067D03*
X044224Y027067D03*
X045224Y027067D03*
D14*
X047553Y020291D03*
X048553Y020291D03*
X048553Y019291D03*
X047553Y019291D03*
X047553Y018291D03*
X048553Y018291D03*
X048553Y017291D03*
X047553Y017291D03*
X047553Y016291D03*
X048553Y016291D03*
X047553Y015291D03*
X048553Y014291D03*
X048553Y013291D03*
X047553Y013291D03*
X033239Y018598D03*
X032239Y018598D03*
X031239Y018598D03*
X030239Y018598D03*
X029239Y018598D03*
X028239Y018598D03*
X025324Y021492D03*
X024324Y021492D03*
X023324Y021492D03*
X022324Y021492D03*
X021324Y021492D03*
X020324Y021492D03*
X019324Y021492D03*
X018324Y021492D03*
X017324Y021492D03*
X016324Y021492D03*
X015324Y021492D03*
X014324Y021492D03*
X017324Y014492D03*
X018324Y014492D03*
X019324Y014492D03*
X020324Y014492D03*
X021324Y014492D03*
X022324Y014492D03*
X028239Y022598D03*
X029239Y022598D03*
X030239Y022598D03*
X031239Y022598D03*
X032239Y022598D03*
X033239Y022598D03*
D15*
X026439Y023897D03*
D16*
X027017Y028437D03*
X035443Y027098D03*
X041466Y020405D03*
X041466Y018437D03*
X048553Y012334D03*
X040135Y009185D03*
X037135Y009185D03*
X035135Y009185D03*
X033135Y009185D03*
X031135Y009185D03*
X028029Y009567D03*
X026242Y012354D03*
X019576Y015996D03*
X023513Y017059D03*
X027096Y017059D03*
X016466Y025326D03*
X011742Y024000D03*
X032348Y006948D03*
X034348Y006948D03*
X036348Y006948D03*
X038348Y006948D03*
X041348Y006948D03*
X025915Y006429D03*
D17*
X028029Y009567D02*
X022324Y009567D01*
X022324Y014492D01*
X022324Y009567D02*
X013120Y009567D01*
X028239Y022598D02*
X028742Y025067D01*
X029742Y025067D02*
X029239Y022598D01*
X031239Y022598D02*
X030738Y025031D01*
X031742Y025067D02*
X032239Y022598D01*
X033239Y022598D02*
X032742Y025067D01*
D18*
X033279Y025234D02*
X033279Y025364D01*
X033234Y025474D01*
X033149Y025558D01*
X033039Y025604D01*
X032911Y025604D01*
X032740Y025638D01*
X032574Y025604D01*
X032445Y025604D01*
X032334Y025558D01*
X032250Y025474D01*
X032242Y025454D01*
X032234Y025474D01*
X032149Y025558D01*
X032039Y025604D01*
X031911Y025604D01*
X031740Y025638D01*
X031574Y025604D01*
X031445Y025604D01*
X031334Y025558D01*
X031250Y025474D01*
X031204Y025364D01*
X031204Y025236D01*
X031171Y025065D01*
X031204Y024899D01*
X031204Y024769D01*
X030279Y024769D01*
X030279Y024900D01*
X030313Y025064D01*
X030279Y025236D01*
X030279Y025364D01*
X030234Y025474D01*
X030149Y025558D01*
X030039Y025604D01*
X029909Y025604D01*
X029744Y025637D01*
X029572Y025604D01*
X029445Y025604D01*
X029334Y025558D01*
X029250Y025474D01*
X029242Y025454D01*
X029234Y025474D01*
X029149Y025558D01*
X029039Y025604D01*
X028909Y025604D01*
X028744Y025637D01*
X028572Y025604D01*
X028445Y025604D01*
X028334Y025558D01*
X028250Y025474D01*
X028204Y025364D01*
X028204Y025234D01*
X027761Y023060D01*
X027727Y023026D01*
X027681Y022915D01*
X027681Y022667D01*
X027668Y022601D01*
X027681Y022531D01*
X027681Y022281D01*
X027727Y022171D01*
X027811Y022086D01*
X027922Y022041D01*
X028170Y022041D01*
X028236Y022027D01*
X028306Y022041D01*
X028556Y022041D01*
X028666Y022086D01*
X028739Y022159D01*
X028811Y022086D01*
X028922Y022041D01*
X029170Y022041D01*
X029236Y022027D01*
X029306Y022041D01*
X029556Y022041D01*
X029666Y022086D01*
X029716Y022136D01*
X029716Y022129D01*
X029691Y022052D01*
X029643Y021986D01*
X029577Y021938D01*
X029499Y021913D01*
X029458Y021909D01*
X027690Y021909D01*
X027590Y021911D01*
X027586Y021909D01*
X027583Y021909D01*
X027491Y021871D01*
X027300Y021795D01*
X026967Y021546D01*
X026967Y021546D01*
X026967Y021546D01*
X026710Y021219D01*
X026710Y021219D01*
X026546Y020836D01*
X026487Y020425D01*
X026536Y020011D01*
X026576Y019911D01*
X026576Y017623D01*
X026512Y017559D01*
X026466Y017448D01*
X026466Y016669D01*
X026512Y016559D01*
X026576Y016494D01*
X026576Y014736D01*
X026635Y014555D01*
X026591Y014535D01*
X026576Y014533D01*
X026498Y014491D01*
X026418Y014453D01*
X026408Y014442D01*
X026282Y014373D01*
X025948Y014055D01*
X025948Y014055D01*
X025708Y013661D01*
X025708Y013661D01*
X025577Y013218D01*
X025577Y013218D01*
X025566Y012756D01*
X025612Y012568D01*
X025612Y011964D01*
X025657Y011854D01*
X025742Y011770D01*
X025852Y011724D01*
X026631Y011724D01*
X026742Y011770D01*
X026826Y011854D01*
X026872Y011964D01*
X026872Y012744D01*
X026826Y012854D01*
X026742Y012938D01*
X026631Y012984D01*
X026618Y012984D01*
X026620Y013055D01*
X026672Y013233D01*
X026769Y013392D01*
X026904Y013521D01*
X026977Y013567D01*
X027685Y013901D01*
X027996Y013901D01*
X027696Y013741D01*
X027343Y013412D01*
X027343Y013412D01*
X027087Y013003D01*
X027087Y013003D01*
X026946Y012541D01*
X026929Y012059D01*
X026929Y012059D01*
X026973Y011869D01*
X026974Y011819D01*
X026949Y011673D01*
X026886Y011539D01*
X026792Y011425D01*
X026671Y011340D01*
X026532Y011289D01*
X026472Y011279D01*
X025814Y011279D01*
X025785Y011291D01*
X025785Y011291D01*
X025618Y011399D01*
X025484Y011547D01*
X025394Y011724D01*
X025352Y011918D01*
X025362Y012117D01*
X025383Y012203D01*
X025411Y012270D01*
X025411Y012292D01*
X025418Y012312D01*
X025411Y012395D01*
X025411Y016980D01*
X025289Y017518D01*
X025289Y017518D01*
X025049Y018016D01*
X024705Y018447D01*
X024273Y018791D01*
X023776Y019031D01*
X023238Y019153D01*
X019299Y019153D01*
X018681Y019012D01*
X018111Y018738D01*
X018111Y018738D01*
X017615Y018343D01*
X017615Y018343D01*
X017615Y018343D01*
X017220Y017847D01*
X016945Y017277D01*
X016945Y017277D01*
X016804Y016659D01*
X016804Y014899D01*
X016767Y014809D01*
X016767Y014175D01*
X016813Y014064D01*
X016897Y013980D01*
X017007Y013934D01*
X017642Y013934D01*
X017752Y013980D01*
X017824Y014053D01*
X017897Y013980D01*
X018007Y013934D01*
X018642Y013934D01*
X018752Y013980D01*
X018824Y014053D01*
X018897Y013980D01*
X019007Y013934D01*
X019642Y013934D01*
X019752Y013980D01*
X019824Y014053D01*
X019897Y013980D01*
X020007Y013934D01*
X020642Y013934D01*
X020752Y013980D01*
X020824Y014053D01*
X020897Y013980D01*
X021007Y013934D01*
X021642Y013934D01*
X021752Y013980D01*
X021836Y014064D01*
X021848Y014093D01*
X021865Y014069D01*
X021901Y014032D01*
X021944Y014004D01*
X021991Y013984D01*
X022041Y013974D01*
X022324Y013974D01*
X022324Y014492D01*
X022324Y015009D01*
X022041Y015009D01*
X021991Y014999D01*
X021944Y014980D01*
X021901Y014951D01*
X021865Y014915D01*
X021848Y014890D01*
X021836Y014919D01*
X021752Y015004D01*
X021642Y015049D01*
X021007Y015049D01*
X020960Y015030D01*
X021031Y015233D01*
X021260Y015622D01*
X021561Y015958D01*
X021921Y016230D01*
X022328Y016426D01*
X022765Y016539D01*
X022939Y016549D01*
X023013Y016474D01*
X023124Y016429D01*
X023903Y016429D01*
X024013Y016474D01*
X024098Y016559D01*
X024143Y016669D01*
X024143Y017448D01*
X024126Y017491D01*
X024155Y017454D01*
X024292Y017170D01*
X024362Y016862D01*
X024371Y016704D01*
X024371Y012455D01*
X024324Y012307D01*
X024300Y011833D01*
X024399Y011369D01*
X024616Y010947D01*
X024934Y010595D01*
X024934Y010595D01*
X024934Y010595D01*
X025333Y010337D01*
X025538Y010271D01*
X025615Y010239D01*
X025636Y010239D01*
X025657Y010233D01*
X025739Y010239D01*
X026426Y010239D01*
X026450Y010232D01*
X026529Y010239D01*
X026609Y010239D01*
X026631Y010249D01*
X026763Y010261D01*
X026763Y010261D01*
X027160Y010407D01*
X027160Y010407D01*
X027506Y010651D01*
X027777Y010976D01*
X027955Y011360D01*
X028027Y011777D01*
X028014Y011921D01*
X028020Y011957D01*
X028004Y012023D01*
X027998Y012091D01*
X027988Y012111D01*
X027980Y012160D01*
X027987Y012367D01*
X028048Y012565D01*
X028157Y012740D01*
X028309Y012882D01*
X028492Y012979D01*
X028547Y012995D01*
X032556Y012995D01*
X032665Y012974D01*
X032986Y013011D01*
X032986Y013011D01*
X033280Y013147D01*
X033280Y013147D01*
X033518Y013366D01*
X033518Y013366D01*
X033677Y013648D01*
X033677Y013648D01*
X033706Y013797D01*
X033759Y014013D01*
X033748Y014479D01*
X033616Y014927D01*
X033374Y015326D01*
X033036Y015648D01*
X032627Y015871D01*
X032627Y015871D01*
X032439Y015917D01*
X032381Y015941D01*
X032339Y015941D01*
X032299Y015951D01*
X032237Y015941D01*
X032228Y015941D01*
X032215Y015946D01*
X032281Y015994D01*
X032343Y016056D01*
X032395Y016127D01*
X032435Y016206D01*
X032462Y016290D01*
X032476Y016377D01*
X032476Y016421D01*
X032476Y016465D01*
X032462Y016552D01*
X032435Y016636D01*
X032395Y016714D01*
X032343Y016786D01*
X032281Y016848D01*
X032209Y016900D01*
X032131Y016940D01*
X032047Y016967D01*
X031960Y016981D01*
X031616Y016981D01*
X031616Y016421D01*
X032476Y016421D01*
X031616Y016421D01*
X031616Y016421D01*
X031616Y016421D01*
X033639Y016421D01*
X033748Y016911D02*
X033748Y016911D01*
X033438Y016942D01*
X033438Y016942D01*
X033153Y017067D01*
X033153Y017067D01*
X032921Y017274D01*
X032921Y017274D01*
X032764Y017543D01*
X032764Y017543D01*
X032741Y017649D01*
X032719Y017702D01*
X032719Y017750D01*
X032709Y017796D01*
X032719Y017852D01*
X032719Y018139D01*
X032666Y018086D01*
X032556Y018041D01*
X031922Y018041D01*
X031811Y018086D01*
X031727Y018171D01*
X031715Y018200D01*
X031698Y018175D01*
X031662Y018139D01*
X031620Y018110D01*
X031572Y018091D01*
X031522Y018081D01*
X031239Y018081D01*
X031239Y018598D01*
X031239Y018598D01*
X031239Y018081D01*
X030956Y018081D01*
X030906Y018091D01*
X030858Y018110D01*
X030816Y018139D01*
X030779Y018175D01*
X030763Y018200D01*
X030759Y018190D01*
X030759Y016485D01*
X030770Y016552D01*
X030797Y016636D01*
X030837Y016714D01*
X030889Y016786D01*
X030951Y016848D01*
X031022Y016900D01*
X031101Y016940D01*
X031185Y016967D01*
X031272Y016981D01*
X031616Y016981D01*
X031616Y016421D01*
X031616Y016488D02*
X031616Y016488D01*
X031616Y015421D02*
X031549Y015412D01*
X031482Y015407D01*
X031415Y015405D01*
X031348Y015407D01*
X031282Y015413D01*
X031215Y015423D01*
X031149Y015436D01*
X031084Y015453D01*
X031021Y015473D01*
X030958Y015497D01*
X030897Y015525D01*
X030837Y015556D01*
X030780Y015590D01*
X030724Y015628D01*
X030671Y015668D01*
X030619Y015712D01*
X030571Y015758D01*
X030525Y015807D01*
X030482Y015858D01*
X030442Y015912D01*
X030404Y015968D01*
X030371Y016026D01*
X030340Y016085D01*
X030313Y016147D01*
X030289Y016209D01*
X030269Y016273D01*
X030252Y016338D01*
X030239Y016404D01*
X030239Y018598D01*
X030239Y018430D01*
X030759Y018081D02*
X031825Y018081D01*
X031239Y018399D02*
X031239Y018399D01*
X031239Y018598D02*
X031239Y016404D01*
X031262Y016385D01*
X031287Y016369D01*
X031314Y016356D01*
X031342Y016345D01*
X031371Y016338D01*
X031401Y016335D01*
X031431Y016334D01*
X031461Y016337D01*
X031490Y016344D01*
X031518Y016353D01*
X031545Y016366D01*
X031571Y016382D01*
X031595Y016400D01*
X031616Y016421D01*
X031616Y016807D02*
X031616Y016807D01*
X032322Y016807D02*
X034355Y016807D01*
X034263Y016850D02*
X034555Y016712D01*
X034811Y016514D01*
X035018Y016265D01*
X035018Y016265D01*
X035167Y015977D01*
X035251Y015664D01*
X035265Y015341D01*
X035251Y015226D01*
X035237Y015194D01*
X035237Y015135D01*
X035227Y015078D01*
X035237Y015033D01*
X035237Y014447D01*
X035367Y013964D01*
X035617Y013531D01*
X035970Y013178D01*
X036403Y012928D01*
X036886Y012799D01*
X045797Y012799D01*
X045839Y012795D01*
X045918Y012769D01*
X045986Y012720D01*
X046035Y012653D01*
X046061Y012573D01*
X046064Y012531D01*
X046064Y010732D01*
X046180Y010300D01*
X046180Y010300D01*
X046331Y010038D01*
X045525Y010511D01*
X045134Y010776D01*
X044792Y011081D01*
X043972Y011621D01*
X043082Y012036D01*
X042141Y012318D01*
X041170Y012461D01*
X030629Y012461D01*
X030235Y012333D01*
X029900Y012089D01*
X029657Y011754D01*
X029529Y011360D01*
X029529Y010450D01*
X029523Y010432D01*
X029529Y010347D01*
X029529Y010262D01*
X029536Y010245D01*
X029655Y008583D01*
X029604Y008635D01*
X029357Y008737D01*
X029091Y008737D01*
X028844Y008635D01*
X028724Y008514D01*
X028604Y008635D01*
X028357Y008737D01*
X028091Y008737D01*
X027844Y008635D01*
X027696Y008486D01*
X027634Y008547D01*
X027554Y008605D01*
X027466Y008650D01*
X027372Y008681D01*
X027274Y008697D01*
X027224Y008697D01*
X027174Y008697D01*
X027076Y008681D01*
X026982Y008650D01*
X026894Y008605D01*
X026814Y008547D01*
X026752Y008486D01*
X026604Y008635D01*
X026357Y008737D01*
X026091Y008737D01*
X025844Y008635D01*
X025724Y008514D01*
X025604Y008635D01*
X025357Y008737D01*
X025091Y008737D01*
X024844Y008635D01*
X024724Y008514D01*
X024604Y008635D01*
X024357Y008737D01*
X024091Y008737D01*
X023844Y008635D01*
X023656Y008446D01*
X023554Y008200D01*
X023554Y007933D01*
X023656Y007687D01*
X023844Y007499D01*
X024091Y007397D01*
X024357Y007397D01*
X024604Y007499D01*
X024724Y007619D01*
X024844Y007499D01*
X025091Y007397D01*
X025357Y007397D01*
X025604Y007499D01*
X025724Y007619D01*
X025844Y007499D01*
X026091Y007397D01*
X026357Y007397D01*
X026604Y007499D01*
X026752Y007647D01*
X026814Y007586D01*
X026894Y007528D01*
X026982Y007483D01*
X027076Y007452D01*
X027174Y007437D01*
X027224Y007437D01*
X027224Y008067D01*
X027224Y008697D01*
X027224Y008067D01*
X027224Y008067D01*
X027224Y007437D01*
X027274Y007437D01*
X027372Y007452D01*
X027466Y007483D01*
X027554Y007528D01*
X027634Y007586D01*
X027696Y007647D01*
X027844Y007499D01*
X028091Y007397D01*
X028357Y007397D01*
X028604Y007499D01*
X028724Y007619D01*
X028844Y007499D01*
X029091Y007397D01*
X029357Y007397D01*
X029604Y007499D01*
X029724Y007619D01*
X029726Y007591D01*
X029726Y007216D01*
X029722Y007174D01*
X029697Y007095D01*
X029647Y007027D01*
X029580Y006978D01*
X029500Y006952D01*
X029458Y006949D01*
X026479Y006949D01*
X026415Y007013D01*
X026305Y007059D01*
X025525Y007059D01*
X025415Y007013D01*
X025331Y006929D01*
X025285Y006818D01*
X025285Y006039D01*
X025331Y005929D01*
X025415Y005844D01*
X025525Y005799D01*
X026305Y005799D01*
X026415Y005844D01*
X026479Y005909D01*
X029665Y005909D01*
X030059Y006037D01*
X030059Y006037D01*
X030394Y006280D01*
X030394Y006280D01*
X030638Y006615D01*
X030638Y006615D01*
X030766Y007009D01*
X030766Y007526D01*
X030772Y007544D01*
X030770Y007573D01*
X030844Y007499D01*
X031091Y007397D01*
X031357Y007397D01*
X031604Y007499D01*
X031724Y007619D01*
X031829Y007514D01*
X031764Y007448D01*
X031718Y007338D01*
X031718Y007240D01*
X031712Y007233D01*
X031581Y006967D01*
X031538Y006674D01*
X031567Y006510D01*
X031564Y006513D01*
X031343Y006604D01*
X031105Y006604D01*
X030884Y006513D01*
X030715Y006344D01*
X030624Y006124D01*
X030624Y005285D01*
X030715Y005064D01*
X030884Y004896D01*
X031105Y004804D01*
X031343Y004804D01*
X031564Y004896D01*
X031724Y005056D01*
X031884Y004896D01*
X032105Y004804D01*
X032343Y004804D01*
X032564Y004896D01*
X032724Y005056D01*
X032884Y004896D01*
X033105Y004804D01*
X033343Y004804D01*
X033564Y004896D01*
X033724Y005056D01*
X033884Y004896D01*
X034105Y004804D01*
X034343Y004804D01*
X034564Y004896D01*
X034724Y005056D01*
X034884Y004896D01*
X035105Y004804D01*
X035343Y004804D01*
X035564Y004896D01*
X035724Y005056D01*
X035884Y004896D01*
X036105Y004804D01*
X036343Y004804D01*
X036564Y004896D01*
X036724Y005056D01*
X036884Y004896D01*
X037105Y004804D01*
X037343Y004804D01*
X037564Y004896D01*
X037724Y005056D01*
X037884Y004896D01*
X038105Y004804D01*
X038343Y004804D01*
X038564Y004896D01*
X038733Y005064D01*
X038824Y005285D01*
X038824Y005480D01*
X038864Y005577D01*
X038864Y006380D01*
X038932Y006448D01*
X038978Y006559D01*
X038978Y006819D01*
X038997Y006880D01*
X038978Y007086D01*
X038978Y007338D01*
X038932Y007448D01*
X038848Y007533D01*
X038738Y007578D01*
X038683Y007578D01*
X038792Y007687D01*
X038894Y007933D01*
X038894Y008200D01*
X038792Y008446D01*
X038604Y008635D01*
X038357Y008737D01*
X038091Y008737D01*
X037844Y008635D01*
X037724Y008514D01*
X037637Y008602D01*
X037720Y008685D01*
X037765Y008795D01*
X037765Y008916D01*
X037777Y008930D01*
X037888Y009194D01*
X037888Y009194D01*
X037911Y009480D01*
X037911Y009480D01*
X037880Y009612D01*
X037884Y009608D01*
X038105Y009517D01*
X038343Y009517D01*
X038564Y009608D01*
X038733Y009777D01*
X038824Y009998D01*
X038824Y010836D01*
X038733Y011057D01*
X038564Y011226D01*
X038343Y011317D01*
X038105Y011317D01*
X037884Y011226D01*
X037724Y011065D01*
X037564Y011226D01*
X037343Y011317D01*
X037105Y011317D01*
X036884Y011226D01*
X036724Y011065D01*
X036564Y011226D01*
X036343Y011317D01*
X036105Y011317D01*
X035884Y011226D01*
X035724Y011065D01*
X035564Y011226D01*
X035343Y011317D01*
X035105Y011317D01*
X034884Y011226D01*
X034724Y011065D01*
X034564Y011226D01*
X034343Y011317D01*
X034105Y011317D01*
X033884Y011226D01*
X033724Y011065D01*
X033564Y011226D01*
X033343Y011317D01*
X033105Y011317D01*
X032884Y011226D01*
X032724Y011065D01*
X032564Y011226D01*
X032343Y011317D01*
X032105Y011317D01*
X031884Y011226D01*
X031724Y011065D01*
X031564Y011226D01*
X031343Y011317D01*
X031105Y011317D01*
X030884Y011226D01*
X030715Y011057D01*
X030624Y010836D01*
X030624Y010641D01*
X030584Y010544D01*
X030584Y010172D01*
X030569Y010384D01*
X030569Y011153D01*
X030572Y011195D01*
X030598Y011275D01*
X030647Y011342D01*
X030715Y011391D01*
X030794Y011417D01*
X030836Y011421D01*
X040679Y011421D01*
X041093Y011405D01*
X041912Y011285D01*
X042705Y011048D01*
X043456Y010697D01*
X044147Y010242D01*
X044416Y010020D01*
X044427Y010002D01*
X044488Y009959D01*
X044544Y009909D01*
X044572Y009899D01*
X044954Y009627D01*
X045891Y009078D01*
X045891Y009078D01*
X046839Y008629D01*
X046724Y008514D01*
X046604Y008635D01*
X046357Y008737D01*
X046091Y008737D01*
X045844Y008635D01*
X045724Y008514D01*
X045604Y008635D01*
X045357Y008737D01*
X045091Y008737D01*
X044844Y008635D01*
X044724Y008514D01*
X044604Y008635D01*
X044357Y008737D01*
X044091Y008737D01*
X043844Y008635D01*
X043724Y008514D01*
X043604Y008635D01*
X043357Y008737D01*
X043091Y008737D01*
X042844Y008635D01*
X042724Y008514D01*
X042604Y008635D01*
X042357Y008737D01*
X042091Y008737D01*
X041844Y008635D01*
X041724Y008514D01*
X041604Y008635D01*
X041357Y008737D01*
X041091Y008737D01*
X040844Y008635D01*
X040724Y008514D01*
X040637Y008602D01*
X040720Y008685D01*
X040765Y008795D01*
X040765Y008916D01*
X040777Y008930D01*
X040888Y009194D01*
X040888Y009194D01*
X040911Y009480D01*
X040911Y009480D01*
X040880Y009612D01*
X040884Y009608D01*
X041105Y009517D01*
X041343Y009517D01*
X041564Y009608D01*
X041733Y009777D01*
X041824Y009998D01*
X041824Y010836D01*
X041733Y011057D01*
X041564Y011226D01*
X041343Y011317D01*
X041105Y011317D01*
X040884Y011226D01*
X040724Y011065D01*
X040564Y011226D01*
X040343Y011317D01*
X040105Y011317D01*
X039884Y011226D01*
X039715Y011057D01*
X039624Y010836D01*
X039624Y010641D01*
X039584Y010544D01*
X039584Y009717D01*
X039551Y009685D01*
X039505Y009574D01*
X039505Y009302D01*
X039483Y009212D01*
X039505Y009071D01*
X039505Y008795D01*
X039551Y008685D01*
X039635Y008600D01*
X039746Y008555D01*
X039765Y008555D01*
X039656Y008446D01*
X039554Y008200D01*
X039554Y007933D01*
X039656Y007687D01*
X039844Y007499D01*
X040091Y007397D01*
X040357Y007397D01*
X040604Y007499D01*
X040724Y007619D01*
X040829Y007514D01*
X040764Y007448D01*
X040718Y007338D01*
X040718Y007240D01*
X040712Y007233D01*
X040581Y006967D01*
X040538Y006674D01*
X040567Y006510D01*
X040564Y006513D01*
X040343Y006604D01*
X040105Y006604D01*
X039884Y006513D01*
X039715Y006344D01*
X039624Y006124D01*
X039624Y005285D01*
X039715Y005064D01*
X039884Y004896D01*
X040105Y004804D01*
X040343Y004804D01*
X040564Y004896D01*
X040724Y005056D01*
X040884Y004896D01*
X041105Y004804D01*
X041343Y004804D01*
X041564Y004896D01*
X041733Y005064D01*
X041824Y005285D01*
X041824Y005480D01*
X041864Y005577D01*
X041864Y006380D01*
X041932Y006448D01*
X041978Y006559D01*
X041978Y006819D01*
X041997Y006880D01*
X041978Y007086D01*
X041978Y007338D01*
X041932Y007448D01*
X041909Y007472D01*
X042091Y007397D01*
X042357Y007397D01*
X042604Y007499D01*
X042724Y007619D01*
X042844Y007499D01*
X043091Y007397D01*
X043357Y007397D01*
X043604Y007499D01*
X043724Y007619D01*
X043844Y007499D01*
X044091Y007397D01*
X044357Y007397D01*
X044604Y007499D01*
X044724Y007619D01*
X044844Y007499D01*
X045091Y007397D01*
X045357Y007397D01*
X045604Y007499D01*
X045724Y007619D01*
X045844Y007499D01*
X046091Y007397D01*
X046357Y007397D01*
X046604Y007499D01*
X046724Y007619D01*
X046844Y007499D01*
X047091Y007397D01*
X047357Y007397D01*
X047604Y007499D01*
X047792Y007687D01*
X047850Y007827D01*
X047850Y007289D01*
X047942Y007069D01*
X048110Y006900D01*
X048331Y006809D01*
X048570Y006809D01*
X048790Y006900D01*
X048959Y007069D01*
X049050Y007289D01*
X049050Y008128D01*
X049028Y008181D01*
X049065Y008495D01*
X049082Y008557D01*
X049077Y008597D01*
X049081Y008637D01*
X049064Y008699D01*
X049056Y008762D01*
X049036Y008797D01*
X049025Y008836D01*
X048985Y008886D01*
X048953Y008942D01*
X048921Y008966D01*
X048896Y008998D01*
X048840Y009029D01*
X048790Y009068D01*
X048751Y009079D01*
X048715Y009099D01*
X048657Y009106D01*
X048213Y009237D01*
X048165Y009255D01*
X048554Y009255D01*
X048937Y009358D01*
X049280Y009556D01*
X049560Y009836D01*
X049758Y010179D01*
X049860Y010561D01*
X049860Y011650D01*
X049820Y011747D01*
X049820Y013709D01*
X049860Y013806D01*
X049860Y014052D01*
X049772Y014324D01*
X049604Y014555D01*
X049373Y014723D01*
X049101Y014811D01*
X049032Y014811D01*
X049128Y014907D01*
X049231Y015156D01*
X049231Y015426D01*
X049128Y015675D01*
X048973Y015830D01*
X048976Y015832D01*
X049012Y015868D01*
X049041Y015910D01*
X049060Y015958D01*
X049070Y016008D01*
X049070Y016291D01*
X049070Y016574D01*
X049060Y016624D01*
X049041Y016672D01*
X049012Y016714D01*
X048976Y016750D01*
X048933Y016779D01*
X048904Y016791D01*
X048933Y016803D01*
X048976Y016832D01*
X049012Y016868D01*
X049041Y016910D01*
X049060Y016958D01*
X049070Y017008D01*
X049070Y017291D01*
X049070Y017574D01*
X049060Y017624D01*
X049041Y017672D01*
X049012Y017714D01*
X048976Y017750D01*
X048933Y017779D01*
X048904Y017791D01*
X048933Y017803D01*
X048976Y017832D01*
X049012Y017868D01*
X049041Y017910D01*
X049060Y017958D01*
X049070Y018008D01*
X049070Y018291D01*
X049070Y018574D01*
X049060Y018624D01*
X049041Y018672D01*
X049012Y018714D01*
X048976Y018750D01*
X048972Y018753D01*
X049267Y018847D01*
X049561Y019057D01*
X049561Y019057D01*
X049561Y019057D01*
X049776Y019349D01*
X049833Y019520D01*
X049866Y019618D01*
X049852Y019825D01*
X049820Y019887D01*
X049820Y021372D01*
X049834Y021394D01*
X049852Y021496D01*
X049896Y021742D01*
X049871Y022242D01*
X049735Y022723D01*
X049496Y023162D01*
X049496Y023162D01*
X049166Y023537D01*
X049166Y023537D01*
X049166Y023537D01*
X048760Y023829D01*
X048760Y023829D01*
X048299Y024023D01*
X048103Y024058D01*
X048054Y024077D01*
X048002Y024076D01*
X047951Y024085D01*
X047899Y024073D01*
X047526Y024065D01*
X046694Y023899D01*
X046694Y023899D01*
X045903Y023590D01*
X045903Y023590D01*
X045177Y023149D01*
X044539Y022589D01*
X044009Y021926D01*
X043601Y021181D01*
X043329Y020377D01*
X043200Y019538D01*
X043209Y019145D01*
X043027Y017243D01*
X043001Y017202D01*
X042822Y016983D01*
X042603Y016803D01*
X042583Y016791D01*
X040709Y016791D01*
X040456Y017033D01*
X040140Y017364D01*
X040008Y017693D01*
X040008Y017693D01*
X039579Y018494D01*
X039066Y019242D01*
X039066Y019242D01*
X038474Y019931D01*
X037810Y020550D01*
X037515Y020770D01*
X037505Y020785D01*
X037433Y020832D01*
X037364Y020884D01*
X037347Y020888D01*
X036985Y021123D01*
X036051Y021564D01*
X035066Y021876D01*
X034049Y022054D01*
X033626Y022070D01*
X033666Y022086D01*
X033751Y022171D01*
X033796Y022281D01*
X033796Y022531D01*
X033810Y022600D01*
X033796Y022666D01*
X033796Y022915D01*
X033751Y023026D01*
X033717Y023059D01*
X033279Y025234D01*
X033309Y025088D02*
X034372Y025088D01*
X034373Y025108D02*
X034352Y024866D01*
X034424Y024635D01*
X034442Y024614D01*
X034478Y024525D01*
X034563Y024441D01*
X034673Y024395D01*
X034682Y024395D01*
X034795Y024336D01*
X034915Y024325D01*
X035270Y024293D01*
X035270Y024293D01*
X035757Y024308D01*
X035902Y024163D01*
X036122Y024072D01*
X036361Y024072D01*
X036582Y024163D01*
X036742Y024324D01*
X036902Y024163D01*
X037122Y024072D01*
X037361Y024072D01*
X037582Y024163D01*
X037742Y024324D01*
X037840Y024225D01*
X037994Y023310D01*
X037995Y023246D01*
X038011Y023209D01*
X038018Y023170D01*
X038052Y023115D01*
X038330Y022475D01*
X039004Y021165D01*
X039762Y019901D01*
X040601Y018690D01*
X040836Y018394D01*
X040836Y018047D01*
X040882Y017937D01*
X040966Y017852D01*
X041076Y017807D01*
X041856Y017807D01*
X041966Y017852D01*
X042050Y017937D01*
X042096Y018047D01*
X042096Y018826D01*
X042050Y018937D01*
X041966Y019021D01*
X041856Y019067D01*
X041638Y019067D01*
X041445Y019317D01*
X041128Y019775D01*
X041856Y019775D01*
X041966Y019821D01*
X042050Y019905D01*
X042096Y020015D01*
X042096Y020795D01*
X042050Y020905D01*
X041966Y020989D01*
X041856Y021035D01*
X041702Y021035D01*
X041494Y021393D01*
X040722Y022868D01*
X040037Y024385D01*
X039842Y024872D01*
X039842Y025391D01*
X039750Y025612D01*
X039582Y025781D01*
X039361Y025872D01*
X039122Y025872D01*
X038902Y025781D01*
X038742Y025621D01*
X038582Y025781D01*
X038361Y025872D01*
X038122Y025872D01*
X037902Y025781D01*
X037822Y025701D01*
X037731Y026100D01*
X037495Y026589D01*
X037157Y027013D01*
X037157Y027013D01*
X037157Y027013D01*
X036732Y027352D01*
X036243Y027587D01*
X035977Y027648D01*
X035942Y027682D01*
X035832Y027728D01*
X035053Y027728D01*
X034943Y027682D01*
X034858Y027598D01*
X034813Y027488D01*
X034813Y027397D01*
X034792Y027446D01*
X034604Y027635D01*
X034357Y027737D01*
X034091Y027737D01*
X033844Y027635D01*
X033724Y027514D01*
X033604Y027635D01*
X033357Y027737D01*
X033091Y027737D01*
X032844Y027635D01*
X032724Y027514D01*
X032604Y027635D01*
X032357Y027737D01*
X032091Y027737D01*
X031844Y027635D01*
X031724Y027514D01*
X031604Y027635D01*
X031357Y027737D01*
X031091Y027737D01*
X030844Y027635D01*
X030724Y027514D01*
X030604Y027635D01*
X030357Y027737D01*
X030091Y027737D01*
X029844Y027635D01*
X029724Y027514D01*
X029604Y027635D01*
X029357Y027737D01*
X029091Y027737D01*
X028844Y027635D01*
X028656Y027446D01*
X028554Y027200D01*
X028554Y026933D01*
X028656Y026687D01*
X028844Y026499D01*
X029091Y026397D01*
X029357Y026397D01*
X029604Y026499D01*
X029724Y026619D01*
X029844Y026499D01*
X030091Y026397D01*
X030357Y026397D01*
X030604Y026499D01*
X030724Y026619D01*
X030844Y026499D01*
X031091Y026397D01*
X031357Y026397D01*
X031604Y026499D01*
X031724Y026619D01*
X031844Y026499D01*
X032091Y026397D01*
X032357Y026397D01*
X032604Y026499D01*
X032724Y026619D01*
X032844Y026499D01*
X033091Y026397D01*
X033357Y026397D01*
X033604Y026499D01*
X033724Y026619D01*
X033844Y026499D01*
X034091Y026397D01*
X034357Y026397D01*
X034604Y026499D01*
X034792Y026687D01*
X034813Y026737D01*
X034813Y026708D01*
X034858Y026598D01*
X034943Y026514D01*
X035053Y026468D01*
X035196Y026468D01*
X035339Y026409D01*
X035546Y026409D01*
X035668Y026459D01*
X035835Y026421D01*
X036075Y026306D01*
X036283Y026140D01*
X036449Y025932D01*
X036507Y025811D01*
X036361Y025872D01*
X036122Y025872D01*
X035902Y025781D01*
X035733Y025612D01*
X035702Y025536D01*
X035306Y025523D01*
X035025Y025540D01*
X034904Y025551D01*
X034672Y025479D01*
X034651Y025461D01*
X034563Y025424D01*
X034478Y025340D01*
X034433Y025230D01*
X034433Y025221D01*
X034373Y025108D01*
X034382Y024769D02*
X033373Y024769D01*
X033437Y024451D02*
X034553Y024451D01*
X034104Y024500D02*
X034970Y022570D01*
X034915Y021903D02*
X038624Y021903D01*
X038460Y022221D02*
X033772Y022221D01*
X033798Y022540D02*
X038302Y022540D01*
X038163Y022858D02*
X033796Y022858D01*
X033694Y023177D02*
X038017Y023177D01*
X037963Y023495D02*
X033630Y023495D01*
X033565Y023814D02*
X037909Y023814D01*
X037856Y024132D02*
X037506Y024132D01*
X036978Y024132D02*
X036506Y024132D01*
X035978Y024132D02*
X033501Y024132D01*
X034104Y024500D02*
X033198Y025917D01*
X029655Y025917D01*
X026820Y025759D01*
X025364Y025759D01*
X025364Y025760D02*
X025315Y025758D01*
X025265Y025752D01*
X025217Y025743D01*
X025169Y025729D01*
X025123Y025712D01*
X025078Y025691D01*
X025035Y025667D01*
X024994Y025640D01*
X024955Y025609D01*
X024919Y025575D01*
X024885Y025539D01*
X024854Y025500D01*
X024827Y025459D01*
X024803Y025416D01*
X024782Y025371D01*
X024765Y025325D01*
X024751Y025277D01*
X024742Y025229D01*
X024736Y025179D01*
X024734Y025130D01*
X024734Y024145D01*
X024199Y024332D02*
X024291Y024553D01*
X024291Y025391D01*
X024246Y025498D01*
X024306Y025836D01*
X024474Y026296D01*
X024718Y026720D01*
X025033Y027095D01*
X025407Y027409D01*
X025831Y027654D01*
X026291Y027821D01*
X026510Y027860D01*
X026517Y027852D01*
X026628Y027807D01*
X027407Y027807D01*
X027517Y027852D01*
X027602Y027937D01*
X027647Y028047D01*
X027647Y028826D01*
X027602Y028937D01*
X027517Y029021D01*
X027407Y029067D01*
X026628Y029067D01*
X026517Y029021D01*
X026433Y028937D01*
X026422Y028911D01*
X026018Y028840D01*
X026018Y028840D01*
X025385Y028610D01*
X024802Y028273D01*
X007973Y028273D01*
X007973Y028591D02*
X013703Y028591D01*
X013670Y028624D02*
X013839Y028455D01*
X014059Y028363D01*
X014298Y028363D01*
X014519Y028455D01*
X014679Y028615D01*
X014839Y028455D01*
X015059Y028363D01*
X015298Y028363D01*
X015519Y028455D01*
X015679Y028615D01*
X015839Y028455D01*
X016059Y028363D01*
X016298Y028363D01*
X016519Y028455D01*
X016679Y028615D01*
X016839Y028455D01*
X017059Y028363D01*
X017298Y028363D01*
X017519Y028455D01*
X017687Y028624D01*
X017779Y028844D01*
X017779Y029683D01*
X017687Y029903D01*
X017519Y030072D01*
X017298Y030163D01*
X017059Y030163D01*
X016839Y030072D01*
X016679Y029912D01*
X016519Y030072D01*
X016298Y030163D01*
X016059Y030163D01*
X015839Y030072D01*
X015679Y029912D01*
X015519Y030072D01*
X015298Y030163D01*
X015059Y030163D01*
X014839Y030072D01*
X014679Y029912D01*
X014519Y030072D01*
X014298Y030163D01*
X014059Y030163D01*
X013839Y030072D01*
X013670Y029903D01*
X013579Y029683D01*
X013579Y028844D01*
X013670Y028624D01*
X013579Y028910D02*
X007973Y028910D01*
X007973Y029228D02*
X013579Y029228D01*
X013579Y029547D02*
X007973Y029547D01*
X007973Y029865D02*
X013654Y029865D01*
X014655Y028591D02*
X014703Y028591D01*
X015655Y028591D02*
X015703Y028591D01*
X016655Y028591D02*
X016703Y028591D01*
X017655Y028591D02*
X025353Y028591D01*
X025385Y028610D02*
X025385Y028610D01*
X024802Y028273D02*
X024802Y028273D01*
X024287Y027840D01*
X023854Y027325D01*
X023854Y027325D01*
X023518Y026742D01*
X023518Y026742D01*
X023287Y026109D01*
X023204Y025634D01*
X023182Y025612D01*
X023165Y025572D01*
X023118Y025637D01*
X023055Y025699D01*
X022984Y025751D01*
X022906Y025791D01*
X022822Y025818D01*
X022735Y025832D01*
X022691Y025832D01*
X022691Y024972D01*
X022691Y024112D01*
X022735Y024112D01*
X022822Y024126D01*
X022906Y024153D01*
X022984Y024193D01*
X023055Y024245D01*
X023118Y024307D01*
X023165Y024373D01*
X023182Y024332D01*
X023351Y024163D01*
X023571Y024072D01*
X023810Y024072D01*
X024030Y024163D01*
X024199Y024332D01*
X024248Y024451D02*
X026143Y024451D01*
X026190Y024497D02*
X025839Y024146D01*
X025839Y023839D01*
X025010Y022049D01*
X025007Y022049D01*
X024897Y022004D01*
X024824Y021931D01*
X024752Y022004D01*
X024642Y022049D01*
X024007Y022049D01*
X023897Y022004D01*
X023824Y021931D01*
X023752Y022004D01*
X023642Y022049D01*
X023007Y022049D01*
X022897Y022004D01*
X022824Y021931D01*
X022752Y022004D01*
X022642Y022049D01*
X022007Y022049D01*
X021897Y022004D01*
X021824Y021931D01*
X021752Y022004D01*
X021642Y022049D01*
X021007Y022049D01*
X020897Y022004D01*
X020824Y021931D01*
X020752Y022004D01*
X020642Y022049D01*
X020007Y022049D01*
X019897Y022004D01*
X019824Y021931D01*
X019752Y022004D01*
X019642Y022049D01*
X019007Y022049D01*
X018897Y022004D01*
X018824Y021931D01*
X018752Y022004D01*
X018642Y022049D01*
X018007Y022049D01*
X017897Y022004D01*
X017824Y021931D01*
X017752Y022004D01*
X017642Y022049D01*
X017007Y022049D01*
X016897Y022004D01*
X016824Y021931D01*
X016752Y022004D01*
X016642Y022049D01*
X016007Y022049D01*
X015897Y022004D01*
X015824Y021931D01*
X015752Y022004D01*
X015642Y022049D01*
X015007Y022049D01*
X014897Y022004D01*
X014824Y021931D01*
X014752Y022004D01*
X014642Y022049D01*
X014007Y022049D01*
X013897Y022004D01*
X013813Y021919D01*
X013767Y021809D01*
X013767Y021175D01*
X013813Y021064D01*
X013897Y020980D01*
X014007Y020934D01*
X014642Y020934D01*
X014752Y020980D01*
X014824Y021053D01*
X014897Y020980D01*
X015007Y020934D01*
X015642Y020934D01*
X015752Y020980D01*
X015824Y021053D01*
X015897Y020980D01*
X016007Y020934D01*
X016642Y020934D01*
X016752Y020980D01*
X016824Y021053D01*
X016897Y020980D01*
X017007Y020934D01*
X017642Y020934D01*
X017752Y020980D01*
X017824Y021053D01*
X017897Y020980D01*
X018007Y020934D01*
X018642Y020934D01*
X018752Y020980D01*
X018824Y021053D01*
X018897Y020980D01*
X019007Y020934D01*
X019642Y020934D01*
X019752Y020980D01*
X019824Y021053D01*
X019897Y020980D01*
X020007Y020934D01*
X020642Y020934D01*
X020752Y020980D01*
X020824Y021053D01*
X020897Y020980D01*
X021007Y020934D01*
X021642Y020934D01*
X021752Y020980D01*
X021824Y021053D01*
X021897Y020980D01*
X022007Y020934D01*
X022642Y020934D01*
X022752Y020980D01*
X022824Y021053D01*
X022897Y020980D01*
X023007Y020934D01*
X023642Y020934D01*
X023752Y020980D01*
X023824Y021053D01*
X023897Y020980D01*
X024007Y020934D01*
X024642Y020934D01*
X024752Y020980D01*
X024824Y021053D01*
X024897Y020980D01*
X025007Y020934D01*
X025642Y020934D01*
X025752Y020980D01*
X025836Y021064D01*
X025882Y021175D01*
X025882Y021458D01*
X026774Y023384D01*
X027039Y023649D01*
X027039Y024146D01*
X026687Y024497D01*
X026190Y024497D01*
X025839Y024132D02*
X023955Y024132D01*
X023946Y023358D02*
X024000Y023360D01*
X024053Y023365D01*
X024106Y023374D01*
X024158Y023387D01*
X024210Y023403D01*
X024260Y023423D01*
X024308Y023446D01*
X024355Y023473D01*
X024400Y023502D01*
X024443Y023535D01*
X024483Y023570D01*
X024521Y023608D01*
X024556Y023648D01*
X024589Y023691D01*
X024618Y023736D01*
X024645Y023783D01*
X024668Y023831D01*
X024688Y023881D01*
X024704Y023933D01*
X024717Y023985D01*
X024726Y024038D01*
X024731Y024091D01*
X024733Y024145D01*
X024291Y024769D02*
X028110Y024769D01*
X028175Y025088D02*
X024291Y025088D01*
X024284Y025406D02*
X028222Y025406D01*
X028045Y024451D02*
X026734Y024451D01*
X027039Y024132D02*
X027980Y024132D01*
X027915Y023814D02*
X027039Y023814D01*
X026885Y023495D02*
X027850Y023495D01*
X027785Y023177D02*
X026678Y023177D01*
X026530Y022858D02*
X027681Y022858D01*
X027680Y022540D02*
X026383Y022540D01*
X026235Y022221D02*
X027706Y022221D01*
X027567Y021903D02*
X026088Y021903D01*
X025940Y021584D02*
X027018Y021584D01*
X027300Y021795D02*
X027300Y021795D01*
X027687Y021389D02*
X029458Y021389D01*
X029514Y021391D01*
X029569Y021397D01*
X029624Y021407D01*
X029678Y021421D01*
X029731Y021438D01*
X029782Y021460D01*
X029832Y021485D01*
X029880Y021513D01*
X029926Y021545D01*
X029969Y021580D01*
X030010Y021618D01*
X030048Y021659D01*
X030083Y021702D01*
X030115Y021748D01*
X030143Y021796D01*
X030168Y021846D01*
X030190Y021897D01*
X030207Y021950D01*
X030221Y022004D01*
X030231Y022059D01*
X030237Y022114D01*
X030239Y022170D01*
X030239Y022598D01*
X030763Y022200D02*
X030779Y022175D01*
X030816Y022139D01*
X030858Y022110D01*
X030906Y022091D01*
X030956Y022081D01*
X031239Y022081D01*
X031522Y022081D01*
X031572Y022091D01*
X031620Y022110D01*
X031662Y022139D01*
X031698Y022175D01*
X031715Y022200D01*
X031727Y022171D01*
X031811Y022086D01*
X031922Y022041D01*
X032172Y022041D01*
X032240Y022027D01*
X032307Y022041D01*
X032473Y022041D01*
X031988Y021994D01*
X031486Y021876D01*
X031051Y021775D01*
X031051Y021775D01*
X030642Y021604D01*
X030759Y021964D01*
X030759Y022190D01*
X030763Y022200D01*
X030739Y021903D02*
X031599Y021903D01*
X031239Y022081D02*
X031239Y022598D01*
X031239Y022598D01*
X031239Y022081D01*
X031239Y022221D02*
X031239Y022221D01*
X031239Y022540D02*
X031239Y022540D01*
X031239Y022598D02*
X031239Y023116D01*
X031239Y022598D01*
X031239Y022598D01*
X031239Y022858D02*
X031239Y022858D01*
X031239Y023116D02*
X031522Y023116D01*
X031565Y023107D01*
X031253Y024656D01*
X031250Y024659D01*
X031204Y024769D01*
X031175Y025088D02*
X030308Y025088D01*
X030279Y024769D02*
X030234Y024659D01*
X030229Y024655D01*
X029924Y023156D01*
X030556Y023156D01*
X030666Y023110D01*
X030751Y023026D01*
X030763Y022996D01*
X030779Y023021D01*
X030816Y023058D01*
X030858Y023086D01*
X030906Y023106D01*
X030956Y023116D01*
X031239Y023116D01*
X031551Y023177D02*
X029928Y023177D01*
X029993Y023495D02*
X031487Y023495D01*
X031423Y023814D02*
X030058Y023814D01*
X030123Y024132D02*
X031359Y024132D01*
X031295Y024451D02*
X030188Y024451D01*
X030738Y025031D02*
X030723Y025095D01*
X030704Y025158D01*
X030681Y025220D01*
X030655Y025280D01*
X030625Y025339D01*
X030592Y025396D01*
X030556Y025450D01*
X030516Y025503D01*
X030473Y025553D01*
X030427Y025600D01*
X030379Y025645D01*
X030328Y025687D01*
X030275Y025725D01*
X030219Y025760D01*
X030162Y025792D01*
X030102Y025821D01*
X030042Y025846D01*
X029979Y025867D01*
X029916Y025885D01*
X029852Y025899D01*
X029787Y025909D01*
X029721Y025915D01*
X029655Y025917D01*
X030262Y025406D02*
X031222Y025406D01*
X033262Y025406D02*
X034544Y025406D01*
X035846Y025725D02*
X024286Y025725D01*
X024381Y026043D02*
X036361Y026043D01*
X035959Y026362D02*
X024511Y026362D01*
X024695Y026680D02*
X026063Y026680D01*
X026056Y026687D02*
X026244Y026499D01*
X026491Y026397D01*
X026757Y026397D01*
X027004Y026499D01*
X027124Y026619D01*
X027244Y026499D01*
X027491Y026397D01*
X027757Y026397D01*
X028004Y026499D01*
X028192Y026687D01*
X028294Y026933D01*
X028294Y027200D01*
X028192Y027446D01*
X028004Y027635D01*
X027757Y027737D01*
X027491Y027737D01*
X027244Y027635D01*
X027124Y027514D01*
X027004Y027635D01*
X026757Y027737D01*
X026491Y027737D01*
X026244Y027635D01*
X026056Y027446D01*
X025954Y027200D01*
X025954Y026933D01*
X026056Y026687D01*
X025954Y026999D02*
X024952Y026999D01*
X025298Y027317D02*
X026003Y027317D01*
X025800Y027636D02*
X026247Y027636D01*
X027001Y027636D02*
X027247Y027636D01*
X027609Y027954D02*
X050552Y027954D01*
X050552Y027636D02*
X045601Y027636D01*
X045604Y027635D02*
X045357Y027737D01*
X045091Y027737D01*
X044844Y027635D01*
X044724Y027514D01*
X044604Y027635D01*
X044357Y027737D01*
X044091Y027737D01*
X043844Y027635D01*
X043656Y027446D01*
X043554Y027200D01*
X043554Y026933D01*
X043656Y026687D01*
X043844Y026499D01*
X044091Y026397D01*
X044357Y026397D01*
X044604Y026499D01*
X044724Y026619D01*
X044844Y026499D01*
X045091Y026397D01*
X045357Y026397D01*
X045604Y026499D01*
X045792Y026687D01*
X045894Y026933D01*
X045894Y027200D01*
X045792Y027446D01*
X045604Y027635D01*
X045845Y027317D02*
X050552Y027317D01*
X050552Y026999D02*
X045894Y026999D01*
X045785Y026680D02*
X050552Y026680D01*
X050552Y026362D02*
X037605Y026362D01*
X037495Y026589D02*
X037495Y026589D01*
X037423Y026680D02*
X043663Y026680D01*
X043554Y026999D02*
X037169Y026999D01*
X036776Y027317D02*
X043603Y027317D01*
X043847Y027636D02*
X036032Y027636D01*
X036243Y027587D02*
X036243Y027587D01*
X036732Y027352D02*
X036732Y027352D01*
X035443Y027098D02*
X035443Y026929D01*
X034824Y026680D02*
X034785Y026680D01*
X034896Y027636D02*
X034601Y027636D01*
X033847Y027636D02*
X033601Y027636D01*
X032847Y027636D02*
X032601Y027636D01*
X031847Y027636D02*
X031601Y027636D01*
X030847Y027636D02*
X030601Y027636D01*
X029847Y027636D02*
X029601Y027636D01*
X028847Y027636D02*
X028001Y027636D01*
X028245Y027317D02*
X028603Y027317D01*
X028554Y026999D02*
X028294Y026999D01*
X028185Y026680D02*
X028663Y026680D01*
X027647Y028273D02*
X048165Y028273D01*
X048043Y028343D02*
X048306Y028191D01*
X048598Y028113D01*
X048901Y028113D01*
X049194Y028191D01*
X049456Y028343D01*
X049670Y028557D01*
X049822Y028819D01*
X049900Y029112D01*
X049900Y029415D01*
X049822Y029707D01*
X049670Y029970D01*
X049456Y030184D01*
X049293Y030278D01*
X050552Y030278D01*
X050552Y008467D01*
X050524Y008488D01*
X050445Y008528D01*
X050361Y008555D01*
X050274Y008569D01*
X050230Y008569D01*
X050186Y008569D01*
X050099Y008555D01*
X050015Y008528D01*
X049937Y008488D01*
X049865Y008436D01*
X049803Y008374D01*
X049751Y008302D01*
X049711Y008224D01*
X049684Y008140D01*
X049670Y008053D01*
X049670Y007709D01*
X050230Y007709D01*
X050230Y008569D01*
X050230Y007709D01*
X050230Y007709D01*
X050230Y007709D01*
X050285Y008496D01*
X050285Y019342D01*
X050285Y021901D01*
X050552Y021903D02*
X049888Y021903D01*
X049896Y021742D02*
X049896Y021742D01*
X049868Y021584D02*
X050552Y021584D01*
X050552Y021266D02*
X049820Y021266D01*
X049820Y020947D02*
X050552Y020947D01*
X050552Y020629D02*
X049820Y020629D01*
X049820Y020310D02*
X050552Y020310D01*
X050552Y019992D02*
X049820Y019992D01*
X049862Y019673D02*
X050552Y019673D01*
X050552Y019355D02*
X049778Y019355D01*
X049776Y019349D02*
X049776Y019349D01*
X049531Y019036D02*
X050552Y019036D01*
X050552Y018718D02*
X049009Y018718D01*
X049267Y018847D02*
X049267Y018847D01*
X049070Y018399D02*
X050552Y018399D01*
X050552Y018081D02*
X049070Y018081D01*
X049070Y018291D02*
X048553Y018291D01*
X049070Y018291D01*
X048919Y018291D02*
X048553Y018291D01*
X048553Y018291D01*
X048553Y017291D01*
X049070Y017291D01*
X048553Y017291D01*
X048553Y017291D01*
X048553Y017291D01*
X048553Y016291D01*
X049070Y016291D01*
X048553Y016291D01*
X048553Y016291D01*
X048553Y016291D01*
X047553Y016291D01*
X048070Y016291D01*
X048553Y016291D01*
X048553Y017291D01*
X048553Y017291D01*
X047553Y017291D01*
X048035Y017291D01*
X048553Y017291D01*
X048553Y018291D01*
X048553Y018291D01*
X047553Y018291D01*
X048070Y018291D01*
X048553Y018291D01*
X048553Y017808D01*
X048553Y017291D01*
X048553Y016773D01*
X048553Y016291D01*
X048553Y016291D01*
X047553Y016291D01*
X047553Y016291D01*
X047553Y016291D01*
X047553Y017291D01*
X047553Y017291D01*
X048553Y017291D01*
X048553Y017291D01*
X048553Y017444D02*
X048553Y017444D01*
X048553Y017762D02*
X048553Y017762D01*
X048553Y018081D02*
X048553Y018081D01*
X048553Y018291D02*
X047553Y018291D01*
X047553Y018291D01*
X047553Y018291D01*
X047553Y019291D01*
X047553Y019291D01*
X047553Y018291D01*
X047553Y017291D01*
X047553Y017291D01*
X047553Y017291D01*
X047553Y017773D01*
X047553Y018291D01*
X047553Y018291D01*
X047553Y018808D01*
X047553Y019291D01*
X047553Y019291D01*
X047035Y019291D01*
X047035Y019574D01*
X047045Y019624D01*
X047065Y019672D01*
X047093Y019714D01*
X047130Y019750D01*
X047154Y019767D01*
X047145Y019771D01*
X047121Y019771D01*
X047083Y019761D01*
X046950Y019698D01*
X046838Y019602D01*
X046822Y019580D01*
X046825Y019577D01*
X046871Y019467D01*
X046871Y018587D01*
X046825Y018477D01*
X046740Y018393D01*
X046630Y018347D01*
X045751Y018347D01*
X045641Y018393D01*
X045556Y018477D01*
X045511Y018587D01*
X045511Y019467D01*
X045556Y019577D01*
X045641Y019661D01*
X045722Y019695D01*
X045816Y019960D01*
X045816Y019960D01*
X046055Y020308D01*
X046055Y020308D01*
X046055Y020308D01*
X046109Y020354D01*
X045998Y020281D01*
X045724Y020007D01*
X045511Y019683D01*
X045368Y019323D01*
X045333Y019168D01*
X045333Y016731D01*
X045342Y016694D01*
X045333Y016628D01*
X045333Y016562D01*
X045318Y016527D01*
X045288Y016317D01*
X045288Y016317D01*
X045072Y015805D01*
X045072Y015805D01*
X044734Y015366D01*
X044734Y015366D01*
X044734Y015366D01*
X044294Y015027D01*
X043810Y014823D01*
X044733Y014823D01*
X044757Y014830D01*
X044836Y014823D01*
X044916Y014823D01*
X044925Y014819D01*
X044934Y014819D01*
X045080Y014844D01*
X045214Y014906D01*
X045328Y015001D01*
X045413Y015122D01*
X045464Y015261D01*
X045474Y015320D01*
X045473Y015388D01*
X045483Y015412D01*
X045485Y015437D01*
X045522Y015507D01*
X045552Y015580D01*
X045570Y015598D01*
X045581Y015620D01*
X045642Y015671D01*
X045760Y015790D01*
X045760Y015790D01*
X046104Y015967D01*
X046104Y015967D01*
X046485Y016029D01*
X046485Y016029D01*
X046866Y015970D01*
X046866Y015970D01*
X047118Y015843D01*
X047093Y015868D01*
X047065Y015910D01*
X047045Y015958D01*
X047035Y016008D01*
X047035Y016291D01*
X047553Y016291D01*
X047553Y015848D01*
X047553Y015848D01*
X047553Y016291D01*
X047553Y016291D01*
X047553Y016808D01*
X047553Y017291D01*
X047553Y017291D01*
X047035Y017291D01*
X047035Y017574D01*
X047045Y017624D01*
X047065Y017672D01*
X047093Y017714D01*
X047130Y017750D01*
X047172Y017779D01*
X047201Y017791D01*
X047172Y017803D01*
X047130Y017832D01*
X047093Y017868D01*
X047065Y017910D01*
X047045Y017958D01*
X047035Y018008D01*
X047035Y018291D01*
X047553Y018291D01*
X047553Y018291D01*
X047035Y018291D01*
X047035Y018574D01*
X047045Y018624D01*
X047065Y018672D01*
X047093Y018714D01*
X047130Y018750D01*
X047172Y018779D01*
X047201Y018791D01*
X047172Y018803D01*
X047130Y018832D01*
X047093Y018868D01*
X047065Y018910D01*
X047045Y018958D01*
X047035Y019008D01*
X047035Y019291D01*
X047553Y019291D01*
X047553Y019036D02*
X047553Y019036D01*
X047553Y018718D02*
X047553Y018718D01*
X047553Y018399D02*
X047553Y018399D01*
X047553Y018081D02*
X047553Y018081D01*
X047553Y017762D02*
X047553Y017762D01*
X047553Y017444D02*
X047553Y017444D01*
X047553Y017291D02*
X047035Y017291D01*
X047035Y017008D01*
X047045Y016958D01*
X047065Y016910D01*
X047093Y016868D01*
X047130Y016832D01*
X047172Y016803D01*
X047201Y016791D01*
X047172Y016779D01*
X047130Y016750D01*
X047093Y016714D01*
X047065Y016672D01*
X047045Y016624D01*
X047035Y016574D01*
X047035Y016291D01*
X047553Y016291D01*
X047553Y016291D01*
X047553Y016170D02*
X047553Y016170D01*
X047553Y016488D02*
X047553Y016488D01*
X047553Y016807D02*
X047553Y016807D01*
X047553Y017125D02*
X047553Y017125D01*
X047167Y016807D02*
X045333Y016807D01*
X045333Y017125D02*
X047035Y017125D01*
X047035Y017444D02*
X045333Y017444D01*
X045333Y017762D02*
X047147Y017762D01*
X047035Y018081D02*
X045333Y018081D01*
X045333Y018399D02*
X045634Y018399D01*
X045511Y018718D02*
X045333Y018718D01*
X045333Y019036D02*
X045511Y019036D01*
X045511Y019355D02*
X045381Y019355D01*
X045507Y019673D02*
X045669Y019673D01*
X045714Y019992D02*
X045837Y019992D01*
X046042Y020310D02*
X046058Y020310D01*
X047061Y020291D02*
X047553Y020291D01*
X047651Y021193D02*
X047710Y021191D01*
X047769Y021185D01*
X047827Y021176D01*
X047884Y021162D01*
X047941Y021145D01*
X047996Y021124D01*
X048050Y021100D01*
X048102Y021072D01*
X048152Y021041D01*
X048200Y021007D01*
X048246Y020969D01*
X048289Y020929D01*
X048329Y020886D01*
X048367Y020840D01*
X048401Y020792D01*
X048432Y020742D01*
X048460Y020690D01*
X048484Y020636D01*
X048505Y020581D01*
X048522Y020524D01*
X048536Y020467D01*
X048545Y020409D01*
X048551Y020350D01*
X048553Y020291D01*
X049340Y019684D02*
X049323Y019639D01*
X049302Y019594D01*
X049278Y019552D01*
X049250Y019512D01*
X049220Y019473D01*
X049186Y019438D01*
X049150Y019405D01*
X049112Y019375D01*
X049071Y019348D01*
X049028Y019325D01*
X048984Y019305D01*
X048938Y019288D01*
X048891Y019275D01*
X048843Y019266D01*
X048794Y019261D01*
X048745Y019259D01*
X048696Y019261D01*
X048648Y019267D01*
X048600Y019277D01*
X048553Y019291D01*
X047963Y023555D02*
X047832Y023550D01*
X047701Y023541D01*
X047571Y023528D01*
X047441Y023511D01*
X047312Y023491D01*
X047184Y023466D01*
X047056Y023438D01*
X046929Y023405D01*
X046803Y023369D01*
X046679Y023330D01*
X046555Y023286D01*
X046433Y023239D01*
X046313Y023188D01*
X046194Y023133D01*
X046077Y023075D01*
X045961Y023013D01*
X045848Y022948D01*
X045736Y022879D01*
X045627Y022807D01*
X045520Y022732D01*
X045415Y022654D01*
X045313Y022572D01*
X045213Y022488D01*
X045115Y022400D01*
X045021Y022310D01*
X044929Y022217D01*
X044840Y022121D01*
X044754Y022022D01*
X044671Y021921D01*
X044591Y021817D01*
X044514Y021711D01*
X044441Y021603D01*
X044371Y021493D01*
X044304Y021380D01*
X044240Y021266D01*
X044180Y021150D01*
X044124Y021031D01*
X044071Y020912D01*
X044022Y020790D01*
X043977Y020668D01*
X043935Y020544D01*
X043897Y020418D01*
X043863Y020292D01*
X043832Y020165D01*
X043806Y020037D01*
X043783Y019908D01*
X043765Y019778D01*
X043750Y019648D01*
X043739Y019518D01*
X043732Y019387D01*
X043729Y019256D01*
X043730Y019126D01*
X043533Y017078D01*
X044813Y016665D02*
X044800Y016589D01*
X044784Y016513D01*
X044764Y016439D01*
X044740Y016365D01*
X044713Y016292D01*
X044683Y016221D01*
X044649Y016151D01*
X044612Y016084D01*
X044571Y016017D01*
X044528Y015953D01*
X044482Y015891D01*
X044432Y015832D01*
X044380Y015774D01*
X044326Y015720D01*
X044268Y015668D01*
X044209Y015618D01*
X044147Y015572D01*
X044083Y015529D01*
X044016Y015488D01*
X043949Y015451D01*
X043879Y015417D01*
X043808Y015387D01*
X043735Y015360D01*
X043661Y015336D01*
X043587Y015316D01*
X043511Y015300D01*
X043435Y015287D01*
X040679Y015287D01*
X040502Y016271D02*
X042726Y016271D01*
X042607Y016807D02*
X040693Y016807D01*
X040678Y015287D02*
X040597Y015279D01*
X040515Y015275D01*
X040434Y015274D01*
X040352Y015277D01*
X040271Y015283D01*
X040189Y015293D01*
X040109Y015307D01*
X040029Y015324D01*
X039950Y015345D01*
X039872Y015369D01*
X039795Y015397D01*
X039719Y015428D01*
X039645Y015462D01*
X039572Y015500D01*
X039502Y015540D01*
X039433Y015584D01*
X039366Y015631D01*
X039301Y015681D01*
X038513Y014303D02*
X038447Y014305D01*
X038381Y014310D01*
X038315Y014320D01*
X038250Y014333D01*
X038186Y014349D01*
X038123Y014369D01*
X038061Y014393D01*
X038001Y014420D01*
X037942Y014450D01*
X037885Y014484D01*
X037830Y014521D01*
X037777Y014561D01*
X037726Y014603D01*
X037678Y014649D01*
X037632Y014697D01*
X037590Y014748D01*
X037550Y014801D01*
X037513Y014856D01*
X037479Y014913D01*
X037449Y014972D01*
X037422Y015032D01*
X037398Y015094D01*
X037378Y015157D01*
X037362Y015221D01*
X037349Y015286D01*
X037339Y015352D01*
X037334Y015418D01*
X037332Y015484D01*
X037332Y015878D01*
X035757Y015090D02*
X035757Y014696D01*
X035237Y014577D02*
X033719Y014577D01*
X033753Y014259D02*
X035288Y014259D01*
X035367Y013964D02*
X035367Y013964D01*
X035381Y013940D02*
X033741Y013940D01*
X033662Y013622D02*
X035564Y013622D01*
X035617Y013531D02*
X035617Y013531D01*
X035845Y013303D02*
X033450Y013303D01*
X033986Y012727D02*
X034039Y012743D01*
X034091Y012761D01*
X034142Y012784D01*
X034191Y012810D01*
X034238Y012839D01*
X034283Y012871D01*
X034326Y012906D01*
X034367Y012944D01*
X034404Y012985D01*
X034439Y013028D01*
X034471Y013074D01*
X034499Y013121D01*
X034524Y013171D01*
X034546Y013222D01*
X034564Y013274D01*
X034579Y013327D01*
X034590Y013382D01*
X034597Y013437D01*
X034601Y013492D01*
X034600Y013548D01*
X034596Y013603D01*
X034588Y013658D01*
X034577Y013712D01*
X034576Y013712D02*
X034576Y015484D01*
X037332Y015878D02*
X037330Y015973D01*
X037324Y016068D01*
X037315Y016163D01*
X037301Y016257D01*
X037284Y016350D01*
X037263Y016443D01*
X037239Y016535D01*
X037210Y016626D01*
X037179Y016716D01*
X037143Y016804D01*
X037104Y016891D01*
X037061Y016976D01*
X037016Y017059D01*
X036966Y017140D01*
X036914Y017220D01*
X036858Y017297D01*
X036800Y017372D01*
X036738Y017444D01*
X036673Y017514D01*
X036606Y017581D01*
X036536Y017646D01*
X036464Y017708D01*
X036389Y017766D01*
X036312Y017822D01*
X036232Y017874D01*
X036151Y017924D01*
X036068Y017969D01*
X035983Y018012D01*
X035896Y018051D01*
X035808Y018087D01*
X035718Y018118D01*
X035627Y018147D01*
X035535Y018171D01*
X035442Y018192D01*
X035349Y018209D01*
X035255Y018223D01*
X035160Y018232D01*
X035065Y018238D01*
X034970Y018240D01*
X034970Y018239D02*
X034931Y018241D01*
X034893Y018247D01*
X034856Y018256D01*
X034819Y018269D01*
X034784Y018286D01*
X034751Y018305D01*
X034720Y018328D01*
X034691Y018354D01*
X034665Y018383D01*
X034642Y018414D01*
X034623Y018447D01*
X034606Y018482D01*
X034593Y018519D01*
X034584Y018556D01*
X034578Y018594D01*
X034576Y018633D01*
X034576Y019027D01*
X034577Y019027D02*
X034575Y019072D01*
X034570Y019116D01*
X034561Y019160D01*
X034549Y019203D01*
X034534Y019246D01*
X034515Y019286D01*
X034493Y019325D01*
X034468Y019363D01*
X034440Y019398D01*
X034410Y019431D01*
X034377Y019461D01*
X034342Y019489D01*
X034304Y019514D01*
X034265Y019536D01*
X034225Y019555D01*
X034182Y019570D01*
X034139Y019582D01*
X034095Y019591D01*
X034051Y019596D01*
X034006Y019598D01*
X032608Y019598D01*
X032572Y019596D01*
X032536Y019591D01*
X032501Y019582D01*
X032467Y019570D01*
X032434Y019554D01*
X032403Y019536D01*
X032374Y019514D01*
X032347Y019490D01*
X032323Y019463D01*
X032301Y019434D01*
X032283Y019403D01*
X032267Y019370D01*
X032255Y019336D01*
X032246Y019301D01*
X032241Y019265D01*
X032239Y019229D01*
X032239Y018598D01*
X031715Y018996D02*
X031719Y019006D01*
X031719Y019370D01*
X031806Y019638D01*
X031806Y019638D01*
X031971Y019865D01*
X031971Y019865D01*
X031971Y019865D01*
X032199Y020031D01*
X032199Y020031D01*
X032316Y020069D01*
X032312Y020069D01*
X031729Y019963D01*
X031175Y019756D01*
X030666Y019454D01*
X030323Y019156D01*
X030556Y019156D01*
X030666Y019110D01*
X030751Y019026D01*
X030763Y018996D01*
X030779Y019021D01*
X030816Y019058D01*
X030858Y019086D01*
X030906Y019106D01*
X030956Y019116D01*
X031239Y019116D01*
X031239Y018598D01*
X031239Y018598D01*
X031239Y019116D01*
X031522Y019116D01*
X031572Y019106D01*
X031620Y019086D01*
X031662Y019058D01*
X031698Y019021D01*
X031715Y018996D01*
X031719Y019036D02*
X031684Y019036D01*
X031719Y019355D02*
X030552Y019355D01*
X030740Y019036D02*
X030794Y019036D01*
X031239Y019036D02*
X031239Y019036D01*
X031239Y018718D02*
X031239Y018718D01*
X032652Y018081D02*
X032719Y018081D01*
X032716Y017762D02*
X030759Y017762D01*
X030759Y017444D02*
X032822Y017444D01*
X033088Y017125D02*
X030759Y017125D01*
X030759Y016807D02*
X030909Y016807D01*
X030759Y016488D02*
X030759Y016488D01*
X031616Y015421D02*
X032277Y015421D01*
X032663Y015851D02*
X035201Y015851D01*
X035256Y015533D02*
X033157Y015533D01*
X033036Y015648D02*
X033036Y015648D01*
X033036Y015648D01*
X033442Y015214D02*
X035246Y015214D01*
X035237Y014896D02*
X033626Y014896D01*
X037136Y020405D02*
X036988Y020499D01*
X036838Y020588D01*
X036686Y020674D01*
X036531Y020757D01*
X036375Y020835D01*
X036217Y020910D01*
X036057Y020981D01*
X035896Y021048D01*
X035733Y021111D01*
X035568Y021169D01*
X035402Y021224D01*
X035235Y021275D01*
X035066Y021322D01*
X034897Y021364D01*
X034726Y021403D01*
X034554Y021437D01*
X034382Y021467D01*
X034209Y021493D01*
X034036Y021515D01*
X033862Y021532D01*
X033687Y021545D01*
X033513Y021554D01*
X033338Y021558D01*
X033163Y021559D01*
X032988Y021555D01*
X032814Y021546D01*
X032639Y021534D01*
X032465Y021517D01*
X032292Y021496D01*
X032119Y021471D01*
X031946Y021441D01*
X031775Y021408D01*
X031604Y021370D01*
X032608Y020602D02*
X033789Y020602D01*
X032145Y019992D02*
X031885Y019992D01*
X031832Y019673D02*
X031035Y019673D01*
X033239Y018598D02*
X033239Y017806D01*
X033240Y017806D02*
X033250Y017767D01*
X033264Y017729D01*
X033280Y017692D01*
X033300Y017657D01*
X033323Y017624D01*
X033349Y017593D01*
X033378Y017565D01*
X033408Y017538D01*
X033441Y017515D01*
X033476Y017495D01*
X033513Y017478D01*
X033550Y017464D01*
X033589Y017453D01*
X033629Y017446D01*
X033669Y017443D01*
X033709Y017442D01*
X033750Y017446D01*
X033789Y017453D01*
X033832Y016929D02*
X033947Y016922D01*
X034263Y016850D01*
X033832Y016929D02*
X033748Y016911D01*
X031604Y021370D02*
X031474Y021338D01*
X031345Y021302D01*
X031216Y021263D01*
X031089Y021220D01*
X030964Y021173D01*
X030839Y021123D01*
X030716Y021069D01*
X030595Y021012D01*
X030475Y020952D01*
X030357Y020888D01*
X030241Y020821D01*
X030127Y020751D01*
X030014Y020678D01*
X029904Y020601D01*
X029796Y020521D01*
X029691Y020439D01*
X029587Y020353D01*
X029487Y020265D01*
X029388Y020174D01*
X029293Y020080D01*
X029199Y019983D01*
X029109Y019884D01*
X029022Y019782D01*
X028937Y019678D01*
X028855Y019572D01*
X028777Y019463D01*
X028701Y019352D01*
X028629Y019240D01*
X028560Y019125D01*
X028494Y019008D01*
X028494Y019007D02*
X028239Y018598D01*
X026576Y018718D02*
X024366Y018718D01*
X024273Y018791D02*
X024273Y018791D01*
X023776Y019031D02*
X023776Y019031D01*
X023753Y019036D02*
X026576Y019036D01*
X026576Y019355D02*
X007973Y019355D01*
X007973Y019673D02*
X026576Y019673D01*
X026544Y019992D02*
X007973Y019992D01*
X007973Y020310D02*
X026500Y020310D01*
X026487Y020425D02*
X026487Y020425D01*
X026516Y020629D02*
X007973Y020629D01*
X007973Y020947D02*
X013976Y020947D01*
X013767Y021266D02*
X011065Y021266D01*
X011005Y021231D02*
X011267Y021382D01*
X011481Y021596D01*
X011633Y021859D01*
X011711Y022151D01*
X011711Y022454D01*
X011633Y022747D01*
X011481Y023009D01*
X011267Y023223D01*
X011005Y023375D01*
X010712Y023453D01*
X010409Y023453D01*
X010117Y023375D01*
X009854Y023223D01*
X009640Y023009D01*
X009488Y022747D01*
X009410Y022454D01*
X009410Y022151D01*
X009488Y021859D01*
X009640Y021596D01*
X009854Y021382D01*
X010117Y021231D01*
X010409Y021152D01*
X010712Y021152D01*
X011005Y021231D01*
X011469Y021584D02*
X013767Y021584D01*
X013806Y021903D02*
X011645Y021903D01*
X011711Y022221D02*
X025089Y022221D01*
X025237Y022540D02*
X011688Y022540D01*
X011569Y022858D02*
X025384Y022858D01*
X025532Y023177D02*
X011314Y023177D01*
X011352Y023370D02*
X012131Y023370D01*
X012242Y023415D01*
X012326Y023500D01*
X012372Y023610D01*
X012372Y024389D01*
X012326Y024499D01*
X012364Y024691D01*
X012543Y025122D01*
X012802Y025510D01*
X013132Y025841D01*
X013521Y026100D01*
X013952Y026279D01*
X014410Y026370D01*
X014643Y026381D01*
X019761Y026381D01*
X019919Y026372D01*
X020227Y026302D01*
X020511Y026165D01*
X020758Y025968D01*
X020847Y025857D01*
X020810Y025872D01*
X020571Y025872D01*
X020351Y025781D01*
X020182Y025612D01*
X020152Y025539D01*
X017062Y025798D01*
X017050Y025826D01*
X016966Y025911D01*
X016856Y025956D01*
X016076Y025956D01*
X015966Y025911D01*
X015882Y025826D01*
X015836Y025716D01*
X015836Y024937D01*
X015882Y024826D01*
X015966Y024742D01*
X016076Y024696D01*
X016856Y024696D01*
X016966Y024742D01*
X016985Y024761D01*
X020113Y024499D01*
X020182Y024332D01*
X020351Y024163D01*
X020571Y024072D01*
X020810Y024072D01*
X021030Y024163D01*
X021191Y024324D01*
X021351Y024163D01*
X021571Y024072D01*
X021810Y024072D01*
X022030Y024163D01*
X022199Y024332D01*
X022216Y024373D01*
X022263Y024307D01*
X022326Y024245D01*
X022397Y024193D01*
X022476Y024153D01*
X022559Y024126D01*
X022646Y024112D01*
X022691Y024112D01*
X022691Y024972D01*
X022691Y024972D01*
X022691Y024972D01*
X022691Y025832D01*
X022646Y025832D01*
X022559Y025818D01*
X022476Y025791D01*
X022397Y025751D01*
X022326Y025699D01*
X022263Y025637D01*
X022216Y025572D01*
X022199Y025612D01*
X022106Y025705D01*
X022088Y025786D01*
X022088Y025786D01*
X021848Y026283D01*
X021848Y026283D01*
X021504Y026715D01*
X021073Y027059D01*
X021073Y027059D01*
X020575Y027298D01*
X020037Y027421D01*
X014306Y027421D01*
X013645Y027290D01*
X013023Y027032D01*
X012462Y026657D01*
X011986Y026181D01*
X011611Y025620D01*
X011353Y024998D01*
X011353Y024998D01*
X011274Y024597D01*
X011242Y024584D01*
X011157Y024500D01*
X011112Y024389D01*
X011112Y023610D01*
X011157Y023500D01*
X011242Y023415D01*
X011352Y023370D01*
X011162Y023495D02*
X007973Y023495D01*
X007973Y023177D02*
X009807Y023177D01*
X009553Y022858D02*
X007973Y022858D01*
X007973Y022540D02*
X009433Y022540D01*
X009410Y022221D02*
X007973Y022221D01*
X007973Y021903D02*
X009477Y021903D01*
X009652Y021584D02*
X007973Y021584D01*
X007973Y021266D02*
X010056Y021266D01*
X012923Y022964D02*
X012923Y009567D01*
X013120Y009567D01*
X013120Y009567D01*
X013120Y010127D01*
X013464Y010127D01*
X013551Y010113D01*
X013635Y010086D01*
X013713Y010045D01*
X013784Y009994D01*
X013847Y009931D01*
X013899Y009860D01*
X013939Y009781D01*
X013966Y009698D01*
X013980Y009611D01*
X013980Y009567D01*
X013120Y009567D01*
X013120Y009567D01*
X013120Y010127D01*
X012776Y010127D01*
X012689Y010113D01*
X012605Y010086D01*
X012526Y010045D01*
X012455Y009994D01*
X012393Y009931D01*
X012341Y009860D01*
X012301Y009781D01*
X012273Y009698D01*
X012260Y009611D01*
X012260Y009567D01*
X013120Y009567D01*
X013980Y009567D01*
X013980Y009522D01*
X013966Y009435D01*
X013939Y009352D01*
X013899Y009273D01*
X013847Y009202D01*
X013784Y009139D01*
X013719Y009092D01*
X013760Y009075D01*
X013928Y008906D01*
X014020Y008686D01*
X014020Y008447D01*
X013928Y008227D01*
X013768Y008067D01*
X013928Y007906D01*
X014020Y007686D01*
X014020Y007447D01*
X013928Y007227D01*
X013768Y007067D01*
X013928Y006906D01*
X014020Y006686D01*
X014020Y006447D01*
X013928Y006227D01*
X013760Y006058D01*
X013539Y005967D01*
X012700Y005967D01*
X012480Y006058D01*
X012311Y006227D01*
X012220Y006447D01*
X012220Y006686D01*
X012311Y006906D01*
X012471Y007067D01*
X012311Y007227D01*
X012220Y007447D01*
X012220Y007686D01*
X012311Y007906D01*
X012471Y008067D01*
X012311Y008227D01*
X012220Y008447D01*
X012220Y008686D01*
X012311Y008906D01*
X012480Y009075D01*
X012520Y009092D01*
X012455Y009139D01*
X012393Y009202D01*
X012341Y009273D01*
X012301Y009352D01*
X012273Y009435D01*
X012260Y009522D01*
X012260Y009567D01*
X013120Y009567D01*
X013120Y009567D01*
X013120Y009800D02*
X013120Y009800D01*
X013120Y010118D02*
X013120Y010118D01*
X013517Y010118D02*
X029545Y010118D01*
X029524Y010437D02*
X027203Y010437D01*
X027506Y010651D02*
X027506Y010651D01*
X027506Y010651D01*
X027593Y010755D02*
X029529Y010755D01*
X029529Y011074D02*
X027822Y011074D01*
X027777Y010976D02*
X027777Y010976D01*
X027955Y011360D02*
X027955Y011360D01*
X027960Y011392D02*
X029539Y011392D01*
X029643Y011711D02*
X028015Y011711D01*
X028027Y011777D02*
X028027Y011777D01*
X028004Y012029D02*
X029857Y012029D01*
X029900Y012089D02*
X029900Y012089D01*
X029655Y012729D02*
X029596Y012715D01*
X029538Y012698D01*
X029481Y012677D01*
X029425Y012653D01*
X029371Y012625D01*
X029319Y012595D01*
X029268Y012561D01*
X029220Y012524D01*
X029174Y012485D01*
X029131Y012442D01*
X029090Y012398D01*
X029052Y012350D01*
X029017Y012301D01*
X028985Y012249D01*
X028956Y012196D01*
X028930Y012141D01*
X028908Y012085D01*
X028889Y012027D01*
X028873Y011968D01*
X028862Y011909D01*
X028853Y011849D01*
X028849Y011788D01*
X028848Y011728D01*
X028851Y011667D01*
X028857Y011607D01*
X028867Y011547D01*
X028868Y011547D02*
X028868Y009618D01*
X028868Y009617D02*
X028836Y009584D01*
X028801Y009553D01*
X028764Y009524D01*
X028724Y009499D01*
X028683Y009477D01*
X028641Y009458D01*
X028597Y009443D01*
X028551Y009431D01*
X028506Y009423D01*
X028459Y009418D01*
X028413Y009417D01*
X028366Y009420D01*
X028320Y009426D01*
X028274Y009436D01*
X028230Y009449D01*
X028186Y009466D01*
X028144Y009487D01*
X028104Y009510D01*
X028065Y009537D01*
X028029Y009566D01*
X027735Y008526D02*
X027656Y008526D01*
X027224Y008526D02*
X027224Y008526D01*
X027224Y008207D02*
X027224Y008207D01*
X027224Y008067D02*
X027224Y008067D01*
X027224Y007889D02*
X027224Y007889D01*
X027224Y007570D02*
X027224Y007570D01*
X026836Y007570D02*
X026675Y007570D01*
X025773Y007570D02*
X025675Y007570D01*
X024773Y007570D02*
X024675Y007570D01*
X023773Y007570D02*
X014020Y007570D01*
X013939Y007252D02*
X029726Y007252D01*
X030245Y007216D02*
X030243Y007162D01*
X030238Y007109D01*
X030229Y007056D01*
X030216Y007004D01*
X030200Y006952D01*
X030180Y006902D01*
X030157Y006854D01*
X030130Y006807D01*
X030101Y006762D01*
X030068Y006719D01*
X030033Y006679D01*
X029995Y006641D01*
X029955Y006606D01*
X029912Y006573D01*
X029867Y006544D01*
X029820Y006517D01*
X029772Y006494D01*
X029722Y006474D01*
X029670Y006458D01*
X029618Y006445D01*
X029565Y006436D01*
X029512Y006431D01*
X029458Y006429D01*
X025915Y006429D01*
X025285Y006296D02*
X013957Y006296D01*
X014020Y006615D02*
X025285Y006615D01*
X025335Y006933D02*
X013902Y006933D01*
X013566Y005978D02*
X025310Y005978D01*
X027612Y007570D02*
X027773Y007570D01*
X028675Y007570D02*
X028773Y007570D01*
X029675Y007570D02*
X029726Y007570D01*
X030246Y007610D02*
X030246Y007216D01*
X030246Y007610D02*
X030049Y010366D01*
X030049Y011153D01*
X030569Y011074D02*
X030732Y011074D01*
X030049Y011153D02*
X030051Y011207D01*
X030056Y011260D01*
X030065Y011313D01*
X030078Y011365D01*
X030094Y011417D01*
X030114Y011467D01*
X030137Y011515D01*
X030164Y011562D01*
X030193Y011607D01*
X030226Y011650D01*
X030261Y011690D01*
X030299Y011728D01*
X030339Y011763D01*
X030382Y011796D01*
X030427Y011825D01*
X030474Y011852D01*
X030522Y011875D01*
X030572Y011895D01*
X030624Y011911D01*
X030676Y011924D01*
X030729Y011933D01*
X030782Y011938D01*
X030836Y011940D01*
X030836Y011941D02*
X040679Y011941D01*
X041184Y011392D02*
X030717Y011392D01*
X030624Y010755D02*
X030569Y010755D01*
X030569Y010437D02*
X030584Y010437D01*
X031224Y010417D02*
X032224Y010417D01*
X033224Y010417D02*
X034224Y010417D01*
X033732Y011074D02*
X033716Y011074D01*
X032732Y011074D02*
X032716Y011074D01*
X031732Y011074D02*
X031716Y011074D01*
X030281Y012348D02*
X027986Y012348D01*
X028111Y012666D02*
X046025Y012666D01*
X046584Y012531D02*
X046582Y012585D01*
X046577Y012638D01*
X046568Y012691D01*
X046555Y012743D01*
X046539Y012795D01*
X046519Y012845D01*
X046496Y012893D01*
X046469Y012940D01*
X046440Y012985D01*
X046407Y013028D01*
X046372Y013068D01*
X046334Y013106D01*
X046294Y013141D01*
X046251Y013174D01*
X046206Y013203D01*
X046159Y013230D01*
X046111Y013253D01*
X046061Y013273D01*
X046009Y013289D01*
X045957Y013302D01*
X045904Y013311D01*
X045851Y013316D01*
X045797Y013318D01*
X045797Y013319D02*
X037135Y013319D01*
X036403Y012928D02*
X036403Y012928D01*
X036305Y012985D02*
X032757Y012985D01*
X032665Y012974D02*
X032665Y012974D01*
X032610Y012985D02*
X028511Y012985D01*
X028474Y013515D02*
X032608Y013515D01*
X039301Y015681D02*
X039248Y015845D01*
X039192Y016008D01*
X039131Y016170D01*
X039067Y016330D01*
X038999Y016489D01*
X038927Y016646D01*
X038851Y016801D01*
X038771Y016954D01*
X038688Y017105D01*
X038601Y017254D01*
X038511Y017401D01*
X038417Y017546D01*
X038319Y017688D01*
X038219Y017829D01*
X038114Y017966D01*
X038007Y018101D01*
X037896Y018234D01*
X037782Y018363D01*
X037665Y018490D01*
X037545Y018614D01*
X037422Y018735D01*
X037296Y018853D01*
X037167Y018968D01*
X037036Y019080D01*
X036902Y019189D01*
X036765Y019294D01*
X036626Y019396D01*
X036484Y019494D01*
X036340Y019590D01*
X036194Y019681D01*
X036045Y019769D01*
X035895Y019854D01*
X035742Y019934D01*
X035588Y020011D01*
X035431Y020085D01*
X035273Y020154D01*
X035114Y020220D01*
X034952Y020281D01*
X034790Y020339D01*
X034626Y020393D01*
X034461Y020443D01*
X034294Y020489D01*
X034127Y020531D01*
X033958Y020569D01*
X033789Y020602D01*
X035988Y021584D02*
X038788Y021584D01*
X038952Y021266D02*
X036683Y021266D01*
X036985Y021123D02*
X036985Y021123D01*
X037256Y020947D02*
X039134Y020947D01*
X039325Y020629D02*
X037705Y020629D01*
X037810Y020550D02*
X037810Y020550D01*
X038067Y020310D02*
X039516Y020310D01*
X039707Y019992D02*
X038409Y019992D01*
X038474Y019931D02*
X038474Y019931D01*
X038695Y019673D02*
X039920Y019673D01*
X040140Y019355D02*
X038969Y019355D01*
X039207Y019036D02*
X040361Y019036D01*
X040582Y018718D02*
X039426Y018718D01*
X039579Y018494D02*
X039579Y018494D01*
X039630Y018399D02*
X040832Y018399D01*
X040836Y018081D02*
X039800Y018081D01*
X039971Y017762D02*
X043076Y017762D01*
X043046Y017444D02*
X040108Y017444D01*
X040368Y017125D02*
X042939Y017125D01*
X042450Y017846D02*
X042450Y019460D01*
X041930Y019036D02*
X043199Y019036D01*
X043205Y019355D02*
X041420Y019355D01*
X041199Y019673D02*
X043221Y019673D01*
X043200Y019538D02*
X043200Y019538D01*
X043270Y019992D02*
X042086Y019992D01*
X042096Y020310D02*
X043319Y020310D01*
X043329Y020377D02*
X043329Y020377D01*
X043414Y020629D02*
X042096Y020629D01*
X042008Y020947D02*
X043522Y020947D01*
X043601Y021181D02*
X043601Y021181D01*
X043647Y021266D02*
X041568Y021266D01*
X041394Y021584D02*
X043821Y021584D01*
X043996Y021903D02*
X041227Y021903D01*
X041060Y022221D02*
X044245Y022221D01*
X044009Y021926D02*
X044009Y021926D01*
X044500Y022540D02*
X040894Y022540D01*
X040727Y022858D02*
X044846Y022858D01*
X044539Y022589D02*
X044539Y022589D01*
X044539Y022589D01*
X045177Y023149D02*
X045177Y023149D01*
X045222Y023177D02*
X040582Y023177D01*
X040438Y023495D02*
X045746Y023495D01*
X046475Y023814D02*
X040295Y023814D01*
X040151Y024132D02*
X050552Y024132D01*
X050552Y023814D02*
X048781Y023814D01*
X049203Y023495D02*
X050552Y023495D01*
X050552Y023177D02*
X049484Y023177D01*
X049662Y022858D02*
X050552Y022858D01*
X050552Y022540D02*
X049787Y022540D01*
X049735Y022723D02*
X049735Y022723D01*
X049871Y022242D02*
X049871Y022242D01*
X049872Y022221D02*
X050552Y022221D01*
X049340Y021586D02*
X049352Y021666D01*
X049361Y021746D01*
X049365Y021827D01*
X049366Y021908D01*
X049363Y021989D01*
X049356Y022069D01*
X049345Y022149D01*
X049330Y022229D01*
X049312Y022307D01*
X049289Y022385D01*
X049264Y022462D01*
X049234Y022537D01*
X049201Y022611D01*
X049165Y022683D01*
X049125Y022754D01*
X049082Y022822D01*
X049035Y022888D01*
X048986Y022952D01*
X048933Y023014D01*
X048878Y023073D01*
X048820Y023129D01*
X048759Y023182D01*
X048696Y023233D01*
X048631Y023280D01*
X048563Y023325D01*
X048493Y023366D01*
X048422Y023403D01*
X048348Y023437D01*
X048274Y023468D01*
X048197Y023495D01*
X048120Y023519D01*
X048042Y023538D01*
X047962Y023554D01*
X047883Y024893D02*
X047984Y024880D01*
X048084Y024863D01*
X048183Y024843D01*
X048282Y024819D01*
X048380Y024791D01*
X048476Y024760D01*
X048571Y024725D01*
X048665Y024686D01*
X048757Y024644D01*
X048848Y024599D01*
X048937Y024550D01*
X049024Y024498D01*
X049109Y024442D01*
X049192Y024384D01*
X049273Y024322D01*
X049351Y024258D01*
X049427Y024191D01*
X049500Y024120D01*
X049571Y024048D01*
X049639Y023972D01*
X049704Y023894D01*
X049766Y023814D01*
X049825Y023731D01*
X049881Y023647D01*
X049933Y023560D01*
X049983Y023471D01*
X050029Y023381D01*
X050071Y023289D01*
X050110Y023195D01*
X050146Y023100D01*
X050178Y023004D01*
X050206Y022906D01*
X050231Y022808D01*
X050252Y022709D01*
X050269Y022609D01*
X050283Y022508D01*
X050293Y022407D01*
X050299Y022306D01*
X050301Y022205D01*
X050299Y022103D01*
X050294Y022002D01*
X050285Y021901D01*
X047651Y021193D02*
X046781Y021193D01*
X046921Y019673D02*
X047066Y019673D01*
X047035Y019355D02*
X046871Y019355D01*
X046871Y019036D02*
X047035Y019036D01*
X046782Y021193D02*
X046688Y021175D01*
X046595Y021153D01*
X046503Y021127D01*
X046412Y021097D01*
X046322Y021064D01*
X046233Y021028D01*
X046146Y020988D01*
X046061Y020945D01*
X045978Y020898D01*
X045896Y020848D01*
X045817Y020795D01*
X045739Y020739D01*
X045664Y020680D01*
X045591Y020618D01*
X045521Y020553D01*
X045453Y020485D01*
X045388Y020415D01*
X045326Y020342D01*
X045267Y020267D01*
X045211Y020189D01*
X045158Y020110D01*
X045108Y020028D01*
X045061Y019945D01*
X045018Y019860D01*
X044978Y019773D01*
X044942Y019684D01*
X044909Y019594D01*
X044879Y019503D01*
X044853Y019411D01*
X044831Y019318D01*
X044813Y019224D01*
X044813Y016665D01*
X045313Y016488D02*
X047035Y016488D01*
X047035Y016170D02*
X045226Y016170D01*
X045092Y015851D02*
X045879Y015851D01*
X045532Y015533D02*
X044862Y015533D01*
X045994Y015287D02*
X045986Y015224D01*
X045975Y015162D01*
X045960Y015100D01*
X045942Y015040D01*
X045920Y014980D01*
X045895Y014922D01*
X045866Y014866D01*
X045834Y014811D01*
X045799Y014759D01*
X045761Y014708D01*
X045721Y014660D01*
X045677Y014614D01*
X045631Y014571D01*
X045582Y014530D01*
X045531Y014492D01*
X045479Y014458D01*
X045424Y014426D01*
X045367Y014398D01*
X045309Y014373D01*
X045249Y014352D01*
X045189Y014334D01*
X045127Y014320D01*
X045065Y014309D01*
X045002Y014302D01*
X044939Y014298D01*
X044876Y014299D01*
X044813Y014302D01*
X044813Y014303D02*
X038513Y014303D01*
X037135Y013318D02*
X037063Y013320D01*
X036991Y013326D01*
X036919Y013335D01*
X036848Y013348D01*
X036778Y013365D01*
X036709Y013385D01*
X036641Y013410D01*
X036575Y013437D01*
X036509Y013468D01*
X036446Y013503D01*
X036384Y013540D01*
X036325Y013581D01*
X036268Y013625D01*
X036213Y013672D01*
X036161Y013722D01*
X036111Y013774D01*
X036064Y013829D01*
X036020Y013886D01*
X035979Y013945D01*
X035942Y014007D01*
X035907Y014070D01*
X035876Y014136D01*
X035849Y014202D01*
X035824Y014270D01*
X035804Y014339D01*
X035787Y014409D01*
X035774Y014480D01*
X035765Y014552D01*
X035759Y014624D01*
X035757Y014696D01*
X035068Y016170D02*
X032416Y016170D01*
X032472Y016488D02*
X034832Y016488D01*
X033789Y017452D02*
X033877Y017449D01*
X033964Y017443D01*
X034051Y017433D01*
X034137Y017419D01*
X034223Y017401D01*
X034307Y017380D01*
X034391Y017355D01*
X034474Y017326D01*
X034555Y017294D01*
X034635Y017259D01*
X034713Y017220D01*
X034790Y017177D01*
X034864Y017131D01*
X034937Y017082D01*
X035007Y017030D01*
X035075Y016975D01*
X035141Y016917D01*
X035204Y016857D01*
X035264Y016793D01*
X035321Y016727D01*
X035376Y016659D01*
X035427Y016588D01*
X035476Y016515D01*
X035521Y016441D01*
X035563Y016364D01*
X035601Y016285D01*
X035636Y016205D01*
X035668Y016124D01*
X035696Y016041D01*
X035720Y015957D01*
X035741Y015872D01*
X035758Y015786D01*
X035771Y015699D01*
X035780Y015613D01*
X035786Y015525D01*
X035788Y015438D01*
X035786Y015350D01*
X035780Y015263D01*
X035771Y015176D01*
X035758Y015090D01*
X034576Y015484D02*
X034574Y015543D01*
X034569Y015601D01*
X034559Y015660D01*
X034547Y015717D01*
X034530Y015774D01*
X034510Y015829D01*
X034487Y015883D01*
X034460Y015935D01*
X034430Y015986D01*
X034397Y016035D01*
X034361Y016081D01*
X034322Y016125D01*
X034280Y016167D01*
X034236Y016206D01*
X034190Y016242D01*
X034141Y016275D01*
X034090Y016305D01*
X034038Y016332D01*
X033984Y016355D01*
X033929Y016375D01*
X033872Y016392D01*
X033815Y016404D01*
X033756Y016414D01*
X033698Y016419D01*
X033639Y016421D01*
X032608Y020602D02*
X032487Y020600D01*
X032366Y020594D01*
X032245Y020585D01*
X032125Y020571D01*
X032005Y020554D01*
X031886Y020533D01*
X031768Y020509D01*
X031650Y020480D01*
X031533Y020448D01*
X031418Y020413D01*
X031303Y020373D01*
X031190Y020330D01*
X031079Y020284D01*
X030968Y020234D01*
X030860Y020180D01*
X030753Y020123D01*
X030648Y020063D01*
X030545Y020000D01*
X030444Y019933D01*
X030345Y019863D01*
X030249Y019790D01*
X030155Y019714D01*
X030063Y019635D01*
X029974Y019554D01*
X029887Y019469D01*
X029803Y019382D01*
X029722Y019292D01*
X029644Y019200D01*
X029569Y019105D01*
X029496Y019008D01*
X029427Y018908D01*
X029361Y018807D01*
X029298Y018704D01*
X029239Y018598D01*
X027096Y020011D02*
X027096Y017059D01*
X027096Y014893D01*
X027097Y014893D02*
X027099Y014852D01*
X027104Y014811D01*
X027113Y014771D01*
X027125Y014732D01*
X027141Y014694D01*
X027160Y014657D01*
X027182Y014622D01*
X027207Y014590D01*
X027235Y014559D01*
X027266Y014531D01*
X027298Y014506D01*
X027333Y014484D01*
X027370Y014465D01*
X027408Y014449D01*
X027447Y014437D01*
X027487Y014428D01*
X027528Y014423D01*
X027569Y014421D01*
X026734Y014027D01*
X027093Y013622D02*
X027567Y013622D01*
X027696Y013741D02*
X027696Y013741D01*
X027343Y013412D02*
X027343Y013412D01*
X027275Y013303D02*
X026715Y013303D01*
X026618Y012985D02*
X027081Y012985D01*
X026242Y012354D02*
X026210Y012415D01*
X026182Y012478D01*
X026158Y012543D01*
X026137Y012609D01*
X026120Y012676D01*
X026107Y012744D01*
X026098Y012813D01*
X026093Y012882D01*
X026091Y012951D01*
X026093Y013020D01*
X026100Y013089D01*
X026110Y013157D01*
X026123Y013225D01*
X026141Y013292D01*
X026162Y013358D01*
X026187Y013422D01*
X026216Y013485D01*
X026248Y013546D01*
X026284Y013606D01*
X026322Y013663D01*
X026364Y013718D01*
X026409Y013771D01*
X026457Y013821D01*
X026508Y013868D01*
X026561Y013912D01*
X026616Y013954D01*
X026674Y013992D01*
X026734Y014026D01*
X026628Y014577D02*
X025411Y014577D01*
X025411Y014259D02*
X026162Y014259D01*
X026282Y014373D02*
X026282Y014373D01*
X026576Y014896D02*
X025411Y014896D01*
X025411Y015214D02*
X026576Y015214D01*
X026576Y015533D02*
X025411Y015533D01*
X025411Y015851D02*
X026576Y015851D01*
X026576Y016170D02*
X025411Y016170D01*
X025411Y016488D02*
X026576Y016488D01*
X026466Y016807D02*
X025411Y016807D01*
X025378Y017125D02*
X026466Y017125D01*
X026466Y017444D02*
X025306Y017444D01*
X025171Y017762D02*
X026576Y017762D01*
X026576Y018081D02*
X024997Y018081D01*
X025049Y018016D02*
X025049Y018016D01*
X024743Y018399D02*
X026576Y018399D01*
X024705Y018447D02*
X024705Y018447D01*
X024160Y017444D02*
X024143Y017444D01*
X024143Y017125D02*
X024302Y017125D01*
X024366Y016807D02*
X024143Y016807D01*
X024027Y016488D02*
X024371Y016488D01*
X024371Y016170D02*
X021841Y016170D01*
X021921Y016230D02*
X021921Y016230D01*
X021465Y015851D02*
X024371Y015851D01*
X024371Y015533D02*
X021208Y015533D01*
X021024Y015214D02*
X024371Y015214D01*
X024371Y014896D02*
X022797Y014896D01*
X022784Y014915D02*
X022748Y014951D01*
X022705Y014980D01*
X022658Y014999D01*
X022607Y015009D01*
X022324Y015009D01*
X022324Y014492D01*
X022324Y014492D01*
X022324Y014492D01*
X022842Y014492D01*
X022842Y014775D01*
X022832Y014825D01*
X022812Y014872D01*
X022784Y014915D01*
X022842Y014577D02*
X024371Y014577D01*
X024371Y014259D02*
X022842Y014259D01*
X022842Y014209D02*
X022842Y014492D01*
X022324Y014492D01*
X022324Y014492D01*
X022324Y013974D01*
X022607Y013974D01*
X022658Y013984D01*
X022705Y014004D01*
X022748Y014032D01*
X022784Y014069D01*
X022812Y014111D01*
X022832Y014158D01*
X022842Y014209D01*
X020325Y014657D02*
X020341Y014761D01*
X020362Y014865D01*
X020386Y014967D01*
X020414Y015069D01*
X020447Y015170D01*
X020482Y015269D01*
X020522Y015367D01*
X020565Y015463D01*
X020611Y015558D01*
X020662Y015651D01*
X020715Y015742D01*
X020772Y015831D01*
X020833Y015917D01*
X020896Y016002D01*
X020963Y016084D01*
X021032Y016163D01*
X021105Y016240D01*
X021180Y016314D01*
X021258Y016385D01*
X021339Y016453D01*
X021422Y016518D01*
X021507Y016580D01*
X021595Y016639D01*
X021685Y016694D01*
X021777Y016746D01*
X021871Y016794D01*
X021966Y016839D01*
X022063Y016881D01*
X022162Y016918D01*
X022262Y016952D01*
X022363Y016983D01*
X022465Y017009D01*
X022568Y017032D01*
X022672Y017050D01*
X022777Y017065D01*
X022882Y017076D01*
X022987Y017083D01*
X023093Y017086D01*
X023198Y017085D01*
X023304Y017080D01*
X023409Y017071D01*
X023514Y017058D01*
X024891Y016704D02*
X024889Y016791D01*
X024883Y016877D01*
X024874Y016963D01*
X024860Y017048D01*
X024843Y017133D01*
X024821Y017217D01*
X024797Y017300D01*
X024768Y017382D01*
X024736Y017462D01*
X024700Y017541D01*
X024661Y017618D01*
X024618Y017693D01*
X024572Y017767D01*
X024523Y017838D01*
X024470Y017907D01*
X024415Y017973D01*
X024356Y018037D01*
X024295Y018098D01*
X024231Y018157D01*
X024165Y018212D01*
X024096Y018265D01*
X024025Y018314D01*
X023951Y018360D01*
X023876Y018403D01*
X023799Y018442D01*
X023720Y018478D01*
X023640Y018510D01*
X023558Y018539D01*
X023475Y018563D01*
X023391Y018585D01*
X023306Y018602D01*
X023221Y018616D01*
X023135Y018625D01*
X023049Y018631D01*
X022962Y018633D01*
X019616Y018633D01*
X018785Y019036D02*
X007973Y019036D01*
X007973Y018718D02*
X018085Y018718D01*
X017686Y018399D02*
X007973Y018399D01*
X007973Y018081D02*
X017406Y018081D01*
X017220Y017847D02*
X017220Y017847D01*
X017179Y017762D02*
X007973Y017762D01*
X007973Y017444D02*
X017026Y017444D01*
X016911Y017125D02*
X007973Y017125D01*
X007973Y016807D02*
X016838Y016807D01*
X016804Y016488D02*
X007973Y016488D01*
X007973Y016170D02*
X016804Y016170D01*
X016804Y015851D02*
X007973Y015851D01*
X007973Y015533D02*
X016804Y015533D01*
X016804Y015214D02*
X007973Y015214D01*
X007973Y014896D02*
X016803Y014896D01*
X016767Y014577D02*
X007973Y014577D01*
X007973Y014259D02*
X016767Y014259D01*
X016993Y013940D02*
X007973Y013940D01*
X007973Y013622D02*
X024371Y013622D01*
X024371Y013940D02*
X021656Y013940D01*
X022324Y014259D02*
X022324Y014259D01*
X022324Y014577D02*
X022324Y014577D01*
X022324Y014896D02*
X022324Y014896D01*
X021852Y014896D02*
X021846Y014896D01*
X020993Y013940D02*
X020656Y013940D01*
X019993Y013940D02*
X019656Y013940D01*
X018993Y013940D02*
X018656Y013940D01*
X017993Y013940D02*
X017656Y013940D01*
X017324Y014492D02*
X017324Y016342D01*
X019419Y015799D02*
X019576Y015996D01*
X017325Y016342D02*
X017327Y016437D01*
X017333Y016531D01*
X017343Y016625D01*
X017356Y016719D01*
X017374Y016812D01*
X017395Y016904D01*
X017420Y016996D01*
X017449Y017086D01*
X017482Y017175D01*
X017518Y017262D01*
X017558Y017348D01*
X017601Y017432D01*
X017648Y017515D01*
X017698Y017595D01*
X017751Y017673D01*
X017808Y017749D01*
X017868Y017823D01*
X017930Y017894D01*
X017996Y017962D01*
X018064Y018028D01*
X018135Y018090D01*
X018209Y018150D01*
X018285Y018207D01*
X018363Y018260D01*
X018443Y018310D01*
X018526Y018357D01*
X018610Y018400D01*
X018696Y018440D01*
X018783Y018476D01*
X018872Y018509D01*
X018962Y018538D01*
X019054Y018563D01*
X019146Y018584D01*
X019239Y018602D01*
X019333Y018615D01*
X019427Y018625D01*
X019521Y018631D01*
X019616Y018633D01*
X018681Y019012D02*
X018681Y019012D01*
X018672Y020947D02*
X018976Y020947D01*
X019672Y020947D02*
X019976Y020947D01*
X020672Y020947D02*
X020976Y020947D01*
X021672Y020947D02*
X021976Y020947D01*
X022672Y020947D02*
X022976Y020947D01*
X023672Y020947D02*
X023976Y020947D01*
X024672Y020947D02*
X024976Y020947D01*
X025324Y021492D02*
X026439Y023897D01*
X025827Y023814D02*
X012372Y023814D01*
X012372Y024132D02*
X020426Y024132D01*
X020133Y024451D02*
X012346Y024451D01*
X012397Y024769D02*
X015939Y024769D01*
X015836Y025088D02*
X012529Y025088D01*
X012733Y025406D02*
X015836Y025406D01*
X015840Y025725D02*
X013016Y025725D01*
X013435Y026043D02*
X020664Y026043D01*
X020295Y025725D02*
X017940Y025725D01*
X016466Y025326D02*
X020691Y024972D01*
X020955Y024132D02*
X021426Y024132D01*
X021955Y024132D02*
X022540Y024132D01*
X022691Y024132D02*
X022691Y024132D01*
X022841Y024132D02*
X023426Y024132D01*
X022691Y024451D02*
X022691Y024451D01*
X022691Y024769D02*
X022691Y024769D01*
X022766Y024897D02*
X022765Y024912D01*
X022760Y024926D01*
X022753Y024939D01*
X022744Y024950D01*
X022733Y024959D01*
X022720Y024966D01*
X022706Y024971D01*
X022691Y024972D01*
X022765Y024897D02*
X022765Y023358D01*
X013317Y023358D01*
X013278Y023356D01*
X013240Y023350D01*
X013203Y023341D01*
X013166Y023328D01*
X013131Y023311D01*
X013098Y023292D01*
X013067Y023269D01*
X013038Y023243D01*
X013012Y023214D01*
X012989Y023183D01*
X012970Y023150D01*
X012953Y023115D01*
X012940Y023078D01*
X012931Y023041D01*
X012925Y023003D01*
X012923Y022964D01*
X012321Y023495D02*
X025679Y023495D01*
X023946Y023358D02*
X022765Y023358D01*
X022691Y025088D02*
X022691Y025088D01*
X022691Y025406D02*
X022691Y025406D01*
X022691Y025725D02*
X022691Y025725D01*
X023020Y025725D02*
X023220Y025725D01*
X023276Y026043D02*
X021964Y026043D01*
X022102Y025725D02*
X022361Y025725D01*
X023287Y026109D02*
X023287Y026109D01*
X023379Y026362D02*
X021786Y026362D01*
X021532Y026680D02*
X023495Y026680D01*
X023666Y026999D02*
X021148Y026999D01*
X021504Y026715D02*
X021504Y026715D01*
X021504Y026715D01*
X020575Y027298D02*
X020575Y027298D01*
X020494Y027317D02*
X023850Y027317D01*
X024115Y027636D02*
X007973Y027636D01*
X007973Y027954D02*
X024422Y027954D01*
X024287Y027840D02*
X024287Y027840D01*
X024287Y027840D01*
X026414Y028910D02*
X017779Y028910D01*
X017779Y029228D02*
X040744Y029228D01*
X040744Y028910D02*
X027613Y028910D01*
X027647Y028591D02*
X040868Y028591D01*
X040835Y028624D02*
X041004Y028455D01*
X041225Y028363D01*
X041463Y028363D01*
X041684Y028455D01*
X041844Y028615D01*
X042004Y028455D01*
X042225Y028363D01*
X042463Y028363D01*
X042684Y028455D01*
X042844Y028615D01*
X043004Y028455D01*
X043225Y028363D01*
X043463Y028363D01*
X043684Y028455D01*
X043844Y028615D01*
X044004Y028455D01*
X044225Y028363D01*
X044463Y028363D01*
X044684Y028455D01*
X044853Y028624D01*
X044944Y028844D01*
X044944Y029683D01*
X044853Y029903D01*
X044684Y030072D01*
X044463Y030163D01*
X044225Y030163D01*
X044004Y030072D01*
X043844Y029912D01*
X043684Y030072D01*
X043463Y030163D01*
X043225Y030163D01*
X043004Y030072D01*
X042844Y029912D01*
X042684Y030072D01*
X042463Y030163D01*
X042225Y030163D01*
X042004Y030072D01*
X041844Y029912D01*
X041684Y030072D01*
X041463Y030163D01*
X041225Y030163D01*
X041004Y030072D01*
X040835Y029903D01*
X040744Y029683D01*
X040744Y028844D01*
X040835Y028624D01*
X040744Y029547D02*
X017779Y029547D01*
X017703Y029865D02*
X040820Y029865D01*
X041820Y028591D02*
X041868Y028591D01*
X042820Y028591D02*
X042868Y028591D01*
X043820Y028591D02*
X043868Y028591D01*
X044820Y028591D02*
X047809Y028591D01*
X047829Y028557D02*
X048043Y028343D01*
X047829Y028557D02*
X047677Y028819D01*
X047599Y029112D01*
X047599Y029415D01*
X047677Y029707D01*
X047829Y029970D01*
X048043Y030184D01*
X048206Y030278D01*
X007973Y030278D01*
X007973Y004627D01*
X047893Y004627D01*
X047850Y004729D01*
X047850Y005568D01*
X047942Y005789D01*
X048110Y005957D01*
X048331Y006049D01*
X048570Y006049D01*
X048790Y005957D01*
X048959Y005789D01*
X049050Y005568D01*
X049050Y004729D01*
X049008Y004627D01*
X049673Y004627D01*
X049630Y004729D01*
X049630Y005568D01*
X049722Y005789D01*
X049890Y005957D01*
X050111Y006049D01*
X050350Y006049D01*
X050552Y005965D01*
X050552Y006950D01*
X050524Y006930D01*
X050445Y006890D01*
X050361Y006863D01*
X050274Y006849D01*
X050230Y006849D01*
X050230Y007709D01*
X049670Y007709D01*
X049670Y007365D01*
X049684Y007278D01*
X049711Y007194D01*
X049751Y007115D01*
X049803Y007044D01*
X049865Y006982D01*
X049937Y006930D01*
X050015Y006890D01*
X050099Y006863D01*
X050186Y006849D01*
X050230Y006849D01*
X050230Y007709D01*
X050230Y007709D01*
X050230Y007570D02*
X050230Y007570D01*
X050230Y007252D02*
X050230Y007252D01*
X050230Y006933D02*
X050230Y006933D01*
X049932Y006933D02*
X048823Y006933D01*
X049034Y007252D02*
X049692Y007252D01*
X049670Y007570D02*
X049050Y007570D01*
X049050Y007889D02*
X049670Y007889D01*
X049706Y008207D02*
X049031Y008207D01*
X049073Y008526D02*
X050011Y008526D01*
X050230Y008526D02*
X050230Y008526D01*
X050449Y008526D02*
X050552Y008526D01*
X050552Y008844D02*
X049018Y008844D01*
X048937Y009358D02*
X048937Y009358D01*
X049150Y009481D02*
X050552Y009481D01*
X050552Y009163D02*
X048465Y009163D01*
X048553Y008594D02*
X048450Y007709D01*
X047850Y007570D02*
X047675Y007570D01*
X047866Y007252D02*
X041978Y007252D01*
X041992Y006933D02*
X048077Y006933D01*
X048159Y005978D02*
X041864Y005978D01*
X041864Y006296D02*
X050552Y006296D01*
X050552Y005978D02*
X050521Y005978D01*
X049939Y005978D02*
X048741Y005978D01*
X049012Y005659D02*
X049668Y005659D01*
X049630Y005341D02*
X049050Y005341D01*
X049050Y005022D02*
X049630Y005022D01*
X049641Y004704D02*
X049039Y004704D01*
X047861Y004704D02*
X007973Y004704D01*
X007973Y005022D02*
X008833Y005022D01*
X008935Y004963D02*
X009228Y004884D01*
X009531Y004884D01*
X009824Y004963D01*
X010086Y005114D01*
X010300Y005329D01*
X010452Y005591D01*
X010530Y005884D01*
X010530Y006187D01*
X010452Y006479D01*
X010300Y006741D01*
X010086Y006956D01*
X009824Y007107D01*
X009531Y007186D01*
X009228Y007186D01*
X008935Y007107D01*
X008673Y006956D01*
X008459Y006741D01*
X008307Y006479D01*
X008229Y006187D01*
X008229Y005884D01*
X008307Y005591D01*
X008459Y005329D01*
X008673Y005114D01*
X008935Y004963D01*
X008452Y005341D02*
X007973Y005341D01*
X007973Y005659D02*
X008289Y005659D01*
X008229Y005978D02*
X007973Y005978D01*
X007973Y006296D02*
X008258Y006296D01*
X008386Y006615D02*
X007973Y006615D01*
X007973Y006933D02*
X008650Y006933D01*
X007973Y007252D02*
X012301Y007252D01*
X012338Y006933D02*
X010109Y006933D01*
X010373Y006615D02*
X012220Y006615D01*
X012282Y006296D02*
X010501Y006296D01*
X010530Y005978D02*
X012674Y005978D01*
X012220Y007570D02*
X007973Y007570D01*
X007973Y007889D02*
X012304Y007889D01*
X012331Y008207D02*
X007973Y008207D01*
X007973Y008526D02*
X012220Y008526D01*
X012285Y008844D02*
X007973Y008844D01*
X007973Y009163D02*
X012432Y009163D01*
X012266Y009481D02*
X007973Y009481D01*
X007973Y009800D02*
X012310Y009800D01*
X012722Y010118D02*
X011192Y010118D01*
X011267Y010162D02*
X011481Y010376D01*
X011633Y010638D01*
X011711Y010931D01*
X011711Y011234D01*
X011633Y011526D01*
X011481Y011789D01*
X011267Y012003D01*
X011005Y012154D01*
X010712Y012233D01*
X010409Y012233D01*
X010117Y012154D01*
X009854Y012003D01*
X009640Y011789D01*
X009488Y011526D01*
X009410Y011234D01*
X009410Y010931D01*
X009488Y010638D01*
X009640Y010376D01*
X009854Y010162D01*
X010117Y010010D01*
X010409Y009932D01*
X010712Y009932D01*
X011005Y010010D01*
X011267Y010162D01*
X011516Y010437D02*
X025179Y010437D01*
X024789Y010755D02*
X011664Y010755D01*
X011711Y011074D02*
X024551Y011074D01*
X024616Y010947D02*
X024616Y010947D01*
X024399Y011369D02*
X024399Y011369D01*
X024395Y011392D02*
X011669Y011392D01*
X011526Y011711D02*
X024326Y011711D01*
X024300Y011833D02*
X024300Y011833D01*
X024310Y012029D02*
X011222Y012029D01*
X009899Y012029D02*
X007973Y012029D01*
X007973Y011711D02*
X009595Y011711D01*
X009452Y011392D02*
X007973Y011392D01*
X007973Y011074D02*
X009410Y011074D01*
X009457Y010755D02*
X007973Y010755D01*
X007973Y010437D02*
X009605Y010437D01*
X009930Y010118D02*
X007973Y010118D01*
X007973Y012348D02*
X024337Y012348D01*
X024324Y012307D02*
X024324Y012307D01*
X024371Y012666D02*
X007973Y012666D01*
X007973Y012985D02*
X024371Y012985D01*
X024371Y013303D02*
X007973Y013303D01*
X013929Y009800D02*
X029568Y009800D01*
X029591Y009481D02*
X013973Y009481D01*
X013808Y009163D02*
X029613Y009163D01*
X029636Y008844D02*
X013954Y008844D01*
X014020Y008526D02*
X023735Y008526D01*
X023557Y008207D02*
X013909Y008207D01*
X013936Y007889D02*
X023573Y007889D01*
X024713Y008526D02*
X024735Y008526D01*
X025713Y008526D02*
X025735Y008526D01*
X026713Y008526D02*
X026792Y008526D01*
X028713Y008526D02*
X028735Y008526D01*
X030770Y007570D02*
X030773Y007570D01*
X030766Y007252D02*
X031718Y007252D01*
X031712Y007233D02*
X031712Y007233D01*
X031581Y006967D02*
X031581Y006967D01*
X031576Y006933D02*
X030741Y006933D01*
X030637Y006615D02*
X031549Y006615D01*
X031538Y006674D02*
X031538Y006674D01*
X030695Y006296D02*
X030406Y006296D01*
X030394Y006280D02*
X030394Y006280D01*
X030624Y005978D02*
X029877Y005978D01*
X030624Y005659D02*
X010470Y005659D01*
X010307Y005341D02*
X030624Y005341D01*
X030758Y005022D02*
X009926Y005022D01*
X024891Y012374D02*
X024891Y016704D01*
X023000Y016488D02*
X022569Y016488D01*
X019419Y015799D02*
X019379Y015746D01*
X019343Y015691D01*
X019309Y015634D01*
X019279Y015575D01*
X019252Y015514D01*
X019229Y015452D01*
X019209Y015389D01*
X019193Y015324D01*
X019180Y015259D01*
X019172Y015193D01*
X019167Y015127D01*
X019166Y015061D01*
X019169Y014995D01*
X019176Y014929D01*
X019186Y014863D01*
X019200Y014798D01*
X019218Y014734D01*
X019239Y014672D01*
X019264Y014610D01*
X019293Y014550D01*
X019325Y014492D01*
X020324Y014492D02*
X020324Y014657D01*
X025411Y013940D02*
X025878Y013940D01*
X025696Y013622D02*
X025411Y013622D01*
X025411Y013303D02*
X025602Y013303D01*
X025572Y012985D02*
X025411Y012985D01*
X025566Y012756D02*
X025566Y012756D01*
X025588Y012666D02*
X025411Y012666D01*
X025415Y012348D02*
X025612Y012348D01*
X025612Y012029D02*
X025357Y012029D01*
X025401Y011711D02*
X026955Y011711D01*
X026936Y012029D02*
X026872Y012029D01*
X026872Y012348D02*
X026939Y012348D01*
X026946Y012541D02*
X026946Y012541D01*
X026984Y012666D02*
X026872Y012666D01*
X024892Y012374D02*
X024872Y012307D01*
X024857Y012239D01*
X024844Y012171D01*
X024836Y012102D01*
X024831Y012033D01*
X024830Y011963D01*
X024833Y011894D01*
X024839Y011825D01*
X024850Y011756D01*
X024864Y011688D01*
X024881Y011621D01*
X024903Y011555D01*
X024927Y011490D01*
X024956Y011427D01*
X024987Y011365D01*
X025022Y011305D01*
X025060Y011247D01*
X025102Y011191D01*
X025146Y011137D01*
X025193Y011086D01*
X025242Y011038D01*
X025295Y010992D01*
X025349Y010949D01*
X025406Y010910D01*
X025465Y010873D01*
X025526Y010840D01*
X025589Y010810D01*
X025653Y010783D01*
X025718Y010760D01*
X025718Y010759D02*
X026506Y010759D01*
X026745Y011392D02*
X025629Y011392D01*
X026505Y010759D02*
X026568Y010767D01*
X026630Y010778D01*
X026692Y010793D01*
X026752Y010811D01*
X026812Y010833D01*
X026870Y010858D01*
X026926Y010887D01*
X026981Y010919D01*
X027033Y010954D01*
X027084Y010992D01*
X027132Y011032D01*
X027178Y011076D01*
X027221Y011122D01*
X027262Y011171D01*
X027300Y011222D01*
X027334Y011274D01*
X027366Y011329D01*
X027394Y011386D01*
X027419Y011444D01*
X027440Y011504D01*
X027458Y011564D01*
X027472Y011626D01*
X027483Y011688D01*
X027490Y011751D01*
X027494Y011814D01*
X027493Y011877D01*
X027490Y011940D01*
X027490Y011941D02*
X027476Y012010D01*
X027465Y012081D01*
X027459Y012152D01*
X027456Y012223D01*
X027457Y012294D01*
X027462Y012365D01*
X027471Y012435D01*
X027484Y012505D01*
X027500Y012574D01*
X027521Y012643D01*
X027544Y012710D01*
X027572Y012775D01*
X027603Y012839D01*
X027637Y012901D01*
X027675Y012962D01*
X027716Y013020D01*
X027760Y013076D01*
X027807Y013129D01*
X027856Y013180D01*
X027909Y013228D01*
X027964Y013273D01*
X028021Y013315D01*
X028081Y013354D01*
X028142Y013390D01*
X028206Y013422D01*
X028271Y013451D01*
X028337Y013476D01*
X028405Y013498D01*
X028474Y013515D01*
X029655Y012728D02*
X033986Y012728D01*
X035970Y013178D02*
X035970Y013178D01*
X035732Y011074D02*
X035716Y011074D01*
X036716Y011074D02*
X036732Y011074D01*
X037224Y010417D02*
X038224Y010417D01*
X038824Y010437D02*
X039584Y010437D01*
X039584Y010118D02*
X038824Y010118D01*
X038742Y009800D02*
X039584Y009800D01*
X039505Y009481D02*
X037911Y009481D01*
X037875Y009163D02*
X039491Y009163D01*
X039505Y008844D02*
X037765Y008844D01*
X037777Y008930D02*
X037777Y008930D01*
X037735Y008526D02*
X037713Y008526D01*
X038713Y008526D02*
X039735Y008526D01*
X039557Y008207D02*
X038891Y008207D01*
X038875Y007889D02*
X039573Y007889D01*
X039773Y007570D02*
X038758Y007570D01*
X038978Y007252D02*
X040718Y007252D01*
X040712Y007233D02*
X040712Y007233D01*
X040581Y006967D02*
X040581Y006967D01*
X040576Y006933D02*
X038992Y006933D01*
X038978Y006615D02*
X040549Y006615D01*
X040538Y006674D02*
X040538Y006674D01*
X040675Y007570D02*
X040773Y007570D01*
X040735Y008526D02*
X040713Y008526D01*
X040765Y008844D02*
X046385Y008844D01*
X046713Y008526D02*
X046735Y008526D01*
X045735Y008526D02*
X045713Y008526D01*
X045747Y009163D02*
X040875Y009163D01*
X040777Y008930D02*
X040777Y008930D01*
X040911Y009481D02*
X045203Y009481D01*
X044954Y009627D02*
X044954Y009627D01*
X044712Y009800D02*
X041742Y009800D01*
X041824Y010118D02*
X044297Y010118D01*
X043852Y010437D02*
X041824Y010437D01*
X041824Y010755D02*
X043332Y010755D01*
X042619Y011074D02*
X041716Y011074D01*
X041224Y010417D02*
X040224Y010417D01*
X039624Y010755D02*
X038824Y010755D01*
X038716Y011074D02*
X039732Y011074D01*
X040716Y011074D02*
X040732Y011074D01*
X041940Y012348D02*
X046064Y012348D01*
X046064Y012029D02*
X043097Y012029D01*
X043082Y012036D02*
X043082Y012036D01*
X043780Y011711D02*
X046064Y011711D01*
X046064Y011392D02*
X044319Y011392D01*
X043972Y011621D02*
X043972Y011621D01*
X044792Y011081D02*
X044792Y011081D01*
X044800Y011074D02*
X046064Y011074D01*
X046064Y010755D02*
X045165Y010755D01*
X045651Y010437D02*
X046144Y010437D01*
X046195Y010118D02*
X046285Y010118D01*
X047765Y009775D02*
X048356Y009775D01*
X049280Y009556D02*
X049280Y009556D01*
X049523Y009800D02*
X050552Y009800D01*
X050552Y010118D02*
X049723Y010118D01*
X049758Y010179D02*
X049758Y010179D01*
X049827Y010437D02*
X050552Y010437D01*
X050552Y010755D02*
X049860Y010755D01*
X049860Y011074D02*
X050552Y011074D01*
X050552Y011392D02*
X049860Y011392D01*
X049835Y011711D02*
X050552Y011711D01*
X050552Y012029D02*
X049820Y012029D01*
X049820Y012348D02*
X050552Y012348D01*
X050552Y012666D02*
X049820Y012666D01*
X049820Y012985D02*
X050552Y012985D01*
X050552Y013303D02*
X049820Y013303D01*
X049820Y013622D02*
X050552Y013622D01*
X050552Y013940D02*
X049860Y013940D01*
X049793Y014259D02*
X050552Y014259D01*
X050552Y014577D02*
X049573Y014577D01*
X049604Y014555D02*
X049604Y014555D01*
X049604Y014555D01*
X049373Y014723D02*
X049373Y014723D01*
X049116Y014896D02*
X050552Y014896D01*
X050552Y015214D02*
X049231Y015214D01*
X049187Y015533D02*
X050552Y015533D01*
X050552Y015851D02*
X048996Y015851D01*
X049070Y016170D02*
X050552Y016170D01*
X050552Y016488D02*
X049070Y016488D01*
X048939Y016807D02*
X050552Y016807D01*
X050552Y017125D02*
X049070Y017125D01*
X049070Y017444D02*
X050552Y017444D01*
X050552Y017762D02*
X048959Y017762D01*
X048553Y017125D02*
X048553Y017125D01*
X048553Y016807D02*
X048553Y016807D01*
X048553Y016488D02*
X048553Y016488D01*
X047553Y015851D02*
X047553Y015851D01*
X047110Y015851D02*
X047102Y015851D01*
X046982Y015291D02*
X047553Y015291D01*
X047074Y014771D02*
X046978Y014675D01*
X046875Y014426D01*
X046875Y014156D01*
X046978Y013907D01*
X047132Y013752D01*
X047130Y013750D01*
X047093Y013714D01*
X047065Y013672D01*
X047045Y013624D01*
X047035Y013574D01*
X047035Y013291D01*
X047553Y013291D01*
X047553Y012773D01*
X047836Y012773D01*
X047886Y012783D01*
X047933Y012803D01*
X047964Y012824D01*
X047923Y012724D01*
X047923Y012233D01*
X047811Y012233D01*
X047518Y012154D01*
X047256Y012003D01*
X047104Y011851D01*
X047104Y012738D01*
X046976Y013132D01*
X046733Y013467D01*
X046733Y013467D01*
X046733Y013467D01*
X046398Y013711D01*
X046398Y013711D01*
X046004Y013839D01*
X045395Y013839D01*
X045777Y014015D01*
X046102Y014286D01*
X046102Y014286D01*
X046346Y014632D01*
X046471Y014971D01*
X046489Y014974D01*
X046544Y014965D01*
X046594Y014940D01*
X046616Y014922D01*
X046687Y014850D01*
X046688Y014850D01*
X046689Y014849D01*
X046784Y014810D01*
X046878Y014771D01*
X046880Y014771D01*
X046881Y014771D01*
X046983Y014771D01*
X047074Y014771D01*
X046937Y014577D02*
X046308Y014577D01*
X046346Y014632D02*
X046346Y014632D01*
X045994Y015287D02*
X046030Y015321D01*
X046069Y015353D01*
X046110Y015382D01*
X046153Y015407D01*
X046197Y015430D01*
X046243Y015449D01*
X046290Y015465D01*
X046339Y015477D01*
X046388Y015486D01*
X046437Y015492D01*
X046487Y015494D01*
X046537Y015492D01*
X046587Y015487D01*
X046636Y015479D01*
X046684Y015466D01*
X046732Y015451D01*
X046778Y015432D01*
X046823Y015410D01*
X046866Y015385D01*
X046907Y015356D01*
X046946Y015325D01*
X046982Y015291D01*
X046642Y014896D02*
X046443Y014896D01*
X046102Y014286D02*
X046102Y014286D01*
X046069Y014259D02*
X046875Y014259D01*
X046964Y013940D02*
X045614Y013940D01*
X045777Y014015D02*
X045777Y014015D01*
X046520Y013622D02*
X047045Y013622D01*
X047035Y013303D02*
X046852Y013303D01*
X047035Y013291D02*
X047035Y013008D01*
X047045Y012958D01*
X047065Y012910D01*
X047093Y012868D01*
X047130Y012832D01*
X047172Y012803D01*
X047219Y012783D01*
X047270Y012773D01*
X047553Y012773D01*
X047553Y013291D01*
X047553Y013291D01*
X047553Y013291D01*
X047035Y013291D01*
X046976Y013132D02*
X046976Y013132D01*
X047024Y012985D02*
X047040Y012985D01*
X047104Y012666D02*
X047923Y012666D01*
X047923Y012348D02*
X047104Y012348D01*
X047104Y012029D02*
X047301Y012029D01*
X046584Y012531D02*
X046584Y010956D01*
X046586Y010890D01*
X046591Y010824D01*
X046601Y010758D01*
X046614Y010693D01*
X046630Y010629D01*
X046650Y010566D01*
X046674Y010504D01*
X046701Y010444D01*
X046731Y010385D01*
X046765Y010328D01*
X046802Y010273D01*
X046842Y010220D01*
X046884Y010169D01*
X046930Y010121D01*
X046978Y010075D01*
X047029Y010033D01*
X047082Y009993D01*
X047137Y009956D01*
X047194Y009922D01*
X047253Y009892D01*
X047313Y009865D01*
X047375Y009841D01*
X047438Y009821D01*
X047502Y009805D01*
X047567Y009792D01*
X047633Y009782D01*
X047699Y009777D01*
X047765Y009775D01*
X048356Y009775D02*
X048418Y009777D01*
X048479Y009783D01*
X048540Y009792D01*
X048601Y009806D01*
X048660Y009823D01*
X048718Y009844D01*
X048775Y009869D01*
X048830Y009897D01*
X048883Y009928D01*
X048934Y009963D01*
X048983Y010001D01*
X049030Y010042D01*
X049073Y010085D01*
X049114Y010132D01*
X049152Y010181D01*
X049187Y010232D01*
X049218Y010285D01*
X049246Y010340D01*
X049271Y010397D01*
X049292Y010455D01*
X049309Y010514D01*
X049323Y010575D01*
X049332Y010636D01*
X049338Y010697D01*
X049340Y010759D01*
X049340Y011547D01*
X048553Y012334D02*
X048553Y013291D01*
X049340Y013909D02*
X049338Y013946D01*
X049333Y013984D01*
X049324Y014020D01*
X049311Y014055D01*
X049295Y014089D01*
X049276Y014121D01*
X049253Y014151D01*
X049228Y014179D01*
X049200Y014204D01*
X049170Y014227D01*
X049138Y014246D01*
X049104Y014262D01*
X049069Y014275D01*
X049033Y014284D01*
X048995Y014289D01*
X048958Y014291D01*
X048553Y014291D01*
X049772Y014324D02*
X049772Y014324D01*
X047553Y012985D02*
X047553Y012985D01*
X045191Y014896D02*
X043982Y014896D01*
X044294Y015027D02*
X044294Y015027D01*
X044536Y015214D02*
X045447Y015214D01*
X042057Y017452D02*
X041269Y017452D01*
X041226Y017445D01*
X041182Y017442D01*
X041139Y017443D01*
X041095Y017448D01*
X041052Y017456D01*
X041010Y017468D01*
X040969Y017484D01*
X040930Y017504D01*
X040893Y017526D01*
X040857Y017552D01*
X040824Y017581D01*
X040794Y017613D01*
X040766Y017647D01*
X040742Y017683D01*
X040721Y017722D01*
X040703Y017762D01*
X040689Y017803D01*
X040679Y017846D01*
X042726Y016272D02*
X042798Y016312D01*
X042869Y016356D01*
X042937Y016402D01*
X043004Y016451D01*
X043068Y016503D01*
X043130Y016558D01*
X043190Y016615D01*
X043247Y016675D01*
X043302Y016737D01*
X043354Y016801D01*
X043403Y016868D01*
X043449Y016936D01*
X043493Y017007D01*
X043533Y017079D01*
X043107Y018081D02*
X042096Y018081D01*
X042451Y017846D02*
X042449Y017807D01*
X042443Y017769D01*
X042434Y017732D01*
X042421Y017695D01*
X042404Y017660D01*
X042385Y017627D01*
X042362Y017596D01*
X042336Y017567D01*
X042307Y017541D01*
X042276Y017518D01*
X042243Y017499D01*
X042208Y017482D01*
X042171Y017469D01*
X042134Y017460D01*
X042096Y017454D01*
X042057Y017452D01*
X042096Y018399D02*
X043138Y018399D01*
X043168Y018718D02*
X042096Y018718D01*
X046747Y018399D02*
X047035Y018399D01*
X047097Y018718D02*
X046871Y018718D01*
X046190Y019027D02*
X046180Y019090D01*
X046174Y019152D01*
X046172Y019215D01*
X046173Y019279D01*
X046178Y019341D01*
X046187Y019404D01*
X046199Y019466D01*
X046215Y019527D01*
X046235Y019587D01*
X046257Y019646D01*
X046284Y019703D01*
X046313Y019759D01*
X046346Y019813D01*
X046382Y019865D01*
X046420Y019915D01*
X046462Y019962D01*
X046506Y020007D01*
X046553Y020050D01*
X046602Y020089D01*
X046654Y020126D01*
X046707Y020159D01*
X046762Y020190D01*
X046819Y020217D01*
X046878Y020241D01*
X046938Y020261D01*
X046998Y020278D01*
X047060Y020291D01*
X047883Y024893D02*
X047738Y024891D01*
X047594Y024885D01*
X047450Y024876D01*
X047306Y024862D01*
X047162Y024845D01*
X047019Y024824D01*
X046876Y024799D01*
X046735Y024770D01*
X046594Y024738D01*
X046454Y024702D01*
X046315Y024662D01*
X046177Y024618D01*
X046040Y024571D01*
X045905Y024520D01*
X045771Y024465D01*
X045638Y024407D01*
X045507Y024346D01*
X045378Y024281D01*
X045250Y024213D01*
X045125Y024141D01*
X045001Y024066D01*
X044880Y023987D01*
X044760Y023906D01*
X044643Y023821D01*
X044528Y023733D01*
X044415Y023643D01*
X044305Y023549D01*
X044198Y023452D01*
X044093Y023353D01*
X043990Y023250D01*
X043891Y023145D01*
X043794Y023038D01*
X043700Y022928D01*
X043610Y022815D01*
X043522Y022700D01*
X043437Y022583D01*
X043356Y022463D01*
X043277Y022342D01*
X043202Y022218D01*
X043130Y022093D01*
X043062Y021965D01*
X042997Y021836D01*
X042936Y021705D01*
X042878Y021572D01*
X042823Y021438D01*
X042772Y021303D01*
X042725Y021166D01*
X042681Y021028D01*
X042641Y020889D01*
X042605Y020749D01*
X042573Y020608D01*
X042544Y020467D01*
X042519Y020324D01*
X042498Y020181D01*
X042481Y020037D01*
X042467Y019893D01*
X042458Y019749D01*
X042452Y019605D01*
X042450Y019460D01*
X048553Y018291D02*
X048553Y018291D01*
X048919Y018291D02*
X048987Y018284D01*
X049055Y018281D01*
X049123Y018282D01*
X049191Y018286D01*
X049259Y018295D01*
X049327Y018307D01*
X049393Y018323D01*
X049459Y018343D01*
X049523Y018366D01*
X049586Y018393D01*
X049647Y018423D01*
X049707Y018457D01*
X049764Y018494D01*
X049819Y018534D01*
X049872Y018577D01*
X049923Y018623D01*
X049971Y018672D01*
X050016Y018724D01*
X050058Y018777D01*
X050097Y018834D01*
X050132Y018892D01*
X050165Y018952D01*
X050194Y019014D01*
X050219Y019077D01*
X050241Y019142D01*
X050260Y019208D01*
X050274Y019275D01*
X050285Y019343D01*
X044813Y010366D02*
X045041Y010208D01*
X045273Y010055D01*
X045508Y009908D01*
X045746Y009766D01*
X045988Y009630D01*
X046233Y009500D01*
X046480Y009375D01*
X046731Y009257D01*
X046984Y009144D01*
X047240Y009037D01*
X047499Y008936D01*
X047759Y008841D01*
X048022Y008753D01*
X048287Y008670D01*
X048553Y008594D01*
X050230Y008207D02*
X050230Y008207D01*
X050230Y007889D02*
X050230Y007889D01*
X050528Y006933D02*
X050552Y006933D01*
X050552Y006615D02*
X041978Y006615D01*
X041864Y005659D02*
X047888Y005659D01*
X047850Y005341D02*
X041824Y005341D01*
X041690Y005022D02*
X047850Y005022D01*
X046773Y007570D02*
X046675Y007570D01*
X045773Y007570D02*
X045675Y007570D01*
X044773Y007570D02*
X044675Y007570D01*
X043773Y007570D02*
X043675Y007570D01*
X042773Y007570D02*
X042675Y007570D01*
X042713Y008526D02*
X042735Y008526D01*
X043713Y008526D02*
X043735Y008526D01*
X044713Y008526D02*
X044735Y008526D01*
X041735Y008526D02*
X041713Y008526D01*
X039695Y006296D02*
X038864Y006296D01*
X038864Y005978D02*
X039624Y005978D01*
X039624Y005659D02*
X038864Y005659D01*
X038824Y005341D02*
X039624Y005341D01*
X039758Y005022D02*
X038690Y005022D01*
X038224Y005704D02*
X037224Y005704D01*
X036758Y005022D02*
X036690Y005022D01*
X035758Y005022D02*
X035690Y005022D01*
X034758Y005022D02*
X034690Y005022D01*
X034224Y005704D02*
X033224Y005704D01*
X032224Y005704D02*
X031224Y005704D01*
X031690Y005022D02*
X031758Y005022D01*
X032690Y005022D02*
X032758Y005022D01*
X033690Y005022D02*
X033758Y005022D01*
X035224Y005704D02*
X036224Y005704D01*
X037690Y005022D02*
X037758Y005022D01*
X040224Y005704D02*
X041224Y005704D01*
X044813Y010365D02*
X044695Y010468D01*
X044575Y010567D01*
X044452Y010663D01*
X044327Y010756D01*
X044200Y010846D01*
X044070Y010933D01*
X043938Y011016D01*
X043805Y011097D01*
X043669Y011173D01*
X043531Y011247D01*
X043392Y011317D01*
X043251Y011383D01*
X043108Y011446D01*
X042963Y011505D01*
X042818Y011560D01*
X042671Y011612D01*
X042522Y011660D01*
X042373Y011705D01*
X042222Y011745D01*
X042071Y011782D01*
X041918Y011815D01*
X041765Y011844D01*
X041611Y011870D01*
X041457Y011891D01*
X041302Y011909D01*
X041146Y011922D01*
X040991Y011932D01*
X040835Y011938D01*
X040679Y011940D01*
X042141Y012318D02*
X042141Y012318D01*
X037732Y011074D02*
X037716Y011074D01*
X036224Y010417D02*
X035224Y010417D01*
X034732Y011074D02*
X034716Y011074D01*
X040679Y017846D02*
X040564Y018054D01*
X040444Y018259D01*
X040319Y018461D01*
X040190Y018660D01*
X040055Y018856D01*
X039916Y019048D01*
X039773Y019237D01*
X039624Y019423D01*
X039472Y019605D01*
X039315Y019783D01*
X039154Y019957D01*
X038988Y020127D01*
X038819Y020294D01*
X038645Y020456D01*
X038468Y020614D01*
X038287Y020767D01*
X038102Y020916D01*
X037914Y021061D01*
X037722Y021201D01*
X037527Y021337D01*
X037329Y021467D01*
X037127Y021593D01*
X036923Y021714D01*
X036716Y021830D01*
X036506Y021941D01*
X036293Y022046D01*
X036078Y022147D01*
X035861Y022242D01*
X035641Y022332D01*
X035419Y022417D01*
X035195Y022496D01*
X034970Y022570D01*
X038513Y023358D02*
X038242Y024972D01*
X038638Y025725D02*
X038846Y025725D01*
X039638Y025725D02*
X050552Y025725D01*
X050552Y026043D02*
X037744Y026043D01*
X037731Y026100D02*
X037731Y026100D01*
X037817Y025725D02*
X037846Y025725D01*
X039836Y025406D02*
X050552Y025406D01*
X050552Y025088D02*
X039842Y025088D01*
X039883Y024769D02*
X050552Y024769D01*
X050552Y024451D02*
X040010Y024451D01*
X044601Y027636D02*
X044847Y027636D01*
X044944Y028910D02*
X047653Y028910D01*
X047599Y029228D02*
X044944Y029228D01*
X044944Y029547D02*
X047634Y029547D01*
X047768Y029865D02*
X044869Y029865D01*
X048043Y030184D02*
X007973Y030184D01*
X007973Y027317D02*
X013783Y027317D01*
X012973Y026999D02*
X007973Y026999D01*
X007973Y026680D02*
X012496Y026680D01*
X012166Y026362D02*
X007973Y026362D01*
X007973Y026043D02*
X011894Y026043D01*
X011986Y026181D02*
X011986Y026181D01*
X011681Y025725D02*
X007973Y025725D01*
X007973Y025406D02*
X011522Y025406D01*
X011611Y025620D02*
X011611Y025620D01*
X011390Y025088D02*
X007973Y025088D01*
X007973Y024769D02*
X011308Y024769D01*
X011137Y024451D02*
X007973Y024451D01*
X007973Y024132D02*
X011112Y024132D01*
X011112Y023814D02*
X007973Y023814D01*
X014369Y026362D02*
X019966Y026362D01*
X019761Y026901D02*
X014643Y026901D01*
X019761Y026901D02*
X019848Y026899D01*
X019934Y026893D01*
X020020Y026884D01*
X020105Y026870D01*
X020190Y026853D01*
X020274Y026831D01*
X020357Y026807D01*
X020439Y026778D01*
X020519Y026746D01*
X020598Y026710D01*
X020675Y026671D01*
X020750Y026628D01*
X020824Y026582D01*
X020895Y026533D01*
X020964Y026480D01*
X021030Y026425D01*
X021094Y026366D01*
X021155Y026305D01*
X021214Y026241D01*
X021269Y026175D01*
X021322Y026106D01*
X021371Y026035D01*
X021417Y025961D01*
X021460Y025886D01*
X021499Y025809D01*
X021535Y025730D01*
X021567Y025650D01*
X021596Y025568D01*
X021620Y025485D01*
X021642Y025401D01*
X021659Y025316D01*
X021673Y025231D01*
X021682Y025145D01*
X021688Y025059D01*
X021690Y024972D01*
X023691Y024972D02*
X023691Y025110D01*
X023690Y025110D02*
X023692Y025224D01*
X023698Y025337D01*
X023707Y025450D01*
X023721Y025563D01*
X023738Y025675D01*
X023760Y025787D01*
X023785Y025898D01*
X023813Y026008D01*
X023846Y026116D01*
X023882Y026224D01*
X023922Y026331D01*
X023965Y026435D01*
X024012Y026539D01*
X024063Y026641D01*
X024117Y026741D01*
X024174Y026839D01*
X024235Y026935D01*
X024299Y027029D01*
X024366Y027120D01*
X024436Y027210D01*
X024509Y027297D01*
X024586Y027381D01*
X024664Y027463D01*
X024746Y027541D01*
X024830Y027618D01*
X024917Y027691D01*
X025007Y027761D01*
X025098Y027828D01*
X025192Y027892D01*
X025288Y027953D01*
X025386Y028010D01*
X025486Y028064D01*
X025588Y028115D01*
X025692Y028162D01*
X025796Y028205D01*
X025903Y028245D01*
X026011Y028281D01*
X026119Y028314D01*
X026229Y028342D01*
X026340Y028367D01*
X026452Y028389D01*
X026564Y028406D01*
X026677Y028420D01*
X026790Y028429D01*
X026903Y028435D01*
X027017Y028437D01*
X026747Y021266D02*
X025882Y021266D01*
X025672Y020947D02*
X026594Y020947D01*
X026546Y020836D02*
X026546Y020836D01*
X026536Y020011D02*
X026536Y020011D01*
X027096Y020011D02*
X027074Y020071D01*
X027056Y020133D01*
X027041Y020195D01*
X027030Y020258D01*
X027023Y020322D01*
X027020Y020386D01*
X027021Y020450D01*
X027026Y020514D01*
X027034Y020577D01*
X027046Y020640D01*
X027062Y020702D01*
X027082Y020763D01*
X027106Y020823D01*
X027133Y020881D01*
X027163Y020937D01*
X027197Y020991D01*
X027234Y021044D01*
X027274Y021094D01*
X027317Y021141D01*
X027363Y021186D01*
X027411Y021228D01*
X027462Y021266D01*
X027515Y021302D01*
X027571Y021335D01*
X027628Y021364D01*
X027686Y021389D01*
X017976Y020947D02*
X017672Y020947D01*
X016976Y020947D02*
X016672Y020947D01*
X015976Y020947D02*
X015672Y020947D01*
X014976Y020947D02*
X014672Y020947D01*
X011741Y024000D02*
X011743Y024106D01*
X011749Y024212D01*
X011758Y024317D01*
X011772Y024423D01*
X011789Y024527D01*
X011810Y024631D01*
X011835Y024734D01*
X011864Y024836D01*
X011896Y024937D01*
X011932Y025037D01*
X011972Y025135D01*
X012015Y025232D01*
X012062Y025327D01*
X012112Y025420D01*
X012166Y025512D01*
X012223Y025601D01*
X012283Y025689D01*
X012346Y025774D01*
X012412Y025856D01*
X012482Y025937D01*
X012554Y026014D01*
X012629Y026089D01*
X012706Y026161D01*
X012787Y026231D01*
X012869Y026297D01*
X012954Y026360D01*
X013042Y026420D01*
X013131Y026477D01*
X013223Y026531D01*
X013316Y026581D01*
X013411Y026628D01*
X013508Y026671D01*
X013606Y026711D01*
X013706Y026747D01*
X013807Y026779D01*
X013909Y026808D01*
X014012Y026833D01*
X014116Y026854D01*
X014220Y026871D01*
X014326Y026885D01*
X014431Y026894D01*
X014537Y026900D01*
X014643Y026902D01*
X027569Y014421D02*
X031616Y014421D01*
X032277Y015421D02*
X032343Y015403D01*
X032407Y015382D01*
X032470Y015357D01*
X032532Y015329D01*
X032592Y015297D01*
X032650Y015263D01*
X032707Y015225D01*
X032761Y015184D01*
X032813Y015141D01*
X032862Y015094D01*
X032909Y015045D01*
X032953Y014994D01*
X032995Y014940D01*
X033033Y014884D01*
X033068Y014826D01*
X033100Y014767D01*
X033129Y014705D01*
X033155Y014642D01*
X033177Y014578D01*
X033195Y014513D01*
X033210Y014447D01*
X033222Y014380D01*
X033229Y014313D01*
X033233Y014245D01*
X033234Y014177D01*
X033230Y014109D01*
X033223Y014042D01*
X033213Y013975D01*
X033199Y013909D01*
X033198Y013909D02*
X033188Y013866D01*
X033174Y013825D01*
X033156Y013785D01*
X033135Y013746D01*
X033111Y013710D01*
X033083Y013676D01*
X033053Y013644D01*
X033020Y013615D01*
X032984Y013589D01*
X032947Y013567D01*
X032908Y013547D01*
X032867Y013531D01*
X032825Y013519D01*
X032782Y013511D01*
X032738Y013506D01*
X032695Y013505D01*
X032651Y013508D01*
X032608Y013515D01*
X039694Y017078D02*
X039623Y017248D01*
X039548Y017417D01*
X039469Y017584D01*
X039386Y017749D01*
X039299Y017913D01*
X039208Y018074D01*
X039114Y018232D01*
X039016Y018389D01*
X038914Y018543D01*
X038808Y018695D01*
X038699Y018844D01*
X038586Y018990D01*
X038470Y019134D01*
X038351Y019275D01*
X038228Y019413D01*
X038102Y019548D01*
X037973Y019680D01*
X037840Y019809D01*
X037705Y019935D01*
X037567Y020057D01*
X037425Y020176D01*
X037281Y020292D01*
X037135Y020404D01*
X039695Y017079D02*
X039889Y016870D01*
X040089Y016666D01*
X040293Y016466D01*
X040502Y016272D01*
X030235Y012333D02*
X030235Y012333D01*
X029657Y011754D02*
X029657Y011754D01*
X031675Y007570D02*
X031773Y007570D01*
X040690Y005022D02*
X040758Y005022D01*
X049560Y009836D02*
X049560Y009836D01*
X049335Y028273D02*
X050552Y028273D01*
X050552Y028591D02*
X049690Y028591D01*
X049846Y028910D02*
X050552Y028910D01*
X050552Y029228D02*
X049900Y029228D01*
X049865Y029547D02*
X050552Y029547D01*
X050552Y029865D02*
X049731Y029865D01*
X049457Y030184D02*
X050552Y030184D01*
X038513Y023357D02*
X038727Y022880D01*
X038952Y022408D01*
X039189Y021941D01*
X039436Y021480D01*
X039695Y021025D01*
X039964Y020576D01*
X040244Y020134D01*
X040534Y019699D01*
X040835Y019270D01*
X041145Y018849D01*
X041466Y018436D01*
X041466Y020405D02*
X041145Y020954D01*
X040836Y021509D01*
X040539Y022072D01*
X040254Y022640D01*
X039982Y023215D01*
X039723Y023795D01*
X039476Y024381D01*
X039242Y024972D01*
D19*
X047553Y016291D02*
X047553Y016287D01*
X047962Y015878D01*
X048159Y015878D01*
X048159Y014893D01*
X047962Y014696D01*
X047962Y013909D01*
X047765Y013909D01*
X047372Y013515D01*
X047372Y013472D01*
X047553Y013291D01*
D20*
X034970Y024933D03*
X032742Y025067D03*
X031742Y025067D03*
X029742Y025067D03*
X028742Y025067D03*
D21*
X035443Y027098D02*
X035526Y027096D01*
X035609Y027090D01*
X035692Y027081D01*
X035774Y027067D01*
X035855Y027050D01*
X035935Y027029D01*
X036015Y027005D01*
X036093Y026977D01*
X036170Y026945D01*
X036245Y026909D01*
X036318Y026871D01*
X036390Y026829D01*
X036460Y026783D01*
X036527Y026735D01*
X036592Y026683D01*
X036655Y026628D01*
X036715Y026571D01*
X036772Y026511D01*
X036827Y026448D01*
X036879Y026383D01*
X036927Y026316D01*
X036973Y026246D01*
X037015Y026174D01*
X037053Y026101D01*
X037089Y026026D01*
X037121Y025949D01*
X037149Y025871D01*
X037173Y025791D01*
X037194Y025711D01*
X037211Y025630D01*
X037225Y025548D01*
X037234Y025465D01*
X037240Y025382D01*
X037242Y025299D01*
X037242Y024972D01*
X036241Y024972D02*
X036101Y024952D01*
X035960Y024936D01*
X035819Y024924D01*
X035677Y024916D01*
X035536Y024912D01*
X035394Y024911D01*
X035252Y024914D01*
X035111Y024921D01*
X034970Y024932D01*
D22*
X046191Y019027D03*
D23*
X049340Y019685D02*
X049340Y021586D01*
X049340Y013909D02*
X049340Y010759D01*
D24*
X041348Y006949D02*
X041320Y006932D01*
X041293Y006912D01*
X041269Y006889D01*
X041248Y006863D01*
X041230Y006835D01*
X041215Y006806D01*
X041203Y006775D01*
X041195Y006743D01*
X041191Y006710D01*
X041190Y006676D01*
X041193Y006643D01*
X041200Y006611D01*
X041210Y006579D01*
X041224Y006549D01*
X041224Y005704D01*
X038224Y006549D02*
X038210Y006579D01*
X038200Y006611D01*
X038193Y006643D01*
X038190Y006676D01*
X038191Y006710D01*
X038195Y006743D01*
X038203Y006775D01*
X038215Y006806D01*
X038230Y006835D01*
X038248Y006863D01*
X038269Y006889D01*
X038293Y006912D01*
X038320Y006932D01*
X038348Y006949D01*
X038224Y006549D02*
X038224Y005704D01*
X036224Y006549D02*
X036210Y006579D01*
X036200Y006611D01*
X036193Y006643D01*
X036190Y006676D01*
X036191Y006710D01*
X036195Y006743D01*
X036203Y006775D01*
X036215Y006806D01*
X036230Y006835D01*
X036248Y006863D01*
X036269Y006889D01*
X036293Y006912D01*
X036320Y006932D01*
X036348Y006949D01*
X036224Y006549D02*
X036224Y005704D01*
X034224Y006549D02*
X034210Y006579D01*
X034200Y006611D01*
X034193Y006643D01*
X034190Y006676D01*
X034191Y006710D01*
X034195Y006743D01*
X034203Y006775D01*
X034215Y006806D01*
X034230Y006835D01*
X034248Y006863D01*
X034269Y006889D01*
X034293Y006912D01*
X034320Y006932D01*
X034348Y006949D01*
X034224Y006549D02*
X034224Y005704D01*
X032224Y006549D02*
X032210Y006579D01*
X032200Y006611D01*
X032193Y006643D01*
X032190Y006676D01*
X032191Y006710D01*
X032195Y006743D01*
X032203Y006775D01*
X032215Y006806D01*
X032230Y006835D01*
X032248Y006863D01*
X032269Y006889D01*
X032293Y006912D01*
X032320Y006932D01*
X032348Y006949D01*
X032224Y006549D02*
X032224Y005704D01*
X033136Y009185D02*
X033160Y009201D01*
X033183Y009221D01*
X033203Y009243D01*
X033220Y009267D01*
X033235Y009293D01*
X033247Y009320D01*
X033255Y009348D01*
X033261Y009378D01*
X033263Y009407D01*
X033262Y009437D01*
X033257Y009466D01*
X033249Y009495D01*
X033238Y009523D01*
X033224Y009549D01*
X033224Y010417D01*
X031224Y010417D02*
X031224Y009549D01*
X031238Y009523D01*
X031249Y009495D01*
X031257Y009466D01*
X031262Y009437D01*
X031263Y009407D01*
X031261Y009378D01*
X031255Y009348D01*
X031247Y009320D01*
X031235Y009293D01*
X031220Y009267D01*
X031203Y009243D01*
X031183Y009221D01*
X031160Y009201D01*
X031136Y009185D01*
X035136Y009185D02*
X035160Y009201D01*
X035183Y009221D01*
X035203Y009243D01*
X035220Y009267D01*
X035235Y009293D01*
X035247Y009320D01*
X035255Y009348D01*
X035261Y009378D01*
X035263Y009407D01*
X035262Y009437D01*
X035257Y009466D01*
X035249Y009495D01*
X035238Y009523D01*
X035224Y009549D01*
X035224Y010417D01*
X037224Y010417D02*
X037224Y009549D01*
X037238Y009523D01*
X037249Y009495D01*
X037257Y009466D01*
X037262Y009437D01*
X037263Y009407D01*
X037261Y009378D01*
X037255Y009348D01*
X037247Y009320D01*
X037235Y009293D01*
X037220Y009267D01*
X037203Y009243D01*
X037183Y009221D01*
X037160Y009201D01*
X037136Y009185D01*
X040136Y009185D02*
X040160Y009201D01*
X040183Y009221D01*
X040203Y009243D01*
X040220Y009267D01*
X040235Y009293D01*
X040247Y009320D01*
X040255Y009348D01*
X040261Y009378D01*
X040263Y009407D01*
X040262Y009437D01*
X040257Y009466D01*
X040249Y009495D01*
X040238Y009523D01*
X040224Y009549D01*
X040224Y010417D01*
M02*
