  0
SECTION
  2
HEADER
  9
$ACADVER
  1
AC1009
  9
$FILLMODE
 70
1
  9
$EXTMIN
 10
-29.5700
 20
-10.0750
 30
0.0000
  9
$EXTMAX
 10
118.5700
 20
78.0750
 30
0.0000
  0
ENDSEC
  0
SECTION
  2
TABLES
  0
TABLE
  2
LTYPE
 70
1
  0
LTYPE
  2
CONTINUOUS
 70
64
  3
Solid line
 72
65
 73
0
 40
0
  0
ENDTAB
  0
TABLE
  2
LAYER
 70
255
  0
LAYER
  2
111
 70
64
 62
213
  6
CONTINUOUS
  0
LAYER
  2
112
 70
64
 62
2
  6
CONTINUOUS
  0
ENDTAB
  0
ENDSEC
  0
SECTION
  2
BLOCKS
  0
BLOCK
  8
0
  2
RECT
 70
64
 10
0.0000
 20
0.0000
 30
0.0000
  3
RECT
  0
SOLID
  8
0
 10
-0.5000
 20
-0.5000
 30
0.0000
 11
0.5000
 21
-0.5000
 31
0.0000
 12
-0.5000
 22
0.5000
 32
0.0000
 13
0.5000
 23
0.5000
 33
0.0000
  0
ENDBLK
  8
0
  0
BLOCK
  8
0
  2
PIE
 70
64
 10
0.0000
 20
0.0000
 30
0.0000
  3
PIE
  0
POLYLINE
  8
0
 66
1
 10
0.0000
 20
0.0000
 30
0.0000
 40
0.5000
 41
0.5000
 70
0
  0
VERTEX
  8
0
 10
0.0000
 20
-0.2500
 30
0.0000
 42
1.0000
  0
VERTEX
  8
0
 10
0.0000
 20
0.2500
 30
0.0000
 42
1.0000
  0
VERTEX
  8
0
 10
0.0000
 20
-0.2500
 30
0.0000
  0
SEQEND
  8
0
  0
ENDBLK
  8
0
  0
BLOCK
  8
0
  2
OCTAGONP
 70
64
 10
0.0000
 20
0.0000
 30
0.0000
  3
OCTAGONP
  0
POLYLINE
  8
0
 66
1
 10
0.0000
 20
0.0000
 30
0.0000
 40
0.5000
 41
0.5000
 70
0
  0
VERTEX
  8
0
 10
-0.2500
 20
-0.1036
 30
0.0000
  0
VERTEX
  8
0
 10
-0.2500
 20
0.1036
 30
0.0000
  0
VERTEX
  8
0
 10
-0.1036
 20
0.2500
 30
0.0000
  0
VERTEX
  8
0
 10
0.1036
 20
0.2500
 30
0.0000
  0
VERTEX
  8
0
 10
0.2500
 20
0.1036
 30
0.0000
  0
VERTEX
  8
0
 10
0.2500
 20
-0.1036
 30
0.0000
  0
VERTEX
  8
0
 10
0.1036
 20
-0.2500
 30
0.0000
  0
VERTEX
  8
0
 10
-0.1036
 20
-0.2500
 30
0.0000
  0
VERTEX
  8
0
 10
-0.2500
 20
-0.1036
 30
0.0000
  0
VERTEX
  8
0
 10
-0.2500
 20
0.1036
 30
0.0000
  0
SEQEND
  8
0
  0
ENDBLK
  8
0
  0
BLOCK
  8
0
  2
SQUAREP
 70
64
 10
0.0000
 20
0.0000
 30
0.0000
  3
SQUAREP
  0
SOLID
  8
0
 10
-0.5000
 20
-0.5000
 30
0.0000
 11
0.5000
 21
-0.5000
 31
0.0000
 12
-0.5000
 22
0.5000
 32
0.0000
 13
0.5000
 23
0.5000
 33
0.0000
  0
ENDBLK
  8
0
  0
BLOCK
  8
0
  2
ROUNDP
 70
64
 10
0.0000
 20
0.0000
 30
0.0000
  3
ROUNDP
  0
POLYLINE
  8
0
 66
1
 10
0.0000
 20
0.0000
 30
0.0000
 40
0.5000
 41
0.5000
 70
0
  0
VERTEX
  8
0
 10
0.0000
 20
-0.2500
 30
0.0000
 42
1.0000
  0
VERTEX
  8
0
 10
0.0000
 20
0.2500
 30
0.0000
 42
1.0000
  0
VERTEX
  8
0
 10
0.0000
 20
-0.2500
 30
0.0000
  0
SEQEND
  8
0
  0
ENDBLK
  8
0
  0
BLOCK
  8
0
  2
ANNULUSP
 70
64
 10
0.0000
 20
0.0000
 30
0.0000
  3
ANNULUSP
  0
POLYLINE
  8
0
 66
1
 10
0.0000
 20
0.0000
 30
0.0000
 40
0.5000
 41
0.5000
 70
0
  0
VERTEX
  8
0
 10
0.0000
 20
-0.2500
 30
0.0000
 42
1.0000
  0
VERTEX
  8
0
 10
0.0000
 20
0.2500
 30
0.0000
 42
1.0000
  0
VERTEX
  8
0
 10
0.0000
 20
-0.2500
 30
0.0000
  0
SEQEND
  8
0
  0
ENDBLK
  8
0
  0
BLOCK
  8
0
  2
THERMALP
 70
64
 10
0.0000
 20
0.0000
 30
0.0000
  3
THERMALP
  0
POLYLINE
  8
0
 66
1
 10
0.0000
 20
0.0000
 30
0.0000
 40
0.1000
 41
0.1000
 70
0
  0
VERTEX
  8
0
 10
-0.2379
 20
0.4500
 30
0.0000
  0
VERTEX
  8
0
 10
0.2379
 20
0.4500
 30
0.0000
  0
SEQEND
  8
0
  0
POLYLINE
  8
0
 66
1
 10
0.0000
 20
0.0000
 30
0.0000
 40
0.0500
 41
0.0500
 70
0
  0
VERTEX
  8
0
 10
0.2379
 20
0.4250
 30
0.0000
 42
1.0000
  0
VERTEX
  8
0
 10
0.2379
 20
0.4750
 30
0.0000
  0
SEQEND
  8
0
  0
POLYLINE
  8
0
 66
1
 10
0.0000
 20
0.0000
 30
0.0000
 40
0.0500
 41
0.0500
 70
0
  0
VERTEX
  8
0
 10
-0.2379
 20
0.4750
 30
0.0000
 42
1.0000
  0
VERTEX
  8
0
 10
-0.2379
 20
0.4250
 30
0.0000
  0
SEQEND
  8
0
  0
POLYLINE
  8
0
 66
1
 10
0.0000
 20
0.0000
 30
0.0000
 40
0.1000
 41
0.1000
 70
0
  0
VERTEX
  8
0
 10
0.4500
 20
0.2379
 30
0.0000
  0
VERTEX
  8
0
 10
0.4500
 20
-0.2379
 30
0.0000
  0
SEQEND
  8
0
  0
POLYLINE
  8
0
 66
1
 10
0.0000
 20
0.0000
 30
0.0000
 40
0.0500
 41
0.0500
 70
0
  0
VERTEX
  8
0
 10
0.4250
 20
-0.2379
 30
0.0000
 42
1.0000
  0
VERTEX
  8
0
 10
0.4750
 20
-0.2379
 30
0.0000
  0
SEQEND
  8
0
  0
POLYLINE
  8
0
 66
1
 10
0.0000
 20
0.0000
 30
0.0000
 40
0.0500
 41
0.0500
 70
0
  0
VERTEX
  8
0
 10
0.4750
 20
0.2379
 30
0.0000
 42
1.0000
  0
VERTEX
  8
0
 10
0.4250
 20
0.2379
 30
0.0000
  0
SEQEND
  8
0
  0
POLYLINE
  8
0
 66
1
 10
0.0000
 20
0.0000
 30
0.0000
 40
0.1000
 41
0.1000
 70
0
  0
VERTEX
  8
0
 10
0.2379
 20
-0.4500
 30
0.0000
  0
VERTEX
  8
0
 10
-0.2379
 20
-0.4500
 30
0.0000
  0
SEQEND
  8
0
  0
POLYLINE
  8
0
 66
1
 10
0.0000
 20
0.0000
 30
0.0000
 40
0.0500
 41
0.0500
 70
0
  0
VERTEX
  8
0
 10
-0.2379
 20
-0.4250
 30
0.0000
 42
1.0000
  0
VERTEX
  8
0
 10
-0.2379
 20
-0.4750
 30
0.0000
  0
SEQEND
  8
0
  0
POLYLINE
  8
0
 66
1
 10
0.0000
 20
0.0000
 30
0.0000
 40
0.0500
 41
0.0500
 70
0
  0
VERTEX
  8
0
 10
0.2379
 20
-0.4750
 30
0.0000
 42
1.0000
  0
VERTEX
  8
0
 10
0.2379
 20
-0.4250
 30
0.0000
  0
SEQEND
  8
0
  0
POLYLINE
  8
0
 66
1
 10
0.0000
 20
0.0000
 30
0.0000
 40
0.1000
 41
0.1000
 70
0
  0
VERTEX
  8
0
 10
-0.4500
 20
-0.2379
 30
0.0000
  0
VERTEX
  8
0
 10
-0.4500
 20
0.2379
 30
0.0000
  0
SEQEND
  8
0
  0
POLYLINE
  8
0
 66
1
 10
0.0000
 20
0.0000
 30
0.0000
 40
0.0500
 41
0.0500
 70
0
  0
VERTEX
  8
0
 10
-0.4250
 20
0.2379
 30
0.0000
 42
1.0000
  0
VERTEX
  8
0
 10
-0.4750
 20
0.2379
 30
0.0000
  0
SEQEND
  8
0
  0
POLYLINE
  8
0
 66
1
 10
0.0000
 20
0.0000
 30
0.0000
 40
0.0500
 41
0.0500
 70
0
  0
VERTEX
  8
0
 10
-0.4750
 20
-0.2379
 30
0.0000
 42
1.0000
  0
VERTEX
  8
0
 10
-0.4250
 20
-0.2379
 30
0.0000
  0
SEQEND
  8
0
  0
ENDBLK
  8
0
  0
BLOCK
  8
0
  2
OCTAGONV
 70
64
 10
0.0000
 20
0.0000
 30
0.0000
  3
OCTAGONV
  0
POLYLINE
  8
0
 66
1
 10
0.0000
 20
0.0000
 30
0.0000
 40
0.5000
 41
0.5000
 70
0
  0
VERTEX
  8
0
 10
-0.2500
 20
-0.1036
 30
0.0000
  0
VERTEX
  8
0
 10
-0.2500
 20
0.1036
 30
0.0000
  0
VERTEX
  8
0
 10
-0.1036
 20
0.2500
 30
0.0000
  0
VERTEX
  8
0
 10
0.1036
 20
0.2500
 30
0.0000
  0
VERTEX
  8
0
 10
0.2500
 20
0.1036
 30
0.0000
  0
VERTEX
  8
0
 10
0.2500
 20
-0.1036
 30
0.0000
  0
VERTEX
  8
0
 10
0.1036
 20
-0.2500
 30
0.0000
  0
VERTEX
  8
0
 10
-0.1036
 20
-0.2500
 30
0.0000
  0
VERTEX
  8
0
 10
-0.2500
 20
-0.1036
 30
0.0000
  0
VERTEX
  8
0
 10
-0.2500
 20
0.1036
 30
0.0000
  0
SEQEND
  8
0
  0
ENDBLK
  8
0
  0
BLOCK
  8
0
  2
SQUAREV
 70
64
 10
0.0000
 20
0.0000
 30
0.0000
  3
SQUAREV
  0
SOLID
  8
0
 10
-0.5000
 20
-0.5000
 30
0.0000
 11
0.5000
 21
-0.5000
 31
0.0000
 12
-0.5000
 22
0.5000
 32
0.0000
 13
0.5000
 23
0.5000
 33
0.0000
  0
ENDBLK
  8
0
  0
BLOCK
  8
0
  2
ROUNDV
 70
64
 10
0.0000
 20
0.0000
 30
0.0000
  3
ROUNDV
  0
POLYLINE
  8
0
 66
1
 10
0.0000
 20
0.0000
 30
0.0000
 40
0.5000
 41
0.5000
 70
0
  0
VERTEX
  8
0
 10
0.0000
 20
-0.2500
 30
0.0000
 42
1.0000
  0
VERTEX
  8
0
 10
0.0000
 20
0.2500
 30
0.0000
 42
1.0000
  0
VERTEX
  8
0
 10
0.0000
 20
-0.2500
 30
0.0000
  0
SEQEND
  8
0
  0
ENDBLK
  8
0
  0
BLOCK
  8
0
  2
ANNULUSV
 70
64
 10
0.0000
 20
0.0000
 30
0.0000
  3
ANNULUSV
  0
POLYLINE
  8
0
 66
1
 10
0.0000
 20
0.0000
 30
0.0000
 40
0.5000
 41
0.5000
 70
0
  0
VERTEX
  8
0
 10
0.0000
 20
-0.2500
 30
0.0000
 42
1.0000
  0
VERTEX
  8
0
 10
0.0000
 20
0.2500
 30
0.0000
 42
1.0000
  0
VERTEX
  8
0
 10
0.0000
 20
-0.2500
 30
0.0000
  0
SEQEND
  8
0
  0
ENDBLK
  8
0
  0
BLOCK
  8
0
  2
THERMALV
 70
64
 10
0.0000
 20
0.0000
 30
0.0000
  3
THERMALV
  0
POLYLINE
  8
0
 66
1
 10
0.0000
 20
0.0000
 30
0.0000
 40
0.1000
 41
0.1000
 70
0
  0
VERTEX
  8
0
 10
-0.2379
 20
0.4500
 30
0.0000
  0
VERTEX
  8
0
 10
0.2379
 20
0.4500
 30
0.0000
  0
SEQEND
  8
0
  0
POLYLINE
  8
0
 66
1
 10
0.0000
 20
0.0000
 30
0.0000
 40
0.0500
 41
0.0500
 70
0
  0
VERTEX
  8
0
 10
0.2379
 20
0.4250
 30
0.0000
 42
1.0000
  0
VERTEX
  8
0
 10
0.2379
 20
0.4750
 30
0.0000
  0
SEQEND
  8
0
  0
POLYLINE
  8
0
 66
1
 10
0.0000
 20
0.0000
 30
0.0000
 40
0.0500
 41
0.0500
 70
0
  0
VERTEX
  8
0
 10
-0.2379
 20
0.4750
 30
0.0000
 42
1.0000
  0
VERTEX
  8
0
 10
-0.2379
 20
0.4250
 30
0.0000
  0
SEQEND
  8
0
  0
POLYLINE
  8
0
 66
1
 10
0.0000
 20
0.0000
 30
0.0000
 40
0.1000
 41
0.1000
 70
0
  0
VERTEX
  8
0
 10
0.4500
 20
0.2379
 30
0.0000
  0
VERTEX
  8
0
 10
0.4500
 20
-0.2379
 30
0.0000
  0
SEQEND
  8
0
  0
POLYLINE
  8
0
 66
1
 10
0.0000
 20
0.0000
 30
0.0000
 40
0.0500
 41
0.0500
 70
0
  0
VERTEX
  8
0
 10
0.4250
 20
-0.2379
 30
0.0000
 42
1.0000
  0
VERTEX
  8
0
 10
0.4750
 20
-0.2379
 30
0.0000
  0
SEQEND
  8
0
  0
POLYLINE
  8
0
 66
1
 10
0.0000
 20
0.0000
 30
0.0000
 40
0.0500
 41
0.0500
 70
0
  0
VERTEX
  8
0
 10
0.4750
 20
0.2379
 30
0.0000
 42
1.0000
  0
VERTEX
  8
0
 10
0.4250
 20
0.2379
 30
0.0000
  0
SEQEND
  8
0
  0
POLYLINE
  8
0
 66
1
 10
0.0000
 20
0.0000
 30
0.0000
 40
0.1000
 41
0.1000
 70
0
  0
VERTEX
  8
0
 10
0.2379
 20
-0.4500
 30
0.0000
  0
VERTEX
  8
0
 10
-0.2379
 20
-0.4500
 30
0.0000
  0
SEQEND
  8
0
  0
POLYLINE
  8
0
 66
1
 10
0.0000
 20
0.0000
 30
0.0000
 40
0.0500
 41
0.0500
 70
0
  0
VERTEX
  8
0
 10
-0.2379
 20
-0.4250
 30
0.0000
 42
1.0000
  0
VERTEX
  8
0
 10
-0.2379
 20
-0.4750
 30
0.0000
  0
SEQEND
  8
0
  0
POLYLINE
  8
0
 66
1
 10
0.0000
 20
0.0000
 30
0.0000
 40
0.0500
 41
0.0500
 70
0
  0
VERTEX
  8
0
 10
0.2379
 20
-0.4750
 30
0.0000
 42
1.0000
  0
VERTEX
  8
0
 10
0.2379
 20
-0.4250
 30
0.0000
  0
SEQEND
  8
0
  0
POLYLINE
  8
0
 66
1
 10
0.0000
 20
0.0000
 30
0.0000
 40
0.1000
 41
0.1000
 70
0
  0
VERTEX
  8
0
 10
-0.4500
 20
-0.2379
 30
0.0000
  0
VERTEX
  8
0
 10
-0.4500
 20
0.2379
 30
0.0000
  0
SEQEND
  8
0
  0
POLYLINE
  8
0
 66
1
 10
0.0000
 20
0.0000
 30
0.0000
 40
0.0500
 41
0.0500
 70
0
  0
VERTEX
  8
0
 10
-0.4250
 20
0.2379
 30
0.0000
 42
1.0000
  0
VERTEX
  8
0
 10
-0.4750
 20
0.2379
 30
0.0000
  0
SEQEND
  8
0
  0
POLYLINE
  8
0
 66
1
 10
0.0000
 20
0.0000
 30
0.0000
 40
0.0500
 41
0.0500
 70
0
  0
VERTEX
  8
0
 10
-0.4750
 20
-0.2379
 30
0.0000
 42
1.0000
  0
VERTEX
  8
0
 10
-0.4250
 20
-0.2379
 30
0.0000
  0
SEQEND
  8
0
  0
ENDBLK
  8
0
  0
BLOCK
  8
0
  2
LONGP100
 70
64
 10
0.0000
 20
0.0000
 30
0.0000
  3
LONGP100
  0
POLYLINE
  8
0
 66
1
 10
0.0000
 20
0.0000
 30
0.0000
 40
1.0000
 41
1.0000
 70
0
  0
VERTEX
  8
0
 10
-0.5000
 20
0.0000
 30
0.0000
  0
VERTEX
  8
0
 10
0.5000
 20
0.0000
 30
0.0000
  0
SEQEND
  8
0
  0
POLYLINE
  8
0
 66
1
 10
0.0000
 20
0.0000
 30
0.0000
 40
0.5000
 41
0.5000
 70
0
  0
VERTEX
  8
0
 10
0.5000
 20
-0.2500
 30
0.0000
 42
1.0000
  0
VERTEX
  8
0
 10
0.5000
 20
0.2500
 30
0.0000
  0
SEQEND
  8
0
  0
POLYLINE
  8
0
 66
1
 10
0.0000
 20
0.0000
 30
0.0000
 40
0.5000
 41
0.5000
 70
0
  0
VERTEX
  8
0
 10
-0.5000
 20
0.2500
 30
0.0000
 42
1.0000
  0
VERTEX
  8
0
 10
-0.5000
 20
-0.2500
 30
0.0000
  0
SEQEND
  8
0
  0
ENDBLK
  8
0
  0
ENDSEC
  0
SECTION
  2
ENTITIES
  0
POLYLINE
  8
111
 66
1
 10
0.0000
 20
0.0000
 30
0.0000
 40
0.0100
 41
0.0100
 70
0
  0
VERTEX
  8
111
 10
6.1000
 20
44.4200
 30
0.0000
 42
0.4142
  0
VERTEX
  8
111
 10
5.1000
 20
43.4200
 30
0.0000
  0
SEQEND
  8
0
  0
POLYLINE
  8
111
 66
1
 10
0.0000
 20
0.0000
 30
0.0000
 40
0.0050
 41
0.0050
 70
0
  0
VERTEX
  8
111
 10
6.1000
 20
44.4175
 30
0.0000
 42
1.0000
  0
VERTEX
  8
111
 10
6.1000
 20
44.4225
 30
0.0000
  0
SEQEND
  8
0
  0
POLYLINE
  8
111
 66
1
 10
0.0000
 20
0.0000
 30
0.0000
 40
0.0050
 41
0.0050
 70
0
  0
VERTEX
  8
111
 10
5.0975
 20
43.4200
 30
0.0000
 42
1.0000
  0
VERTEX
  8
111
 10
5.1025
 20
43.4200
 30
0.0000
  0
SEQEND
  8
0
  0
POLYLINE
  8
111
 66
1
 10
0.0000
 20
0.0000
 30
0.0000
 40
0.0100
 41
0.0100
 70
0
  0
VERTEX
  8
111
 10
6.1000
 20
44.4200
 30
0.0000
  0
VERTEX
  8
111
 10
82.9000
 20
44.4200
 30
0.0000
  0
SEQEND
  8
0
  0
POLYLINE
  8
111
 66
1
 10
0.0000
 20
0.0000
 30
0.0000
 40
0.0050
 41
0.0050
 70
0
  0
VERTEX
  8
111
 10
82.9000
 20
44.4175
 30
0.0000
 42
1.0000
  0
VERTEX
  8
111
 10
82.9000
 20
44.4225
 30
0.0000
  0
SEQEND
  8
0
  0
POLYLINE
  8
111
 66
1
 10
0.0000
 20
0.0000
 30
0.0000
 40
0.0050
 41
0.0050
 70
0
  0
VERTEX
  8
111
 10
6.1000
 20
44.4225
 30
0.0000
 42
1.0000
  0
VERTEX
  8
111
 10
6.1000
 20
44.4175
 30
0.0000
  0
SEQEND
  8
0
  0
POLYLINE
  8
111
 66
1
 10
0.0000
 20
0.0000
 30
0.0000
 40
0.0100
 41
0.0100
 70
0
  0
VERTEX
  8
111
 10
83.9000
 20
43.4200
 30
0.0000
 42
0.4142
  0
VERTEX
  8
111
 10
82.9000
 20
44.4200
 30
0.0000
  0
SEQEND
  8
0
  0
POLYLINE
  8
111
 66
1
 10
0.0000
 20
0.0000
 30
0.0000
 40
0.0050
 41
0.0050
 70
0
  0
VERTEX
  8
111
 10
83.8975
 20
43.4200
 30
0.0000
 42
1.0000
  0
VERTEX
  8
111
 10
83.9025
 20
43.4200
 30
0.0000
  0
SEQEND
  8
0
  0
POLYLINE
  8
111
 66
1
 10
0.0000
 20
0.0000
 30
0.0000
 40
0.0050
 41
0.0050
 70
0
  0
VERTEX
  8
111
 10
82.9000
 20
44.4225
 30
0.0000
 42
1.0000
  0
VERTEX
  8
111
 10
82.9000
 20
44.4175
 30
0.0000
  0
SEQEND
  8
0
  0
POLYLINE
  8
111
 66
1
 10
0.0000
 20
0.0000
 30
0.0000
 40
0.0100
 41
0.0100
 70
0
  0
VERTEX
  8
111
 10
83.9000
 20
43.4200
 30
0.0000
  0
VERTEX
  8
111
 10
83.9000
 20
24.2400
 30
0.0000
  0
SEQEND
  8
0
  0
POLYLINE
  8
111
 66
1
 10
0.0000
 20
0.0000
 30
0.0000
 40
0.0050
 41
0.0050
 70
0
  0
VERTEX
  8
111
 10
83.8975
 20
24.2400
 30
0.0000
 42
1.0000
  0
VERTEX
  8
111
 10
83.9025
 20
24.2400
 30
0.0000
  0
SEQEND
  8
0
  0
POLYLINE
  8
111
 66
1
 10
0.0000
 20
0.0000
 30
0.0000
 40
0.0050
 41
0.0050
 70
0
  0
VERTEX
  8
111
 10
83.9025
 20
43.4200
 30
0.0000
 42
1.0000
  0
VERTEX
  8
111
 10
83.8975
 20
43.4200
 30
0.0000
  0
SEQEND
  8
0
  0
POLYLINE
  8
111
 66
1
 10
0.0000
 20
0.0000
 30
0.0000
 40
0.0100
 41
0.0100
 70
0
  0
VERTEX
  8
111
 10
82.9000
 20
23.2400
 30
0.0000
 42
0.4142
  0
VERTEX
  8
111
 10
83.9000
 20
24.2400
 30
0.0000
  0
SEQEND
  8
0
  0
POLYLINE
  8
111
 66
1
 10
0.0000
 20
0.0000
 30
0.0000
 40
0.0050
 41
0.0050
 70
0
  0
VERTEX
  8
111
 10
82.9000
 20
23.2425
 30
0.0000
 42
1.0000
  0
VERTEX
  8
111
 10
82.9000
 20
23.2375
 30
0.0000
  0
SEQEND
  8
0
  0
POLYLINE
  8
111
 66
1
 10
0.0000
 20
0.0000
 30
0.0000
 40
0.0050
 41
0.0050
 70
0
  0
VERTEX
  8
111
 10
83.9025
 20
24.2400
 30
0.0000
 42
1.0000
  0
VERTEX
  8
111
 10
83.8975
 20
24.2400
 30
0.0000
  0
SEQEND
  8
0
  0
POLYLINE
  8
111
 66
1
 10
0.0000
 20
0.0000
 30
0.0000
 40
0.0100
 41
0.0100
 70
0
  0
VERTEX
  8
111
 10
82.9000
 20
23.2400
 30
0.0000
  0
VERTEX
  8
111
 10
6.1000
 20
23.2400
 30
0.0000
  0
SEQEND
  8
0
  0
POLYLINE
  8
111
 66
1
 10
0.0000
 20
0.0000
 30
0.0000
 40
0.0050
 41
0.0050
 70
0
  0
VERTEX
  8
111
 10
6.1000
 20
23.2425
 30
0.0000
 42
1.0000
  0
VERTEX
  8
111
 10
6.1000
 20
23.2375
 30
0.0000
  0
SEQEND
  8
0
  0
POLYLINE
  8
111
 66
1
 10
0.0000
 20
0.0000
 30
0.0000
 40
0.0050
 41
0.0050
 70
0
  0
VERTEX
  8
111
 10
82.9000
 20
23.2375
 30
0.0000
 42
1.0000
  0
VERTEX
  8
111
 10
82.9000
 20
23.2425
 30
0.0000
  0
SEQEND
  8
0
  0
POLYLINE
  8
111
 66
1
 10
0.0000
 20
0.0000
 30
0.0000
 40
0.0100
 41
0.0100
 70
0
  0
VERTEX
  8
111
 10
5.1000
 20
24.2400
 30
0.0000
 42
0.4142
  0
VERTEX
  8
111
 10
6.1000
 20
23.2400
 30
0.0000
  0
SEQEND
  8
0
  0
POLYLINE
  8
111
 66
1
 10
0.0000
 20
0.0000
 30
0.0000
 40
0.0050
 41
0.0050
 70
0
  0
VERTEX
  8
111
 10
5.1025
 20
24.2400
 30
0.0000
 42
1.0000
  0
VERTEX
  8
111
 10
5.0975
 20
24.2400
 30
0.0000
  0
SEQEND
  8
0
  0
POLYLINE
  8
111
 66
1
 10
0.0000
 20
0.0000
 30
0.0000
 40
0.0050
 41
0.0050
 70
0
  0
VERTEX
  8
111
 10
6.1000
 20
23.2375
 30
0.0000
 42
1.0000
  0
VERTEX
  8
111
 10
6.1000
 20
23.2425
 30
0.0000
  0
SEQEND
  8
0
  0
POLYLINE
  8
111
 66
1
 10
0.0000
 20
0.0000
 30
0.0000
 40
0.0100
 41
0.0100
 70
0
  0
VERTEX
  8
111
 10
5.1000
 20
24.2400
 30
0.0000
  0
VERTEX
  8
111
 10
5.1000
 20
43.4200
 30
0.0000
  0
SEQEND
  8
0
  0
POLYLINE
  8
111
 66
1
 10
0.0000
 20
0.0000
 30
0.0000
 40
0.0050
 41
0.0050
 70
0
  0
VERTEX
  8
111
 10
5.1025
 20
43.4200
 30
0.0000
 42
1.0000
  0
VERTEX
  8
111
 10
5.0975
 20
43.4200
 30
0.0000
  0
SEQEND
  8
0
  0
POLYLINE
  8
111
 66
1
 10
0.0000
 20
0.0000
 30
0.0000
 40
0.0050
 41
0.0050
 70
0
  0
VERTEX
  8
111
 10
5.0975
 20
24.2400
 30
0.0000
 42
1.0000
  0
VERTEX
  8
111
 10
5.1025
 20
24.2400
 30
0.0000
  0
SEQEND
  8
0
  0
POLYLINE
  8
112
 66
1
 10
0.0000
 20
0.0000
 30
0.0000
 40
0.0100
 41
0.0100
 70
0
  0
VERTEX
  8
112
 10
-27.6400
 20
-8.5000
 30
0.0000
  0
VERTEX
  8
112
 10
116.6400
 20
-8.5000
 30
0.0000
  0
SEQEND
  8
0
  0
POLYLINE
  8
112
 66
1
 10
0.0000
 20
0.0000
 30
0.0000
 40
0.0050
 41
0.0050
 70
0
  0
VERTEX
  8
112
 10
116.6400
 20
-8.5025
 30
0.0000
 42
1.0000
  0
VERTEX
  8
112
 10
116.6400
 20
-8.4975
 30
0.0000
  0
SEQEND
  8
0
  0
POLYLINE
  8
112
 66
1
 10
0.0000
 20
0.0000
 30
0.0000
 40
0.0050
 41
0.0050
 70
0
  0
VERTEX
  8
112
 10
-27.6400
 20
-8.4975
 30
0.0000
 42
1.0000
  0
VERTEX
  8
112
 10
-27.6400
 20
-8.5025
 30
0.0000
  0
SEQEND
  8
0
  0
POLYLINE
  8
112
 66
1
 10
0.0000
 20
0.0000
 30
0.0000
 40
0.0100
 41
0.0100
 70
0
  0
VERTEX
  8
112
 10
116.6400
 20
-8.5000
 30
0.0000
  0
VERTEX
  8
112
 10
116.6400
 20
76.5000
 30
0.0000
  0
SEQEND
  8
0
  0
POLYLINE
  8
112
 66
1
 10
0.0000
 20
0.0000
 30
0.0000
 40
0.0050
 41
0.0050
 70
0
  0
VERTEX
  8
112
 10
116.6425
 20
76.5000
 30
0.0000
 42
1.0000
  0
VERTEX
  8
112
 10
116.6375
 20
76.5000
 30
0.0000
  0
SEQEND
  8
0
  0
POLYLINE
  8
112
 66
1
 10
0.0000
 20
0.0000
 30
0.0000
 40
0.0050
 41
0.0050
 70
0
  0
VERTEX
  8
112
 10
116.6375
 20
-8.5000
 30
0.0000
 42
1.0000
  0
VERTEX
  8
112
 10
116.6425
 20
-8.5000
 30
0.0000
  0
SEQEND
  8
0
  0
POLYLINE
  8
112
 66
1
 10
0.0000
 20
0.0000
 30
0.0000
 40
0.0100
 41
0.0100
 70
0
  0
VERTEX
  8
112
 10
116.6400
 20
76.5000
 30
0.0000
  0
VERTEX
  8
112
 10
-27.6400
 20
76.5000
 30
0.0000
  0
SEQEND
  8
0
  0
POLYLINE
  8
112
 66
1
 10
0.0000
 20
0.0000
 30
0.0000
 40
0.0050
 41
0.0050
 70
0
  0
VERTEX
  8
112
 10
-27.6400
 20
76.5025
 30
0.0000
 42
1.0000
  0
VERTEX
  8
112
 10
-27.6400
 20
76.4975
 30
0.0000
  0
SEQEND
  8
0
  0
POLYLINE
  8
112
 66
1
 10
0.0000
 20
0.0000
 30
0.0000
 40
0.0050
 41
0.0050
 70
0
  0
VERTEX
  8
112
 10
116.6400
 20
76.4975
 30
0.0000
 42
1.0000
  0
VERTEX
  8
112
 10
116.6400
 20
76.5025
 30
0.0000
  0
SEQEND
  8
0
  0
POLYLINE
  8
112
 66
1
 10
0.0000
 20
0.0000
 30
0.0000
 40
0.0100
 41
0.0100
 70
0
  0
VERTEX
  8
112
 10
-27.6400
 20
76.5000
 30
0.0000
  0
VERTEX
  8
112
 10
-27.6400
 20
-8.5000
 30
0.0000
  0
SEQEND
  8
0
  0
POLYLINE
  8
112
 66
1
 10
0.0000
 20
0.0000
 30
0.0000
 40
0.0050
 41
0.0050
 70
0
  0
VERTEX
  8
112
 10
-27.6425
 20
-8.5000
 30
0.0000
 42
1.0000
  0
VERTEX
  8
112
 10
-27.6375
 20
-8.5000
 30
0.0000
  0
SEQEND
  8
0
  0
POLYLINE
  8
112
 66
1
 10
0.0000
 20
0.0000
 30
0.0000
 40
0.0050
 41
0.0050
 70
0
  0
VERTEX
  8
112
 10
-27.6375
 20
76.5000
 30
0.0000
 42
1.0000
  0
VERTEX
  8
112
 10
-27.6425
 20
76.5000
 30
0.0000
  0
SEQEND
  8
0
  0
POLYLINE
  8
111
 66
1
 10
0.0000
 20
0.0000
 30
0.0000
 40
0.0100
 41
0.0100
 70
0
  0
VERTEX
  8
111
 10
10.1000
 20
51.9000
 30
0.0000
 42
1.0000
  0
VERTEX
  8
111
 10
10.1000
 20
58.1000
 30
0.0000
 42
1.0000
  0
VERTEX
  8
111
 10
10.1000
 20
51.9000
 30
0.0000
  0
SEQEND
  8
0
  0
POLYLINE
  8
111
 66
1
 10
0.0000
 20
0.0000
 30
0.0000
 40
0.0100
 41
0.0100
 70
0
  0
VERTEX
  8
111
 10
44.5000
 20
53.5000
 30
0.0000
 42
1.0000
  0
VERTEX
  8
111
 10
44.5000
 20
63.5000
 30
0.0000
 42
1.0000
  0
VERTEX
  8
111
 10
44.5000
 20
53.5000
 30
0.0000
  0
SEQEND
  8
0
  0
POLYLINE
  8
111
 66
1
 10
0.0000
 20
0.0000
 30
0.0000
 40
0.0100
 41
0.0100
 70
0
  0
VERTEX
  8
111
 10
92.0000
 20
44.8200
 30
0.0000
 42
1.0000
  0
VERTEX
  8
111
 10
92.0000
 20
47.8200
 30
0.0000
 42
1.0000
  0
VERTEX
  8
111
 10
92.0000
 20
44.8200
 30
0.0000
  0
SEQEND
  8
0
  0
POLYLINE
  8
111
 66
1
 10
0.0000
 20
0.0000
 30
0.0000
 40
0.0100
 41
0.0100
 70
0
  0
VERTEX
  8
111
 10
92.0000
 20
16.3200
 30
0.0000
 42
1.0000
  0
VERTEX
  8
111
 10
92.0000
 20
19.3200
 30
0.0000
 42
1.0000
  0
VERTEX
  8
111
 10
92.0000
 20
16.3200
 30
0.0000
  0
SEQEND
  8
0
  0
POLYLINE
  8
111
 66
1
 10
0.0000
 20
0.0000
 30
0.0000
 40
0.0100
 41
0.0100
 70
0
  0
VERTEX
  8
111
 10
-3.0000
 20
16.3200
 30
0.0000
 42
1.0000
  0
VERTEX
  8
111
 10
-3.0000
 20
19.3200
 30
0.0000
 42
1.0000
  0
VERTEX
  8
111
 10
-3.0000
 20
16.3200
 30
0.0000
  0
SEQEND
  8
0
  0
POLYLINE
  8
111
 66
1
 10
0.0000
 20
0.0000
 30
0.0000
 40
0.0100
 41
0.0100
 70
0
  0
VERTEX
  8
111
 10
-3.0000
 20
44.8200
 30
0.0000
 42
1.0000
  0
VERTEX
  8
111
 10
-3.0000
 20
47.8200
 30
0.0000
 42
1.0000
  0
VERTEX
  8
111
 10
-3.0000
 20
44.8200
 30
0.0000
  0
SEQEND
  8
0
  0
POLYLINE
  8
111
 66
1
 10
0.0000
 20
0.0000
 30
0.0000
 40
0.0100
 41
0.0100
 70
0
  0
VERTEX
  8
111
 10
78.9000
 20
51.9000
 30
0.0000
 42
1.0000
  0
VERTEX
  8
111
 10
78.9000
 20
58.1000
 30
0.0000
 42
1.0000
  0
VERTEX
  8
111
 10
78.9000
 20
51.9000
 30
0.0000
  0
SEQEND
  8
0
  0
POLYLINE
  8
111
 66
1
 10
0.0000
 20
0.0000
 30
0.0000
 40
0.0100
 41
0.0100
 70
0
  0
VERTEX
  8
111
 10
-6.0000
 20
3.5000
 30
0.0000
 42
1.0000
  0
VERTEX
  8
111
 10
-6.0000
 20
6.5000
 30
0.0000
 42
1.0000
  0
VERTEX
  8
111
 10
-6.0000
 20
3.5000
 30
0.0000
  0
SEQEND
  8
0
  0
POLYLINE
  8
111
 66
1
 10
0.0000
 20
0.0000
 30
0.0000
 40
0.0100
 41
0.0100
 70
0
  0
VERTEX
  8
111
 10
94.0000
 20
62.5000
 30
0.0000
 42
1.0000
  0
VERTEX
  8
111
 10
94.0000
 20
65.5000
 30
0.0000
 42
1.0000
  0
VERTEX
  8
111
 10
94.0000
 20
62.5000
 30
0.0000
  0
SEQEND
  8
0
  0
POLYLINE
  8
111
 66
1
 10
0.0000
 20
0.0000
 30
0.0000
 40
0.0100
 41
0.0100
 70
0
  0
VERTEX
  8
111
 10
10.1000
 20
7.2200
 30
0.0000
 42
1.0000
  0
VERTEX
  8
111
 10
10.1000
 20
13.4200
 30
0.0000
 42
1.0000
  0
VERTEX
  8
111
 10
10.1000
 20
7.2200
 30
0.0000
  0
SEQEND
  8
0
  0
POLYLINE
  8
111
 66
1
 10
0.0000
 20
0.0000
 30
0.0000
 40
0.0100
 41
0.0100
 70
0
  0
VERTEX
  8
111
 10
27.3000
 20
7.2200
 30
0.0000
 42
1.0000
  0
VERTEX
  8
111
 10
27.3000
 20
13.4200
 30
0.0000
 42
1.0000
  0
VERTEX
  8
111
 10
27.3000
 20
7.2200
 30
0.0000
  0
SEQEND
  8
0
  0
POLYLINE
  8
111
 66
1
 10
0.0000
 20
0.0000
 30
0.0000
 40
0.0100
 41
0.0100
 70
0
  0
VERTEX
  8
111
 10
44.5000
 20
7.2200
 30
0.0000
 42
1.0000
  0
VERTEX
  8
111
 10
44.5000
 20
13.4200
 30
0.0000
 42
1.0000
  0
VERTEX
  8
111
 10
44.5000
 20
7.2200
 30
0.0000
  0
SEQEND
  8
0
  0
POLYLINE
  8
111
 66
1
 10
0.0000
 20
0.0000
 30
0.0000
 40
0.0100
 41
0.0100
 70
0
  0
VERTEX
  8
111
 10
61.7000
 20
7.2200
 30
0.0000
 42
1.0000
  0
VERTEX
  8
111
 10
61.7000
 20
13.4200
 30
0.0000
 42
1.0000
  0
VERTEX
  8
111
 10
61.7000
 20
7.2200
 30
0.0000
  0
SEQEND
  8
0
  0
POLYLINE
  8
111
 66
1
 10
0.0000
 20
0.0000
 30
0.0000
 40
0.0100
 41
0.0100
 70
0
  0
VERTEX
  8
111
 10
78.9000
 20
7.2200
 30
0.0000
 42
1.0000
  0
VERTEX
  8
111
 10
78.9000
 20
13.4200
 30
0.0000
 42
1.0000
  0
VERTEX
  8
111
 10
78.9000
 20
7.2200
 30
0.0000
  0
SEQEND
  8
0
  0
ENDSEC
  0
EOF
