G75*
%MOIN*%
%OFA0B0*%
%FSLAX24Y24*%
%IPPOS*%
%LPD*%
%AMOC8*
5,1,8,0,0,1.08239X$1,22.5*
%
%ADD10C,0.0000*%
%ADD11C,0.0004*%
%ADD12C,0.0600*%
%ADD13C,0.0740*%
%ADD14R,0.0515X0.0515*%
%ADD15OC8,0.0600*%
%ADD16C,0.0400*%
%ADD17R,0.0660X0.0660*%
%ADD18C,0.0320*%
%ADD19R,0.0475X0.0475*%
%ADD20R,0.0760X0.0760*%
%ADD21C,0.0560*%
D10*
X007411Y004067D02*
X051112Y004067D01*
X051112Y030838D01*
X007411Y030838D01*
X009970Y022303D02*
X009972Y022351D01*
X009978Y022399D01*
X009988Y022446D01*
X010001Y022492D01*
X010019Y022537D01*
X010039Y022581D01*
X010064Y022623D01*
X010092Y022662D01*
X010122Y022699D01*
X010156Y022733D01*
X010193Y022765D01*
X010231Y022794D01*
X010272Y022819D01*
X010315Y022841D01*
X010360Y022859D01*
X010406Y022873D01*
X010453Y022884D01*
X010501Y022891D01*
X010549Y022894D01*
X010597Y022893D01*
X010645Y022888D01*
X010693Y022879D01*
X010739Y022867D01*
X010784Y022850D01*
X010828Y022830D01*
X010870Y022807D01*
X010910Y022780D01*
X010948Y022750D01*
X010983Y022717D01*
X011015Y022681D01*
X011045Y022643D01*
X011071Y022602D01*
X011093Y022559D01*
X011113Y022515D01*
X011128Y022470D01*
X011140Y022423D01*
X011148Y022375D01*
X011152Y022327D01*
X011152Y022279D01*
X011148Y022231D01*
X011140Y022183D01*
X011128Y022136D01*
X011113Y022091D01*
X011093Y022047D01*
X011071Y022004D01*
X011045Y021963D01*
X011015Y021925D01*
X010983Y021889D01*
X010948Y021856D01*
X010910Y021826D01*
X010870Y021799D01*
X010828Y021776D01*
X010784Y021756D01*
X010739Y021739D01*
X010693Y021727D01*
X010645Y021718D01*
X010597Y021713D01*
X010549Y021712D01*
X010501Y021715D01*
X010453Y021722D01*
X010406Y021733D01*
X010360Y021747D01*
X010315Y021765D01*
X010272Y021787D01*
X010231Y021812D01*
X010193Y021841D01*
X010156Y021873D01*
X010122Y021907D01*
X010092Y021944D01*
X010064Y021983D01*
X010039Y022025D01*
X010019Y022069D01*
X010001Y022114D01*
X009988Y022160D01*
X009978Y022207D01*
X009972Y022255D01*
X009970Y022303D01*
X009970Y011082D02*
X009972Y011130D01*
X009978Y011178D01*
X009988Y011225D01*
X010001Y011271D01*
X010019Y011316D01*
X010039Y011360D01*
X010064Y011402D01*
X010092Y011441D01*
X010122Y011478D01*
X010156Y011512D01*
X010193Y011544D01*
X010231Y011573D01*
X010272Y011598D01*
X010315Y011620D01*
X010360Y011638D01*
X010406Y011652D01*
X010453Y011663D01*
X010501Y011670D01*
X010549Y011673D01*
X010597Y011672D01*
X010645Y011667D01*
X010693Y011658D01*
X010739Y011646D01*
X010784Y011629D01*
X010828Y011609D01*
X010870Y011586D01*
X010910Y011559D01*
X010948Y011529D01*
X010983Y011496D01*
X011015Y011460D01*
X011045Y011422D01*
X011071Y011381D01*
X011093Y011338D01*
X011113Y011294D01*
X011128Y011249D01*
X011140Y011202D01*
X011148Y011154D01*
X011152Y011106D01*
X011152Y011058D01*
X011148Y011010D01*
X011140Y010962D01*
X011128Y010915D01*
X011113Y010870D01*
X011093Y010826D01*
X011071Y010783D01*
X011045Y010742D01*
X011015Y010704D01*
X010983Y010668D01*
X010948Y010635D01*
X010910Y010605D01*
X010870Y010578D01*
X010828Y010555D01*
X010784Y010535D01*
X010739Y010518D01*
X010693Y010506D01*
X010645Y010497D01*
X010597Y010492D01*
X010549Y010491D01*
X010501Y010494D01*
X010453Y010501D01*
X010406Y010512D01*
X010360Y010526D01*
X010315Y010544D01*
X010272Y010566D01*
X010231Y010591D01*
X010193Y010620D01*
X010156Y010652D01*
X010122Y010686D01*
X010092Y010723D01*
X010064Y010762D01*
X010039Y010804D01*
X010019Y010848D01*
X010001Y010893D01*
X009988Y010939D01*
X009978Y010986D01*
X009972Y011034D01*
X009970Y011082D01*
X008789Y006035D02*
X008791Y006083D01*
X008797Y006131D01*
X008807Y006178D01*
X008820Y006224D01*
X008838Y006269D01*
X008858Y006313D01*
X008883Y006355D01*
X008911Y006394D01*
X008941Y006431D01*
X008975Y006465D01*
X009012Y006497D01*
X009050Y006526D01*
X009091Y006551D01*
X009134Y006573D01*
X009179Y006591D01*
X009225Y006605D01*
X009272Y006616D01*
X009320Y006623D01*
X009368Y006626D01*
X009416Y006625D01*
X009464Y006620D01*
X009512Y006611D01*
X009558Y006599D01*
X009603Y006582D01*
X009647Y006562D01*
X009689Y006539D01*
X009729Y006512D01*
X009767Y006482D01*
X009802Y006449D01*
X009834Y006413D01*
X009864Y006375D01*
X009890Y006334D01*
X009912Y006291D01*
X009932Y006247D01*
X009947Y006202D01*
X009959Y006155D01*
X009967Y006107D01*
X009971Y006059D01*
X009971Y006011D01*
X009967Y005963D01*
X009959Y005915D01*
X009947Y005868D01*
X009932Y005823D01*
X009912Y005779D01*
X009890Y005736D01*
X009864Y005695D01*
X009834Y005657D01*
X009802Y005621D01*
X009767Y005588D01*
X009729Y005558D01*
X009689Y005531D01*
X009647Y005508D01*
X009603Y005488D01*
X009558Y005471D01*
X009512Y005459D01*
X009464Y005450D01*
X009416Y005445D01*
X009368Y005444D01*
X009320Y005447D01*
X009272Y005454D01*
X009225Y005465D01*
X009179Y005479D01*
X009134Y005497D01*
X009091Y005519D01*
X009050Y005544D01*
X009012Y005573D01*
X008975Y005605D01*
X008941Y005639D01*
X008911Y005676D01*
X008883Y005715D01*
X008858Y005757D01*
X008838Y005801D01*
X008820Y005846D01*
X008807Y005892D01*
X008797Y005939D01*
X008791Y005987D01*
X008789Y006035D01*
X047371Y011082D02*
X047373Y011130D01*
X047379Y011178D01*
X047389Y011225D01*
X047402Y011271D01*
X047420Y011316D01*
X047440Y011360D01*
X047465Y011402D01*
X047493Y011441D01*
X047523Y011478D01*
X047557Y011512D01*
X047594Y011544D01*
X047632Y011573D01*
X047673Y011598D01*
X047716Y011620D01*
X047761Y011638D01*
X047807Y011652D01*
X047854Y011663D01*
X047902Y011670D01*
X047950Y011673D01*
X047998Y011672D01*
X048046Y011667D01*
X048094Y011658D01*
X048140Y011646D01*
X048185Y011629D01*
X048229Y011609D01*
X048271Y011586D01*
X048311Y011559D01*
X048349Y011529D01*
X048384Y011496D01*
X048416Y011460D01*
X048446Y011422D01*
X048472Y011381D01*
X048494Y011338D01*
X048514Y011294D01*
X048529Y011249D01*
X048541Y011202D01*
X048549Y011154D01*
X048553Y011106D01*
X048553Y011058D01*
X048549Y011010D01*
X048541Y010962D01*
X048529Y010915D01*
X048514Y010870D01*
X048494Y010826D01*
X048472Y010783D01*
X048446Y010742D01*
X048416Y010704D01*
X048384Y010668D01*
X048349Y010635D01*
X048311Y010605D01*
X048271Y010578D01*
X048229Y010555D01*
X048185Y010535D01*
X048140Y010518D01*
X048094Y010506D01*
X048046Y010497D01*
X047998Y010492D01*
X047950Y010491D01*
X047902Y010494D01*
X047854Y010501D01*
X047807Y010512D01*
X047761Y010526D01*
X047716Y010544D01*
X047673Y010566D01*
X047632Y010591D01*
X047594Y010620D01*
X047557Y010652D01*
X047523Y010686D01*
X047493Y010723D01*
X047465Y010762D01*
X047440Y010804D01*
X047420Y010848D01*
X047402Y010893D01*
X047389Y010939D01*
X047379Y010986D01*
X047373Y011034D01*
X047371Y011082D01*
X047435Y014291D02*
X047437Y014312D01*
X047443Y014332D01*
X047452Y014352D01*
X047464Y014369D01*
X047479Y014383D01*
X047497Y014395D01*
X047517Y014403D01*
X047537Y014408D01*
X047558Y014409D01*
X047579Y014406D01*
X047599Y014400D01*
X047618Y014389D01*
X047635Y014376D01*
X047648Y014360D01*
X047659Y014342D01*
X047667Y014322D01*
X047671Y014302D01*
X047671Y014280D01*
X047667Y014260D01*
X047659Y014240D01*
X047648Y014222D01*
X047635Y014206D01*
X047618Y014193D01*
X047599Y014182D01*
X047579Y014176D01*
X047558Y014173D01*
X047537Y014174D01*
X047517Y014179D01*
X047497Y014187D01*
X047479Y014199D01*
X047464Y014213D01*
X047452Y014230D01*
X047443Y014250D01*
X047437Y014270D01*
X047435Y014291D01*
X048435Y015291D02*
X048437Y015312D01*
X048443Y015332D01*
X048452Y015352D01*
X048464Y015369D01*
X048479Y015383D01*
X048497Y015395D01*
X048517Y015403D01*
X048537Y015408D01*
X048558Y015409D01*
X048579Y015406D01*
X048599Y015400D01*
X048618Y015389D01*
X048635Y015376D01*
X048648Y015360D01*
X048659Y015342D01*
X048667Y015322D01*
X048671Y015302D01*
X048671Y015280D01*
X048667Y015260D01*
X048659Y015240D01*
X048648Y015222D01*
X048635Y015206D01*
X048618Y015193D01*
X048599Y015182D01*
X048579Y015176D01*
X048558Y015173D01*
X048537Y015174D01*
X048517Y015179D01*
X048497Y015187D01*
X048479Y015199D01*
X048464Y015213D01*
X048452Y015230D01*
X048443Y015250D01*
X048437Y015270D01*
X048435Y015291D01*
X047371Y022303D02*
X047373Y022351D01*
X047379Y022399D01*
X047389Y022446D01*
X047402Y022492D01*
X047420Y022537D01*
X047440Y022581D01*
X047465Y022623D01*
X047493Y022662D01*
X047523Y022699D01*
X047557Y022733D01*
X047594Y022765D01*
X047632Y022794D01*
X047673Y022819D01*
X047716Y022841D01*
X047761Y022859D01*
X047807Y022873D01*
X047854Y022884D01*
X047902Y022891D01*
X047950Y022894D01*
X047998Y022893D01*
X048046Y022888D01*
X048094Y022879D01*
X048140Y022867D01*
X048185Y022850D01*
X048229Y022830D01*
X048271Y022807D01*
X048311Y022780D01*
X048349Y022750D01*
X048384Y022717D01*
X048416Y022681D01*
X048446Y022643D01*
X048472Y022602D01*
X048494Y022559D01*
X048514Y022515D01*
X048529Y022470D01*
X048541Y022423D01*
X048549Y022375D01*
X048553Y022327D01*
X048553Y022279D01*
X048549Y022231D01*
X048541Y022183D01*
X048529Y022136D01*
X048514Y022091D01*
X048494Y022047D01*
X048472Y022004D01*
X048446Y021963D01*
X048416Y021925D01*
X048384Y021889D01*
X048349Y021856D01*
X048311Y021826D01*
X048271Y021799D01*
X048229Y021776D01*
X048185Y021756D01*
X048140Y021739D01*
X048094Y021727D01*
X048046Y021718D01*
X047998Y021713D01*
X047950Y021712D01*
X047902Y021715D01*
X047854Y021722D01*
X047807Y021733D01*
X047761Y021747D01*
X047716Y021765D01*
X047673Y021787D01*
X047632Y021812D01*
X047594Y021841D01*
X047557Y021873D01*
X047523Y021907D01*
X047493Y021944D01*
X047465Y021983D01*
X047440Y022025D01*
X047420Y022069D01*
X047402Y022114D01*
X047389Y022160D01*
X047379Y022207D01*
X047373Y022255D01*
X047371Y022303D01*
X048159Y029263D02*
X048161Y029311D01*
X048167Y029359D01*
X048177Y029406D01*
X048190Y029452D01*
X048208Y029497D01*
X048228Y029541D01*
X048253Y029583D01*
X048281Y029622D01*
X048311Y029659D01*
X048345Y029693D01*
X048382Y029725D01*
X048420Y029754D01*
X048461Y029779D01*
X048504Y029801D01*
X048549Y029819D01*
X048595Y029833D01*
X048642Y029844D01*
X048690Y029851D01*
X048738Y029854D01*
X048786Y029853D01*
X048834Y029848D01*
X048882Y029839D01*
X048928Y029827D01*
X048973Y029810D01*
X049017Y029790D01*
X049059Y029767D01*
X049099Y029740D01*
X049137Y029710D01*
X049172Y029677D01*
X049204Y029641D01*
X049234Y029603D01*
X049260Y029562D01*
X049282Y029519D01*
X049302Y029475D01*
X049317Y029430D01*
X049329Y029383D01*
X049337Y029335D01*
X049341Y029287D01*
X049341Y029239D01*
X049337Y029191D01*
X049329Y029143D01*
X049317Y029096D01*
X049302Y029051D01*
X049282Y029007D01*
X049260Y028964D01*
X049234Y028923D01*
X049204Y028885D01*
X049172Y028849D01*
X049137Y028816D01*
X049099Y028786D01*
X049059Y028759D01*
X049017Y028736D01*
X048973Y028716D01*
X048928Y028699D01*
X048882Y028687D01*
X048834Y028678D01*
X048786Y028673D01*
X048738Y028672D01*
X048690Y028675D01*
X048642Y028682D01*
X048595Y028693D01*
X048549Y028707D01*
X048504Y028725D01*
X048461Y028747D01*
X048420Y028772D01*
X048382Y028801D01*
X048345Y028833D01*
X048311Y028867D01*
X048281Y028904D01*
X048253Y028943D01*
X048228Y028985D01*
X048208Y029029D01*
X048190Y029074D01*
X048177Y029120D01*
X048167Y029167D01*
X048161Y029215D01*
X048159Y029263D01*
D11*
X007411Y030838D02*
X007411Y004067D01*
D12*
X012820Y006567D02*
X013420Y006567D01*
X013420Y007567D02*
X012820Y007567D01*
X012820Y008567D02*
X013420Y008567D01*
X013420Y009567D02*
X012820Y009567D01*
X031224Y010117D02*
X031224Y010717D01*
X032224Y010717D02*
X032224Y010117D01*
X033224Y010117D02*
X033224Y010717D01*
X034224Y010717D02*
X034224Y010117D01*
X035224Y010117D02*
X035224Y010717D01*
X036224Y010717D02*
X036224Y010117D01*
X037224Y010117D02*
X037224Y010717D01*
X038224Y010717D02*
X038224Y010117D01*
X040224Y010117D02*
X040224Y010717D01*
X041224Y010717D02*
X041224Y010117D01*
X041224Y006004D02*
X041224Y005404D01*
X040224Y005404D02*
X040224Y006004D01*
X038224Y006004D02*
X038224Y005404D01*
X037224Y005404D02*
X037224Y006004D01*
X036224Y006004D02*
X036224Y005404D01*
X035224Y005404D02*
X035224Y006004D01*
X034224Y006004D02*
X034224Y005404D01*
X033224Y005404D02*
X033224Y006004D01*
X032224Y006004D02*
X032224Y005404D01*
X031224Y005404D02*
X031224Y006004D01*
X031316Y014421D02*
X031916Y014421D01*
X031916Y015421D02*
X031316Y015421D01*
X031316Y016421D02*
X031916Y016421D01*
X036242Y024672D02*
X036242Y025272D01*
X037242Y025272D02*
X037242Y024672D01*
X038242Y024672D02*
X038242Y025272D01*
X039242Y025272D02*
X039242Y024672D01*
X041344Y028963D02*
X041344Y029563D01*
X042344Y029563D02*
X042344Y028963D01*
X043344Y028963D02*
X043344Y029563D01*
X044344Y029563D02*
X044344Y028963D01*
X023691Y025272D02*
X023691Y024672D01*
X022691Y024672D02*
X022691Y025272D01*
X021691Y025272D02*
X021691Y024672D01*
X020691Y024672D02*
X020691Y025272D01*
X017179Y028963D02*
X017179Y029563D01*
X016179Y029563D02*
X016179Y028963D01*
X015179Y028963D02*
X015179Y029563D01*
X014179Y029563D02*
X014179Y028963D01*
X048450Y008009D02*
X048450Y007409D01*
X050230Y007409D02*
X050230Y008009D01*
X050230Y005449D02*
X050230Y004849D01*
X048450Y004849D02*
X048450Y005449D01*
D13*
X047224Y008067D03*
X046224Y008067D03*
X045224Y008067D03*
X044224Y008067D03*
X043224Y008067D03*
X042224Y008067D03*
X041224Y008067D03*
X040224Y008067D03*
X038224Y008067D03*
X037224Y008067D03*
X036224Y008067D03*
X035224Y008067D03*
X034224Y008067D03*
X033224Y008067D03*
X032224Y008067D03*
X031224Y008067D03*
X029224Y008067D03*
X028224Y008067D03*
X027224Y008067D03*
X026224Y008067D03*
X025224Y008067D03*
X024224Y008067D03*
X026624Y027067D03*
X027624Y027067D03*
X029224Y027067D03*
X030224Y027067D03*
X031224Y027067D03*
X032224Y027067D03*
X033224Y027067D03*
X034224Y027067D03*
X044224Y027067D03*
X045224Y027067D03*
D14*
X047553Y020291D03*
X048553Y020291D03*
X048553Y019291D03*
X047553Y019291D03*
X047553Y018291D03*
X048553Y018291D03*
X048553Y017291D03*
X047553Y017291D03*
X047553Y016291D03*
X048553Y016291D03*
X047553Y015291D03*
X048553Y014291D03*
X048553Y013291D03*
X047553Y013291D03*
X033239Y018598D03*
X032239Y018598D03*
X031239Y018598D03*
X030239Y018598D03*
X029239Y018598D03*
X028239Y018598D03*
X025324Y021492D03*
X024324Y021492D03*
X023324Y021492D03*
X022324Y021492D03*
X021324Y021492D03*
X020324Y021492D03*
X019324Y021492D03*
X018324Y021492D03*
X017324Y021492D03*
X016324Y021492D03*
X015324Y021492D03*
X014324Y021492D03*
X017324Y014492D03*
X018324Y014492D03*
X019324Y014492D03*
X020324Y014492D03*
X021324Y014492D03*
X022324Y014492D03*
X028239Y022598D03*
X029239Y022598D03*
X030239Y022598D03*
X031239Y022598D03*
X032239Y022598D03*
X033239Y022598D03*
D15*
X026439Y023897D03*
D16*
X028742Y025067D02*
X029224Y027067D01*
X030224Y027067D02*
X029742Y025067D01*
X031742Y025067D02*
X031224Y027067D01*
X032224Y027067D02*
X032742Y025067D01*
X033395Y026311D02*
X033224Y027067D01*
X033396Y026311D02*
X033467Y026208D01*
X033541Y026108D01*
X033618Y026010D01*
X033698Y025915D01*
X033780Y025822D01*
X033866Y025732D01*
X033955Y025644D01*
X034046Y025559D01*
X034139Y025477D01*
X034236Y025398D01*
X034334Y025322D01*
X034435Y025249D01*
X034538Y025180D01*
X034643Y025113D01*
X034750Y025050D01*
X034859Y024989D01*
X034970Y024933D01*
X026224Y012372D02*
X026225Y012365D01*
X026229Y012359D01*
X026235Y012355D01*
X026242Y012354D01*
X026224Y012372D02*
X026224Y008067D01*
X027224Y008067D02*
X027224Y009567D01*
X028029Y009567D01*
D17*
X028029Y009567D03*
X031135Y009185D03*
X033135Y009185D03*
X035135Y009185D03*
X037135Y009185D03*
X040135Y009185D03*
X041348Y006948D03*
X038348Y006948D03*
X036348Y006948D03*
X034348Y006948D03*
X032348Y006948D03*
X025915Y006429D03*
X026242Y012354D03*
X019576Y015996D03*
X023513Y017059D03*
X027096Y017059D03*
X016466Y025326D03*
X011742Y024000D03*
X027017Y028437D03*
X035443Y027098D03*
X041466Y020405D03*
X041466Y018437D03*
X048553Y012334D03*
D18*
X046387Y012334D01*
X046191Y019027D01*
X046871Y019036D02*
X047035Y019036D01*
X047035Y019008D02*
X047045Y018958D01*
X047065Y018910D01*
X047093Y018868D01*
X047130Y018832D01*
X047172Y018803D01*
X047201Y018791D01*
X047172Y018779D01*
X047130Y018750D01*
X047093Y018714D01*
X047065Y018672D01*
X047045Y018624D01*
X047035Y018574D01*
X047035Y018291D01*
X047553Y018291D01*
X048070Y018291D01*
X048553Y018291D01*
X049070Y018291D01*
X049070Y018574D01*
X049060Y018624D01*
X049041Y018672D01*
X049012Y018714D01*
X048976Y018750D01*
X048951Y018767D01*
X048980Y018779D01*
X049065Y018864D01*
X049110Y018974D01*
X049110Y019608D01*
X049065Y019718D01*
X048992Y019791D01*
X049065Y019864D01*
X049110Y019974D01*
X049110Y020608D01*
X049065Y020718D01*
X048980Y020803D01*
X048870Y020848D01*
X048236Y020848D01*
X048125Y020803D01*
X048053Y020730D01*
X047980Y020803D01*
X047870Y020848D01*
X047236Y020848D01*
X047125Y020803D01*
X047041Y020718D01*
X046995Y020608D01*
X046995Y019974D01*
X047041Y019864D01*
X047125Y019779D01*
X047154Y019767D01*
X047130Y019750D01*
X047093Y019714D01*
X047065Y019672D01*
X047045Y019624D01*
X047035Y019574D01*
X047035Y019291D01*
X047553Y019291D01*
X047553Y018291D01*
X047553Y018291D01*
X048553Y018291D01*
X048553Y018291D01*
X049070Y018291D01*
X049070Y018008D01*
X049060Y017958D01*
X049041Y017910D01*
X049012Y017868D01*
X048976Y017832D01*
X048933Y017803D01*
X048904Y017791D01*
X048933Y017779D01*
X048976Y017750D01*
X049012Y017714D01*
X049041Y017672D01*
X049060Y017624D01*
X049070Y017574D01*
X049070Y017291D01*
X048553Y017291D01*
X048553Y017291D01*
X049070Y017291D01*
X049070Y017008D01*
X049060Y016958D01*
X049041Y016910D01*
X049012Y016868D01*
X048976Y016832D01*
X048933Y016803D01*
X048904Y016791D01*
X048933Y016779D01*
X048976Y016750D01*
X049012Y016714D01*
X049041Y016672D01*
X049060Y016624D01*
X049070Y016574D01*
X049070Y016291D01*
X048553Y016291D01*
X048553Y016291D01*
X049070Y016291D01*
X049070Y016008D01*
X049060Y015958D01*
X049041Y015910D01*
X049012Y015868D01*
X048976Y015832D01*
X048973Y015830D01*
X049128Y015675D01*
X049231Y015426D01*
X049231Y015156D01*
X049128Y014907D01*
X049002Y014781D01*
X049065Y014718D01*
X049110Y014608D01*
X049110Y013974D01*
X049065Y013864D01*
X048992Y013791D01*
X049065Y013718D01*
X049110Y013608D01*
X049110Y012974D01*
X049077Y012894D01*
X049137Y012834D01*
X049183Y012724D01*
X049183Y011945D01*
X049137Y011834D01*
X049053Y011750D01*
X048942Y011704D01*
X048932Y011704D01*
X049034Y011526D01*
X049113Y011234D01*
X049113Y010931D01*
X049034Y010638D01*
X048883Y010376D01*
X048669Y010162D01*
X048406Y010010D01*
X048114Y009932D01*
X047811Y009932D01*
X047518Y010010D01*
X047256Y010162D01*
X047042Y010376D01*
X046890Y010638D01*
X046812Y010931D01*
X046812Y011234D01*
X046890Y011526D01*
X047042Y011789D01*
X047067Y011814D01*
X046395Y011814D01*
X046299Y011811D01*
X046292Y011814D01*
X046284Y011814D01*
X046195Y011851D01*
X046106Y011885D01*
X046100Y011890D01*
X046093Y011893D01*
X046025Y011961D01*
X045959Y012023D01*
X046650Y008589D01*
X046724Y008514D01*
X046844Y008635D01*
X047091Y008737D01*
X047357Y008737D01*
X047604Y008635D01*
X047792Y008446D01*
X047887Y008217D01*
X047942Y008349D01*
X048110Y008517D01*
X048331Y008609D01*
X048570Y008609D01*
X048790Y008517D01*
X048959Y008349D01*
X049050Y008128D01*
X049050Y007289D01*
X048959Y007069D01*
X048790Y006900D01*
X048570Y006809D01*
X048331Y006809D01*
X048110Y006900D01*
X047942Y007069D01*
X047850Y007289D01*
X047850Y007827D01*
X047792Y007687D01*
X047604Y007499D01*
X047357Y007397D01*
X047091Y007397D01*
X046844Y007499D01*
X046724Y007619D01*
X046604Y007499D01*
X046357Y007397D01*
X046091Y007397D01*
X045844Y007499D01*
X045724Y007619D01*
X045604Y007499D01*
X045357Y007397D01*
X045091Y007397D01*
X044844Y007499D01*
X044724Y007619D01*
X044604Y007499D01*
X044357Y007397D01*
X044091Y007397D01*
X043844Y007499D01*
X043724Y007619D01*
X043604Y007499D01*
X043357Y007397D01*
X043091Y007397D01*
X042844Y007499D01*
X042724Y007619D01*
X042604Y007499D01*
X042357Y007397D01*
X042091Y007397D01*
X041909Y007472D01*
X041932Y007448D01*
X041978Y007338D01*
X041978Y007062D01*
X042001Y006946D01*
X041978Y006835D01*
X041978Y006559D01*
X041932Y006448D01*
X041848Y006364D01*
X041743Y006320D01*
X041824Y006124D01*
X041824Y005285D01*
X041733Y005064D01*
X041564Y004896D01*
X041343Y004804D01*
X041105Y004804D01*
X040884Y004896D01*
X040724Y005056D01*
X040564Y004896D01*
X040343Y004804D01*
X040105Y004804D01*
X039884Y004896D01*
X039715Y005064D01*
X039624Y005285D01*
X039624Y006124D01*
X039715Y006344D01*
X039884Y006513D01*
X040105Y006604D01*
X040343Y006604D01*
X040564Y006513D01*
X040724Y006353D01*
X040792Y006421D01*
X040764Y006448D01*
X040718Y006559D01*
X040718Y006679D01*
X040632Y006789D01*
X040632Y006789D01*
X040513Y007116D01*
X040513Y007116D01*
X040501Y007456D01*
X040357Y007397D01*
X040091Y007397D01*
X039844Y007499D01*
X039656Y007687D01*
X039554Y007933D01*
X039554Y008200D01*
X039584Y008272D01*
X039584Y008537D01*
X039572Y008617D01*
X039582Y008654D01*
X039551Y008685D01*
X039505Y008795D01*
X039505Y009070D01*
X039484Y009217D01*
X039505Y009304D01*
X039505Y009574D01*
X039551Y009685D01*
X039635Y009769D01*
X039707Y009798D01*
X039624Y009998D01*
X039624Y010836D01*
X039715Y011057D01*
X039884Y011226D01*
X040070Y011302D01*
X038378Y011302D01*
X038564Y011226D01*
X038733Y011057D01*
X038824Y010836D01*
X038824Y009998D01*
X038733Y009777D01*
X038564Y009608D01*
X038343Y009517D01*
X038105Y009517D01*
X037884Y009608D01*
X037724Y009768D01*
X037680Y009724D01*
X037720Y009685D01*
X037765Y009574D01*
X037765Y009439D01*
X037849Y009321D01*
X037849Y009321D01*
X037950Y008998D01*
X037950Y008998D01*
X037947Y008677D01*
X038091Y008737D01*
X038357Y008737D01*
X038604Y008635D01*
X038792Y008446D01*
X038894Y008200D01*
X038894Y007933D01*
X038864Y007861D01*
X038864Y007646D01*
X038877Y007582D01*
X038864Y007520D01*
X038864Y007517D01*
X038932Y007448D01*
X038978Y007338D01*
X038978Y007062D01*
X039001Y006946D01*
X038978Y006835D01*
X038978Y006559D01*
X038932Y006448D01*
X038848Y006364D01*
X038743Y006320D01*
X038824Y006124D01*
X038824Y005285D01*
X038733Y005064D01*
X038564Y004896D01*
X038343Y004804D01*
X038105Y004804D01*
X037884Y004896D01*
X037724Y005056D01*
X037564Y004896D01*
X037343Y004804D01*
X037105Y004804D01*
X036884Y004896D01*
X036724Y005056D01*
X036564Y004896D01*
X036343Y004804D01*
X036105Y004804D01*
X035884Y004896D01*
X035724Y005056D01*
X035564Y004896D01*
X035343Y004804D01*
X035105Y004804D01*
X034884Y004896D01*
X034724Y005056D01*
X034564Y004896D01*
X034343Y004804D01*
X034105Y004804D01*
X033884Y004896D01*
X033724Y005056D01*
X033564Y004896D01*
X033343Y004804D01*
X033105Y004804D01*
X032884Y004896D01*
X032724Y005056D01*
X032564Y004896D01*
X032343Y004804D01*
X032105Y004804D01*
X031884Y004896D01*
X031724Y005056D01*
X031564Y004896D01*
X031343Y004804D01*
X031105Y004804D01*
X030884Y004896D01*
X030715Y005064D01*
X030624Y005285D01*
X030624Y006124D01*
X030715Y006344D01*
X030884Y006513D01*
X031105Y006604D01*
X031343Y006604D01*
X031564Y006513D01*
X031724Y006353D01*
X031792Y006421D01*
X031764Y006448D01*
X031718Y006559D01*
X031718Y006679D01*
X031632Y006789D01*
X031632Y006789D01*
X031513Y007116D01*
X031513Y007116D01*
X031501Y007456D01*
X031357Y007397D01*
X031091Y007397D01*
X030844Y007499D01*
X030656Y007687D01*
X030554Y007933D01*
X030554Y008200D01*
X030584Y008272D01*
X030584Y008537D01*
X030572Y008617D01*
X030582Y008654D01*
X030551Y008685D01*
X030505Y008795D01*
X030505Y009070D01*
X030484Y009217D01*
X030505Y009304D01*
X030505Y009574D01*
X030551Y009685D01*
X030635Y009769D01*
X030707Y009798D01*
X030624Y009998D01*
X030624Y010836D01*
X030715Y011057D01*
X030884Y011226D01*
X031070Y011302D01*
X029988Y011302D01*
X029748Y011286D01*
X029748Y011286D01*
X029242Y011385D01*
X029242Y011385D01*
X028778Y011612D01*
X028778Y011612D01*
X028389Y011951D01*
X028389Y011951D01*
X028101Y012380D01*
X028101Y012380D01*
X027933Y012868D01*
X027933Y012868D01*
X027922Y013041D01*
X027915Y013058D01*
X027915Y013143D01*
X027911Y013200D01*
X027890Y013265D01*
X027848Y013322D01*
X027790Y013364D01*
X027722Y013386D01*
X027687Y013389D01*
X025915Y013389D01*
X025829Y013383D01*
X025662Y013339D01*
X025513Y013252D01*
X025390Y013130D01*
X025304Y012981D01*
X025260Y012814D01*
X025254Y012728D01*
X025254Y012448D01*
X025129Y011901D01*
X025129Y011901D01*
X024886Y011396D01*
X024886Y011396D01*
X024536Y010957D01*
X024536Y010957D01*
X024098Y010608D01*
X024098Y010608D01*
X023592Y010364D01*
X023592Y010364D01*
X023046Y010239D01*
X016416Y010239D01*
X015540Y010378D01*
X015540Y010378D01*
X014696Y010653D01*
X014696Y010653D01*
X013905Y011055D01*
X013905Y011055D01*
X013187Y011577D01*
X013187Y011577D01*
X013187Y011577D01*
X012559Y012205D01*
X012559Y012205D01*
X012038Y012923D01*
X012038Y012923D01*
X011635Y013713D01*
X011635Y013713D01*
X011361Y014557D01*
X011361Y014557D01*
X011222Y015434D01*
X011222Y021356D01*
X011005Y021231D01*
X010712Y021152D01*
X010409Y021152D01*
X010117Y021231D01*
X009854Y021382D01*
X009640Y021596D01*
X009488Y021859D01*
X009410Y022151D01*
X009410Y022454D01*
X009488Y022747D01*
X009640Y023009D01*
X009854Y023223D01*
X010117Y023375D01*
X010409Y023453D01*
X010712Y023453D01*
X011005Y023375D01*
X011222Y023250D01*
X011222Y023435D01*
X011157Y023500D01*
X011112Y023610D01*
X011112Y024389D01*
X011157Y024500D01*
X011242Y024584D01*
X011352Y024630D01*
X012131Y024630D01*
X012242Y024584D01*
X012326Y024500D01*
X012372Y024389D01*
X012372Y023610D01*
X012326Y023500D01*
X012262Y023435D01*
X012262Y015878D01*
X012276Y015517D01*
X012389Y014804D01*
X012612Y014118D01*
X012939Y013475D01*
X013363Y012891D01*
X013874Y012381D01*
X014457Y011957D01*
X015100Y011629D01*
X015786Y011406D01*
X016499Y011294D01*
X016860Y011279D01*
X022765Y011279D01*
X022928Y011289D01*
X023244Y011361D01*
X023536Y011501D01*
X023790Y011704D01*
X023992Y011957D01*
X024133Y012250D01*
X024205Y012566D01*
X024214Y012728D01*
X024214Y012952D01*
X024330Y013385D01*
X024330Y013385D01*
X024554Y013772D01*
X024554Y013772D01*
X024554Y013772D01*
X024870Y014089D01*
X024870Y014089D01*
X025258Y014313D01*
X025258Y014313D01*
X025691Y014429D01*
X027887Y014429D01*
X028269Y014305D01*
X028269Y014305D01*
X028594Y014069D01*
X028594Y014069D01*
X028594Y014069D01*
X028831Y013744D01*
X028831Y013744D01*
X028955Y013362D01*
X028955Y013188D01*
X028969Y013077D01*
X029047Y012850D01*
X029181Y012651D01*
X029363Y012493D01*
X029578Y012387D01*
X029814Y012341D01*
X029863Y012341D01*
X029867Y012342D01*
X029944Y012342D01*
X029657Y012509D01*
X029657Y012509D01*
X029657Y012509D01*
X029377Y012789D01*
X029377Y012789D01*
X029179Y013132D01*
X029179Y013132D01*
X029076Y013514D01*
X029076Y013771D01*
X029069Y013876D01*
X029015Y014077D01*
X028911Y014258D01*
X028764Y014405D01*
X028583Y014509D01*
X028381Y014563D01*
X028277Y014570D01*
X025128Y014570D01*
X025009Y014564D01*
X024779Y014511D01*
X024566Y014408D01*
X024382Y014261D01*
X024234Y014077D01*
X024132Y013864D01*
X024079Y013633D01*
X024073Y013515D01*
X024073Y012898D01*
X023957Y012465D01*
X023957Y012465D01*
X023733Y012077D01*
X023733Y012077D01*
X023416Y011760D01*
X023416Y011760D01*
X023028Y011536D01*
X023028Y011536D01*
X022596Y011421D01*
X016470Y011421D01*
X015702Y011556D01*
X014969Y011823D01*
X014294Y012213D01*
X014294Y012213D01*
X013696Y012714D01*
X013696Y012714D01*
X013195Y013311D01*
X012805Y013987D01*
X012805Y013987D01*
X012538Y014720D01*
X012538Y014720D01*
X012403Y015488D01*
X012403Y020983D01*
X012385Y021354D01*
X012385Y021354D01*
X012474Y022117D01*
X012474Y022117D01*
X012685Y022855D01*
X012685Y022855D01*
X013013Y023549D01*
X013013Y023549D01*
X013449Y024180D01*
X013449Y024180D01*
X013982Y024733D01*
X013982Y024733D01*
X014597Y025191D01*
X014597Y025191D01*
X015278Y025544D01*
X015278Y025544D01*
X015841Y025728D01*
X015882Y025826D01*
X015966Y025911D01*
X016076Y025956D01*
X016856Y025956D01*
X016966Y025911D01*
X017050Y025826D01*
X017096Y025716D01*
X017096Y024937D01*
X017050Y024826D01*
X016966Y024742D01*
X016856Y024696D01*
X016076Y024696D01*
X016074Y024697D01*
X015686Y024571D01*
X015157Y024297D01*
X014680Y023940D01*
X014266Y023512D01*
X013928Y023021D01*
X013673Y022483D01*
X013509Y021910D01*
X013440Y021318D01*
X013442Y021102D01*
X013443Y021099D01*
X013443Y021008D01*
X013447Y020917D01*
X013443Y020905D01*
X013443Y015878D01*
X013456Y015580D01*
X013559Y014993D01*
X013763Y014433D01*
X014061Y013918D01*
X014061Y013918D01*
X014444Y013461D01*
X014900Y013079D01*
X015416Y012781D01*
X015975Y012577D01*
X016562Y012474D01*
X016860Y012461D01*
X022372Y012461D01*
X022458Y012466D01*
X022625Y012511D01*
X022774Y012597D01*
X022896Y012719D01*
X022982Y012869D01*
X023027Y013035D01*
X023033Y013122D01*
X023033Y013751D01*
X023138Y014212D01*
X023138Y014212D01*
X023343Y014637D01*
X023343Y014637D01*
X023637Y015006D01*
X023637Y015006D01*
X024006Y015300D01*
X024006Y015300D01*
X024431Y015505D01*
X024431Y015505D01*
X024892Y015610D01*
X028519Y015610D01*
X028987Y015485D01*
X028987Y015485D01*
X029406Y015243D01*
X029406Y015243D01*
X029749Y014900D01*
X029749Y014900D01*
X029991Y014481D01*
X029991Y014481D01*
X030116Y014013D01*
X030116Y013712D01*
X030120Y013652D01*
X030151Y013535D01*
X030212Y013430D01*
X030298Y013344D01*
X030403Y013283D01*
X030520Y013252D01*
X030580Y013248D01*
X042279Y013248D01*
X042708Y013133D01*
X042708Y013133D01*
X043093Y012911D01*
X043093Y012911D01*
X043407Y012597D01*
X043407Y012597D01*
X043629Y012212D01*
X043629Y012212D01*
X043744Y011783D01*
X043744Y008534D01*
X043844Y008635D01*
X044091Y008737D01*
X044357Y008737D01*
X044551Y008656D01*
X043738Y012122D01*
X043733Y012128D01*
X043714Y012222D01*
X043692Y012316D01*
X043692Y012318D01*
X043567Y012865D01*
X043193Y014114D01*
X042710Y015325D01*
X042121Y016488D01*
X038990Y016488D01*
X038964Y016532D02*
X038627Y016869D01*
X038214Y017108D01*
X037754Y017231D01*
X037277Y017231D01*
X036817Y017108D01*
X036404Y016869D01*
X036067Y016532D01*
X035829Y016119D01*
X035706Y015659D01*
X035706Y015183D01*
X035829Y014722D01*
X036067Y014309D01*
X036404Y013973D01*
X036817Y013734D01*
X037277Y013611D01*
X037754Y013611D01*
X038214Y013734D01*
X038627Y013973D01*
X038964Y014309D01*
X039202Y014722D01*
X039326Y015183D01*
X039326Y015659D01*
X039202Y016119D01*
X038964Y016532D01*
X038690Y016807D02*
X041923Y016807D01*
X041724Y017125D02*
X038149Y017125D01*
X036883Y017125D02*
X034350Y017125D01*
X034319Y017123D02*
X034422Y017131D01*
X034525Y017139D01*
X034617Y017186D01*
X034709Y017234D01*
X035847Y017818D01*
X038235Y019211D01*
X039303Y019914D01*
X039303Y019914D01*
X039390Y019971D01*
X039956Y020325D01*
X040836Y020793D01*
X040836Y020015D01*
X040882Y019905D01*
X040966Y019821D01*
X041076Y019775D01*
X041464Y019775D01*
X041539Y019724D01*
X042199Y019171D01*
X042785Y018540D01*
X043288Y017841D01*
X043701Y017086D01*
X044016Y016284D01*
X044229Y015450D01*
X044285Y015101D01*
X044282Y015089D01*
X044299Y015006D01*
X044310Y014922D01*
X044319Y014905D01*
X045310Y009974D01*
X044730Y012446D01*
X044591Y013123D01*
X044591Y013123D01*
X044190Y014462D01*
X043672Y015759D01*
X043672Y015759D01*
X043041Y017006D01*
X042302Y018192D01*
X042096Y018465D01*
X042096Y018826D01*
X042050Y018937D01*
X041966Y019021D01*
X041856Y019067D01*
X041076Y019067D01*
X040966Y019021D01*
X040882Y018937D01*
X040836Y018826D01*
X040836Y018047D01*
X040882Y017937D01*
X040966Y017852D01*
X041076Y017807D01*
X041279Y017807D01*
X041432Y017594D01*
X042121Y016488D01*
X042282Y016170D02*
X039174Y016170D01*
X039274Y015851D02*
X042443Y015851D01*
X042605Y015533D02*
X039326Y015533D01*
X039326Y015214D02*
X042754Y015214D01*
X042881Y014896D02*
X039249Y014896D01*
X039119Y014577D02*
X043008Y014577D01*
X043135Y014259D02*
X038913Y014259D01*
X038571Y013940D02*
X043245Y013940D01*
X043341Y013622D02*
X037794Y013622D01*
X037238Y013622D02*
X030128Y013622D01*
X030116Y013940D02*
X030948Y013940D01*
X030976Y013912D02*
X031196Y013821D01*
X032035Y013821D01*
X032256Y013912D01*
X032424Y014081D01*
X032516Y014302D01*
X032516Y014540D01*
X032424Y014761D01*
X032264Y014921D01*
X032424Y015081D01*
X032516Y015302D01*
X032516Y015540D01*
X032424Y015761D01*
X032256Y015930D01*
X032215Y015946D01*
X032281Y015994D01*
X032343Y016056D01*
X032395Y016127D01*
X032435Y016206D01*
X032462Y016290D01*
X032476Y016377D01*
X032476Y016421D01*
X032476Y016465D01*
X032462Y016552D01*
X032435Y016636D01*
X032395Y016714D01*
X032343Y016786D01*
X032281Y016848D01*
X032209Y016900D01*
X032131Y016940D01*
X032118Y016944D01*
X034319Y017123D01*
X034319Y017123D01*
X034525Y017139D02*
X034525Y017139D01*
X034525Y017139D01*
X034709Y017234D02*
X034709Y017234D01*
X035118Y017444D02*
X041526Y017444D01*
X041311Y017762D02*
X035738Y017762D01*
X036298Y018081D02*
X040836Y018081D01*
X040836Y018399D02*
X036844Y018399D01*
X037390Y018718D02*
X040836Y018718D01*
X041003Y019036D02*
X037936Y019036D01*
X038454Y019355D02*
X041979Y019355D01*
X041930Y019036D02*
X042324Y019036D01*
X042096Y018718D02*
X042620Y018718D01*
X042886Y018399D02*
X042146Y018399D01*
X042302Y018192D02*
X042302Y018192D01*
X042371Y018081D02*
X043116Y018081D01*
X043331Y017762D02*
X042570Y017762D01*
X042768Y017444D02*
X043505Y017444D01*
X043679Y017125D02*
X042966Y017125D01*
X043041Y017006D02*
X043041Y017006D01*
X043142Y016807D02*
X043810Y016807D01*
X043936Y016488D02*
X043303Y016488D01*
X043464Y016170D02*
X044045Y016170D01*
X044127Y015851D02*
X043625Y015851D01*
X043762Y015533D02*
X044208Y015533D01*
X044267Y015214D02*
X043889Y015214D01*
X044017Y014896D02*
X044321Y014896D01*
X044385Y014577D02*
X044144Y014577D01*
X044190Y014462D02*
X044190Y014462D01*
X044251Y014259D02*
X044449Y014259D01*
X044513Y013940D02*
X044346Y013940D01*
X044442Y013622D02*
X044577Y013622D01*
X044537Y013303D02*
X044641Y013303D01*
X044619Y012985D02*
X044705Y012985D01*
X044685Y012666D02*
X044769Y012666D01*
X044753Y012348D02*
X044833Y012348D01*
X044828Y012029D02*
X044897Y012029D01*
X044903Y011711D02*
X044961Y011711D01*
X044977Y011392D02*
X045025Y011392D01*
X045052Y011074D02*
X045089Y011074D01*
X045127Y010755D02*
X045153Y010755D01*
X045202Y010437D02*
X045217Y010437D01*
X045277Y010118D02*
X045281Y010118D01*
X046278Y010437D02*
X047006Y010437D01*
X046859Y010755D02*
X046214Y010755D01*
X046150Y011074D02*
X046812Y011074D01*
X046854Y011392D02*
X046086Y011392D01*
X046022Y011711D02*
X046996Y011711D01*
X046892Y012854D02*
X046730Y018388D01*
X046740Y018393D01*
X046825Y018477D01*
X046871Y018587D01*
X046871Y019467D01*
X046832Y019561D01*
X046859Y019792D01*
X046802Y020424D01*
X046616Y021030D01*
X046309Y021585D01*
X046309Y021585D01*
X045895Y022065D01*
X045895Y022065D01*
X045390Y022450D01*
X044818Y022722D01*
X044818Y022722D01*
X044201Y022871D01*
X043567Y022890D01*
X043567Y022890D01*
X042943Y022778D01*
X042943Y022778D01*
X042669Y022667D01*
X042005Y022459D01*
X041224Y022133D01*
X042156Y022786D01*
X043292Y023758D01*
X043292Y023758D01*
X044329Y024836D01*
X045256Y026009D01*
X045560Y026481D01*
X045604Y026499D01*
X045792Y026687D01*
X045894Y026933D01*
X045894Y027200D01*
X045792Y027446D01*
X045604Y027635D01*
X045357Y027737D01*
X045091Y027737D01*
X044844Y027635D01*
X044724Y027514D01*
X044604Y027635D01*
X044357Y027737D01*
X044091Y027737D01*
X043844Y027635D01*
X043656Y027446D01*
X043554Y027200D01*
X043554Y027057D01*
X043380Y026837D01*
X042446Y025821D01*
X041417Y024900D01*
X040303Y024085D01*
X039114Y023383D01*
X037862Y022801D01*
X036559Y022344D01*
X035218Y022018D01*
X034568Y021909D01*
X027454Y021909D01*
X027266Y021941D01*
X026803Y021871D01*
X026384Y021662D01*
X026050Y021334D01*
X026050Y021334D01*
X026050Y021334D01*
X025834Y020918D01*
X025806Y020746D01*
X025336Y019616D01*
X025335Y019614D01*
X025296Y019520D01*
X025295Y019518D01*
X025177Y019257D01*
X024879Y018767D01*
X024506Y018330D01*
X024069Y017957D01*
X023627Y017689D01*
X023124Y017689D01*
X023013Y017643D01*
X022929Y017559D01*
X022883Y017448D01*
X022883Y016669D01*
X022929Y016559D01*
X023013Y016474D01*
X023124Y016429D01*
X023230Y016429D01*
X023099Y016398D01*
X020201Y016398D01*
X020161Y016496D01*
X020076Y016580D01*
X019966Y016626D01*
X019187Y016626D01*
X019076Y016580D01*
X018992Y016496D01*
X018946Y016385D01*
X018946Y015606D01*
X018992Y015496D01*
X019076Y015411D01*
X019187Y015366D01*
X019571Y015366D01*
X019591Y015358D01*
X023108Y015358D01*
X023160Y015347D01*
X023211Y015358D01*
X023262Y015358D01*
X023311Y015378D01*
X023656Y015447D01*
X023656Y015447D01*
X024415Y015718D01*
X024415Y015718D01*
X025127Y016096D01*
X025127Y016096D01*
X025777Y016573D01*
X026351Y017138D01*
X026351Y017138D01*
X026351Y017138D01*
X026466Y017290D01*
X026466Y016669D01*
X026512Y016559D01*
X026596Y016474D01*
X026706Y016429D01*
X027486Y016429D01*
X027596Y016474D01*
X027680Y016559D01*
X027691Y016585D01*
X030953Y016850D01*
X030951Y016848D01*
X030889Y016786D01*
X030837Y016714D01*
X030797Y016636D01*
X030770Y016552D01*
X030756Y016465D01*
X030756Y016421D01*
X031616Y016421D01*
X032476Y016421D01*
X031616Y016421D01*
X031616Y016421D01*
X031616Y016421D01*
X030756Y016421D01*
X030756Y016377D01*
X030770Y016290D01*
X030797Y016206D01*
X030837Y016127D01*
X030889Y016056D01*
X030951Y015994D01*
X031016Y015946D01*
X030976Y015930D01*
X030807Y015761D01*
X030716Y015540D01*
X030716Y015302D01*
X030807Y015081D01*
X030967Y014921D01*
X030807Y014761D01*
X030716Y014540D01*
X030716Y014302D01*
X030807Y014081D01*
X030976Y013912D01*
X030734Y014259D02*
X030050Y014259D01*
X029935Y014577D02*
X030731Y014577D01*
X030942Y014896D02*
X029751Y014896D01*
X029435Y015214D02*
X030752Y015214D01*
X030716Y015533D02*
X028809Y015533D01*
X028277Y015090D02*
X025128Y015090D01*
X024551Y015533D02*
X023896Y015533D01*
X023898Y015214D02*
X013520Y015214D01*
X013464Y015533D02*
X018977Y015533D01*
X018946Y015851D02*
X013444Y015851D01*
X013443Y016170D02*
X018946Y016170D01*
X018989Y016488D02*
X013443Y016488D01*
X013443Y016807D02*
X022883Y016807D01*
X022883Y017125D02*
X013443Y017125D01*
X013443Y017444D02*
X022883Y017444D01*
X023748Y017762D02*
X013443Y017762D01*
X013443Y018081D02*
X024214Y018081D01*
X024565Y018399D02*
X013443Y018399D01*
X013443Y018718D02*
X024837Y018718D01*
X025042Y019036D02*
X013443Y019036D01*
X013443Y019355D02*
X025221Y019355D01*
X025360Y019673D02*
X013443Y019673D01*
X013443Y019992D02*
X025492Y019992D01*
X025624Y020310D02*
X013443Y020310D01*
X013443Y020629D02*
X025757Y020629D01*
X025834Y020918D02*
X025834Y020918D01*
X025849Y020947D02*
X025672Y020947D01*
X025642Y020934D02*
X025007Y020934D01*
X024897Y020980D01*
X024824Y021053D01*
X024752Y020980D01*
X024642Y020934D01*
X024007Y020934D01*
X023897Y020980D01*
X023824Y021053D01*
X023752Y020980D01*
X023642Y020934D01*
X023007Y020934D01*
X022897Y020980D01*
X022824Y021053D01*
X022752Y020980D01*
X022642Y020934D01*
X022007Y020934D01*
X021897Y020980D01*
X021824Y021053D01*
X021752Y020980D01*
X021642Y020934D01*
X021007Y020934D01*
X020897Y020980D01*
X020824Y021053D01*
X020752Y020980D01*
X020642Y020934D01*
X020007Y020934D01*
X019897Y020980D01*
X019824Y021053D01*
X019752Y020980D01*
X019642Y020934D01*
X019007Y020934D01*
X018897Y020980D01*
X018824Y021053D01*
X018752Y020980D01*
X018642Y020934D01*
X018007Y020934D01*
X017897Y020980D01*
X017824Y021053D01*
X017752Y020980D01*
X017642Y020934D01*
X017007Y020934D01*
X016897Y020980D01*
X016824Y021053D01*
X016752Y020980D01*
X016642Y020934D01*
X016007Y020934D01*
X015897Y020980D01*
X015824Y021053D01*
X015752Y020980D01*
X015642Y020934D01*
X015007Y020934D01*
X014897Y020980D01*
X014824Y021053D01*
X014752Y020980D01*
X014642Y020934D01*
X014007Y020934D01*
X013897Y020980D01*
X013813Y021064D01*
X013767Y021175D01*
X013767Y021809D01*
X013813Y021919D01*
X013897Y022004D01*
X014007Y022049D01*
X014642Y022049D01*
X014752Y022004D01*
X014824Y021931D01*
X014897Y022004D01*
X015007Y022049D01*
X015642Y022049D01*
X015752Y022004D01*
X015824Y021931D01*
X015897Y022004D01*
X016007Y022049D01*
X016642Y022049D01*
X016752Y022004D01*
X016824Y021931D01*
X016897Y022004D01*
X017007Y022049D01*
X017642Y022049D01*
X017752Y022004D01*
X017824Y021931D01*
X017897Y022004D01*
X018007Y022049D01*
X018642Y022049D01*
X018752Y022004D01*
X018824Y021931D01*
X018897Y022004D01*
X019007Y022049D01*
X019642Y022049D01*
X019752Y022004D01*
X019824Y021931D01*
X019897Y022004D01*
X020007Y022049D01*
X020642Y022049D01*
X020752Y022004D01*
X020824Y021931D01*
X020897Y022004D01*
X021007Y022049D01*
X021642Y022049D01*
X021752Y022004D01*
X021824Y021931D01*
X021897Y022004D01*
X022007Y022049D01*
X022642Y022049D01*
X022752Y022004D01*
X022824Y021931D01*
X022897Y022004D01*
X023007Y022049D01*
X023642Y022049D01*
X023752Y022004D01*
X023824Y021931D01*
X023897Y022004D01*
X024007Y022049D01*
X024642Y022049D01*
X024752Y022004D01*
X024824Y021931D01*
X024897Y022004D01*
X025007Y022049D01*
X025642Y022049D01*
X025752Y022004D01*
X025836Y021919D01*
X025882Y021809D01*
X025882Y021175D01*
X025836Y021064D01*
X025752Y020980D01*
X025642Y020934D01*
X025882Y021266D02*
X026015Y021266D01*
X025882Y021584D02*
X026304Y021584D01*
X025843Y021903D02*
X027011Y021903D01*
X027411Y021389D02*
X034610Y021389D01*
X033751Y022171D02*
X033796Y022281D01*
X033796Y022915D01*
X033751Y023026D01*
X033666Y023110D01*
X033556Y023156D01*
X032922Y023156D01*
X032811Y023110D01*
X032739Y023037D01*
X032666Y023110D01*
X032556Y023156D01*
X031922Y023156D01*
X031811Y023110D01*
X031727Y023026D01*
X031715Y022996D01*
X031698Y023021D01*
X031662Y023058D01*
X031620Y023086D01*
X031572Y023106D01*
X031522Y023116D01*
X031239Y023116D01*
X031239Y022598D01*
X031239Y022081D01*
X031522Y022081D01*
X031572Y022091D01*
X031620Y022110D01*
X031662Y022139D01*
X031698Y022175D01*
X031715Y022200D01*
X031727Y022171D01*
X031811Y022086D01*
X031922Y022041D01*
X032556Y022041D01*
X032666Y022086D01*
X032739Y022159D01*
X032811Y022086D01*
X032922Y022041D01*
X033556Y022041D01*
X033666Y022086D01*
X033751Y022171D01*
X033772Y022221D02*
X036053Y022221D01*
X037116Y022540D02*
X033796Y022540D01*
X033796Y022858D02*
X037985Y022858D01*
X038670Y023177D02*
X014035Y023177D01*
X013850Y022858D02*
X027681Y022858D01*
X027681Y022915D02*
X027681Y022281D01*
X027727Y022171D01*
X027811Y022086D01*
X027922Y022041D01*
X028556Y022041D01*
X028666Y022086D01*
X028739Y022159D01*
X028811Y022086D01*
X028922Y022041D01*
X029556Y022041D01*
X029666Y022086D01*
X029739Y022159D01*
X029811Y022086D01*
X029922Y022041D01*
X030556Y022041D01*
X030666Y022086D01*
X030751Y022171D01*
X030763Y022200D01*
X030779Y022175D01*
X030816Y022139D01*
X030858Y022110D01*
X030906Y022091D01*
X030956Y022081D01*
X031239Y022081D01*
X031239Y022598D01*
X031239Y022598D01*
X031239Y022598D01*
X031239Y023116D01*
X030956Y023116D01*
X030906Y023106D01*
X030858Y023086D01*
X030816Y023058D01*
X030779Y023021D01*
X030763Y022996D01*
X030751Y023026D01*
X030666Y023110D01*
X030556Y023156D01*
X029922Y023156D01*
X029811Y023110D01*
X029739Y023037D01*
X029666Y023110D01*
X029556Y023156D01*
X028922Y023156D01*
X028811Y023110D01*
X028739Y023037D01*
X028666Y023110D01*
X028556Y023156D01*
X027922Y023156D01*
X027811Y023110D01*
X027727Y023026D01*
X027681Y022915D01*
X027681Y022540D02*
X013700Y022540D01*
X013598Y022221D02*
X027706Y022221D01*
X026687Y023297D02*
X026190Y023297D01*
X025839Y023649D01*
X025839Y024146D01*
X026190Y024497D01*
X026687Y024497D01*
X027039Y024146D01*
X027039Y023649D01*
X026687Y023297D01*
X026885Y023495D02*
X039304Y023495D01*
X039361Y024072D02*
X039122Y024072D01*
X038902Y024163D01*
X038742Y024324D01*
X038582Y024163D01*
X038361Y024072D01*
X038122Y024072D01*
X037902Y024163D01*
X037742Y024324D01*
X037582Y024163D01*
X037361Y024072D01*
X037122Y024072D01*
X036902Y024163D01*
X036742Y024324D01*
X036582Y024163D01*
X036361Y024072D01*
X036122Y024072D01*
X035902Y024163D01*
X035733Y024332D01*
X035642Y024553D01*
X035642Y025391D01*
X035733Y025612D01*
X035902Y025781D01*
X036122Y025872D01*
X036361Y025872D01*
X036582Y025781D01*
X036742Y025621D01*
X036902Y025781D01*
X037122Y025872D01*
X037361Y025872D01*
X037582Y025781D01*
X037742Y025621D01*
X037902Y025781D01*
X038122Y025872D01*
X038361Y025872D01*
X038582Y025781D01*
X038742Y025621D01*
X038902Y025781D01*
X039122Y025872D01*
X039361Y025872D01*
X039582Y025781D01*
X039750Y025612D01*
X039842Y025391D01*
X039842Y024553D01*
X039750Y024332D01*
X039582Y024163D01*
X039361Y024072D01*
X039506Y024132D02*
X040367Y024132D01*
X040802Y024451D02*
X039799Y024451D01*
X039842Y024769D02*
X041238Y024769D01*
X041627Y025088D02*
X039842Y025088D01*
X039836Y025406D02*
X041983Y025406D01*
X042339Y025725D02*
X039638Y025725D01*
X038846Y025725D02*
X038638Y025725D01*
X037846Y025725D02*
X037638Y025725D01*
X036846Y025725D02*
X036638Y025725D01*
X035846Y025725D02*
X034754Y025725D01*
X034951Y025581D02*
X034461Y025939D01*
X034040Y026377D01*
X033998Y026435D01*
X034091Y026397D01*
X034357Y026397D01*
X034604Y026499D01*
X034652Y026547D01*
X034910Y026547D01*
X034943Y026514D01*
X035053Y026468D01*
X035832Y026468D01*
X035942Y026514D01*
X036027Y026598D01*
X036073Y026708D01*
X036073Y027488D01*
X036027Y027598D01*
X035942Y027682D01*
X035832Y027728D01*
X035053Y027728D01*
X034943Y027682D01*
X034858Y027598D01*
X034853Y027587D01*
X034652Y027587D01*
X034604Y027635D01*
X034357Y027737D01*
X034091Y027737D01*
X033844Y027635D01*
X033724Y027514D01*
X033604Y027635D01*
X033357Y027737D01*
X033091Y027737D01*
X032844Y027635D01*
X032724Y027514D01*
X032604Y027635D01*
X032357Y027737D01*
X032091Y027737D01*
X031844Y027635D01*
X031724Y027514D01*
X031604Y027635D01*
X031357Y027737D01*
X031091Y027737D01*
X030844Y027635D01*
X030724Y027514D01*
X030604Y027635D01*
X030357Y027737D01*
X030091Y027737D01*
X029844Y027635D01*
X029724Y027514D01*
X029604Y027635D01*
X029357Y027737D01*
X029091Y027737D01*
X028844Y027635D01*
X028656Y027446D01*
X028554Y027200D01*
X028554Y026933D01*
X028593Y026839D01*
X028268Y025492D01*
X028250Y025474D01*
X028204Y025364D01*
X028204Y025226D01*
X028171Y025090D01*
X028204Y024880D01*
X028204Y024769D01*
X024291Y024769D01*
X024291Y024553D02*
X024199Y024332D01*
X024030Y024163D01*
X023810Y024072D01*
X023571Y024072D01*
X023351Y024163D01*
X023182Y024332D01*
X023165Y024373D01*
X023118Y024307D01*
X023055Y024245D01*
X022984Y024193D01*
X022906Y024153D01*
X022822Y024126D01*
X022735Y024112D01*
X022691Y024112D01*
X022691Y024972D01*
X022691Y024972D01*
X022691Y024972D01*
X022691Y025832D01*
X022735Y025832D01*
X022822Y025818D01*
X022906Y025791D01*
X022984Y025751D01*
X023055Y025699D01*
X023118Y025637D01*
X023165Y025572D01*
X023182Y025612D01*
X023351Y025781D01*
X023571Y025872D01*
X023810Y025872D01*
X024030Y025781D01*
X024199Y025612D01*
X024291Y025391D01*
X024291Y024553D01*
X024248Y024451D02*
X026143Y024451D01*
X025839Y024132D02*
X023955Y024132D01*
X023426Y024132D02*
X022841Y024132D01*
X022691Y024132D02*
X022691Y024132D01*
X022691Y024112D02*
X022691Y024972D01*
X022691Y025832D01*
X022646Y025832D01*
X022559Y025818D01*
X022476Y025791D01*
X022397Y025751D01*
X022326Y025699D01*
X022263Y025637D01*
X022216Y025572D01*
X022199Y025612D01*
X022030Y025781D01*
X021810Y025872D01*
X021571Y025872D01*
X021351Y025781D01*
X021191Y025621D01*
X021030Y025781D01*
X020810Y025872D01*
X020571Y025872D01*
X020351Y025781D01*
X020182Y025612D01*
X020091Y025391D01*
X020091Y024553D01*
X020182Y024332D01*
X020351Y024163D01*
X020571Y024072D01*
X020810Y024072D01*
X021030Y024163D01*
X021191Y024324D01*
X021351Y024163D01*
X021571Y024072D01*
X021810Y024072D01*
X022030Y024163D01*
X022199Y024332D01*
X022216Y024373D01*
X022263Y024307D01*
X022326Y024245D01*
X022397Y024193D01*
X022476Y024153D01*
X022559Y024126D01*
X022646Y024112D01*
X022691Y024112D01*
X022540Y024132D02*
X021955Y024132D01*
X021426Y024132D02*
X020955Y024132D01*
X020426Y024132D02*
X014936Y024132D01*
X014557Y023814D02*
X025839Y023814D01*
X025992Y023495D02*
X014255Y023495D01*
X013416Y024132D02*
X012372Y024132D01*
X012372Y023814D02*
X013196Y023814D01*
X012988Y023495D02*
X012321Y023495D01*
X012262Y023177D02*
X012837Y023177D01*
X012687Y022858D02*
X012262Y022858D01*
X012262Y022540D02*
X012595Y022540D01*
X012504Y022221D02*
X012262Y022221D01*
X012262Y021903D02*
X012449Y021903D01*
X012412Y021584D02*
X012262Y021584D01*
X012262Y021266D02*
X012390Y021266D01*
X012403Y020947D02*
X012262Y020947D01*
X012262Y020629D02*
X012403Y020629D01*
X012403Y020310D02*
X012262Y020310D01*
X012262Y019992D02*
X012403Y019992D01*
X012403Y019673D02*
X012262Y019673D01*
X012262Y019355D02*
X012403Y019355D01*
X012403Y019036D02*
X012262Y019036D01*
X012262Y018718D02*
X012403Y018718D01*
X012403Y018399D02*
X012262Y018399D01*
X012262Y018081D02*
X012403Y018081D01*
X012403Y017762D02*
X012262Y017762D01*
X012262Y017444D02*
X012403Y017444D01*
X012403Y017125D02*
X012262Y017125D01*
X012262Y016807D02*
X012403Y016807D01*
X012403Y016488D02*
X012262Y016488D01*
X012262Y016170D02*
X012403Y016170D01*
X012403Y015851D02*
X012263Y015851D01*
X012275Y015533D02*
X012403Y015533D01*
X012451Y015214D02*
X012324Y015214D01*
X012374Y014896D02*
X012507Y014896D01*
X012463Y014577D02*
X012590Y014577D01*
X012566Y014259D02*
X012706Y014259D01*
X012702Y013940D02*
X012832Y013940D01*
X012865Y013622D02*
X013016Y013622D01*
X013064Y013303D02*
X013202Y013303D01*
X013296Y012985D02*
X013469Y012985D01*
X013589Y012666D02*
X013753Y012666D01*
X013920Y012348D02*
X014133Y012348D01*
X014358Y012029D02*
X014612Y012029D01*
X014941Y011711D02*
X015277Y011711D01*
X015878Y011392D02*
X023309Y011392D01*
X023330Y011711D02*
X023795Y011711D01*
X023685Y012029D02*
X024026Y012029D01*
X024155Y012348D02*
X023889Y012348D01*
X024011Y012666D02*
X024210Y012666D01*
X024223Y012985D02*
X024073Y012985D01*
X024073Y013303D02*
X024308Y013303D01*
X024467Y013622D02*
X024079Y013622D01*
X024169Y013940D02*
X024721Y013940D01*
X024380Y014259D02*
X025164Y014259D01*
X025128Y015090D02*
X025051Y015088D01*
X024974Y015082D01*
X024897Y015073D01*
X024821Y015060D01*
X024745Y015043D01*
X024671Y015022D01*
X024597Y014998D01*
X024525Y014970D01*
X024455Y014939D01*
X024386Y014904D01*
X024318Y014866D01*
X024253Y014825D01*
X024190Y014780D01*
X024129Y014732D01*
X024070Y014682D01*
X024014Y014629D01*
X023961Y014573D01*
X023911Y014514D01*
X023863Y014453D01*
X023818Y014390D01*
X023777Y014325D01*
X023739Y014257D01*
X023704Y014188D01*
X023673Y014118D01*
X023645Y014046D01*
X023621Y013972D01*
X023600Y013898D01*
X023583Y013822D01*
X023570Y013746D01*
X023561Y013669D01*
X023555Y013592D01*
X023553Y013515D01*
X023553Y013122D01*
X023033Y013303D02*
X014632Y013303D01*
X014309Y013622D02*
X023033Y013622D01*
X023076Y013940D02*
X021656Y013940D01*
X021642Y013934D02*
X021752Y013980D01*
X021836Y014064D01*
X021848Y014093D01*
X021865Y014069D01*
X021901Y014032D01*
X021944Y014004D01*
X021991Y013984D01*
X022041Y013974D01*
X022324Y013974D01*
X022324Y014492D01*
X022324Y015009D01*
X022041Y015009D01*
X021991Y014999D01*
X021944Y014980D01*
X021901Y014951D01*
X021865Y014915D01*
X021848Y014890D01*
X021836Y014919D01*
X021752Y015004D01*
X021642Y015049D01*
X021007Y015049D01*
X020897Y015004D01*
X020824Y014931D01*
X020752Y015004D01*
X020642Y015049D01*
X020007Y015049D01*
X019897Y015004D01*
X019824Y014931D01*
X019752Y015004D01*
X019642Y015049D01*
X019007Y015049D01*
X018897Y015004D01*
X018824Y014931D01*
X018752Y015004D01*
X018642Y015049D01*
X018007Y015049D01*
X017897Y015004D01*
X017824Y014931D01*
X017752Y015004D01*
X017642Y015049D01*
X017007Y015049D01*
X016897Y015004D01*
X016813Y014919D01*
X016767Y014809D01*
X016767Y014175D01*
X016813Y014064D01*
X016897Y013980D01*
X017007Y013934D01*
X017642Y013934D01*
X017752Y013980D01*
X017824Y014053D01*
X017897Y013980D01*
X018007Y013934D01*
X018642Y013934D01*
X018752Y013980D01*
X018824Y014053D01*
X018897Y013980D01*
X019007Y013934D01*
X019642Y013934D01*
X019752Y013980D01*
X019824Y014053D01*
X019897Y013980D01*
X020007Y013934D01*
X020642Y013934D01*
X020752Y013980D01*
X020824Y014053D01*
X020897Y013980D01*
X021007Y013934D01*
X021642Y013934D01*
X020993Y013940D02*
X020656Y013940D01*
X019993Y013940D02*
X019656Y013940D01*
X018993Y013940D02*
X018656Y013940D01*
X017993Y013940D02*
X017656Y013940D01*
X016993Y013940D02*
X014048Y013940D01*
X013864Y014259D02*
X016767Y014259D01*
X016767Y014577D02*
X013711Y014577D01*
X013595Y014896D02*
X016803Y014896D01*
X016860Y011941D02*
X016736Y011943D01*
X016613Y011949D01*
X016489Y011958D01*
X016367Y011972D01*
X016244Y011989D01*
X016122Y012011D01*
X016001Y012036D01*
X015881Y012065D01*
X015762Y012097D01*
X015643Y012134D01*
X015526Y012174D01*
X015411Y012217D01*
X015296Y012265D01*
X015184Y012316D01*
X015073Y012370D01*
X014963Y012428D01*
X014856Y012489D01*
X014750Y012554D01*
X014647Y012622D01*
X014546Y012693D01*
X014447Y012767D01*
X014350Y012844D01*
X014256Y012925D01*
X014165Y013008D01*
X014076Y013094D01*
X013990Y013183D01*
X013907Y013274D01*
X013826Y013368D01*
X013749Y013465D01*
X013675Y013564D01*
X013604Y013665D01*
X013536Y013768D01*
X013471Y013874D01*
X013410Y013981D01*
X013352Y014091D01*
X013298Y014202D01*
X013247Y014314D01*
X013199Y014429D01*
X013156Y014544D01*
X013116Y014661D01*
X013079Y014780D01*
X013047Y014899D01*
X013018Y015019D01*
X012993Y015140D01*
X012971Y015262D01*
X012954Y015385D01*
X012940Y015507D01*
X012931Y015631D01*
X012925Y015754D01*
X012923Y015878D01*
X012923Y020996D01*
X013446Y020947D02*
X013976Y020947D01*
X013767Y021266D02*
X013441Y021266D01*
X013471Y021584D02*
X013767Y021584D01*
X013806Y021903D02*
X013508Y021903D01*
X014672Y020947D02*
X014976Y020947D01*
X015672Y020947D02*
X015976Y020947D01*
X016672Y020947D02*
X016976Y020947D01*
X012923Y020996D02*
X012919Y021124D01*
X012918Y021251D01*
X012922Y021379D01*
X012930Y021507D01*
X012941Y021634D01*
X012957Y021760D01*
X012976Y021887D01*
X012999Y022012D01*
X013026Y022137D01*
X013057Y022261D01*
X013091Y022384D01*
X013129Y022506D01*
X013171Y022626D01*
X013217Y022746D01*
X013266Y022864D01*
X013319Y022980D01*
X013375Y023094D01*
X013435Y023207D01*
X013498Y023318D01*
X013565Y023427D01*
X013635Y023534D01*
X013708Y023639D01*
X013784Y023741D01*
X013863Y023841D01*
X013946Y023939D01*
X014031Y024034D01*
X014119Y024126D01*
X014210Y024216D01*
X014304Y024303D01*
X014400Y024387D01*
X014499Y024467D01*
X014600Y024545D01*
X014703Y024620D01*
X014809Y024692D01*
X014917Y024760D01*
X015027Y024825D01*
X015139Y024887D01*
X015252Y024945D01*
X015368Y024999D01*
X015485Y025051D01*
X015603Y025098D01*
X015723Y025142D01*
X015844Y025182D01*
X015967Y025219D01*
X016090Y025251D01*
X016215Y025280D01*
X016340Y025305D01*
X016466Y025327D01*
X017096Y025406D02*
X020097Y025406D01*
X020091Y025088D02*
X017096Y025088D01*
X016993Y024769D02*
X020091Y024769D01*
X020133Y024451D02*
X015454Y024451D01*
X015011Y025406D02*
X007973Y025406D01*
X007973Y025088D02*
X014458Y025088D01*
X014031Y024769D02*
X007973Y024769D01*
X007973Y024451D02*
X011137Y024451D01*
X011112Y024132D02*
X007973Y024132D01*
X007973Y023814D02*
X011112Y023814D01*
X011162Y023495D02*
X007973Y023495D01*
X007973Y023177D02*
X009807Y023177D01*
X009553Y022858D02*
X007973Y022858D01*
X007973Y022540D02*
X009433Y022540D01*
X009410Y022221D02*
X007973Y022221D01*
X007973Y021903D02*
X009477Y021903D01*
X009652Y021584D02*
X007973Y021584D01*
X007973Y021266D02*
X010056Y021266D01*
X011065Y021266D02*
X011222Y021266D01*
X011222Y020947D02*
X007973Y020947D01*
X007973Y020629D02*
X011222Y020629D01*
X011222Y020310D02*
X007973Y020310D01*
X007973Y019992D02*
X011222Y019992D01*
X011222Y019673D02*
X007973Y019673D01*
X007973Y019355D02*
X011222Y019355D01*
X011222Y019036D02*
X007973Y019036D01*
X007973Y018718D02*
X011222Y018718D01*
X011222Y018399D02*
X007973Y018399D01*
X007973Y018081D02*
X011222Y018081D01*
X011222Y017762D02*
X007973Y017762D01*
X007973Y017444D02*
X011222Y017444D01*
X011222Y017125D02*
X007973Y017125D01*
X007973Y016807D02*
X011222Y016807D01*
X011222Y016488D02*
X007973Y016488D01*
X007973Y016170D02*
X011222Y016170D01*
X011222Y015851D02*
X007973Y015851D01*
X007973Y015533D02*
X011222Y015533D01*
X011257Y015214D02*
X007973Y015214D01*
X007973Y014896D02*
X011307Y014896D01*
X011357Y014577D02*
X007973Y014577D01*
X007973Y014259D02*
X011458Y014259D01*
X011561Y013940D02*
X007973Y013940D01*
X007973Y013622D02*
X011682Y013622D01*
X011844Y013303D02*
X007973Y013303D01*
X007973Y012985D02*
X012006Y012985D01*
X012224Y012666D02*
X007973Y012666D01*
X007973Y012348D02*
X012455Y012348D01*
X012735Y012029D02*
X011222Y012029D01*
X011267Y012003D02*
X011005Y012154D01*
X010712Y012233D01*
X010409Y012233D01*
X010117Y012154D01*
X009854Y012003D01*
X009640Y011789D01*
X009488Y011526D01*
X009410Y011234D01*
X009410Y010931D01*
X009488Y010638D01*
X009640Y010376D01*
X009854Y010162D01*
X010117Y010010D01*
X010409Y009932D01*
X010712Y009932D01*
X011005Y010010D01*
X011267Y010162D01*
X011481Y010376D01*
X011633Y010638D01*
X011711Y010931D01*
X011711Y011234D01*
X011633Y011526D01*
X011481Y011789D01*
X011267Y012003D01*
X011526Y011711D02*
X013053Y011711D01*
X013442Y011392D02*
X011669Y011392D01*
X011711Y011074D02*
X013880Y011074D01*
X014494Y010755D02*
X011664Y010755D01*
X011516Y010437D02*
X015360Y010437D01*
X016860Y010759D02*
X022765Y010759D01*
X023743Y010437D02*
X025664Y010437D01*
X025664Y010755D02*
X024283Y010755D01*
X024536Y010957D02*
X024536Y010957D01*
X024629Y011074D02*
X025664Y011074D01*
X025664Y011392D02*
X024883Y011392D01*
X025037Y011711D02*
X025664Y011711D01*
X025664Y011847D02*
X025664Y008574D01*
X025604Y008635D01*
X025357Y008737D01*
X025091Y008737D01*
X024844Y008635D01*
X024724Y008514D01*
X024604Y008635D01*
X024357Y008737D01*
X024091Y008737D01*
X023844Y008635D01*
X023656Y008446D01*
X023554Y008200D01*
X023554Y007933D01*
X023656Y007687D01*
X023759Y007584D01*
X023812Y007349D01*
X024023Y006911D01*
X024326Y006531D01*
X024326Y006531D01*
X024326Y006531D01*
X024707Y006228D01*
X025145Y006017D01*
X025310Y005979D01*
X025331Y005929D01*
X025415Y005844D01*
X025525Y005799D01*
X026305Y005799D01*
X026415Y005844D01*
X026499Y005929D01*
X026545Y006039D01*
X026545Y006818D01*
X026499Y006929D01*
X026415Y007013D01*
X026305Y007059D01*
X025525Y007059D01*
X025455Y007030D01*
X025267Y007120D01*
X025071Y007276D01*
X024918Y007468D01*
X025091Y007397D01*
X025357Y007397D01*
X025604Y007499D01*
X025724Y007619D01*
X025844Y007499D01*
X026091Y007397D01*
X026357Y007397D01*
X026604Y007499D01*
X026752Y007647D01*
X026814Y007586D01*
X026894Y007528D01*
X026982Y007483D01*
X027076Y007452D01*
X027174Y007437D01*
X027224Y007437D01*
X027224Y008067D01*
X027224Y008697D01*
X027174Y008697D01*
X027076Y008681D01*
X026982Y008650D01*
X026894Y008605D01*
X026814Y008547D01*
X026784Y008517D01*
X026784Y011812D01*
X026826Y011854D01*
X026872Y011964D01*
X026872Y012744D01*
X026826Y012854D01*
X026742Y012938D01*
X026631Y012984D01*
X025852Y012984D01*
X025742Y012938D01*
X025657Y012854D01*
X025612Y012744D01*
X025612Y011964D01*
X025657Y011854D01*
X025664Y011847D01*
X025612Y012029D02*
X025158Y012029D01*
X025231Y012348D02*
X025612Y012348D01*
X025612Y012666D02*
X025254Y012666D01*
X025306Y012985D02*
X027926Y012985D01*
X028435Y013161D02*
X028433Y013214D01*
X028427Y013267D01*
X028418Y013320D01*
X028405Y013372D01*
X028388Y013422D01*
X028367Y013472D01*
X028344Y013519D01*
X028316Y013565D01*
X028286Y013609D01*
X028252Y013651D01*
X028216Y013690D01*
X028177Y013726D01*
X028135Y013760D01*
X028091Y013790D01*
X028045Y013818D01*
X027998Y013841D01*
X027948Y013862D01*
X027898Y013879D01*
X027846Y013892D01*
X027793Y013901D01*
X027740Y013907D01*
X027687Y013909D01*
X025915Y013909D01*
X025600Y013303D02*
X027862Y013303D01*
X029596Y013771D02*
X029594Y013842D01*
X029588Y013914D01*
X029579Y013984D01*
X029565Y014055D01*
X029548Y014124D01*
X029527Y014192D01*
X029502Y014259D01*
X029474Y014325D01*
X029442Y014389D01*
X029407Y014451D01*
X029369Y014511D01*
X029327Y014569D01*
X029282Y014625D01*
X029235Y014678D01*
X029184Y014729D01*
X029131Y014776D01*
X029075Y014821D01*
X029017Y014863D01*
X028957Y014901D01*
X028895Y014936D01*
X028831Y014968D01*
X028765Y014996D01*
X028698Y015021D01*
X028630Y015042D01*
X028561Y015059D01*
X028490Y015073D01*
X028420Y015082D01*
X028348Y015088D01*
X028277Y015090D01*
X028333Y014259D02*
X028910Y014259D01*
X029052Y013940D02*
X028688Y013940D01*
X028870Y013622D02*
X029076Y013622D01*
X029133Y013303D02*
X028955Y013303D01*
X029001Y012985D02*
X029263Y012985D01*
X029171Y012666D02*
X029499Y012666D01*
X029780Y012348D02*
X029935Y012348D01*
X030580Y012728D02*
X042057Y012728D01*
X042965Y012985D02*
X043532Y012985D01*
X043613Y012666D02*
X043338Y012666D01*
X043551Y012348D02*
X043686Y012348D01*
X043678Y012029D02*
X043760Y012029D01*
X043744Y011711D02*
X043834Y011711D01*
X043909Y011392D02*
X043744Y011392D01*
X043744Y011074D02*
X043984Y011074D01*
X044059Y010755D02*
X043744Y010755D01*
X043744Y010437D02*
X044133Y010437D01*
X044208Y010118D02*
X043744Y010118D01*
X043744Y009800D02*
X044283Y009800D01*
X044358Y009481D02*
X043744Y009481D01*
X043744Y009163D02*
X044433Y009163D01*
X044507Y008844D02*
X043744Y008844D01*
X043224Y008067D02*
X043224Y011561D01*
X042224Y011380D02*
X042224Y008067D01*
X042675Y007570D02*
X042773Y007570D01*
X043675Y007570D02*
X043773Y007570D01*
X044675Y007570D02*
X044773Y007570D01*
X045224Y008067D02*
X044222Y012334D01*
X043436Y013303D02*
X030368Y013303D01*
X030580Y012728D02*
X030518Y012730D01*
X030457Y012736D01*
X030396Y012745D01*
X030335Y012759D01*
X030276Y012776D01*
X030218Y012797D01*
X030161Y012822D01*
X030106Y012850D01*
X030053Y012881D01*
X030002Y012916D01*
X029953Y012954D01*
X029906Y012995D01*
X029863Y013038D01*
X029822Y013085D01*
X029784Y013134D01*
X029749Y013185D01*
X029718Y013238D01*
X029690Y013293D01*
X029665Y013350D01*
X029644Y013408D01*
X029627Y013467D01*
X029613Y013528D01*
X029604Y013589D01*
X029598Y013650D01*
X029596Y013712D01*
X029596Y013771D01*
X028435Y013161D02*
X028442Y013088D01*
X028453Y013016D01*
X028467Y012944D01*
X028485Y012873D01*
X028506Y012804D01*
X028531Y012735D01*
X028559Y012668D01*
X028591Y012602D01*
X028626Y012538D01*
X028664Y012476D01*
X028705Y012416D01*
X028749Y012358D01*
X028796Y012302D01*
X028846Y012249D01*
X028899Y012198D01*
X028954Y012150D01*
X029011Y012105D01*
X029070Y012063D01*
X029132Y012024D01*
X029196Y011988D01*
X029261Y011955D01*
X029328Y011926D01*
X029396Y011900D01*
X029465Y011878D01*
X029536Y011859D01*
X029607Y011844D01*
X029679Y011832D01*
X029752Y011824D01*
X029825Y011820D01*
X029898Y011819D01*
X029970Y011822D01*
X041584Y011822D01*
X042057Y012728D02*
X042122Y012726D01*
X042188Y012721D01*
X042252Y012712D01*
X042317Y012699D01*
X042380Y012682D01*
X042442Y012663D01*
X042504Y012639D01*
X042563Y012612D01*
X042621Y012582D01*
X042678Y012549D01*
X042732Y012513D01*
X042785Y012473D01*
X042835Y012431D01*
X042882Y012386D01*
X042927Y012339D01*
X042969Y012289D01*
X043009Y012236D01*
X043045Y012182D01*
X043078Y012125D01*
X043108Y012067D01*
X043135Y012008D01*
X043159Y011946D01*
X043178Y011884D01*
X043195Y011821D01*
X043208Y011756D01*
X043217Y011692D01*
X043222Y011626D01*
X043224Y011561D01*
X042224Y011379D02*
X042214Y011424D01*
X042201Y011467D01*
X042183Y011509D01*
X042163Y011550D01*
X042139Y011588D01*
X042112Y011625D01*
X042082Y011659D01*
X042050Y011691D01*
X042014Y011720D01*
X041977Y011746D01*
X041938Y011768D01*
X041897Y011788D01*
X041854Y011804D01*
X041810Y011816D01*
X041766Y011825D01*
X041720Y011830D01*
X041675Y011831D01*
X041630Y011828D01*
X041585Y011822D01*
X039732Y011074D02*
X038716Y011074D01*
X038824Y010755D02*
X039624Y010755D01*
X039624Y010437D02*
X038824Y010437D01*
X038824Y010118D02*
X039624Y010118D01*
X039706Y009800D02*
X038742Y009800D01*
X039505Y009481D02*
X037765Y009481D01*
X037899Y009163D02*
X039492Y009163D01*
X039505Y008844D02*
X037949Y008844D01*
X038713Y008526D02*
X039584Y008526D01*
X039557Y008207D02*
X038891Y008207D01*
X038875Y007889D02*
X039573Y007889D01*
X039773Y007570D02*
X038874Y007570D01*
X038978Y007252D02*
X040508Y007252D01*
X040579Y006933D02*
X038998Y006933D01*
X038978Y006615D02*
X040718Y006615D01*
X039695Y006296D02*
X038753Y006296D01*
X038824Y005978D02*
X039624Y005978D01*
X039624Y005659D02*
X038824Y005659D01*
X038824Y005341D02*
X039624Y005341D01*
X039758Y005022D02*
X038690Y005022D01*
X037758Y005022D02*
X037690Y005022D01*
X036758Y005022D02*
X036690Y005022D01*
X035758Y005022D02*
X035690Y005022D01*
X034758Y005022D02*
X034690Y005022D01*
X033758Y005022D02*
X033690Y005022D01*
X032758Y005022D02*
X032690Y005022D01*
X031758Y005022D02*
X031690Y005022D01*
X030758Y005022D02*
X009926Y005022D01*
X009824Y004963D02*
X010086Y005114D01*
X010300Y005329D01*
X010452Y005591D01*
X010530Y005884D01*
X010530Y006187D01*
X010452Y006479D01*
X010300Y006741D01*
X010086Y006956D01*
X009824Y007107D01*
X009531Y007186D01*
X009228Y007186D01*
X008935Y007107D01*
X008673Y006956D01*
X008459Y006741D01*
X008307Y006479D01*
X008229Y006187D01*
X008229Y005884D01*
X008307Y005591D01*
X008459Y005329D01*
X008673Y005114D01*
X008935Y004963D01*
X009228Y004884D01*
X009531Y004884D01*
X009824Y004963D01*
X010307Y005341D02*
X030624Y005341D01*
X030624Y005659D02*
X010470Y005659D01*
X010530Y005978D02*
X012674Y005978D01*
X012700Y005967D02*
X013539Y005967D01*
X013760Y006058D01*
X013928Y006227D01*
X014020Y006447D01*
X014020Y006686D01*
X013928Y006906D01*
X013768Y007067D01*
X013928Y007227D01*
X014020Y007447D01*
X014020Y007686D01*
X013928Y007906D01*
X013768Y008067D01*
X013928Y008227D01*
X014020Y008447D01*
X014020Y008686D01*
X013928Y008906D01*
X013760Y009075D01*
X013719Y009092D01*
X013784Y009139D01*
X013847Y009202D01*
X013899Y009273D01*
X013939Y009352D01*
X013966Y009435D01*
X013980Y009522D01*
X013980Y009567D01*
X013980Y009611D01*
X013966Y009698D01*
X013939Y009781D01*
X013899Y009860D01*
X013847Y009931D01*
X013784Y009994D01*
X013713Y010045D01*
X013635Y010086D01*
X013551Y010113D01*
X013464Y010127D01*
X013120Y010127D01*
X013120Y009567D01*
X013120Y009567D01*
X013980Y009567D01*
X013120Y009567D01*
X013120Y009567D01*
X013120Y010127D01*
X012776Y010127D01*
X012689Y010113D01*
X012605Y010086D01*
X012526Y010045D01*
X012455Y009994D01*
X012393Y009931D01*
X012341Y009860D01*
X012301Y009781D01*
X012273Y009698D01*
X012260Y009611D01*
X012260Y009567D01*
X013120Y009567D01*
X013120Y009567D01*
X012260Y009567D01*
X012260Y009522D01*
X012273Y009435D01*
X012301Y009352D01*
X012341Y009273D01*
X012393Y009202D01*
X012455Y009139D01*
X012520Y009092D01*
X012480Y009075D01*
X012311Y008906D01*
X012220Y008686D01*
X012220Y008447D01*
X012311Y008227D01*
X012471Y008067D01*
X012311Y007906D01*
X012220Y007686D01*
X012220Y007447D01*
X012311Y007227D01*
X012471Y007067D01*
X012311Y006906D01*
X012220Y006686D01*
X012220Y006447D01*
X012311Y006227D01*
X012480Y006058D01*
X012700Y005967D01*
X012282Y006296D02*
X010501Y006296D01*
X010373Y006615D02*
X012220Y006615D01*
X012338Y006933D02*
X010109Y006933D01*
X008650Y006933D02*
X007973Y006933D01*
X007973Y006615D02*
X008386Y006615D01*
X008258Y006296D02*
X007973Y006296D01*
X007973Y005978D02*
X008229Y005978D01*
X008289Y005659D02*
X007973Y005659D01*
X007973Y005341D02*
X008452Y005341D01*
X008833Y005022D02*
X007973Y005022D01*
X007973Y004704D02*
X047861Y004704D01*
X047850Y004729D02*
X047893Y004627D01*
X007973Y004627D01*
X007973Y030278D01*
X048206Y030278D01*
X048043Y030184D01*
X047829Y029970D01*
X047677Y029707D01*
X047599Y029415D01*
X047599Y029112D01*
X047677Y028819D01*
X047829Y028557D01*
X048043Y028343D01*
X048306Y028191D01*
X048598Y028113D01*
X048901Y028113D01*
X049194Y028191D01*
X049456Y028343D01*
X049670Y028557D01*
X049822Y028819D01*
X049900Y029112D01*
X049900Y029415D01*
X049822Y029707D01*
X049670Y029970D01*
X049456Y030184D01*
X049293Y030278D01*
X050552Y030278D01*
X050552Y008467D01*
X050524Y008488D01*
X050445Y008528D01*
X050361Y008555D01*
X050274Y008569D01*
X050230Y008569D01*
X050186Y008569D01*
X050099Y008555D01*
X050015Y008528D01*
X049937Y008488D01*
X049865Y008436D01*
X049803Y008374D01*
X049751Y008302D01*
X049711Y008224D01*
X049684Y008140D01*
X049670Y008053D01*
X049670Y007709D01*
X050230Y007709D01*
X050230Y008569D01*
X050230Y007709D01*
X050230Y007709D01*
X050230Y007709D01*
X049670Y007709D01*
X049670Y007365D01*
X049684Y007278D01*
X049711Y007194D01*
X049751Y007115D01*
X049803Y007044D01*
X049865Y006982D01*
X049937Y006930D01*
X050015Y006890D01*
X050099Y006863D01*
X050186Y006849D01*
X050230Y006849D01*
X050230Y007709D01*
X050230Y007709D01*
X050230Y006849D01*
X050274Y006849D01*
X050361Y006863D01*
X050445Y006890D01*
X050524Y006930D01*
X050552Y006950D01*
X050552Y005965D01*
X050350Y006049D01*
X050111Y006049D01*
X049890Y005957D01*
X049722Y005789D01*
X049630Y005568D01*
X049630Y004729D01*
X049673Y004627D01*
X049008Y004627D01*
X049050Y004729D01*
X049050Y005568D01*
X048959Y005789D01*
X048790Y005957D01*
X048570Y006049D01*
X048331Y006049D01*
X048110Y005957D01*
X047942Y005789D01*
X047850Y005568D01*
X047850Y004729D01*
X047850Y005022D02*
X041690Y005022D01*
X041824Y005341D02*
X047850Y005341D01*
X047888Y005659D02*
X041824Y005659D01*
X041824Y005978D02*
X048159Y005978D01*
X048741Y005978D02*
X049939Y005978D01*
X049668Y005659D02*
X049012Y005659D01*
X049050Y005341D02*
X049630Y005341D01*
X049630Y005022D02*
X049050Y005022D01*
X049039Y004704D02*
X049641Y004704D01*
X050521Y005978D02*
X050552Y005978D01*
X050552Y006296D02*
X041753Y006296D01*
X041978Y006615D02*
X050552Y006615D01*
X050528Y006933D02*
X050552Y006933D01*
X050230Y006933D02*
X050230Y006933D01*
X049932Y006933D02*
X048823Y006933D01*
X049034Y007252D02*
X049692Y007252D01*
X049670Y007570D02*
X049050Y007570D01*
X049050Y007889D02*
X049670Y007889D01*
X049706Y008207D02*
X049017Y008207D01*
X048770Y008526D02*
X050011Y008526D01*
X050230Y008526D02*
X050230Y008526D01*
X050449Y008526D02*
X050552Y008526D01*
X050552Y008844D02*
X046598Y008844D01*
X046534Y009163D02*
X050552Y009163D01*
X050552Y009481D02*
X046470Y009481D01*
X046406Y009800D02*
X050552Y009800D01*
X050552Y010118D02*
X048593Y010118D01*
X048918Y010437D02*
X050552Y010437D01*
X050552Y010755D02*
X049066Y010755D01*
X049113Y011074D02*
X050552Y011074D01*
X050552Y011392D02*
X049070Y011392D01*
X048958Y011711D02*
X050552Y011711D01*
X050552Y012029D02*
X049183Y012029D01*
X049183Y012348D02*
X050552Y012348D01*
X050552Y012666D02*
X049183Y012666D01*
X049110Y012985D02*
X050552Y012985D01*
X050552Y013303D02*
X049110Y013303D01*
X049105Y013622D02*
X050552Y013622D01*
X050552Y013940D02*
X049096Y013940D01*
X049110Y014259D02*
X050552Y014259D01*
X050552Y014577D02*
X049110Y014577D01*
X049116Y014896D02*
X050552Y014896D01*
X050552Y015214D02*
X049231Y015214D01*
X049187Y015533D02*
X050552Y015533D01*
X050552Y015851D02*
X048996Y015851D01*
X049070Y016170D02*
X050552Y016170D01*
X050552Y016488D02*
X049070Y016488D01*
X048939Y016807D02*
X050552Y016807D01*
X050552Y017125D02*
X049070Y017125D01*
X049070Y017444D02*
X050552Y017444D01*
X050552Y017762D02*
X048959Y017762D01*
X049070Y018081D02*
X050552Y018081D01*
X050552Y018399D02*
X049070Y018399D01*
X049009Y018718D02*
X050552Y018718D01*
X050552Y019036D02*
X049110Y019036D01*
X049110Y019355D02*
X050552Y019355D01*
X050552Y019673D02*
X049083Y019673D01*
X049110Y019992D02*
X050552Y019992D01*
X050552Y020310D02*
X049110Y020310D01*
X049102Y020629D02*
X050552Y020629D01*
X050552Y020947D02*
X046641Y020947D01*
X046616Y021030D02*
X046616Y021030D01*
X046486Y021266D02*
X047458Y021266D01*
X047518Y021231D02*
X047811Y021152D01*
X048114Y021152D01*
X048406Y021231D01*
X048669Y021382D01*
X048883Y021596D01*
X049034Y021859D01*
X049113Y022151D01*
X049113Y022454D01*
X049034Y022747D01*
X048883Y023009D01*
X048669Y023223D01*
X048406Y023375D01*
X048114Y023453D01*
X047811Y023453D01*
X047518Y023375D01*
X047256Y023223D01*
X047042Y023009D01*
X046890Y022747D01*
X046812Y022454D01*
X046812Y022151D01*
X046890Y021859D01*
X047042Y021596D01*
X047256Y021382D01*
X047518Y021231D01*
X047054Y021584D02*
X046310Y021584D01*
X046035Y021903D02*
X046878Y021903D01*
X046812Y022221D02*
X045690Y022221D01*
X045895Y022065D02*
X045895Y022065D01*
X045390Y022450D02*
X045390Y022450D01*
X045202Y022540D02*
X046835Y022540D01*
X046954Y022858D02*
X044256Y022858D01*
X044201Y022871D02*
X044201Y022871D01*
X043389Y022858D02*
X042240Y022858D01*
X042156Y022786D02*
X042156Y022786D01*
X042261Y022540D02*
X041804Y022540D01*
X042005Y022459D02*
X042005Y022459D01*
X041434Y022221D02*
X041349Y022221D01*
X042613Y023177D02*
X047209Y023177D01*
X048716Y023177D02*
X050552Y023177D01*
X050552Y023495D02*
X042985Y023495D01*
X043346Y023814D02*
X050552Y023814D01*
X050552Y024132D02*
X043652Y024132D01*
X043958Y024451D02*
X050552Y024451D01*
X050552Y024769D02*
X044265Y024769D01*
X044329Y024836D02*
X044329Y024836D01*
X044528Y025088D02*
X050552Y025088D01*
X050552Y025406D02*
X044780Y025406D01*
X045032Y025725D02*
X050552Y025725D01*
X050552Y026043D02*
X045279Y026043D01*
X045256Y026009D02*
X045256Y026009D01*
X045484Y026362D02*
X050552Y026362D01*
X050552Y026680D02*
X045785Y026680D01*
X045894Y026999D02*
X050552Y026999D01*
X050552Y027317D02*
X045845Y027317D01*
X045601Y027636D02*
X050552Y027636D01*
X050552Y027954D02*
X028144Y027954D01*
X028144Y028008D02*
X028034Y028348D01*
X027824Y028637D01*
X027647Y028765D01*
X027647Y028826D01*
X027602Y028937D01*
X027517Y029021D01*
X027407Y029067D01*
X026628Y029067D01*
X026517Y029021D01*
X026433Y028937D01*
X026387Y028826D01*
X026387Y028047D01*
X026433Y027937D01*
X026517Y027852D01*
X026628Y027807D01*
X027104Y027807D01*
X027104Y027534D01*
X027004Y027635D01*
X026757Y027737D01*
X026491Y027737D01*
X026244Y027635D01*
X026056Y027446D01*
X025954Y027200D01*
X025954Y026933D01*
X026056Y026687D01*
X026244Y026499D01*
X026491Y026397D01*
X026757Y026397D01*
X027004Y026499D01*
X027124Y026619D01*
X027244Y026499D01*
X027491Y026397D01*
X027757Y026397D01*
X028004Y026499D01*
X028192Y026687D01*
X028294Y026933D01*
X028294Y027200D01*
X028192Y027446D01*
X028144Y027494D01*
X028144Y028008D01*
X028058Y028273D02*
X048165Y028273D01*
X047809Y028591D02*
X044820Y028591D01*
X044853Y028624D02*
X044684Y028455D01*
X044463Y028363D01*
X044225Y028363D01*
X044004Y028455D01*
X043844Y028615D01*
X043684Y028455D01*
X043463Y028363D01*
X043225Y028363D01*
X043004Y028455D01*
X042844Y028615D01*
X042684Y028455D01*
X042463Y028363D01*
X042225Y028363D01*
X042004Y028455D01*
X041844Y028615D01*
X041684Y028455D01*
X041463Y028363D01*
X041225Y028363D01*
X041004Y028455D01*
X040835Y028624D01*
X040744Y028844D01*
X040744Y029683D01*
X040835Y029903D01*
X041004Y030072D01*
X041225Y030163D01*
X041463Y030163D01*
X041684Y030072D01*
X041844Y029912D01*
X042004Y030072D01*
X042225Y030163D01*
X042463Y030163D01*
X042684Y030072D01*
X042844Y029912D01*
X043004Y030072D01*
X043225Y030163D01*
X043463Y030163D01*
X043684Y030072D01*
X043844Y029912D01*
X044004Y030072D01*
X044225Y030163D01*
X044463Y030163D01*
X044684Y030072D01*
X044853Y029903D01*
X044944Y029683D01*
X044944Y028844D01*
X044853Y028624D01*
X044944Y028910D02*
X047653Y028910D01*
X047599Y029228D02*
X044944Y029228D01*
X044944Y029547D02*
X047634Y029547D01*
X047768Y029865D02*
X044869Y029865D01*
X043868Y028591D02*
X043820Y028591D01*
X042868Y028591D02*
X042820Y028591D01*
X041868Y028591D02*
X041820Y028591D01*
X040868Y028591D02*
X027857Y028591D01*
X027824Y028637D02*
X027824Y028637D01*
X027824Y028637D01*
X027613Y028910D02*
X040744Y028910D01*
X040744Y029228D02*
X017779Y029228D01*
X017779Y028910D02*
X026422Y028910D01*
X026387Y028591D02*
X017655Y028591D01*
X017687Y028624D02*
X017779Y028844D01*
X017779Y029683D01*
X017687Y029903D01*
X017519Y030072D01*
X017298Y030163D01*
X017059Y030163D01*
X016839Y030072D01*
X016679Y029912D01*
X016519Y030072D01*
X016298Y030163D01*
X016059Y030163D01*
X015839Y030072D01*
X015679Y029912D01*
X015519Y030072D01*
X015298Y030163D01*
X015059Y030163D01*
X014839Y030072D01*
X014679Y029912D01*
X014519Y030072D01*
X014298Y030163D01*
X014059Y030163D01*
X013839Y030072D01*
X013670Y029903D01*
X013579Y029683D01*
X013579Y028844D01*
X013670Y028624D01*
X013839Y028455D01*
X014059Y028363D01*
X014298Y028363D01*
X014519Y028455D01*
X014679Y028615D01*
X014839Y028455D01*
X015059Y028363D01*
X015298Y028363D01*
X015519Y028455D01*
X015679Y028615D01*
X015839Y028455D01*
X016059Y028363D01*
X016298Y028363D01*
X016519Y028455D01*
X016679Y028615D01*
X016839Y028455D01*
X017059Y028363D01*
X017298Y028363D01*
X017519Y028455D01*
X017687Y028624D01*
X017779Y029547D02*
X040744Y029547D01*
X040820Y029865D02*
X017703Y029865D01*
X016703Y028591D02*
X016655Y028591D01*
X015703Y028591D02*
X015655Y028591D01*
X014703Y028591D02*
X014655Y028591D01*
X013703Y028591D02*
X007973Y028591D01*
X007973Y028273D02*
X026387Y028273D01*
X026426Y027954D02*
X007973Y027954D01*
X007973Y027636D02*
X026247Y027636D01*
X026003Y027317D02*
X007973Y027317D01*
X007973Y026999D02*
X025954Y026999D01*
X026063Y026680D02*
X007973Y026680D01*
X007973Y026362D02*
X028478Y026362D01*
X028555Y026680D02*
X028185Y026680D01*
X028294Y026999D02*
X028554Y026999D01*
X028603Y027317D02*
X028245Y027317D01*
X028144Y027636D02*
X028847Y027636D01*
X029601Y027636D02*
X029847Y027636D01*
X030601Y027636D02*
X030847Y027636D01*
X031601Y027636D02*
X031847Y027636D01*
X032601Y027636D02*
X032847Y027636D01*
X033601Y027636D02*
X033847Y027636D01*
X034224Y027067D02*
X035443Y027067D01*
X035443Y027098D01*
X036073Y026999D02*
X043507Y026999D01*
X043603Y027317D02*
X036073Y027317D01*
X035989Y027636D02*
X043847Y027636D01*
X044601Y027636D02*
X044847Y027636D01*
X045224Y027067D02*
X045224Y026919D01*
X043235Y026680D02*
X036061Y026680D01*
X034896Y027636D02*
X034601Y027636D01*
X034056Y026362D02*
X042943Y026362D01*
X042650Y026043D02*
X034361Y026043D01*
X034951Y025581D02*
X034951Y025581D01*
X035153Y025470D01*
X035267Y025470D01*
X035377Y025424D01*
X035462Y025340D01*
X035508Y025230D01*
X035508Y025092D01*
X035536Y025008D01*
X035522Y024786D01*
X035508Y024757D01*
X035508Y024636D01*
X035462Y024525D01*
X035377Y024441D01*
X035267Y024395D01*
X035129Y024395D01*
X035045Y024367D01*
X034823Y024381D01*
X034794Y024395D01*
X034673Y024395D01*
X034563Y024441D01*
X034478Y024525D01*
X034465Y024557D01*
X034362Y024608D01*
X033712Y025083D01*
X033712Y025083D01*
X033170Y025648D01*
X033208Y025499D01*
X033234Y025474D01*
X033279Y025364D01*
X033279Y025225D01*
X033312Y025099D01*
X033281Y024878D01*
X033279Y024876D01*
X033279Y024769D01*
X034141Y024769D01*
X034553Y024451D02*
X026734Y024451D01*
X027039Y024132D02*
X035978Y024132D01*
X035684Y024451D02*
X035387Y024451D01*
X035514Y024769D02*
X035642Y024769D01*
X035642Y025088D02*
X035509Y025088D01*
X035396Y025406D02*
X035648Y025406D01*
X036506Y024132D02*
X036978Y024132D01*
X037506Y024132D02*
X037978Y024132D01*
X038506Y024132D02*
X038978Y024132D01*
X039843Y023814D02*
X027039Y023814D01*
X028250Y024659D02*
X028334Y024575D01*
X028445Y024529D01*
X028582Y024529D01*
X028719Y024496D01*
X028929Y024529D01*
X029039Y024529D01*
X029149Y024575D01*
X029234Y024659D01*
X029242Y024679D01*
X029250Y024659D01*
X029334Y024575D01*
X029445Y024529D01*
X029582Y024529D01*
X029719Y024496D01*
X029929Y024529D01*
X030039Y024529D01*
X030149Y024575D01*
X030234Y024659D01*
X030279Y024769D01*
X031204Y024769D01*
X031250Y024659D01*
X031334Y024575D01*
X031445Y024529D01*
X031551Y024529D01*
X031554Y024527D01*
X031774Y024496D01*
X031900Y024529D01*
X032039Y024529D01*
X032149Y024575D01*
X032234Y024659D01*
X032242Y024679D01*
X032250Y024659D01*
X032334Y024575D01*
X032445Y024529D01*
X032551Y024529D01*
X032554Y024527D01*
X032774Y024496D01*
X032900Y024529D01*
X033039Y024529D01*
X033149Y024575D01*
X033234Y024659D01*
X033279Y024769D01*
X033310Y025088D02*
X033708Y025088D01*
X033402Y025406D02*
X033262Y025406D01*
X031204Y024908D02*
X031204Y024769D01*
X031204Y024908D02*
X030774Y026569D01*
X030724Y026619D01*
X030682Y026577D01*
X030279Y024907D01*
X030279Y024769D01*
X030323Y025088D02*
X031158Y025088D01*
X031075Y025406D02*
X030400Y025406D01*
X030476Y025725D02*
X030993Y025725D01*
X030910Y026043D02*
X030553Y026043D01*
X030630Y026362D02*
X030828Y026362D01*
X028401Y026043D02*
X007973Y026043D01*
X007973Y025725D02*
X015831Y025725D01*
X017093Y025725D02*
X020295Y025725D01*
X021087Y025725D02*
X021295Y025725D01*
X022087Y025725D02*
X022361Y025725D01*
X022691Y025725D02*
X022691Y025725D01*
X022691Y025406D02*
X022691Y025406D01*
X022691Y025088D02*
X022691Y025088D01*
X022691Y024769D02*
X022691Y024769D01*
X022691Y024451D02*
X022691Y024451D01*
X023020Y025725D02*
X023295Y025725D01*
X024087Y025725D02*
X028324Y025725D01*
X028222Y025406D02*
X024284Y025406D01*
X024291Y025088D02*
X028172Y025088D01*
X028204Y024769D02*
X028250Y024659D01*
X031239Y022858D02*
X031239Y022858D01*
X031239Y022540D02*
X031239Y022540D01*
X031239Y022221D02*
X031239Y022221D01*
X028041Y020208D02*
X034576Y020208D01*
X034609Y019688D02*
X034680Y019688D01*
X034711Y019701D01*
X035384Y019786D01*
X036842Y020117D01*
X038261Y020587D01*
X038261Y020587D01*
X038790Y020821D01*
X037677Y020110D01*
X035338Y018746D01*
X034231Y018159D01*
X033695Y018115D01*
X033751Y018171D01*
X033796Y018281D01*
X033796Y018915D01*
X033751Y019026D01*
X033666Y019110D01*
X033556Y019156D01*
X032922Y019156D01*
X032811Y019110D01*
X032739Y019037D01*
X032666Y019110D01*
X032556Y019156D01*
X031922Y019156D01*
X031811Y019110D01*
X031727Y019026D01*
X031715Y018996D01*
X031698Y019021D01*
X031662Y019058D01*
X031620Y019086D01*
X031572Y019106D01*
X031522Y019116D01*
X031239Y019116D01*
X031239Y018598D01*
X031239Y018081D01*
X031522Y018081D01*
X031572Y018091D01*
X031620Y018110D01*
X031662Y018139D01*
X031698Y018175D01*
X031715Y018200D01*
X031727Y018171D01*
X031811Y018086D01*
X031922Y018041D01*
X032556Y018041D01*
X032666Y018086D01*
X032739Y018159D01*
X032811Y018086D01*
X032897Y018051D01*
X027616Y017623D01*
X027596Y017643D01*
X027486Y017689D01*
X026767Y017689D01*
X026837Y017781D01*
X027226Y018487D01*
X027226Y018487D01*
X027363Y018856D01*
X027400Y018943D01*
X027400Y018953D01*
X027403Y018962D01*
X027400Y019050D01*
X027405Y019131D01*
X027448Y019292D01*
X027532Y019437D01*
X027650Y019556D01*
X027795Y019639D01*
X027957Y019683D01*
X028041Y019688D01*
X034507Y019688D01*
X034539Y019679D01*
X034609Y019688D01*
X035384Y019786D02*
X035384Y019786D01*
X035835Y019036D02*
X033740Y019036D01*
X033796Y018718D02*
X035284Y018718D01*
X034684Y018399D02*
X033796Y018399D01*
X032825Y018081D02*
X032652Y018081D01*
X031825Y018081D02*
X030652Y018081D01*
X030666Y018086D02*
X030751Y018171D01*
X030763Y018200D01*
X030779Y018175D01*
X030816Y018139D01*
X030858Y018110D01*
X030906Y018091D01*
X030956Y018081D01*
X031239Y018081D01*
X031239Y018598D01*
X031239Y018598D01*
X031239Y018598D01*
X031239Y019116D01*
X030956Y019116D01*
X030906Y019106D01*
X030858Y019086D01*
X030816Y019058D01*
X030779Y019021D01*
X030763Y018996D01*
X030751Y019026D01*
X030666Y019110D01*
X030556Y019156D01*
X029922Y019156D01*
X029811Y019110D01*
X029739Y019037D01*
X029666Y019110D01*
X029556Y019156D01*
X028922Y019156D01*
X028811Y019110D01*
X028739Y019037D01*
X028666Y019110D01*
X028556Y019156D01*
X027922Y019156D01*
X027811Y019110D01*
X027727Y019026D01*
X027681Y018915D01*
X027681Y018281D01*
X027727Y018171D01*
X027811Y018086D01*
X027922Y018041D01*
X028556Y018041D01*
X028666Y018086D01*
X028739Y018159D01*
X028811Y018086D01*
X028922Y018041D01*
X029556Y018041D01*
X029666Y018086D01*
X029739Y018159D01*
X029811Y018086D01*
X029922Y018041D01*
X030556Y018041D01*
X030666Y018086D01*
X031239Y018399D02*
X031239Y018399D01*
X031239Y018718D02*
X031239Y018718D01*
X031239Y019036D02*
X031239Y019036D01*
X031684Y019036D02*
X031738Y019036D01*
X030794Y019036D02*
X030740Y019036D01*
X029825Y018081D02*
X029652Y018081D01*
X029337Y017762D02*
X026823Y017762D01*
X026837Y017781D02*
X026837Y017781D01*
X027002Y018081D02*
X027825Y018081D01*
X027681Y018399D02*
X027177Y018399D01*
X027312Y018718D02*
X027681Y018718D01*
X027738Y019036D02*
X027400Y019036D01*
X027484Y019355D02*
X036381Y019355D01*
X036927Y019673D02*
X027921Y019673D01*
X028041Y020208D02*
X027976Y020206D01*
X027911Y020201D01*
X027847Y020192D01*
X027783Y020179D01*
X027720Y020163D01*
X027658Y020143D01*
X027597Y020120D01*
X027537Y020093D01*
X027479Y020063D01*
X027423Y020030D01*
X027369Y019994D01*
X027317Y019955D01*
X027267Y019913D01*
X027220Y019868D01*
X027175Y019821D01*
X027133Y019771D01*
X027094Y019719D01*
X027058Y019665D01*
X027025Y019609D01*
X026995Y019551D01*
X026968Y019491D01*
X026945Y019430D01*
X026925Y019368D01*
X026909Y019305D01*
X026896Y019241D01*
X026887Y019177D01*
X026882Y019112D01*
X026880Y019047D01*
X025777Y019322D02*
X026309Y020602D01*
X026309Y020601D02*
X026321Y020661D01*
X026336Y020719D01*
X026355Y020776D01*
X026378Y020832D01*
X026404Y020886D01*
X026433Y020938D01*
X026466Y020989D01*
X026502Y021037D01*
X026541Y021083D01*
X026582Y021127D01*
X026626Y021168D01*
X026673Y021206D01*
X026722Y021241D01*
X026773Y021272D01*
X026826Y021301D01*
X026881Y021326D01*
X026937Y021348D01*
X026994Y021366D01*
X027053Y021381D01*
X027112Y021391D01*
X027172Y021398D01*
X027232Y021402D01*
X027292Y021401D01*
X027352Y021397D01*
X027411Y021389D01*
X024976Y020947D02*
X024672Y020947D01*
X023976Y020947D02*
X023672Y020947D01*
X022976Y020947D02*
X022672Y020947D01*
X026879Y019047D02*
X026829Y018919D01*
X026775Y018792D01*
X026718Y018666D01*
X026658Y018542D01*
X026594Y018420D01*
X026527Y018299D01*
X026456Y018181D01*
X026383Y018064D01*
X026306Y017950D01*
X026226Y017837D01*
X026143Y017727D01*
X026057Y017619D01*
X025968Y017514D01*
X025876Y017411D01*
X025782Y017310D01*
X025684Y017213D01*
X025585Y017118D01*
X025482Y017025D01*
X025377Y016936D01*
X025270Y016849D01*
X025160Y016766D01*
X025048Y016685D01*
X024934Y016608D01*
X024817Y016534D01*
X024699Y016463D01*
X024579Y016395D01*
X024457Y016330D01*
X024333Y016269D01*
X024208Y016212D01*
X024081Y016158D01*
X023953Y016107D01*
X023823Y016060D01*
X023693Y016016D01*
X023561Y015976D01*
X023428Y015940D01*
X023294Y015907D01*
X023159Y015878D01*
X019694Y015878D01*
X019576Y015996D01*
X020164Y016488D02*
X023000Y016488D01*
X024666Y015851D02*
X030897Y015851D01*
X030815Y016170D02*
X025228Y016170D01*
X025662Y016488D02*
X026582Y016488D01*
X026466Y016807D02*
X026014Y016807D01*
X025777Y016573D02*
X025777Y016573D01*
X026338Y017125D02*
X026466Y017125D01*
X027096Y017059D02*
X034380Y017649D01*
X036042Y016488D02*
X032472Y016488D01*
X032416Y016170D02*
X035858Y016170D01*
X035757Y015851D02*
X032334Y015851D01*
X032516Y015533D02*
X035706Y015533D01*
X035706Y015214D02*
X032480Y015214D01*
X032290Y014896D02*
X035783Y014896D01*
X035913Y014577D02*
X032500Y014577D01*
X032498Y014259D02*
X036118Y014259D01*
X036461Y013940D02*
X032283Y013940D01*
X029228Y011392D02*
X026784Y011392D01*
X026784Y011074D02*
X030732Y011074D01*
X030624Y010755D02*
X026784Y010755D01*
X026784Y010437D02*
X030624Y010437D01*
X030624Y010118D02*
X026784Y010118D01*
X026784Y009800D02*
X030706Y009800D01*
X030505Y009481D02*
X026784Y009481D01*
X026784Y009163D02*
X030492Y009163D01*
X030505Y008844D02*
X026784Y008844D01*
X026784Y008526D02*
X026792Y008526D01*
X027224Y008526D02*
X027224Y008526D01*
X027224Y008697D02*
X027224Y008067D01*
X027224Y008067D01*
X027224Y007437D01*
X027274Y007437D01*
X027372Y007452D01*
X027466Y007483D01*
X027554Y007528D01*
X027634Y007586D01*
X027696Y007647D01*
X027844Y007499D01*
X028091Y007397D01*
X028357Y007397D01*
X028604Y007499D01*
X028724Y007619D01*
X028844Y007499D01*
X029091Y007397D01*
X029357Y007397D01*
X029604Y007499D01*
X029792Y007687D01*
X029894Y007933D01*
X029894Y008200D01*
X029792Y008446D01*
X029604Y008635D01*
X029357Y008737D01*
X029091Y008737D01*
X028844Y008635D01*
X028724Y008514D01*
X028604Y008635D01*
X028357Y008737D01*
X028091Y008737D01*
X027844Y008635D01*
X027696Y008486D01*
X027634Y008547D01*
X027554Y008605D01*
X027466Y008650D01*
X027372Y008681D01*
X027274Y008697D01*
X027224Y008697D01*
X027656Y008526D02*
X027735Y008526D01*
X027224Y008207D02*
X027224Y008207D01*
X027224Y008067D02*
X027224Y008067D01*
X027224Y007889D02*
X027224Y007889D01*
X027224Y007570D02*
X027224Y007570D01*
X026836Y007570D02*
X026675Y007570D01*
X025773Y007570D02*
X025675Y007570D01*
X025102Y007252D02*
X031508Y007252D01*
X031579Y006933D02*
X026495Y006933D01*
X026545Y006615D02*
X031718Y006615D01*
X030695Y006296D02*
X026545Y006296D01*
X026519Y005978D02*
X030624Y005978D01*
X030773Y007570D02*
X029675Y007570D01*
X029875Y007889D02*
X030573Y007889D01*
X030557Y008207D02*
X029891Y008207D01*
X029713Y008526D02*
X030584Y008526D01*
X044222Y012334D02*
X044146Y012682D01*
X044063Y013027D01*
X043971Y013370D01*
X043872Y013711D01*
X043764Y014050D01*
X043649Y014386D01*
X043525Y014719D01*
X043394Y015049D01*
X043256Y015376D01*
X043109Y015700D01*
X042956Y016021D01*
X042795Y016337D01*
X042626Y016650D01*
X042450Y016959D01*
X042267Y017263D01*
X042077Y017564D01*
X041880Y017859D01*
X041677Y018150D01*
X041466Y018437D01*
X041599Y019673D02*
X038937Y019673D01*
X039423Y019992D02*
X040846Y019992D01*
X040836Y020310D02*
X039932Y020310D01*
X040527Y020629D02*
X040836Y020629D01*
X038488Y020629D02*
X038354Y020629D01*
X037989Y020310D02*
X037424Y020310D01*
X037473Y019992D02*
X036288Y019992D01*
X036842Y020117D02*
X036842Y020117D01*
X036342Y016807D02*
X032322Y016807D01*
X030909Y016807D02*
X030421Y016807D01*
X030759Y016488D02*
X027610Y016488D01*
X028652Y018081D02*
X028825Y018081D01*
X023637Y015006D02*
X023637Y015006D01*
X023549Y014896D02*
X022797Y014896D01*
X022784Y014915D02*
X022748Y014951D01*
X022705Y014980D01*
X022658Y014999D01*
X022607Y015009D01*
X022324Y015009D01*
X022324Y014492D01*
X022324Y014492D01*
X022324Y014492D01*
X022842Y014492D01*
X022842Y014775D01*
X022832Y014825D01*
X022812Y014872D01*
X022784Y014915D01*
X022842Y014577D02*
X023314Y014577D01*
X023160Y014259D02*
X022842Y014259D01*
X022842Y014209D02*
X022842Y014492D01*
X022324Y014492D01*
X022324Y014492D01*
X022324Y013974D01*
X022607Y013974D01*
X022658Y013984D01*
X022705Y014004D01*
X022748Y014032D01*
X022784Y014069D01*
X022812Y014111D01*
X022832Y014158D01*
X022842Y014209D01*
X022324Y014259D02*
X022324Y014259D01*
X022324Y014577D02*
X022324Y014577D01*
X022324Y014896D02*
X022324Y014896D01*
X021852Y014896D02*
X021846Y014896D01*
X023553Y013122D02*
X023551Y013056D01*
X023546Y012990D01*
X023536Y012924D01*
X023523Y012859D01*
X023507Y012795D01*
X023487Y012732D01*
X023463Y012670D01*
X023436Y012610D01*
X023406Y012551D01*
X023372Y012494D01*
X023335Y012439D01*
X023295Y012386D01*
X023253Y012335D01*
X023207Y012287D01*
X023159Y012241D01*
X023108Y012199D01*
X023055Y012159D01*
X023000Y012122D01*
X022943Y012088D01*
X022884Y012058D01*
X022824Y012031D01*
X022762Y012007D01*
X022699Y011987D01*
X022635Y011971D01*
X022570Y011958D01*
X022504Y011948D01*
X022438Y011943D01*
X022372Y011941D01*
X016860Y011941D01*
X015731Y012666D02*
X022843Y012666D01*
X024734Y012728D02*
X024732Y012642D01*
X024727Y012556D01*
X024717Y012471D01*
X024704Y012386D01*
X024687Y012302D01*
X024667Y012218D01*
X024643Y012136D01*
X024615Y012055D01*
X024584Y011974D01*
X024550Y011896D01*
X024512Y011819D01*
X024470Y011743D01*
X024426Y011670D01*
X024378Y011599D01*
X024327Y011529D01*
X024273Y011462D01*
X024217Y011398D01*
X024157Y011336D01*
X024095Y011276D01*
X024031Y011220D01*
X023964Y011166D01*
X023894Y011115D01*
X023823Y011067D01*
X023750Y011023D01*
X023674Y010981D01*
X023597Y010943D01*
X023519Y010909D01*
X023438Y010878D01*
X023357Y010850D01*
X023275Y010826D01*
X023191Y010806D01*
X023107Y010789D01*
X023022Y010776D01*
X022937Y010766D01*
X022851Y010761D01*
X022765Y010759D01*
X025664Y010118D02*
X013517Y010118D01*
X013120Y010118D02*
X013120Y010118D01*
X013120Y009800D02*
X013120Y009800D01*
X012722Y010118D02*
X011192Y010118D01*
X012266Y009481D02*
X007973Y009481D01*
X007973Y009163D02*
X012432Y009163D01*
X012285Y008844D02*
X007973Y008844D01*
X007973Y008526D02*
X012220Y008526D01*
X012331Y008207D02*
X007973Y008207D01*
X007973Y007889D02*
X012304Y007889D01*
X012220Y007570D02*
X007973Y007570D01*
X007973Y007252D02*
X012301Y007252D01*
X013902Y006933D02*
X024013Y006933D01*
X024023Y006911D02*
X024023Y006911D01*
X023859Y007252D02*
X013939Y007252D01*
X014020Y007570D02*
X023762Y007570D01*
X023812Y007349D02*
X023812Y007349D01*
X023573Y007889D02*
X013936Y007889D01*
X013909Y008207D02*
X023557Y008207D01*
X023735Y008526D02*
X014020Y008526D01*
X013954Y008844D02*
X025664Y008844D01*
X025664Y009163D02*
X013808Y009163D01*
X013973Y009481D02*
X025664Y009481D01*
X025664Y009800D02*
X013929Y009800D01*
X012310Y009800D02*
X007973Y009800D01*
X007973Y010118D02*
X009930Y010118D01*
X009605Y010437D02*
X007973Y010437D01*
X007973Y010755D02*
X009457Y010755D01*
X009410Y011074D02*
X007973Y011074D01*
X007973Y011392D02*
X009452Y011392D01*
X009595Y011711D02*
X007973Y011711D01*
X007973Y012029D02*
X009899Y012029D01*
X015063Y012985D02*
X023013Y012985D01*
X024734Y012728D02*
X024736Y012794D01*
X024741Y012860D01*
X024751Y012926D01*
X024764Y012991D01*
X024780Y013055D01*
X024800Y013118D01*
X024824Y013180D01*
X024851Y013240D01*
X024881Y013299D01*
X024915Y013356D01*
X024952Y013411D01*
X024992Y013464D01*
X025034Y013515D01*
X025080Y013563D01*
X025128Y013609D01*
X025179Y013651D01*
X025232Y013691D01*
X025287Y013728D01*
X025344Y013762D01*
X025403Y013792D01*
X025463Y013819D01*
X025525Y013843D01*
X025588Y013863D01*
X025652Y013879D01*
X025717Y013892D01*
X025783Y013902D01*
X025849Y013907D01*
X025915Y013909D01*
X026872Y012666D02*
X028003Y012666D01*
X028122Y012348D02*
X026872Y012348D01*
X026872Y012029D02*
X028337Y012029D01*
X028665Y011711D02*
X026784Y011711D01*
X028713Y008526D02*
X028735Y008526D01*
X028773Y007570D02*
X028675Y007570D01*
X027773Y007570D02*
X027612Y007570D01*
X025862Y006429D02*
X025784Y006431D01*
X025706Y006436D01*
X025629Y006446D01*
X025552Y006459D01*
X025476Y006475D01*
X025401Y006495D01*
X025326Y006519D01*
X025253Y006546D01*
X025182Y006577D01*
X025111Y006611D01*
X025043Y006648D01*
X024976Y006689D01*
X024912Y006733D01*
X024849Y006779D01*
X024789Y006829D01*
X024732Y006882D01*
X024677Y006937D01*
X024624Y006994D01*
X024574Y007054D01*
X024528Y007117D01*
X024484Y007181D01*
X024443Y007248D01*
X024406Y007316D01*
X024372Y007387D01*
X024341Y007458D01*
X024314Y007531D01*
X024290Y007606D01*
X024270Y007681D01*
X024254Y007757D01*
X024241Y007834D01*
X024231Y007911D01*
X024226Y007989D01*
X024224Y008067D01*
X024713Y008526D02*
X024735Y008526D01*
X024260Y006615D02*
X014020Y006615D01*
X013957Y006296D02*
X024621Y006296D01*
X024707Y006228D02*
X024707Y006228D01*
X025145Y006017D02*
X025145Y006017D01*
X025310Y005978D02*
X013566Y005978D01*
X025862Y006429D02*
X025915Y006429D01*
X044812Y015090D02*
X044787Y015268D01*
X044758Y015446D01*
X044725Y015623D01*
X044687Y015799D01*
X044645Y015974D01*
X044599Y016148D01*
X044549Y016321D01*
X044494Y016493D01*
X044436Y016663D01*
X044373Y016832D01*
X044306Y016999D01*
X044235Y017165D01*
X044160Y017329D01*
X044082Y017491D01*
X043999Y017651D01*
X043912Y017809D01*
X043822Y017964D01*
X043728Y018118D01*
X043630Y018269D01*
X043529Y018418D01*
X043424Y018564D01*
X043315Y018708D01*
X043203Y018849D01*
X043088Y018987D01*
X042969Y019123D01*
X042847Y019255D01*
X042722Y019385D01*
X042594Y019512D01*
X042463Y019635D01*
X042328Y019755D01*
X042191Y019872D01*
X042052Y019985D01*
X041909Y020095D01*
X041764Y020202D01*
X041616Y020305D01*
X041466Y020405D01*
X042844Y022177D02*
X042937Y022212D01*
X043031Y022244D01*
X043126Y022272D01*
X043223Y022297D01*
X043320Y022317D01*
X043418Y022334D01*
X043517Y022347D01*
X043616Y022356D01*
X043715Y022361D01*
X043814Y022362D01*
X043914Y022359D01*
X044013Y022352D01*
X044112Y022342D01*
X044210Y022328D01*
X044308Y022309D01*
X044405Y022287D01*
X044501Y022261D01*
X044596Y022232D01*
X044689Y022198D01*
X044782Y022161D01*
X044872Y022121D01*
X044962Y022076D01*
X045049Y022029D01*
X045134Y021978D01*
X045217Y021923D01*
X045299Y021866D01*
X045377Y021805D01*
X045454Y021741D01*
X045527Y021675D01*
X045598Y021605D01*
X045667Y021533D01*
X045732Y021458D01*
X045794Y021380D01*
X045854Y021301D01*
X045910Y021219D01*
X045963Y021134D01*
X046012Y021048D01*
X046058Y020960D01*
X046101Y020870D01*
X046140Y020779D01*
X046175Y020686D01*
X046207Y020591D01*
X046235Y020496D01*
X046259Y020400D01*
X046279Y020302D01*
X046296Y020204D01*
X046308Y020106D01*
X046317Y020007D01*
X046322Y019907D01*
X046323Y019808D01*
X046320Y019708D01*
X046313Y019609D01*
X046302Y019510D01*
X046288Y019412D01*
X046269Y019314D01*
X046247Y019217D01*
X046221Y019121D01*
X046191Y019027D01*
X046871Y018718D02*
X047097Y018718D01*
X047035Y019008D02*
X047035Y019291D01*
X047553Y019291D01*
X047553Y019291D01*
X047553Y018808D01*
X047553Y018291D01*
X047553Y018291D01*
X047553Y017291D01*
X048070Y017291D01*
X048553Y017291D01*
X048553Y017291D01*
X048553Y018291D01*
X048553Y018291D01*
X048553Y017773D01*
X048553Y017291D01*
X048553Y016291D01*
X048553Y016291D01*
X048553Y016773D01*
X048553Y017291D01*
X048553Y017291D01*
X048553Y017291D01*
X047553Y017291D01*
X047553Y017291D01*
X047553Y017291D01*
X047553Y016291D01*
X048070Y016291D01*
X048553Y016291D01*
X048553Y016291D01*
X047553Y016291D01*
X047553Y016291D01*
X047553Y016291D01*
X047553Y016808D01*
X047553Y017291D01*
X047553Y017291D01*
X047553Y017773D01*
X047553Y018291D01*
X047553Y018291D01*
X047553Y018291D01*
X047035Y018291D01*
X047035Y018008D01*
X047045Y017958D01*
X047065Y017910D01*
X047093Y017868D01*
X047130Y017832D01*
X047172Y017803D01*
X047201Y017791D01*
X047172Y017779D01*
X047130Y017750D01*
X047093Y017714D01*
X047065Y017672D01*
X047045Y017624D01*
X047035Y017574D01*
X047035Y017291D01*
X047553Y017291D01*
X047553Y017291D01*
X047035Y017291D01*
X047035Y017008D01*
X047045Y016958D01*
X047065Y016910D01*
X047093Y016868D01*
X047130Y016832D01*
X047172Y016803D01*
X047201Y016791D01*
X047172Y016779D01*
X047130Y016750D01*
X047093Y016714D01*
X047065Y016672D01*
X047045Y016624D01*
X047035Y016574D01*
X047035Y016291D01*
X047553Y016291D01*
X047553Y016291D01*
X047035Y016291D01*
X047035Y016008D01*
X047045Y015958D01*
X047065Y015910D01*
X047093Y015868D01*
X047130Y015832D01*
X047154Y015815D01*
X047125Y015803D01*
X047041Y015718D01*
X046995Y015608D01*
X046995Y014974D01*
X047041Y014864D01*
X047104Y014801D01*
X046978Y014675D01*
X046875Y014426D01*
X046875Y014156D01*
X046978Y013907D01*
X047132Y013752D01*
X047130Y013750D01*
X047093Y013714D01*
X047065Y013672D01*
X047045Y013624D01*
X047035Y013574D01*
X047035Y013291D01*
X047553Y013291D01*
X047553Y013291D01*
X047035Y013291D01*
X047035Y013008D01*
X047045Y012958D01*
X047065Y012910D01*
X047093Y012868D01*
X047107Y012854D01*
X046892Y012854D01*
X046889Y012985D02*
X047040Y012985D01*
X047035Y013303D02*
X046879Y013303D01*
X046870Y013622D02*
X047045Y013622D01*
X046964Y013940D02*
X046860Y013940D01*
X046851Y014259D02*
X046875Y014259D01*
X046842Y014577D02*
X046937Y014577D01*
X047028Y014896D02*
X046832Y014896D01*
X046823Y015214D02*
X046995Y015214D01*
X046995Y015533D02*
X046814Y015533D01*
X046804Y015851D02*
X047110Y015851D01*
X047035Y016170D02*
X046795Y016170D01*
X046785Y016488D02*
X047035Y016488D01*
X047167Y016807D02*
X046776Y016807D01*
X046767Y017125D02*
X047035Y017125D01*
X047035Y017444D02*
X046757Y017444D01*
X046748Y017762D02*
X047147Y017762D01*
X047035Y018081D02*
X046739Y018081D01*
X046747Y018399D02*
X047035Y018399D01*
X047553Y018399D02*
X047553Y018399D01*
X047553Y018081D02*
X047553Y018081D01*
X047553Y017762D02*
X047553Y017762D01*
X047553Y017444D02*
X047553Y017444D01*
X047553Y017125D02*
X047553Y017125D01*
X047553Y016807D02*
X047553Y016807D01*
X047553Y016488D02*
X047553Y016488D01*
X048553Y016488D02*
X048553Y016488D01*
X048553Y016807D02*
X048553Y016807D01*
X048553Y017125D02*
X048553Y017125D01*
X048553Y017444D02*
X048553Y017444D01*
X048553Y017762D02*
X048553Y017762D01*
X048553Y018081D02*
X048553Y018081D01*
X048553Y018291D02*
X048553Y018291D01*
X047553Y018718D02*
X047553Y018718D01*
X047553Y019036D02*
X047553Y019036D01*
X047553Y019291D02*
X047553Y019291D01*
X047035Y019355D02*
X046871Y019355D01*
X046845Y019673D02*
X047066Y019673D01*
X046859Y019792D02*
X046859Y019792D01*
X046841Y019992D02*
X046995Y019992D01*
X046995Y020310D02*
X046812Y020310D01*
X046802Y020424D02*
X046802Y020424D01*
X046739Y020629D02*
X047004Y020629D01*
X048467Y021266D02*
X050552Y021266D01*
X050552Y021584D02*
X048871Y021584D01*
X049046Y021903D02*
X050552Y021903D01*
X050552Y022221D02*
X049113Y022221D01*
X049090Y022540D02*
X050552Y022540D01*
X050552Y022858D02*
X048970Y022858D01*
X049335Y028273D02*
X050552Y028273D01*
X050552Y028591D02*
X049690Y028591D01*
X049846Y028910D02*
X050552Y028910D01*
X050552Y029228D02*
X049900Y029228D01*
X049865Y029547D02*
X050552Y029547D01*
X050552Y029865D02*
X049731Y029865D01*
X049457Y030184D02*
X050552Y030184D01*
X048043Y030184D02*
X007973Y030184D01*
X007973Y029865D02*
X013654Y029865D01*
X013579Y029547D02*
X007973Y029547D01*
X007973Y029228D02*
X013579Y029228D01*
X013579Y028910D02*
X007973Y028910D01*
X012346Y024451D02*
X013710Y024451D01*
X011742Y024000D02*
X011742Y015878D01*
X011744Y015737D01*
X011750Y015596D01*
X011759Y015455D01*
X011773Y015315D01*
X011791Y015175D01*
X011812Y015036D01*
X011837Y014897D01*
X011866Y014759D01*
X011899Y014622D01*
X011935Y014485D01*
X011975Y014350D01*
X012019Y014216D01*
X012067Y014083D01*
X012118Y013952D01*
X012173Y013822D01*
X012232Y013694D01*
X012293Y013567D01*
X012359Y013442D01*
X012428Y013319D01*
X012500Y013198D01*
X012575Y013079D01*
X012654Y012962D01*
X012736Y012847D01*
X012821Y012734D01*
X012909Y012624D01*
X013000Y012517D01*
X013095Y012412D01*
X013192Y012309D01*
X013291Y012210D01*
X013394Y012113D01*
X013499Y012018D01*
X013606Y011927D01*
X013716Y011839D01*
X013829Y011754D01*
X013944Y011672D01*
X014061Y011593D01*
X014180Y011518D01*
X014301Y011446D01*
X014424Y011377D01*
X014549Y011311D01*
X014676Y011250D01*
X014804Y011191D01*
X014934Y011136D01*
X015065Y011085D01*
X015198Y011037D01*
X015332Y010993D01*
X015467Y010953D01*
X015604Y010917D01*
X015741Y010884D01*
X015879Y010855D01*
X016018Y010830D01*
X016157Y010809D01*
X016297Y010791D01*
X016437Y010777D01*
X016578Y010768D01*
X016719Y010762D01*
X016860Y010760D01*
X023513Y017059D02*
X023629Y017109D01*
X023744Y017162D01*
X023857Y017218D01*
X023969Y017278D01*
X024078Y017342D01*
X024185Y017408D01*
X024291Y017478D01*
X024394Y017552D01*
X024495Y017628D01*
X024593Y017707D01*
X024689Y017789D01*
X024783Y017875D01*
X024873Y017963D01*
X024961Y018053D01*
X025047Y018147D01*
X025129Y018243D01*
X025208Y018341D01*
X025284Y018442D01*
X025358Y018545D01*
X025428Y018651D01*
X025494Y018758D01*
X025558Y018867D01*
X025618Y018979D01*
X025674Y019092D01*
X025727Y019207D01*
X025777Y019323D01*
X021976Y020947D02*
X021672Y020947D01*
X020976Y020947D02*
X020672Y020947D01*
X019976Y020947D02*
X019672Y020947D01*
X018976Y020947D02*
X018672Y020947D01*
X017976Y020947D02*
X017672Y020947D01*
X027624Y027067D02*
X027624Y027830D01*
X027104Y027636D02*
X027001Y027636D01*
X027624Y027830D02*
X027622Y027878D01*
X027617Y027925D01*
X027607Y027972D01*
X027594Y028018D01*
X027578Y028062D01*
X027558Y028106D01*
X027535Y028147D01*
X027508Y028187D01*
X027479Y028224D01*
X027446Y028259D01*
X027411Y028292D01*
X027374Y028321D01*
X027334Y028348D01*
X027293Y028371D01*
X027249Y028391D01*
X027205Y028407D01*
X027159Y028420D01*
X027112Y028430D01*
X027065Y028435D01*
X027017Y028437D01*
X028034Y028348D02*
X028034Y028348D01*
X034577Y020209D02*
X034934Y020259D01*
X035290Y020317D01*
X035645Y020384D01*
X035998Y020460D01*
X036349Y020544D01*
X036698Y020636D01*
X037044Y020737D01*
X037388Y020847D01*
X037729Y020964D01*
X038068Y021090D01*
X038403Y021224D01*
X038735Y021366D01*
X039063Y021517D01*
X039387Y021675D01*
X039708Y021841D01*
X040024Y022014D01*
X040336Y022195D01*
X040644Y022384D01*
X040947Y022580D01*
X041245Y022784D01*
X041538Y022994D01*
X041826Y023212D01*
X042109Y023436D01*
X042386Y023668D01*
X042657Y023906D01*
X042923Y024150D01*
X043182Y024401D01*
X043436Y024658D01*
X043683Y024921D01*
X043923Y025190D01*
X044157Y025465D01*
X044385Y025745D01*
X044605Y026031D01*
X044819Y026322D01*
X045025Y026618D01*
X045224Y026920D01*
X044224Y027066D02*
X044012Y026791D01*
X043794Y026521D01*
X043569Y026257D01*
X043338Y025998D01*
X043101Y025744D01*
X042858Y025496D01*
X042609Y025254D01*
X042354Y025018D01*
X042094Y024788D01*
X041828Y024564D01*
X041558Y024347D01*
X041282Y024136D01*
X041001Y023932D01*
X040715Y023735D01*
X040425Y023544D01*
X040130Y023361D01*
X039832Y023184D01*
X039528Y023015D01*
X039221Y022853D01*
X038911Y022698D01*
X038596Y022551D01*
X038278Y022411D01*
X037957Y022279D01*
X037633Y022154D01*
X037306Y022037D01*
X036977Y021928D01*
X036645Y021827D01*
X036310Y021734D01*
X035974Y021649D01*
X035635Y021572D01*
X035295Y021503D01*
X034953Y021442D01*
X034610Y021389D01*
X044813Y015090D02*
X046224Y008067D01*
X046713Y008526D02*
X046735Y008526D01*
X039104Y020405D02*
X039395Y020592D01*
X039691Y020772D01*
X039990Y020945D01*
X040294Y021111D01*
X040601Y021270D01*
X040912Y021421D01*
X041227Y021566D01*
X041544Y021703D01*
X041865Y021833D01*
X042189Y021955D01*
X042515Y022069D01*
X042844Y022176D01*
X046342Y010118D02*
X047331Y010118D01*
X047713Y008526D02*
X048130Y008526D01*
X047850Y007570D02*
X047675Y007570D01*
X047866Y007252D02*
X041978Y007252D01*
X041998Y006933D02*
X048077Y006933D01*
X046773Y007570D02*
X046675Y007570D01*
X045773Y007570D02*
X045675Y007570D01*
X050230Y007570D02*
X050230Y007570D01*
X050230Y007252D02*
X050230Y007252D01*
X050230Y007889D02*
X050230Y007889D01*
X050230Y008207D02*
X050230Y008207D01*
X040758Y005022D02*
X040690Y005022D01*
X034380Y017649D02*
X035348Y018160D01*
X036305Y018690D01*
X037250Y019242D01*
X038184Y019814D01*
X039104Y020405D01*
D19*
X034970Y024933D03*
X032742Y025067D03*
X031742Y025067D03*
X029742Y025067D03*
X028742Y025067D03*
D20*
X046191Y019027D03*
D21*
X040136Y009184D02*
X040167Y009159D01*
X040195Y009132D01*
X040220Y009101D01*
X040243Y009069D01*
X040263Y009034D01*
X040279Y008998D01*
X040292Y008961D01*
X040301Y008922D01*
X040307Y008883D01*
X040309Y008843D01*
X040307Y008804D01*
X040302Y008764D01*
X040294Y008726D01*
X040281Y008688D01*
X040266Y008652D01*
X040247Y008617D01*
X040224Y008584D01*
X040224Y008067D01*
X041224Y008067D02*
X041224Y007584D01*
X041203Y007550D01*
X041185Y007514D01*
X041171Y007477D01*
X041160Y007439D01*
X041152Y007399D01*
X041147Y007360D01*
X041146Y007320D01*
X041149Y007280D01*
X041154Y007240D01*
X041164Y007201D01*
X041177Y007164D01*
X041192Y007127D01*
X041212Y007092D01*
X041234Y007059D01*
X041259Y007027D01*
X041286Y006998D01*
X041316Y006972D01*
X041348Y006948D01*
X038348Y006948D02*
X038316Y006972D01*
X038286Y006998D01*
X038259Y007027D01*
X038234Y007059D01*
X038212Y007092D01*
X038192Y007127D01*
X038177Y007164D01*
X038164Y007201D01*
X038154Y007240D01*
X038149Y007280D01*
X038146Y007320D01*
X038147Y007360D01*
X038152Y007399D01*
X038160Y007439D01*
X038171Y007477D01*
X038185Y007514D01*
X038203Y007550D01*
X038224Y007584D01*
X038224Y008067D01*
X037224Y008067D02*
X037224Y008584D01*
X037247Y008617D01*
X037266Y008652D01*
X037281Y008688D01*
X037294Y008726D01*
X037302Y008764D01*
X037307Y008804D01*
X037309Y008843D01*
X037307Y008883D01*
X037301Y008922D01*
X037292Y008961D01*
X037279Y008998D01*
X037263Y009034D01*
X037243Y009069D01*
X037220Y009101D01*
X037195Y009132D01*
X037167Y009159D01*
X037136Y009184D01*
X036224Y008067D02*
X036224Y007584D01*
X036203Y007550D01*
X036185Y007514D01*
X036171Y007477D01*
X036160Y007439D01*
X036152Y007399D01*
X036147Y007360D01*
X036146Y007320D01*
X036149Y007280D01*
X036154Y007240D01*
X036164Y007201D01*
X036177Y007164D01*
X036192Y007127D01*
X036212Y007092D01*
X036234Y007059D01*
X036259Y007027D01*
X036286Y006998D01*
X036316Y006972D01*
X036348Y006948D01*
X034348Y006948D02*
X034316Y006972D01*
X034286Y006998D01*
X034259Y007027D01*
X034234Y007059D01*
X034212Y007092D01*
X034192Y007127D01*
X034177Y007164D01*
X034164Y007201D01*
X034154Y007240D01*
X034149Y007280D01*
X034146Y007320D01*
X034147Y007360D01*
X034152Y007399D01*
X034160Y007439D01*
X034171Y007477D01*
X034185Y007514D01*
X034203Y007550D01*
X034224Y007584D01*
X034224Y008067D01*
X033224Y008067D02*
X033224Y008584D01*
X033247Y008617D01*
X033266Y008652D01*
X033281Y008688D01*
X033294Y008726D01*
X033302Y008764D01*
X033307Y008804D01*
X033309Y008843D01*
X033307Y008883D01*
X033301Y008922D01*
X033292Y008961D01*
X033279Y008998D01*
X033263Y009034D01*
X033243Y009069D01*
X033220Y009101D01*
X033195Y009132D01*
X033167Y009159D01*
X033136Y009184D01*
X032224Y008067D02*
X032224Y007584D01*
X032203Y007550D01*
X032185Y007514D01*
X032171Y007477D01*
X032160Y007439D01*
X032152Y007399D01*
X032147Y007360D01*
X032146Y007320D01*
X032149Y007280D01*
X032154Y007240D01*
X032164Y007201D01*
X032177Y007164D01*
X032192Y007127D01*
X032212Y007092D01*
X032234Y007059D01*
X032259Y007027D01*
X032286Y006998D01*
X032316Y006972D01*
X032348Y006948D01*
X031224Y008067D02*
X031224Y008584D01*
X031247Y008617D01*
X031266Y008652D01*
X031281Y008688D01*
X031294Y008726D01*
X031302Y008764D01*
X031307Y008804D01*
X031309Y008843D01*
X031307Y008883D01*
X031301Y008922D01*
X031292Y008961D01*
X031279Y008998D01*
X031263Y009034D01*
X031243Y009069D01*
X031220Y009101D01*
X031195Y009132D01*
X031167Y009159D01*
X031136Y009184D01*
X035136Y009184D02*
X035167Y009159D01*
X035195Y009132D01*
X035220Y009101D01*
X035243Y009069D01*
X035263Y009034D01*
X035279Y008998D01*
X035292Y008961D01*
X035301Y008922D01*
X035307Y008883D01*
X035309Y008843D01*
X035307Y008804D01*
X035302Y008764D01*
X035294Y008726D01*
X035281Y008688D01*
X035266Y008652D01*
X035247Y008617D01*
X035224Y008584D01*
X035224Y008067D01*
M02*
