%
M48
M72
T01C0.0236
T02C0.0315
T03C0.0394
T04C0.0400
T05C0.1260
%
T01
X2895Y1069
X29982Y1069
T02
X3895Y1069
X3895Y3069
X1895Y1069
X1895Y3069
X1832Y2069
X3958Y2069
X30982Y1069
X30982Y3069
X28982Y1069
X28982Y3069
X28919Y2069
X31045Y2069
T03
X19391Y2462
X19391Y3446
X19391Y4431
X13683Y2462
X13683Y4431
X9549Y3250
X5494Y2069
X887Y1084
X12169Y2100
X20419Y5600
X21206Y1206
X26872Y4037
X26478Y5021
T04
X8868Y1320
X7868Y1320
X10868Y1320
X9868Y1320
X23419Y1320
X24419Y1320
X25419Y1320
X26419Y1320
X1356Y5612
X2356Y5612
X3356Y5612
X4356Y5612
X28521Y5612
X29521Y5612
X30521Y5612
X31521Y5612
T05
X16439Y1045
X16439Y5848
M30
