G75*
%MOIN*%
%OFA0B0*%
%FSLAX24Y24*%
%IPPOS*%
%LPD*%
%AMOC8*
5,1,8,0,0,1.08239X$1,22.5*
%
%ADD10C,0.0000*%
%ADD11C,0.0040*%
D10*
X000100Y000123D02*
X000100Y006331D01*
X036124Y006331D01*
X036124Y000123D01*
X000100Y000123D01*
X004451Y002335D02*
X004453Y002356D01*
X004459Y002376D01*
X004468Y002396D01*
X004480Y002413D01*
X004495Y002427D01*
X004513Y002439D01*
X004533Y002447D01*
X004553Y002452D01*
X004574Y002453D01*
X004595Y002450D01*
X004615Y002444D01*
X004634Y002433D01*
X004651Y002420D01*
X004664Y002404D01*
X004675Y002386D01*
X004683Y002366D01*
X004687Y002346D01*
X004687Y002324D01*
X004683Y002304D01*
X004675Y002284D01*
X004664Y002266D01*
X004651Y002250D01*
X004634Y002237D01*
X004615Y002226D01*
X004595Y002220D01*
X004574Y002217D01*
X004553Y002218D01*
X004533Y002223D01*
X004513Y002231D01*
X004495Y002243D01*
X004480Y002257D01*
X004468Y002274D01*
X004459Y002294D01*
X004453Y002314D01*
X004451Y002335D01*
X011222Y002335D02*
X011224Y002356D01*
X011230Y002376D01*
X011239Y002396D01*
X011251Y002413D01*
X011266Y002427D01*
X011284Y002439D01*
X011304Y002447D01*
X011324Y002452D01*
X011345Y002453D01*
X011366Y002450D01*
X011386Y002444D01*
X011405Y002433D01*
X011422Y002420D01*
X011435Y002404D01*
X011446Y002386D01*
X011454Y002366D01*
X011458Y002346D01*
X011458Y002324D01*
X011454Y002304D01*
X011446Y002284D01*
X011435Y002266D01*
X011422Y002250D01*
X011405Y002237D01*
X011386Y002226D01*
X011366Y002220D01*
X011345Y002217D01*
X011324Y002218D01*
X011304Y002223D01*
X011284Y002231D01*
X011266Y002243D01*
X011251Y002257D01*
X011239Y002274D01*
X011230Y002294D01*
X011224Y002314D01*
X011222Y002335D01*
X017994Y002335D02*
X017996Y002356D01*
X018002Y002376D01*
X018011Y002396D01*
X018023Y002413D01*
X018038Y002427D01*
X018056Y002439D01*
X018076Y002447D01*
X018096Y002452D01*
X018117Y002453D01*
X018138Y002450D01*
X018158Y002444D01*
X018177Y002433D01*
X018194Y002420D01*
X018207Y002404D01*
X018218Y002386D01*
X018226Y002366D01*
X018230Y002346D01*
X018230Y002324D01*
X018226Y002304D01*
X018218Y002284D01*
X018207Y002266D01*
X018194Y002250D01*
X018177Y002237D01*
X018158Y002226D01*
X018138Y002220D01*
X018117Y002217D01*
X018096Y002218D01*
X018076Y002223D01*
X018056Y002231D01*
X018038Y002243D01*
X018023Y002257D01*
X018011Y002274D01*
X018002Y002294D01*
X017996Y002314D01*
X017994Y002335D01*
X024765Y002335D02*
X024767Y002356D01*
X024773Y002376D01*
X024782Y002396D01*
X024794Y002413D01*
X024809Y002427D01*
X024827Y002439D01*
X024847Y002447D01*
X024867Y002452D01*
X024888Y002453D01*
X024909Y002450D01*
X024929Y002444D01*
X024948Y002433D01*
X024965Y002420D01*
X024978Y002404D01*
X024989Y002386D01*
X024997Y002366D01*
X025001Y002346D01*
X025001Y002324D01*
X024997Y002304D01*
X024989Y002284D01*
X024978Y002266D01*
X024965Y002250D01*
X024948Y002237D01*
X024929Y002226D01*
X024909Y002220D01*
X024888Y002217D01*
X024867Y002218D01*
X024847Y002223D01*
X024827Y002231D01*
X024809Y002243D01*
X024794Y002257D01*
X024782Y002274D01*
X024773Y002294D01*
X024767Y002314D01*
X024765Y002335D01*
X031537Y002335D02*
X031539Y002356D01*
X031545Y002376D01*
X031554Y002396D01*
X031566Y002413D01*
X031581Y002427D01*
X031599Y002439D01*
X031619Y002447D01*
X031639Y002452D01*
X031660Y002453D01*
X031681Y002450D01*
X031701Y002444D01*
X031720Y002433D01*
X031737Y002420D01*
X031750Y002404D01*
X031761Y002386D01*
X031769Y002366D01*
X031773Y002346D01*
X031773Y002324D01*
X031769Y002304D01*
X031761Y002284D01*
X031750Y002266D01*
X031737Y002250D01*
X031720Y002237D01*
X031701Y002226D01*
X031681Y002220D01*
X031660Y002217D01*
X031639Y002218D01*
X031619Y002223D01*
X031599Y002231D01*
X031581Y002243D01*
X031566Y002257D01*
X031554Y002274D01*
X031545Y002294D01*
X031539Y002314D01*
X031537Y002335D01*
D11*
X028711Y003238D02*
X028266Y003118D01*
X028414Y003158D02*
X028355Y003380D01*
X028409Y003474D01*
X028557Y003514D01*
X028651Y003460D01*
X028711Y003238D01*
X028375Y003306D02*
X028187Y003415D01*
X028369Y003623D02*
X028290Y003919D01*
X028532Y003905D02*
X028369Y003623D01*
X028087Y003785D02*
X028532Y003905D01*
X022184Y003161D02*
X022069Y003361D01*
X021964Y003389D01*
X021831Y003312D01*
X021803Y003207D01*
X021918Y003008D01*
X021842Y003141D02*
X021632Y003197D01*
X021786Y002931D02*
X022184Y003161D01*
X021622Y003368D02*
X021517Y003396D01*
X021440Y003529D01*
X021468Y003634D01*
X021601Y003711D01*
X021706Y003683D01*
X021744Y003616D01*
X021755Y003445D01*
X021954Y003560D01*
X021801Y003826D01*
X015291Y003797D02*
X015215Y003721D01*
X014908Y003721D02*
X014831Y003797D01*
X014831Y003951D01*
X014908Y004027D01*
X014984Y004027D01*
X015061Y003951D01*
X015061Y003874D01*
X015061Y003951D02*
X015138Y004027D01*
X015215Y004027D01*
X015291Y003951D01*
X015291Y003797D01*
X015215Y003567D02*
X015061Y003567D01*
X014984Y003490D01*
X014984Y003260D01*
X014831Y003260D02*
X015291Y003260D01*
X015291Y003490D01*
X015215Y003567D01*
X014984Y003414D02*
X014831Y003567D01*
X008525Y003628D02*
X008525Y003398D01*
X008065Y003398D01*
X008218Y003398D02*
X008218Y003628D01*
X008295Y003705D01*
X008448Y003705D01*
X008525Y003628D01*
X008218Y003551D02*
X008065Y003705D01*
X008065Y003858D02*
X008372Y004165D01*
X008448Y004165D01*
X008525Y004088D01*
X008525Y003935D01*
X008448Y003858D01*
X008065Y003858D02*
X008065Y004165D01*
X007013Y005005D02*
X007013Y005466D01*
X006783Y005466D01*
X006707Y005389D01*
X006707Y005235D01*
X006783Y005159D01*
X007013Y005159D01*
X006860Y005159D02*
X006707Y005005D01*
X006553Y005005D02*
X006246Y005005D01*
X006400Y005005D02*
X006400Y005466D01*
X006553Y005312D01*
M02*
