G75*
%MOIN*%
%OFA0B0*%
%FSLAX24Y24*%
%IPPOS*%
%LPD*%
%AMOC8*
5,1,8,0,0,1.08239X$1,22.5*
%
%ADD10C,0.0000*%
%ADD11R,0.0515X0.0515*%
%ADD12C,0.0600*%
%ADD13R,0.0630X0.0710*%
%ADD14R,0.0710X0.0630*%
%ADD15R,0.0472X0.0472*%
%ADD16C,0.0160*%
D10*
X000100Y000123D02*
X000100Y006331D01*
X036124Y006331D01*
X036124Y000123D01*
X000100Y000123D01*
X004451Y002335D02*
X004453Y002356D01*
X004459Y002376D01*
X004468Y002396D01*
X004480Y002413D01*
X004495Y002427D01*
X004513Y002439D01*
X004533Y002447D01*
X004553Y002452D01*
X004574Y002453D01*
X004595Y002450D01*
X004615Y002444D01*
X004634Y002433D01*
X004651Y002420D01*
X004664Y002404D01*
X004675Y002386D01*
X004683Y002366D01*
X004687Y002346D01*
X004687Y002324D01*
X004683Y002304D01*
X004675Y002284D01*
X004664Y002266D01*
X004651Y002250D01*
X004634Y002237D01*
X004615Y002226D01*
X004595Y002220D01*
X004574Y002217D01*
X004553Y002218D01*
X004533Y002223D01*
X004513Y002231D01*
X004495Y002243D01*
X004480Y002257D01*
X004468Y002274D01*
X004459Y002294D01*
X004453Y002314D01*
X004451Y002335D01*
X011222Y002335D02*
X011224Y002356D01*
X011230Y002376D01*
X011239Y002396D01*
X011251Y002413D01*
X011266Y002427D01*
X011284Y002439D01*
X011304Y002447D01*
X011324Y002452D01*
X011345Y002453D01*
X011366Y002450D01*
X011386Y002444D01*
X011405Y002433D01*
X011422Y002420D01*
X011435Y002404D01*
X011446Y002386D01*
X011454Y002366D01*
X011458Y002346D01*
X011458Y002324D01*
X011454Y002304D01*
X011446Y002284D01*
X011435Y002266D01*
X011422Y002250D01*
X011405Y002237D01*
X011386Y002226D01*
X011366Y002220D01*
X011345Y002217D01*
X011324Y002218D01*
X011304Y002223D01*
X011284Y002231D01*
X011266Y002243D01*
X011251Y002257D01*
X011239Y002274D01*
X011230Y002294D01*
X011224Y002314D01*
X011222Y002335D01*
X017994Y002335D02*
X017996Y002356D01*
X018002Y002376D01*
X018011Y002396D01*
X018023Y002413D01*
X018038Y002427D01*
X018056Y002439D01*
X018076Y002447D01*
X018096Y002452D01*
X018117Y002453D01*
X018138Y002450D01*
X018158Y002444D01*
X018177Y002433D01*
X018194Y002420D01*
X018207Y002404D01*
X018218Y002386D01*
X018226Y002366D01*
X018230Y002346D01*
X018230Y002324D01*
X018226Y002304D01*
X018218Y002284D01*
X018207Y002266D01*
X018194Y002250D01*
X018177Y002237D01*
X018158Y002226D01*
X018138Y002220D01*
X018117Y002217D01*
X018096Y002218D01*
X018076Y002223D01*
X018056Y002231D01*
X018038Y002243D01*
X018023Y002257D01*
X018011Y002274D01*
X018002Y002294D01*
X017996Y002314D01*
X017994Y002335D01*
X024765Y002335D02*
X024767Y002356D01*
X024773Y002376D01*
X024782Y002396D01*
X024794Y002413D01*
X024809Y002427D01*
X024827Y002439D01*
X024847Y002447D01*
X024867Y002452D01*
X024888Y002453D01*
X024909Y002450D01*
X024929Y002444D01*
X024948Y002433D01*
X024965Y002420D01*
X024978Y002404D01*
X024989Y002386D01*
X024997Y002366D01*
X025001Y002346D01*
X025001Y002324D01*
X024997Y002304D01*
X024989Y002284D01*
X024978Y002266D01*
X024965Y002250D01*
X024948Y002237D01*
X024929Y002226D01*
X024909Y002220D01*
X024888Y002217D01*
X024867Y002218D01*
X024847Y002223D01*
X024827Y002231D01*
X024809Y002243D01*
X024794Y002257D01*
X024782Y002274D01*
X024773Y002294D01*
X024767Y002314D01*
X024765Y002335D01*
X031537Y002335D02*
X031539Y002356D01*
X031545Y002376D01*
X031554Y002396D01*
X031566Y002413D01*
X031581Y002427D01*
X031599Y002439D01*
X031619Y002447D01*
X031639Y002452D01*
X031660Y002453D01*
X031681Y002450D01*
X031701Y002444D01*
X031720Y002433D01*
X031737Y002420D01*
X031750Y002404D01*
X031761Y002386D01*
X031769Y002366D01*
X031773Y002346D01*
X031773Y002324D01*
X031769Y002304D01*
X031761Y002284D01*
X031750Y002266D01*
X031737Y002250D01*
X031720Y002237D01*
X031701Y002226D01*
X031681Y002220D01*
X031660Y002217D01*
X031639Y002218D01*
X031619Y002223D01*
X031599Y002231D01*
X031581Y002243D01*
X031566Y002257D01*
X031554Y002274D01*
X031545Y002294D01*
X031539Y002314D01*
X031537Y002335D01*
D11*
X030655Y002335D03*
X032655Y002335D03*
X032718Y003335D03*
X030592Y003335D03*
X025946Y003335D03*
X023820Y003335D03*
X019175Y003335D03*
X017049Y003335D03*
X012403Y003335D03*
X010277Y003335D03*
X005631Y003335D03*
X003506Y003335D03*
X003569Y004335D03*
X005569Y004335D03*
X010340Y004335D03*
X012340Y004335D03*
X017112Y004335D03*
X019112Y004335D03*
X023883Y004335D03*
X025883Y004335D03*
X030655Y004335D03*
X032655Y004335D03*
X025883Y002335D03*
X023883Y002335D03*
X019112Y002335D03*
X017112Y002335D03*
X012340Y002335D03*
X010340Y002335D03*
X005569Y002335D03*
X003569Y002335D03*
D12*
X002270Y002772D02*
X001670Y002772D01*
X001670Y001772D02*
X002270Y001772D01*
X002270Y003772D02*
X001670Y003772D01*
X001670Y004772D02*
X002270Y004772D01*
X020074Y005323D02*
X020074Y005923D01*
X021074Y005923D02*
X021074Y005323D01*
X022074Y005323D02*
X022074Y005923D01*
X023074Y005923D02*
X023074Y005323D01*
X024074Y005323D02*
X024074Y005923D01*
X025074Y005923D02*
X025074Y005323D01*
X026074Y005323D02*
X026074Y005923D01*
X027074Y005923D02*
X027074Y005323D01*
X029074Y005323D02*
X029074Y005923D01*
X030074Y005923D02*
X030074Y005323D01*
X030074Y001210D02*
X030074Y000610D01*
X029074Y000610D02*
X029074Y001210D01*
X027074Y001210D02*
X027074Y000610D01*
X026074Y000610D02*
X026074Y001210D01*
X025074Y001210D02*
X025074Y000610D01*
X024074Y000610D02*
X024074Y001210D01*
X023074Y001210D02*
X023074Y000610D01*
X022074Y000610D02*
X022074Y001210D01*
X021074Y001210D02*
X021074Y000610D01*
X020074Y000610D02*
X020074Y001210D01*
D13*
G36*
X028957Y002761D02*
X028794Y003369D01*
X029479Y003553D01*
X029642Y002945D01*
X028957Y002761D01*
G37*
G36*
X022546Y002765D02*
X022231Y003310D01*
X022844Y003665D01*
X023159Y003120D01*
X022546Y002765D01*
G37*
G36*
X021987Y003735D02*
X021672Y004280D01*
X022285Y004635D01*
X022600Y004090D01*
X021987Y003735D01*
G37*
G36*
X028668Y003843D02*
X028505Y004451D01*
X029190Y004635D01*
X029353Y004027D01*
X028668Y003843D01*
G37*
X005665Y005421D03*
X004546Y005421D03*
D14*
X008995Y004308D03*
X008995Y003189D03*
X015761Y003051D03*
X015761Y004171D03*
D15*
X014372Y004995D03*
X007974Y004847D03*
X007777Y003469D03*
X006694Y003272D03*
X014569Y002091D03*
X020165Y002782D03*
X021964Y002447D03*
X027092Y002167D03*
X028151Y002288D03*
X033849Y002851D03*
X034746Y004453D03*
D16*
X034746Y002288D01*
X034731Y002225D01*
X034712Y002164D01*
X034690Y002104D01*
X034664Y002045D01*
X034634Y001988D01*
X034602Y001933D01*
X034565Y001880D01*
X034526Y001829D01*
X034484Y001781D01*
X034439Y001735D01*
X034391Y001692D01*
X034341Y001652D01*
X034288Y001615D01*
X034234Y001582D01*
X034177Y001552D01*
X034119Y001525D01*
X034059Y001502D01*
X033998Y001482D01*
X033936Y001466D01*
X033873Y001454D01*
X033809Y001446D01*
X033745Y001442D01*
X033681Y001441D01*
X033617Y001445D01*
X033553Y001452D01*
X033490Y001463D01*
X033428Y001478D01*
X033366Y001496D01*
X033306Y001519D01*
X033247Y001545D01*
X033190Y001574D01*
X033135Y001607D01*
X033082Y001643D01*
X033031Y001682D01*
X032983Y001724D01*
X032937Y001769D01*
X032894Y001817D01*
X032854Y001867D01*
X032817Y001919D01*
X032784Y001974D01*
X032753Y002030D01*
X032726Y002089D01*
X032703Y002149D01*
X032684Y002210D01*
X032668Y002272D01*
X032656Y002335D01*
X032718Y003335D02*
X033849Y002851D01*
X030592Y003335D02*
X029218Y003157D01*
X028151Y002288D02*
X026675Y003272D01*
X026021Y003335D01*
X025946Y003335D01*
X023820Y003335D02*
X022695Y003215D01*
X021212Y002583D02*
X021170Y002606D01*
X021129Y002632D01*
X021091Y002661D01*
X021055Y002694D01*
X021022Y002728D01*
X020991Y002766D01*
X020964Y002805D01*
X020939Y002847D01*
X020918Y002890D01*
X020900Y002935D01*
X020885Y002980D01*
X020874Y003027D01*
X020867Y003075D01*
X020868Y003076D02*
X020875Y003112D01*
X020879Y003150D01*
X020880Y003187D01*
X020877Y003224D01*
X020870Y003261D01*
X020861Y003298D01*
X020848Y003333D01*
X020831Y003367D01*
X020812Y003399D01*
X020790Y003429D01*
X020765Y003457D01*
X020738Y003483D01*
X020708Y003506D01*
X020677Y003526D01*
X020643Y003543D01*
X020608Y003557D01*
X020572Y003568D01*
X020572Y003567D02*
X019883Y003567D01*
X017049Y003335D02*
X015761Y003051D01*
X013313Y003335D02*
X012403Y003335D01*
X010277Y003335D02*
X008995Y003189D01*
X007777Y003469D02*
X007777Y002288D01*
X007775Y002226D01*
X007769Y002165D01*
X007760Y002104D01*
X007746Y002043D01*
X007729Y001984D01*
X007708Y001926D01*
X007683Y001869D01*
X007655Y001814D01*
X007624Y001761D01*
X007589Y001710D01*
X007551Y001661D01*
X007510Y001614D01*
X007467Y001571D01*
X007420Y001530D01*
X007371Y001492D01*
X007320Y001457D01*
X007267Y001426D01*
X007212Y001398D01*
X007155Y001373D01*
X007097Y001352D01*
X007038Y001335D01*
X006977Y001321D01*
X006916Y001312D01*
X006855Y001306D01*
X006793Y001304D01*
X004600Y001304D01*
X004538Y001306D01*
X004476Y001312D01*
X004414Y001321D01*
X004353Y001334D01*
X004293Y001351D01*
X004234Y001371D01*
X004177Y001395D01*
X004121Y001422D01*
X004067Y001453D01*
X004014Y001487D01*
X003964Y001523D01*
X003916Y001563D01*
X003871Y001606D01*
X003828Y001651D01*
X003788Y001699D01*
X003752Y001749D01*
X003718Y001802D01*
X003687Y001856D01*
X003660Y001912D01*
X003636Y001969D01*
X003616Y002028D01*
X003599Y002088D01*
X003586Y002149D01*
X003577Y002211D01*
X003571Y002273D01*
X003569Y002335D01*
X005694Y003272D02*
X006694Y003272D01*
X005694Y003272D02*
X005680Y003274D01*
X005667Y003278D01*
X005655Y003286D01*
X005645Y003296D01*
X005637Y003308D01*
X005633Y003321D01*
X005631Y003335D01*
X004546Y003335D02*
X004546Y005421D01*
X005665Y005421D02*
X005569Y004335D01*
X005568Y004335D02*
X005569Y004330D01*
X005572Y004326D01*
X005576Y004323D01*
X005581Y004322D01*
X007449Y004322D01*
X008456Y004847D02*
X008501Y004845D01*
X008545Y004840D01*
X008588Y004831D01*
X008631Y004818D01*
X008673Y004802D01*
X008713Y004782D01*
X008751Y004759D01*
X008787Y004733D01*
X008821Y004705D01*
X008853Y004673D01*
X008881Y004639D01*
X008907Y004603D01*
X008930Y004565D01*
X008950Y004525D01*
X008966Y004483D01*
X008979Y004440D01*
X008988Y004397D01*
X008993Y004353D01*
X008995Y004308D01*
X010340Y004335D01*
X011321Y004110D02*
X011320Y004022D01*
X011316Y003933D01*
X011308Y003845D01*
X011296Y003757D01*
X011281Y003670D01*
X011261Y003584D01*
X011238Y003499D01*
X011211Y003414D01*
X011181Y003331D01*
X011147Y003250D01*
X011109Y003170D01*
X011068Y003091D01*
X011024Y003015D01*
X010976Y002940D01*
X010925Y002868D01*
X010871Y002798D01*
X010814Y002730D01*
X010754Y002665D01*
X010691Y002603D01*
X010626Y002543D01*
X010558Y002486D01*
X010488Y002433D01*
X010415Y002382D01*
X010340Y002335D01*
X013313Y003335D02*
X013383Y003333D01*
X013453Y003327D01*
X013522Y003317D01*
X013591Y003304D01*
X013659Y003286D01*
X013725Y003265D01*
X013791Y003241D01*
X013855Y003212D01*
X013917Y003180D01*
X013978Y003145D01*
X014036Y003106D01*
X014092Y003064D01*
X014146Y003019D01*
X014197Y002971D01*
X014245Y002921D01*
X014291Y002867D01*
X014333Y002812D01*
X014372Y002754D01*
X014408Y002694D01*
X014441Y002632D01*
X014470Y002568D01*
X014495Y002503D01*
X014517Y002436D01*
X014535Y002368D01*
X014549Y002300D01*
X014560Y002231D01*
X014566Y002161D01*
X014569Y002091D01*
X019112Y002335D02*
X020165Y002782D01*
X021212Y002583D02*
X021964Y002447D01*
X019883Y003567D02*
X019814Y003565D01*
X019745Y003559D01*
X019677Y003549D01*
X019610Y003535D01*
X019543Y003518D01*
X019478Y003496D01*
X019413Y003471D01*
X019351Y003442D01*
X019290Y003410D01*
X019231Y003374D01*
X019174Y003335D01*
X015761Y004171D02*
X012340Y004335D01*
X012107Y005193D02*
X012049Y005182D01*
X011991Y005168D01*
X011935Y005149D01*
X011879Y005127D01*
X011825Y005102D01*
X011773Y005073D01*
X011723Y005041D01*
X011675Y005007D01*
X011629Y004969D01*
X011586Y004928D01*
X011545Y004885D01*
X011507Y004839D01*
X011472Y004791D01*
X011440Y004740D01*
X011411Y004688D01*
X011386Y004635D01*
X011364Y004579D01*
X011346Y004523D01*
X011331Y004465D01*
X011320Y004407D01*
X011312Y004348D01*
X011308Y004288D01*
X011308Y004229D01*
X011312Y004169D01*
X011320Y004110D01*
X008456Y004847D02*
X007974Y004847D01*
X007972Y004804D01*
X007967Y004761D01*
X007958Y004718D01*
X007946Y004677D01*
X007930Y004636D01*
X007911Y004597D01*
X007889Y004560D01*
X007863Y004525D01*
X007835Y004491D01*
X007805Y004461D01*
X007771Y004433D01*
X007736Y004407D01*
X007699Y004385D01*
X007660Y004366D01*
X007619Y004350D01*
X007578Y004338D01*
X007535Y004329D01*
X007492Y004324D01*
X007449Y004322D01*
X012108Y005193D02*
X014372Y004995D01*
X019112Y004335D02*
X022136Y004185D01*
X025883Y004335D02*
X028929Y004239D01*
X027092Y002167D02*
X025883Y002335D01*
X023884Y004335D02*
X023708Y004338D01*
X023532Y004337D01*
X023356Y004331D01*
X023181Y004322D01*
X023005Y004309D01*
X022830Y004292D01*
X022656Y004271D01*
X022482Y004246D01*
X022308Y004217D01*
X022136Y004185D01*
X017112Y004335D02*
X016979Y004302D01*
X016846Y004272D01*
X016712Y004246D01*
X016577Y004224D01*
X016442Y004206D01*
X016306Y004191D01*
X016170Y004180D01*
X016034Y004173D01*
X015897Y004170D01*
X015761Y004171D01*
X004546Y003335D02*
X003506Y003335D01*
X028929Y004238D02*
X029100Y004265D01*
X029272Y004288D01*
X029444Y004308D01*
X029616Y004323D01*
X029789Y004335D01*
X029962Y004343D01*
X030136Y004347D01*
X030309Y004346D01*
X030482Y004343D01*
X030655Y004335D01*
M02*
