G75*
%MOIN*%
%OFA0B0*%
%FSLAX24Y24*%
%IPPOS*%
%LPD*%
%AMOC8*
5,1,8,0,0,1.08239X$1,22.5*
%
%ADD10C,0.0000*%
%ADD11C,0.0050*%
%ADD12C,0.0060*%
D10*
X000100Y000123D02*
X000100Y006331D01*
X036124Y006331D01*
X036124Y000123D01*
X000100Y000123D01*
X004451Y002335D02*
X004453Y002356D01*
X004459Y002376D01*
X004468Y002396D01*
X004480Y002413D01*
X004495Y002427D01*
X004513Y002439D01*
X004533Y002447D01*
X004553Y002452D01*
X004574Y002453D01*
X004595Y002450D01*
X004615Y002444D01*
X004634Y002433D01*
X004651Y002420D01*
X004664Y002404D01*
X004675Y002386D01*
X004683Y002366D01*
X004687Y002346D01*
X004687Y002324D01*
X004683Y002304D01*
X004675Y002284D01*
X004664Y002266D01*
X004651Y002250D01*
X004634Y002237D01*
X004615Y002226D01*
X004595Y002220D01*
X004574Y002217D01*
X004553Y002218D01*
X004533Y002223D01*
X004513Y002231D01*
X004495Y002243D01*
X004480Y002257D01*
X004468Y002274D01*
X004459Y002294D01*
X004453Y002314D01*
X004451Y002335D01*
X011222Y002335D02*
X011224Y002356D01*
X011230Y002376D01*
X011239Y002396D01*
X011251Y002413D01*
X011266Y002427D01*
X011284Y002439D01*
X011304Y002447D01*
X011324Y002452D01*
X011345Y002453D01*
X011366Y002450D01*
X011386Y002444D01*
X011405Y002433D01*
X011422Y002420D01*
X011435Y002404D01*
X011446Y002386D01*
X011454Y002366D01*
X011458Y002346D01*
X011458Y002324D01*
X011454Y002304D01*
X011446Y002284D01*
X011435Y002266D01*
X011422Y002250D01*
X011405Y002237D01*
X011386Y002226D01*
X011366Y002220D01*
X011345Y002217D01*
X011324Y002218D01*
X011304Y002223D01*
X011284Y002231D01*
X011266Y002243D01*
X011251Y002257D01*
X011239Y002274D01*
X011230Y002294D01*
X011224Y002314D01*
X011222Y002335D01*
X017994Y002335D02*
X017996Y002356D01*
X018002Y002376D01*
X018011Y002396D01*
X018023Y002413D01*
X018038Y002427D01*
X018056Y002439D01*
X018076Y002447D01*
X018096Y002452D01*
X018117Y002453D01*
X018138Y002450D01*
X018158Y002444D01*
X018177Y002433D01*
X018194Y002420D01*
X018207Y002404D01*
X018218Y002386D01*
X018226Y002366D01*
X018230Y002346D01*
X018230Y002324D01*
X018226Y002304D01*
X018218Y002284D01*
X018207Y002266D01*
X018194Y002250D01*
X018177Y002237D01*
X018158Y002226D01*
X018138Y002220D01*
X018117Y002217D01*
X018096Y002218D01*
X018076Y002223D01*
X018056Y002231D01*
X018038Y002243D01*
X018023Y002257D01*
X018011Y002274D01*
X018002Y002294D01*
X017996Y002314D01*
X017994Y002335D01*
X024765Y002335D02*
X024767Y002356D01*
X024773Y002376D01*
X024782Y002396D01*
X024794Y002413D01*
X024809Y002427D01*
X024827Y002439D01*
X024847Y002447D01*
X024867Y002452D01*
X024888Y002453D01*
X024909Y002450D01*
X024929Y002444D01*
X024948Y002433D01*
X024965Y002420D01*
X024978Y002404D01*
X024989Y002386D01*
X024997Y002366D01*
X025001Y002346D01*
X025001Y002324D01*
X024997Y002304D01*
X024989Y002284D01*
X024978Y002266D01*
X024965Y002250D01*
X024948Y002237D01*
X024929Y002226D01*
X024909Y002220D01*
X024888Y002217D01*
X024867Y002218D01*
X024847Y002223D01*
X024827Y002231D01*
X024809Y002243D01*
X024794Y002257D01*
X024782Y002274D01*
X024773Y002294D01*
X024767Y002314D01*
X024765Y002335D01*
X031537Y002335D02*
X031539Y002356D01*
X031545Y002376D01*
X031554Y002396D01*
X031566Y002413D01*
X031581Y002427D01*
X031599Y002439D01*
X031619Y002447D01*
X031639Y002452D01*
X031660Y002453D01*
X031681Y002450D01*
X031701Y002444D01*
X031720Y002433D01*
X031737Y002420D01*
X031750Y002404D01*
X031761Y002386D01*
X031769Y002366D01*
X031773Y002346D01*
X031773Y002324D01*
X031769Y002304D01*
X031761Y002284D01*
X031750Y002266D01*
X031737Y002250D01*
X031720Y002237D01*
X031701Y002226D01*
X031681Y002220D01*
X031660Y002217D01*
X031639Y002218D01*
X031619Y002223D01*
X031599Y002231D01*
X031581Y002243D01*
X031566Y002257D01*
X031554Y002274D01*
X031545Y002294D01*
X031539Y002314D01*
X031537Y002335D01*
D11*
X031155Y002335D02*
X032155Y002335D01*
X032754Y002094D02*
X030557Y002094D01*
X030557Y004576D01*
X032754Y004576D01*
X032754Y002094D01*
X032848Y000924D02*
X032773Y000849D01*
X032998Y000924D02*
X033073Y000849D01*
X033073Y000774D01*
X032773Y000474D01*
X033073Y000474D01*
X032613Y000399D02*
X032313Y000399D01*
X032153Y000549D02*
X032078Y000474D01*
X031852Y000474D01*
X031852Y000924D01*
X032078Y000924D01*
X032153Y000849D01*
X032153Y000549D01*
X031692Y000474D02*
X031392Y000474D01*
X031392Y000924D01*
X031692Y000924D01*
X030932Y000924D02*
X030932Y000474D01*
X031232Y000474D01*
X031392Y000699D02*
X031542Y000699D01*
X032848Y000924D02*
X032998Y000924D01*
X025982Y002094D02*
X023785Y002094D01*
X023785Y004576D01*
X025982Y004576D01*
X025982Y002094D01*
X025383Y002335D02*
X024383Y002335D01*
X019210Y002094D02*
X017013Y002094D01*
X017013Y004576D01*
X019210Y004576D01*
X019210Y002094D01*
X018612Y002335D02*
X017612Y002335D01*
X012439Y002094D02*
X010242Y002094D01*
X010242Y004576D01*
X012439Y004576D01*
X012439Y002094D01*
X011840Y002335D02*
X010840Y002335D01*
X005667Y002094D02*
X003470Y002094D01*
X003470Y004576D01*
X005667Y004576D01*
X005667Y002094D01*
X005069Y002335D02*
X004069Y002335D01*
X001225Y002413D02*
X001225Y002188D01*
X000775Y002188D01*
X000775Y002413D01*
X000850Y002488D01*
X001150Y002488D01*
X001225Y002413D01*
X001225Y002028D02*
X000775Y002028D01*
X000775Y001728D02*
X001225Y002028D01*
X001225Y001728D02*
X000775Y001728D01*
X000850Y001567D02*
X000775Y001492D01*
X000775Y001342D01*
X000850Y001267D01*
X001150Y001267D01*
X001225Y001342D01*
X001225Y001492D01*
X001150Y001567D01*
X001000Y001567D01*
X001000Y001417D01*
X003467Y003335D02*
X003469Y003401D01*
X003475Y003467D01*
X003485Y003532D01*
X003498Y003596D01*
X003516Y003660D01*
X003537Y003722D01*
X003562Y003783D01*
X003591Y003843D01*
X003623Y003900D01*
X003658Y003956D01*
X003697Y004009D01*
X003739Y004060D01*
X003784Y004108D01*
X003832Y004154D01*
X003882Y004197D01*
X003935Y004236D01*
X003990Y004272D01*
X004047Y004305D01*
X004106Y004335D01*
X004166Y004361D01*
X004228Y004383D01*
X004292Y004402D01*
X004356Y004416D01*
X004421Y004427D01*
X004487Y004434D01*
X004553Y004437D01*
X004618Y004436D01*
X004684Y004431D01*
X004750Y004422D01*
X004814Y004409D01*
X004878Y004393D01*
X004941Y004372D01*
X005002Y004348D01*
X005062Y004321D01*
X005120Y004289D01*
X005176Y004255D01*
X005230Y004217D01*
X005282Y004176D01*
X005331Y004132D01*
X005377Y004085D01*
X005420Y004035D01*
X005461Y003983D01*
X005498Y003928D01*
X005531Y003872D01*
X005562Y003813D01*
X005589Y003753D01*
X005612Y003691D01*
X005631Y003628D01*
X005647Y003564D01*
X005659Y003499D01*
X005667Y003434D01*
X005671Y003368D01*
X005671Y003302D01*
X005667Y003236D01*
X005659Y003171D01*
X005647Y003106D01*
X005631Y003042D01*
X005612Y002979D01*
X005589Y002917D01*
X005562Y002857D01*
X005531Y002798D01*
X005498Y002742D01*
X005461Y002687D01*
X005420Y002635D01*
X005377Y002585D01*
X005331Y002538D01*
X005282Y002494D01*
X005230Y002453D01*
X005176Y002415D01*
X005120Y002381D01*
X005062Y002349D01*
X005002Y002322D01*
X004941Y002298D01*
X004878Y002277D01*
X004814Y002261D01*
X004750Y002248D01*
X004684Y002239D01*
X004618Y002234D01*
X004553Y002233D01*
X004487Y002236D01*
X004421Y002243D01*
X004356Y002254D01*
X004292Y002268D01*
X004228Y002287D01*
X004166Y002309D01*
X004106Y002335D01*
X004047Y002365D01*
X003990Y002398D01*
X003935Y002434D01*
X003882Y002473D01*
X003832Y002516D01*
X003784Y002562D01*
X003739Y002610D01*
X003697Y002661D01*
X003658Y002714D01*
X003623Y002770D01*
X003591Y002827D01*
X003562Y002887D01*
X003537Y002948D01*
X003516Y003010D01*
X003498Y003074D01*
X003485Y003138D01*
X003475Y003203D01*
X003469Y003269D01*
X003467Y003335D01*
X010238Y003335D02*
X010240Y003401D01*
X010246Y003467D01*
X010256Y003532D01*
X010269Y003596D01*
X010287Y003660D01*
X010308Y003722D01*
X010333Y003783D01*
X010362Y003843D01*
X010394Y003900D01*
X010429Y003956D01*
X010468Y004009D01*
X010510Y004060D01*
X010555Y004108D01*
X010603Y004154D01*
X010653Y004197D01*
X010706Y004236D01*
X010761Y004272D01*
X010818Y004305D01*
X010877Y004335D01*
X010937Y004361D01*
X010999Y004383D01*
X011063Y004402D01*
X011127Y004416D01*
X011192Y004427D01*
X011258Y004434D01*
X011324Y004437D01*
X011389Y004436D01*
X011455Y004431D01*
X011521Y004422D01*
X011585Y004409D01*
X011649Y004393D01*
X011712Y004372D01*
X011773Y004348D01*
X011833Y004321D01*
X011891Y004289D01*
X011947Y004255D01*
X012001Y004217D01*
X012053Y004176D01*
X012102Y004132D01*
X012148Y004085D01*
X012191Y004035D01*
X012232Y003983D01*
X012269Y003928D01*
X012302Y003872D01*
X012333Y003813D01*
X012360Y003753D01*
X012383Y003691D01*
X012402Y003628D01*
X012418Y003564D01*
X012430Y003499D01*
X012438Y003434D01*
X012442Y003368D01*
X012442Y003302D01*
X012438Y003236D01*
X012430Y003171D01*
X012418Y003106D01*
X012402Y003042D01*
X012383Y002979D01*
X012360Y002917D01*
X012333Y002857D01*
X012302Y002798D01*
X012269Y002742D01*
X012232Y002687D01*
X012191Y002635D01*
X012148Y002585D01*
X012102Y002538D01*
X012053Y002494D01*
X012001Y002453D01*
X011947Y002415D01*
X011891Y002381D01*
X011833Y002349D01*
X011773Y002322D01*
X011712Y002298D01*
X011649Y002277D01*
X011585Y002261D01*
X011521Y002248D01*
X011455Y002239D01*
X011389Y002234D01*
X011324Y002233D01*
X011258Y002236D01*
X011192Y002243D01*
X011127Y002254D01*
X011063Y002268D01*
X010999Y002287D01*
X010937Y002309D01*
X010877Y002335D01*
X010818Y002365D01*
X010761Y002398D01*
X010706Y002434D01*
X010653Y002473D01*
X010603Y002516D01*
X010555Y002562D01*
X010510Y002610D01*
X010468Y002661D01*
X010429Y002714D01*
X010394Y002770D01*
X010362Y002827D01*
X010333Y002887D01*
X010308Y002948D01*
X010287Y003010D01*
X010269Y003074D01*
X010256Y003138D01*
X010246Y003203D01*
X010240Y003269D01*
X010238Y003335D01*
X017010Y003335D02*
X017012Y003401D01*
X017018Y003467D01*
X017028Y003532D01*
X017041Y003596D01*
X017059Y003660D01*
X017080Y003722D01*
X017105Y003783D01*
X017134Y003843D01*
X017166Y003900D01*
X017201Y003956D01*
X017240Y004009D01*
X017282Y004060D01*
X017327Y004108D01*
X017375Y004154D01*
X017425Y004197D01*
X017478Y004236D01*
X017533Y004272D01*
X017590Y004305D01*
X017649Y004335D01*
X017709Y004361D01*
X017771Y004383D01*
X017835Y004402D01*
X017899Y004416D01*
X017964Y004427D01*
X018030Y004434D01*
X018096Y004437D01*
X018161Y004436D01*
X018227Y004431D01*
X018293Y004422D01*
X018357Y004409D01*
X018421Y004393D01*
X018484Y004372D01*
X018545Y004348D01*
X018605Y004321D01*
X018663Y004289D01*
X018719Y004255D01*
X018773Y004217D01*
X018825Y004176D01*
X018874Y004132D01*
X018920Y004085D01*
X018963Y004035D01*
X019004Y003983D01*
X019041Y003928D01*
X019074Y003872D01*
X019105Y003813D01*
X019132Y003753D01*
X019155Y003691D01*
X019174Y003628D01*
X019190Y003564D01*
X019202Y003499D01*
X019210Y003434D01*
X019214Y003368D01*
X019214Y003302D01*
X019210Y003236D01*
X019202Y003171D01*
X019190Y003106D01*
X019174Y003042D01*
X019155Y002979D01*
X019132Y002917D01*
X019105Y002857D01*
X019074Y002798D01*
X019041Y002742D01*
X019004Y002687D01*
X018963Y002635D01*
X018920Y002585D01*
X018874Y002538D01*
X018825Y002494D01*
X018773Y002453D01*
X018719Y002415D01*
X018663Y002381D01*
X018605Y002349D01*
X018545Y002322D01*
X018484Y002298D01*
X018421Y002277D01*
X018357Y002261D01*
X018293Y002248D01*
X018227Y002239D01*
X018161Y002234D01*
X018096Y002233D01*
X018030Y002236D01*
X017964Y002243D01*
X017899Y002254D01*
X017835Y002268D01*
X017771Y002287D01*
X017709Y002309D01*
X017649Y002335D01*
X017590Y002365D01*
X017533Y002398D01*
X017478Y002434D01*
X017425Y002473D01*
X017375Y002516D01*
X017327Y002562D01*
X017282Y002610D01*
X017240Y002661D01*
X017201Y002714D01*
X017166Y002770D01*
X017134Y002827D01*
X017105Y002887D01*
X017080Y002948D01*
X017059Y003010D01*
X017041Y003074D01*
X017028Y003138D01*
X017018Y003203D01*
X017012Y003269D01*
X017010Y003335D01*
X023781Y003335D02*
X023783Y003401D01*
X023789Y003467D01*
X023799Y003532D01*
X023812Y003596D01*
X023830Y003660D01*
X023851Y003722D01*
X023876Y003783D01*
X023905Y003843D01*
X023937Y003900D01*
X023972Y003956D01*
X024011Y004009D01*
X024053Y004060D01*
X024098Y004108D01*
X024146Y004154D01*
X024196Y004197D01*
X024249Y004236D01*
X024304Y004272D01*
X024361Y004305D01*
X024420Y004335D01*
X024480Y004361D01*
X024542Y004383D01*
X024606Y004402D01*
X024670Y004416D01*
X024735Y004427D01*
X024801Y004434D01*
X024867Y004437D01*
X024932Y004436D01*
X024998Y004431D01*
X025064Y004422D01*
X025128Y004409D01*
X025192Y004393D01*
X025255Y004372D01*
X025316Y004348D01*
X025376Y004321D01*
X025434Y004289D01*
X025490Y004255D01*
X025544Y004217D01*
X025596Y004176D01*
X025645Y004132D01*
X025691Y004085D01*
X025734Y004035D01*
X025775Y003983D01*
X025812Y003928D01*
X025845Y003872D01*
X025876Y003813D01*
X025903Y003753D01*
X025926Y003691D01*
X025945Y003628D01*
X025961Y003564D01*
X025973Y003499D01*
X025981Y003434D01*
X025985Y003368D01*
X025985Y003302D01*
X025981Y003236D01*
X025973Y003171D01*
X025961Y003106D01*
X025945Y003042D01*
X025926Y002979D01*
X025903Y002917D01*
X025876Y002857D01*
X025845Y002798D01*
X025812Y002742D01*
X025775Y002687D01*
X025734Y002635D01*
X025691Y002585D01*
X025645Y002538D01*
X025596Y002494D01*
X025544Y002453D01*
X025490Y002415D01*
X025434Y002381D01*
X025376Y002349D01*
X025316Y002322D01*
X025255Y002298D01*
X025192Y002277D01*
X025128Y002261D01*
X025064Y002248D01*
X024998Y002239D01*
X024932Y002234D01*
X024867Y002233D01*
X024801Y002236D01*
X024735Y002243D01*
X024670Y002254D01*
X024606Y002268D01*
X024542Y002287D01*
X024480Y002309D01*
X024420Y002335D01*
X024361Y002365D01*
X024304Y002398D01*
X024249Y002434D01*
X024196Y002473D01*
X024146Y002516D01*
X024098Y002562D01*
X024053Y002610D01*
X024011Y002661D01*
X023972Y002714D01*
X023937Y002770D01*
X023905Y002827D01*
X023876Y002887D01*
X023851Y002948D01*
X023830Y003010D01*
X023812Y003074D01*
X023799Y003138D01*
X023789Y003203D01*
X023783Y003269D01*
X023781Y003335D01*
X030553Y003335D02*
X030555Y003401D01*
X030561Y003467D01*
X030571Y003532D01*
X030584Y003596D01*
X030602Y003660D01*
X030623Y003722D01*
X030648Y003783D01*
X030677Y003843D01*
X030709Y003900D01*
X030744Y003956D01*
X030783Y004009D01*
X030825Y004060D01*
X030870Y004108D01*
X030918Y004154D01*
X030968Y004197D01*
X031021Y004236D01*
X031076Y004272D01*
X031133Y004305D01*
X031192Y004335D01*
X031252Y004361D01*
X031314Y004383D01*
X031378Y004402D01*
X031442Y004416D01*
X031507Y004427D01*
X031573Y004434D01*
X031639Y004437D01*
X031704Y004436D01*
X031770Y004431D01*
X031836Y004422D01*
X031900Y004409D01*
X031964Y004393D01*
X032027Y004372D01*
X032088Y004348D01*
X032148Y004321D01*
X032206Y004289D01*
X032262Y004255D01*
X032316Y004217D01*
X032368Y004176D01*
X032417Y004132D01*
X032463Y004085D01*
X032506Y004035D01*
X032547Y003983D01*
X032584Y003928D01*
X032617Y003872D01*
X032648Y003813D01*
X032675Y003753D01*
X032698Y003691D01*
X032717Y003628D01*
X032733Y003564D01*
X032745Y003499D01*
X032753Y003434D01*
X032757Y003368D01*
X032757Y003302D01*
X032753Y003236D01*
X032745Y003171D01*
X032733Y003106D01*
X032717Y003042D01*
X032698Y002979D01*
X032675Y002917D01*
X032648Y002857D01*
X032617Y002798D01*
X032584Y002742D01*
X032547Y002687D01*
X032506Y002635D01*
X032463Y002585D01*
X032417Y002538D01*
X032368Y002494D01*
X032316Y002453D01*
X032262Y002415D01*
X032206Y002381D01*
X032148Y002349D01*
X032088Y002322D01*
X032027Y002298D01*
X031964Y002277D01*
X031900Y002261D01*
X031836Y002248D01*
X031770Y002239D01*
X031704Y002234D01*
X031639Y002233D01*
X031573Y002236D01*
X031507Y002243D01*
X031442Y002254D01*
X031378Y002268D01*
X031314Y002287D01*
X031252Y002309D01*
X031192Y002335D01*
X031133Y002365D01*
X031076Y002398D01*
X031021Y002434D01*
X030968Y002473D01*
X030918Y002516D01*
X030870Y002562D01*
X030825Y002610D01*
X030783Y002661D01*
X030744Y002714D01*
X030709Y002770D01*
X030677Y002827D01*
X030648Y002887D01*
X030623Y002948D01*
X030602Y003010D01*
X030584Y003074D01*
X030571Y003138D01*
X030561Y003203D01*
X030555Y003269D01*
X030553Y003335D01*
X031852Y005505D02*
X032153Y005505D01*
X032313Y005580D02*
X032613Y005880D01*
X032613Y005956D01*
X032538Y006031D01*
X032388Y006031D01*
X032313Y005956D01*
X031692Y006031D02*
X031692Y005580D01*
X031542Y005730D01*
X031392Y005580D01*
X031392Y006031D01*
X031232Y005956D02*
X031157Y006031D01*
X031007Y006031D01*
X030932Y005956D01*
X030932Y005880D01*
X031007Y005805D01*
X031157Y005805D01*
X031232Y005730D01*
X031232Y005655D01*
X031157Y005580D01*
X031007Y005580D01*
X030932Y005655D01*
X032313Y005580D02*
X032613Y005580D01*
X019282Y005580D02*
X018982Y005580D01*
X019132Y005580D02*
X019132Y006031D01*
X018982Y005880D01*
X018362Y006031D02*
X018362Y005580D01*
X018211Y005730D01*
X018061Y005580D01*
X018061Y006031D01*
X017901Y005956D02*
X017826Y006031D01*
X017676Y006031D01*
X017601Y005956D01*
X017601Y005880D01*
X017676Y005805D01*
X017826Y005805D01*
X017901Y005730D01*
X017901Y005655D01*
X017826Y005580D01*
X017676Y005580D01*
X017601Y005655D01*
X018522Y005505D02*
X018822Y005505D01*
X019199Y000924D02*
X019199Y000474D01*
X019049Y000474D02*
X019349Y000474D01*
X018889Y000399D02*
X018588Y000399D01*
X018428Y000549D02*
X018353Y000474D01*
X018128Y000474D01*
X018128Y000924D01*
X018353Y000924D01*
X018428Y000849D01*
X018428Y000549D01*
X017968Y000474D02*
X017668Y000474D01*
X017668Y000924D01*
X017968Y000924D01*
X017207Y000924D02*
X017207Y000474D01*
X017507Y000474D01*
X017668Y000699D02*
X017818Y000699D01*
X019049Y000774D02*
X019199Y000924D01*
D12*
X019574Y001160D02*
X019824Y001410D01*
X020324Y001410D01*
X020574Y001160D01*
X020824Y001410D01*
X021324Y001410D01*
X021574Y001160D01*
X021574Y000660D01*
X021324Y000410D01*
X020824Y000410D01*
X020574Y000660D01*
X020324Y000410D01*
X019824Y000410D01*
X019574Y000660D01*
X019574Y001160D01*
X020574Y001160D02*
X020574Y000660D01*
X021574Y000660D02*
X021824Y000410D01*
X022324Y000410D01*
X022574Y000660D01*
X022824Y000410D01*
X023324Y000410D01*
X023574Y000660D01*
X023824Y000410D01*
X024324Y000410D01*
X024574Y000660D01*
X024574Y001160D01*
X024324Y001410D01*
X023824Y001410D01*
X023574Y001160D01*
X023574Y000660D01*
X024574Y000660D02*
X024824Y000410D01*
X025324Y000410D01*
X025574Y000660D01*
X025824Y000410D01*
X026324Y000410D01*
X026574Y000660D01*
X026824Y000410D01*
X027324Y000410D01*
X027574Y000660D01*
X027574Y001160D01*
X027324Y001410D01*
X026824Y001410D01*
X026574Y001160D01*
X026574Y000660D01*
X025574Y000660D02*
X025574Y001160D01*
X025824Y001410D01*
X026324Y001410D01*
X026574Y001160D01*
X025574Y001160D02*
X025324Y001410D01*
X024824Y001410D01*
X024574Y001160D01*
X023574Y001160D02*
X023324Y001410D01*
X022824Y001410D01*
X022574Y001160D01*
X022574Y000660D01*
X022574Y001160D02*
X022324Y001410D01*
X021824Y001410D01*
X021574Y001160D01*
X028574Y001160D02*
X028574Y000660D01*
X028824Y000410D01*
X029324Y000410D01*
X029574Y000660D01*
X029824Y000410D01*
X030324Y000410D01*
X030574Y000660D01*
X030574Y001160D01*
X030324Y001410D01*
X029824Y001410D01*
X029574Y001160D01*
X029574Y000660D01*
X029574Y001160D02*
X029324Y001410D01*
X028824Y001410D01*
X028574Y001160D01*
X028824Y005123D02*
X029324Y005123D01*
X029574Y005373D01*
X029824Y005123D01*
X030324Y005123D01*
X030574Y005373D01*
X030574Y005873D01*
X030324Y006123D01*
X029824Y006123D01*
X029574Y005873D01*
X029574Y005373D01*
X028824Y005123D02*
X028574Y005373D01*
X028574Y005873D01*
X028824Y006123D01*
X029324Y006123D01*
X029574Y005873D01*
X027574Y005873D02*
X027574Y005373D01*
X027324Y005123D01*
X026824Y005123D01*
X026574Y005373D01*
X026324Y005123D01*
X025824Y005123D01*
X025574Y005373D01*
X025324Y005123D01*
X024824Y005123D01*
X024574Y005373D01*
X024324Y005123D01*
X023824Y005123D01*
X023574Y005373D01*
X023324Y005123D01*
X022824Y005123D01*
X022574Y005373D01*
X022324Y005123D01*
X021824Y005123D01*
X021574Y005373D01*
X021324Y005123D01*
X020824Y005123D01*
X020574Y005373D01*
X020324Y005123D01*
X019824Y005123D01*
X019574Y005373D01*
X019574Y005873D01*
X019824Y006123D01*
X020324Y006123D01*
X020574Y005873D01*
X020824Y006123D01*
X021324Y006123D01*
X021574Y005873D01*
X021574Y005373D01*
X020574Y005373D02*
X020574Y005873D01*
X021574Y005873D02*
X021824Y006123D01*
X022324Y006123D01*
X022574Y005873D01*
X022824Y006123D01*
X023324Y006123D01*
X023574Y005873D01*
X023824Y006123D01*
X024324Y006123D01*
X024574Y005873D01*
X024574Y005373D01*
X023574Y005373D02*
X023574Y005873D01*
X024574Y005873D02*
X024824Y006123D01*
X025324Y006123D01*
X025574Y005873D01*
X025824Y006123D01*
X026324Y006123D01*
X026574Y005873D01*
X026824Y006123D01*
X027324Y006123D01*
X027574Y005873D01*
X026574Y005873D02*
X026574Y005373D01*
X025574Y005373D02*
X025574Y005873D01*
X022574Y005873D02*
X022574Y005373D01*
X002470Y005022D02*
X002470Y004522D01*
X002220Y004272D01*
X002470Y004022D01*
X002470Y003522D01*
X002220Y003272D01*
X002470Y003022D01*
X002470Y002522D01*
X002220Y002272D01*
X002470Y002022D01*
X002470Y001522D01*
X002220Y001272D01*
X001720Y001272D01*
X001470Y001522D01*
X001470Y002022D01*
X001720Y002272D01*
X001470Y002522D01*
X001470Y003022D01*
X001720Y003272D01*
X002220Y003272D01*
X001720Y003272D02*
X001470Y003522D01*
X001470Y004022D01*
X001720Y004272D01*
X001470Y004522D01*
X001470Y005022D01*
X001720Y005272D01*
X002220Y005272D01*
X002470Y005022D01*
X002220Y004272D02*
X001720Y004272D01*
X001720Y002272D02*
X002220Y002272D01*
M02*
