%
M48
M72
T01C0.0236
T02C0.0315
T03C0.0400
%
T01
X18112Y2335
X11340Y2335
X24883Y2335
X31655Y2335
X4569Y2335
T02
X19112Y2335
X19112Y4335
X17112Y2335
X17112Y4335
X17049Y3335
X19175Y3335
X12340Y2335
X12340Y4335
X10340Y2335
X10340Y4335
X10277Y3335
X12403Y3335
X25883Y2335
X25883Y4335
X23883Y2335
X23883Y4335
X23820Y3335
X25946Y3335
X32655Y2335
X32655Y4335
X30655Y2335
X30655Y4335
X30592Y3335
X32718Y3335
X5569Y2335
X5569Y4335
X3569Y2335
X3569Y4335
X3506Y3335
X5631Y3335
X6694Y3272
X14569Y2091
X7777Y3469
X14372Y4995
X20165Y2782
X34746Y4453
X21964Y2447
X28151Y2288
X33849Y2851
X27092Y2167
X7974Y4847
T03
X20074Y910
X21074Y910
X22074Y910
X23074Y910
X24074Y910
X25074Y910
X26074Y910
X27074Y910
X29074Y910
X30074Y910
X20074Y5623
X21074Y5623
X22074Y5623
X23074Y5623
X24074Y5623
X25074Y5623
X26074Y5623
X27074Y5623
X29074Y5623
X30074Y5623
X1970Y1772
X1970Y2772
X1970Y3772
X1970Y4772
M30
