%
M48
M72
T01C0.0315
T02C0.0394
T03C0.0400
%
T01
X27607Y7426
X30966Y8765
X31950Y10749
X25363Y11717
T02
X19458Y17623
X12765Y25497
X15127Y16835
T03
X20288Y21556
X20288Y20556
X20288Y19556
X11115Y9363
X11115Y8363
X11115Y6363
X11115Y7363
X19875Y11444
X18875Y11444
X19875Y12444
X18875Y12444
X19875Y13444
X18875Y13444
X19875Y14444
X18875Y14444
X19875Y15444
X18875Y15444
X26938Y4694
X27938Y4694
X28938Y4694
X29938Y4694
X30938Y4694
X31938Y4694
X32938Y4694
X25938Y4694
X24938Y23694
X25938Y23694
X26938Y23694
X27938Y23694
X28938Y23694
X29938Y23694
X30938Y23694
X23938Y23694
X17938Y4694
X18938Y4694
X19938Y4694
X20938Y4694
X21938Y4694
X22938Y4694
X23938Y4694
X16938Y4694
X15938Y23694
X16938Y23694
X17938Y23694
X18938Y23694
X19938Y23694
X20938Y23694
X21938Y23694
X14938Y23694
X10338Y23694
X11338Y23694
X12338Y23694
X13338Y23694
X34938Y15694
X33938Y15694
X34938Y16694
X33938Y16694
X34938Y17694
X33938Y17694
X34938Y18694
X33938Y18694
X34938Y19694
X33938Y19694
X34938Y20694
X33938Y20694
X34938Y21694
X33938Y21694
X34938Y22694
X33938Y22694
X34938Y7694
X33938Y7694
X34938Y8694
X33938Y8694
X34938Y9694
X33938Y9694
X34938Y10694
X33938Y10694
X34938Y11694
X33938Y11694
X34938Y12694
X33938Y12694
X34938Y13694
X33938Y13694
X34938Y14694
X33938Y14694
X33938Y6694
X34938Y6694
X33938Y23694
X34938Y23694
X10938Y4694
X11938Y4694
X12938Y4694
X13938Y4694
X14938Y4694
X9938Y4694
X11977Y21182
X11977Y20182
X11977Y19182
X30875Y15666
X30875Y14666
X30875Y21698
X30875Y20698
X30875Y19729
X30875Y18729
X30875Y17761
X30875Y16761
M30
