G75*
%MOIN*%
%OFA0B0*%
%FSLAX24Y24*%
%IPPOS*%
%LPD*%
%AMOC8*
5,1,8,0,0,1.08239X$1,22.5*
%
%ADD10C,0.0000*%
%ADD11R,0.0674X0.0674*%
%ADD12C,0.1340*%
%ADD13R,0.0595X0.0595*%
%ADD14C,0.0316*%
%ADD15C,0.0680*%
%ADD16R,0.0671X0.0671*%
D10*
X000100Y000100D02*
X000100Y006793D01*
X033171Y006793D01*
X033171Y000100D01*
X000100Y000100D01*
X002777Y001069D02*
X002779Y001090D01*
X002785Y001110D01*
X002794Y001130D01*
X002806Y001147D01*
X002821Y001161D01*
X002839Y001173D01*
X002859Y001181D01*
X002879Y001186D01*
X002900Y001187D01*
X002921Y001184D01*
X002941Y001178D01*
X002960Y001167D01*
X002977Y001154D01*
X002990Y001138D01*
X003001Y001120D01*
X003009Y001100D01*
X003013Y001080D01*
X003013Y001058D01*
X003009Y001038D01*
X003001Y001018D01*
X002990Y001000D01*
X002977Y000984D01*
X002960Y000971D01*
X002941Y000960D01*
X002921Y000954D01*
X002900Y000951D01*
X002879Y000952D01*
X002859Y000957D01*
X002839Y000965D01*
X002821Y000977D01*
X002806Y000991D01*
X002794Y001008D01*
X002785Y001028D01*
X002779Y001048D01*
X002777Y001069D01*
X015809Y001045D02*
X015811Y001095D01*
X015817Y001145D01*
X015827Y001194D01*
X015841Y001242D01*
X015858Y001289D01*
X015879Y001334D01*
X015904Y001378D01*
X015932Y001419D01*
X015964Y001458D01*
X015998Y001495D01*
X016035Y001529D01*
X016075Y001559D01*
X016117Y001586D01*
X016161Y001610D01*
X016207Y001631D01*
X016254Y001647D01*
X016302Y001660D01*
X016352Y001669D01*
X016401Y001674D01*
X016452Y001675D01*
X016502Y001672D01*
X016551Y001665D01*
X016600Y001654D01*
X016648Y001639D01*
X016694Y001621D01*
X016739Y001599D01*
X016782Y001573D01*
X016823Y001544D01*
X016862Y001512D01*
X016898Y001477D01*
X016930Y001439D01*
X016960Y001399D01*
X016987Y001356D01*
X017010Y001312D01*
X017029Y001266D01*
X017045Y001218D01*
X017057Y001169D01*
X017065Y001120D01*
X017069Y001070D01*
X017069Y001020D01*
X017065Y000970D01*
X017057Y000921D01*
X017045Y000872D01*
X017029Y000824D01*
X017010Y000778D01*
X016987Y000734D01*
X016960Y000691D01*
X016930Y000651D01*
X016898Y000613D01*
X016862Y000578D01*
X016823Y000546D01*
X016782Y000517D01*
X016739Y000491D01*
X016694Y000469D01*
X016648Y000451D01*
X016600Y000436D01*
X016551Y000425D01*
X016502Y000418D01*
X016452Y000415D01*
X016401Y000416D01*
X016352Y000421D01*
X016302Y000430D01*
X016254Y000443D01*
X016207Y000459D01*
X016161Y000480D01*
X016117Y000504D01*
X016075Y000531D01*
X016035Y000561D01*
X015998Y000595D01*
X015964Y000632D01*
X015932Y000671D01*
X015904Y000712D01*
X015879Y000756D01*
X015858Y000801D01*
X015841Y000848D01*
X015827Y000896D01*
X015817Y000945D01*
X015811Y000995D01*
X015809Y001045D01*
X029864Y001069D02*
X029866Y001090D01*
X029872Y001110D01*
X029881Y001130D01*
X029893Y001147D01*
X029908Y001161D01*
X029926Y001173D01*
X029946Y001181D01*
X029966Y001186D01*
X029987Y001187D01*
X030008Y001184D01*
X030028Y001178D01*
X030047Y001167D01*
X030064Y001154D01*
X030077Y001138D01*
X030088Y001120D01*
X030096Y001100D01*
X030100Y001080D01*
X030100Y001058D01*
X030096Y001038D01*
X030088Y001018D01*
X030077Y001000D01*
X030064Y000984D01*
X030047Y000971D01*
X030028Y000960D01*
X030008Y000954D01*
X029987Y000951D01*
X029966Y000952D01*
X029946Y000957D01*
X029926Y000965D01*
X029908Y000977D01*
X029893Y000991D01*
X029881Y001008D01*
X029872Y001028D01*
X029866Y001048D01*
X029864Y001069D01*
X015809Y005848D02*
X015811Y005898D01*
X015817Y005948D01*
X015827Y005997D01*
X015841Y006045D01*
X015858Y006092D01*
X015879Y006137D01*
X015904Y006181D01*
X015932Y006222D01*
X015964Y006261D01*
X015998Y006298D01*
X016035Y006332D01*
X016075Y006362D01*
X016117Y006389D01*
X016161Y006413D01*
X016207Y006434D01*
X016254Y006450D01*
X016302Y006463D01*
X016352Y006472D01*
X016401Y006477D01*
X016452Y006478D01*
X016502Y006475D01*
X016551Y006468D01*
X016600Y006457D01*
X016648Y006442D01*
X016694Y006424D01*
X016739Y006402D01*
X016782Y006376D01*
X016823Y006347D01*
X016862Y006315D01*
X016898Y006280D01*
X016930Y006242D01*
X016960Y006202D01*
X016987Y006159D01*
X017010Y006115D01*
X017029Y006069D01*
X017045Y006021D01*
X017057Y005972D01*
X017065Y005923D01*
X017069Y005873D01*
X017069Y005823D01*
X017065Y005773D01*
X017057Y005724D01*
X017045Y005675D01*
X017029Y005627D01*
X017010Y005581D01*
X016987Y005537D01*
X016960Y005494D01*
X016930Y005454D01*
X016898Y005416D01*
X016862Y005381D01*
X016823Y005349D01*
X016782Y005320D01*
X016739Y005294D01*
X016694Y005272D01*
X016648Y005254D01*
X016600Y005239D01*
X016551Y005228D01*
X016502Y005221D01*
X016452Y005218D01*
X016401Y005219D01*
X016352Y005224D01*
X016302Y005233D01*
X016254Y005246D01*
X016207Y005262D01*
X016161Y005283D01*
X016117Y005307D01*
X016075Y005334D01*
X016035Y005364D01*
X015998Y005398D01*
X015964Y005435D01*
X015932Y005474D01*
X015904Y005515D01*
X015879Y005559D01*
X015858Y005604D01*
X015841Y005651D01*
X015827Y005699D01*
X015817Y005748D01*
X015811Y005798D01*
X015809Y005848D01*
D11*
X013683Y004431D03*
X019391Y004431D03*
X019391Y003446D03*
X019391Y002462D03*
X013683Y002462D03*
D12*
X016439Y001045D03*
X016439Y005848D03*
D13*
X028982Y003069D03*
X030982Y003069D03*
X031045Y002069D03*
X028919Y002069D03*
X028982Y001069D03*
X030982Y001069D03*
X003958Y002069D03*
X001832Y002069D03*
X001895Y003069D03*
X003895Y003069D03*
X003895Y001069D03*
X001895Y001069D03*
D14*
X002895Y001069D03*
X029982Y001069D03*
D15*
X026419Y001020D02*
X026419Y001620D01*
X025419Y001620D02*
X025419Y001020D01*
X024419Y001020D02*
X024419Y001620D01*
X023419Y001620D02*
X023419Y001020D01*
X010868Y001020D02*
X010868Y001620D01*
X009868Y001620D02*
X009868Y001020D01*
X008868Y001020D02*
X008868Y001620D01*
X007868Y001620D02*
X007868Y001020D01*
X004356Y005312D02*
X004356Y005912D01*
X003356Y005912D02*
X003356Y005312D01*
X002356Y005312D02*
X002356Y005912D01*
X001356Y005912D02*
X001356Y005312D01*
X028521Y005312D02*
X028521Y005912D01*
X029521Y005912D02*
X029521Y005312D01*
X030521Y005312D02*
X030521Y005912D01*
X031521Y005912D02*
X031521Y005312D01*
D16*
X026478Y005021D03*
X026872Y004037D03*
X020419Y005600D03*
X009549Y003250D03*
X012169Y002100D03*
X005494Y002069D03*
X000887Y001084D03*
X021206Y001206D03*
M02*
