G75*
%MOIN*%
%OFA0B0*%
%FSLAX24Y24*%
%IPPOS*%
%LPD*%
%AMOC8*
5,1,8,0,0,1.08239X$1,22.5*
%
%ADD10C,0.0000*%
%ADD11C,0.0050*%
%ADD12C,0.0040*%
%ADD13C,0.0060*%
D10*
X000100Y000100D02*
X000100Y006793D01*
X033171Y006793D01*
X033171Y000100D01*
X000100Y000100D01*
X002777Y001069D02*
X002779Y001090D01*
X002785Y001110D01*
X002794Y001130D01*
X002806Y001147D01*
X002821Y001161D01*
X002839Y001173D01*
X002859Y001181D01*
X002879Y001186D01*
X002900Y001187D01*
X002921Y001184D01*
X002941Y001178D01*
X002960Y001167D01*
X002977Y001154D01*
X002990Y001138D01*
X003001Y001120D01*
X003009Y001100D01*
X003013Y001080D01*
X003013Y001058D01*
X003009Y001038D01*
X003001Y001018D01*
X002990Y001000D01*
X002977Y000984D01*
X002960Y000971D01*
X002941Y000960D01*
X002921Y000954D01*
X002900Y000951D01*
X002879Y000952D01*
X002859Y000957D01*
X002839Y000965D01*
X002821Y000977D01*
X002806Y000991D01*
X002794Y001008D01*
X002785Y001028D01*
X002779Y001048D01*
X002777Y001069D01*
X015809Y001045D02*
X015811Y001095D01*
X015817Y001145D01*
X015827Y001194D01*
X015841Y001242D01*
X015858Y001289D01*
X015879Y001334D01*
X015904Y001378D01*
X015932Y001419D01*
X015964Y001458D01*
X015998Y001495D01*
X016035Y001529D01*
X016075Y001559D01*
X016117Y001586D01*
X016161Y001610D01*
X016207Y001631D01*
X016254Y001647D01*
X016302Y001660D01*
X016352Y001669D01*
X016401Y001674D01*
X016452Y001675D01*
X016502Y001672D01*
X016551Y001665D01*
X016600Y001654D01*
X016648Y001639D01*
X016694Y001621D01*
X016739Y001599D01*
X016782Y001573D01*
X016823Y001544D01*
X016862Y001512D01*
X016898Y001477D01*
X016930Y001439D01*
X016960Y001399D01*
X016987Y001356D01*
X017010Y001312D01*
X017029Y001266D01*
X017045Y001218D01*
X017057Y001169D01*
X017065Y001120D01*
X017069Y001070D01*
X017069Y001020D01*
X017065Y000970D01*
X017057Y000921D01*
X017045Y000872D01*
X017029Y000824D01*
X017010Y000778D01*
X016987Y000734D01*
X016960Y000691D01*
X016930Y000651D01*
X016898Y000613D01*
X016862Y000578D01*
X016823Y000546D01*
X016782Y000517D01*
X016739Y000491D01*
X016694Y000469D01*
X016648Y000451D01*
X016600Y000436D01*
X016551Y000425D01*
X016502Y000418D01*
X016452Y000415D01*
X016401Y000416D01*
X016352Y000421D01*
X016302Y000430D01*
X016254Y000443D01*
X016207Y000459D01*
X016161Y000480D01*
X016117Y000504D01*
X016075Y000531D01*
X016035Y000561D01*
X015998Y000595D01*
X015964Y000632D01*
X015932Y000671D01*
X015904Y000712D01*
X015879Y000756D01*
X015858Y000801D01*
X015841Y000848D01*
X015827Y000896D01*
X015817Y000945D01*
X015811Y000995D01*
X015809Y001045D01*
X029864Y001069D02*
X029866Y001090D01*
X029872Y001110D01*
X029881Y001130D01*
X029893Y001147D01*
X029908Y001161D01*
X029926Y001173D01*
X029946Y001181D01*
X029966Y001186D01*
X029987Y001187D01*
X030008Y001184D01*
X030028Y001178D01*
X030047Y001167D01*
X030064Y001154D01*
X030077Y001138D01*
X030088Y001120D01*
X030096Y001100D01*
X030100Y001080D01*
X030100Y001058D01*
X030096Y001038D01*
X030088Y001018D01*
X030077Y001000D01*
X030064Y000984D01*
X030047Y000971D01*
X030028Y000960D01*
X030008Y000954D01*
X029987Y000951D01*
X029966Y000952D01*
X029946Y000957D01*
X029926Y000965D01*
X029908Y000977D01*
X029893Y000991D01*
X029881Y001008D01*
X029872Y001028D01*
X029866Y001048D01*
X029864Y001069D01*
X015809Y005848D02*
X015811Y005898D01*
X015817Y005948D01*
X015827Y005997D01*
X015841Y006045D01*
X015858Y006092D01*
X015879Y006137D01*
X015904Y006181D01*
X015932Y006222D01*
X015964Y006261D01*
X015998Y006298D01*
X016035Y006332D01*
X016075Y006362D01*
X016117Y006389D01*
X016161Y006413D01*
X016207Y006434D01*
X016254Y006450D01*
X016302Y006463D01*
X016352Y006472D01*
X016401Y006477D01*
X016452Y006478D01*
X016502Y006475D01*
X016551Y006468D01*
X016600Y006457D01*
X016648Y006442D01*
X016694Y006424D01*
X016739Y006402D01*
X016782Y006376D01*
X016823Y006347D01*
X016862Y006315D01*
X016898Y006280D01*
X016930Y006242D01*
X016960Y006202D01*
X016987Y006159D01*
X017010Y006115D01*
X017029Y006069D01*
X017045Y006021D01*
X017057Y005972D01*
X017065Y005923D01*
X017069Y005873D01*
X017069Y005823D01*
X017065Y005773D01*
X017057Y005724D01*
X017045Y005675D01*
X017029Y005627D01*
X017010Y005581D01*
X016987Y005537D01*
X016960Y005494D01*
X016930Y005454D01*
X016898Y005416D01*
X016862Y005381D01*
X016823Y005349D01*
X016782Y005320D01*
X016739Y005294D01*
X016694Y005272D01*
X016648Y005254D01*
X016600Y005239D01*
X016551Y005228D01*
X016502Y005221D01*
X016452Y005218D01*
X016401Y005219D01*
X016352Y005224D01*
X016302Y005233D01*
X016254Y005246D01*
X016207Y005262D01*
X016161Y005283D01*
X016117Y005307D01*
X016075Y005334D01*
X016035Y005364D01*
X015998Y005398D01*
X015964Y005435D01*
X015932Y005474D01*
X015904Y005515D01*
X015879Y005559D01*
X015858Y005604D01*
X015841Y005651D01*
X015827Y005699D01*
X015817Y005748D01*
X015811Y005798D01*
X015809Y005848D01*
D11*
X013840Y005887D02*
X013840Y001006D01*
X019037Y001006D01*
X019037Y005887D01*
X013840Y005887D01*
X015848Y004470D02*
X015848Y002423D01*
X015258Y003446D02*
X015260Y003515D01*
X015266Y003583D01*
X015276Y003651D01*
X015290Y003718D01*
X015308Y003785D01*
X015329Y003850D01*
X015355Y003914D01*
X015384Y003976D01*
X015416Y004036D01*
X015452Y004095D01*
X015492Y004151D01*
X015534Y004205D01*
X015580Y004256D01*
X015629Y004305D01*
X015680Y004351D01*
X015734Y004393D01*
X015790Y004433D01*
X015848Y004469D01*
X015909Y004501D01*
X015971Y004530D01*
X016035Y004556D01*
X016100Y004577D01*
X016167Y004595D01*
X016234Y004609D01*
X016302Y004619D01*
X016370Y004625D01*
X016439Y004627D01*
X016508Y004625D01*
X016576Y004619D01*
X016644Y004609D01*
X016711Y004595D01*
X016778Y004577D01*
X016843Y004556D01*
X016907Y004530D01*
X016969Y004501D01*
X017029Y004469D01*
X017088Y004433D01*
X017144Y004393D01*
X017198Y004351D01*
X017249Y004305D01*
X017298Y004256D01*
X017344Y004205D01*
X017386Y004151D01*
X017426Y004095D01*
X017462Y004036D01*
X017494Y003976D01*
X017523Y003914D01*
X017549Y003850D01*
X017570Y003785D01*
X017588Y003718D01*
X017602Y003651D01*
X017612Y003583D01*
X017618Y003515D01*
X017620Y003446D01*
X017618Y003377D01*
X017612Y003309D01*
X017602Y003241D01*
X017588Y003174D01*
X017570Y003107D01*
X017549Y003042D01*
X017523Y002978D01*
X017494Y002916D01*
X017462Y002855D01*
X017426Y002797D01*
X017386Y002741D01*
X017344Y002687D01*
X017298Y002636D01*
X017249Y002587D01*
X017198Y002541D01*
X017144Y002499D01*
X017088Y002459D01*
X017030Y002423D01*
X016969Y002391D01*
X016907Y002362D01*
X016843Y002336D01*
X016778Y002315D01*
X016711Y002297D01*
X016644Y002283D01*
X016576Y002273D01*
X016508Y002267D01*
X016439Y002265D01*
X016370Y002267D01*
X016302Y002273D01*
X016234Y002283D01*
X016167Y002297D01*
X016100Y002315D01*
X016035Y002336D01*
X015971Y002362D01*
X015909Y002391D01*
X015848Y002423D01*
X015790Y002459D01*
X015734Y002499D01*
X015680Y002541D01*
X015629Y002587D01*
X015580Y002636D01*
X015534Y002687D01*
X015492Y002741D01*
X015452Y002797D01*
X015416Y002855D01*
X015384Y002916D01*
X015355Y002978D01*
X015329Y003042D01*
X015308Y003107D01*
X015290Y003174D01*
X015276Y003241D01*
X015266Y003309D01*
X015260Y003377D01*
X015258Y003446D01*
X003994Y003309D02*
X001797Y003309D01*
X001797Y000828D01*
X003994Y000828D01*
X003994Y003309D01*
X001793Y002069D02*
X001795Y002135D01*
X001801Y002201D01*
X001811Y002266D01*
X001824Y002330D01*
X001842Y002394D01*
X001863Y002456D01*
X001888Y002517D01*
X001917Y002577D01*
X001949Y002634D01*
X001984Y002690D01*
X002023Y002743D01*
X002065Y002794D01*
X002110Y002842D01*
X002158Y002888D01*
X002208Y002931D01*
X002261Y002970D01*
X002316Y003006D01*
X002373Y003039D01*
X002432Y003069D01*
X002492Y003095D01*
X002554Y003117D01*
X002618Y003136D01*
X002682Y003150D01*
X002747Y003161D01*
X002813Y003168D01*
X002879Y003171D01*
X002944Y003170D01*
X003010Y003165D01*
X003076Y003156D01*
X003140Y003143D01*
X003204Y003127D01*
X003267Y003106D01*
X003328Y003082D01*
X003388Y003055D01*
X003446Y003023D01*
X003502Y002989D01*
X003556Y002951D01*
X003608Y002910D01*
X003657Y002866D01*
X003703Y002819D01*
X003746Y002769D01*
X003787Y002717D01*
X003824Y002662D01*
X003857Y002606D01*
X003888Y002547D01*
X003915Y002487D01*
X003938Y002425D01*
X003957Y002362D01*
X003973Y002298D01*
X003985Y002233D01*
X003993Y002168D01*
X003997Y002102D01*
X003997Y002036D01*
X003993Y001970D01*
X003985Y001905D01*
X003973Y001840D01*
X003957Y001776D01*
X003938Y001713D01*
X003915Y001651D01*
X003888Y001591D01*
X003857Y001532D01*
X003824Y001476D01*
X003787Y001421D01*
X003746Y001369D01*
X003703Y001319D01*
X003657Y001272D01*
X003608Y001228D01*
X003556Y001187D01*
X003502Y001149D01*
X003446Y001115D01*
X003388Y001083D01*
X003328Y001056D01*
X003267Y001032D01*
X003204Y001011D01*
X003140Y000995D01*
X003076Y000982D01*
X003010Y000973D01*
X002944Y000968D01*
X002879Y000967D01*
X002813Y000970D01*
X002747Y000977D01*
X002682Y000988D01*
X002618Y001002D01*
X002554Y001021D01*
X002492Y001043D01*
X002432Y001069D01*
X002373Y001099D01*
X002316Y001132D01*
X002261Y001168D01*
X002208Y001207D01*
X002158Y001250D01*
X002110Y001296D01*
X002065Y001344D01*
X002023Y001395D01*
X001984Y001448D01*
X001949Y001504D01*
X001917Y001561D01*
X001888Y001621D01*
X001863Y001682D01*
X001842Y001744D01*
X001824Y001808D01*
X001811Y001872D01*
X001801Y001937D01*
X001795Y002003D01*
X001793Y002069D01*
X002395Y001069D02*
X003395Y001069D01*
X028883Y000828D02*
X031080Y000828D01*
X031080Y003309D01*
X028883Y003309D01*
X028883Y000828D01*
X029482Y001069D02*
X030482Y001069D01*
X028880Y002069D02*
X028882Y002135D01*
X028888Y002201D01*
X028898Y002266D01*
X028911Y002330D01*
X028929Y002394D01*
X028950Y002456D01*
X028975Y002517D01*
X029004Y002577D01*
X029036Y002634D01*
X029071Y002690D01*
X029110Y002743D01*
X029152Y002794D01*
X029197Y002842D01*
X029245Y002888D01*
X029295Y002931D01*
X029348Y002970D01*
X029403Y003006D01*
X029460Y003039D01*
X029519Y003069D01*
X029579Y003095D01*
X029641Y003117D01*
X029705Y003136D01*
X029769Y003150D01*
X029834Y003161D01*
X029900Y003168D01*
X029966Y003171D01*
X030031Y003170D01*
X030097Y003165D01*
X030163Y003156D01*
X030227Y003143D01*
X030291Y003127D01*
X030354Y003106D01*
X030415Y003082D01*
X030475Y003055D01*
X030533Y003023D01*
X030589Y002989D01*
X030643Y002951D01*
X030695Y002910D01*
X030744Y002866D01*
X030790Y002819D01*
X030833Y002769D01*
X030874Y002717D01*
X030911Y002662D01*
X030944Y002606D01*
X030975Y002547D01*
X031002Y002487D01*
X031025Y002425D01*
X031044Y002362D01*
X031060Y002298D01*
X031072Y002233D01*
X031080Y002168D01*
X031084Y002102D01*
X031084Y002036D01*
X031080Y001970D01*
X031072Y001905D01*
X031060Y001840D01*
X031044Y001776D01*
X031025Y001713D01*
X031002Y001651D01*
X030975Y001591D01*
X030944Y001532D01*
X030911Y001476D01*
X030874Y001421D01*
X030833Y001369D01*
X030790Y001319D01*
X030744Y001272D01*
X030695Y001228D01*
X030643Y001187D01*
X030589Y001149D01*
X030533Y001115D01*
X030475Y001083D01*
X030415Y001056D01*
X030354Y001032D01*
X030291Y001011D01*
X030227Y000995D01*
X030163Y000982D01*
X030097Y000973D01*
X030031Y000968D01*
X029966Y000967D01*
X029900Y000970D01*
X029834Y000977D01*
X029769Y000988D01*
X029705Y001002D01*
X029641Y001021D01*
X029579Y001043D01*
X029519Y001069D01*
X029460Y001099D01*
X029403Y001132D01*
X029348Y001168D01*
X029295Y001207D01*
X029245Y001250D01*
X029197Y001296D01*
X029152Y001344D01*
X029110Y001395D01*
X029071Y001448D01*
X029036Y001504D01*
X029004Y001561D01*
X028975Y001621D01*
X028950Y001682D01*
X028929Y001744D01*
X028911Y001808D01*
X028898Y001872D01*
X028888Y001937D01*
X028882Y002003D01*
X028880Y002069D01*
D12*
X028315Y002132D02*
X027855Y002132D01*
X027855Y001825D02*
X028315Y002132D01*
X028392Y002285D02*
X028392Y002592D01*
X028239Y002746D02*
X027932Y002746D01*
X027855Y002823D01*
X027855Y002976D01*
X027932Y003053D01*
X028239Y003053D01*
X028315Y002976D01*
X028315Y002823D01*
X028239Y002746D01*
X028315Y003206D02*
X027855Y003206D01*
X027855Y003513D01*
X028085Y003360D02*
X028085Y003206D01*
X028085Y003667D02*
X028085Y003820D01*
X027855Y003667D02*
X027855Y003974D01*
X027855Y003667D02*
X028315Y003667D01*
X028315Y001825D02*
X027855Y001825D01*
X027855Y001672D02*
X027855Y001365D01*
X027932Y001211D02*
X028009Y001211D01*
X028085Y001134D01*
X028085Y000904D01*
X027855Y000904D02*
X027855Y001134D01*
X027932Y001211D01*
X028085Y001134D02*
X028162Y001211D01*
X028239Y001211D01*
X028315Y001134D01*
X028315Y000904D01*
X027855Y000904D01*
X027855Y001518D02*
X028315Y001518D01*
X006072Y000836D02*
X005765Y000836D01*
X005765Y000375D01*
X006072Y000375D01*
X005612Y000452D02*
X005535Y000375D01*
X005305Y000375D01*
X005305Y000836D01*
X005535Y000836D01*
X005612Y000759D01*
X005612Y000452D01*
X005151Y000452D02*
X005075Y000375D01*
X004921Y000375D01*
X004844Y000452D01*
X004844Y000759D01*
X004921Y000836D01*
X005075Y000836D01*
X005151Y000759D01*
X005151Y000452D01*
X004691Y000375D02*
X004691Y000836D01*
X004537Y000682D01*
X004384Y000836D01*
X004384Y000375D01*
X004230Y000298D02*
X003924Y000298D01*
X003770Y000375D02*
X003770Y000836D01*
X003463Y000836D02*
X003770Y000375D01*
X003463Y000375D02*
X003463Y000836D01*
X003310Y000836D02*
X003003Y000836D01*
X003156Y000836D02*
X003156Y000375D01*
X002849Y000452D02*
X002773Y000375D01*
X002542Y000375D01*
X002542Y000836D01*
X002773Y000836D01*
X002849Y000759D01*
X002849Y000682D01*
X002773Y000605D01*
X002542Y000605D01*
X002773Y000605D02*
X002849Y000529D01*
X002849Y000452D01*
X005765Y000605D02*
X005919Y000605D01*
D13*
X007368Y001070D02*
X007618Y000820D01*
X008118Y000820D01*
X008368Y001070D01*
X008368Y001570D01*
X008118Y001820D01*
X007618Y001820D01*
X007368Y001570D01*
X007368Y001070D01*
X008368Y001070D02*
X008618Y000820D01*
X009118Y000820D01*
X009368Y001070D01*
X009368Y001570D01*
X009618Y001820D01*
X010118Y001820D01*
X010368Y001570D01*
X010618Y001820D01*
X011118Y001820D01*
X011368Y001570D01*
X011368Y001070D01*
X011118Y000820D01*
X010618Y000820D01*
X010368Y001070D01*
X010118Y000820D01*
X009618Y000820D01*
X009368Y001070D01*
X009368Y001570D01*
X009118Y001820D01*
X008618Y001820D01*
X008368Y001570D01*
X010368Y001570D02*
X010368Y001070D01*
X022919Y001070D02*
X023169Y000820D01*
X023669Y000820D01*
X023919Y001070D01*
X024169Y000820D01*
X024669Y000820D01*
X024919Y001070D01*
X025169Y000820D01*
X025669Y000820D01*
X025919Y001070D01*
X026169Y000820D01*
X026669Y000820D01*
X026919Y001070D01*
X026919Y001570D01*
X026669Y001820D01*
X026169Y001820D01*
X025919Y001570D01*
X025919Y001070D01*
X024919Y001070D02*
X024919Y001570D01*
X025169Y001820D01*
X025669Y001820D01*
X025919Y001570D01*
X024919Y001570D02*
X024919Y001070D01*
X023919Y001070D02*
X023919Y001570D01*
X024169Y001820D01*
X024669Y001820D01*
X024919Y001570D01*
X023919Y001570D02*
X023669Y001820D01*
X023169Y001820D01*
X022919Y001570D01*
X022919Y001070D01*
X028021Y005362D02*
X028271Y005112D01*
X028771Y005112D01*
X029021Y005362D01*
X029271Y005112D01*
X029771Y005112D01*
X030021Y005362D01*
X030021Y005862D01*
X029771Y006112D01*
X029271Y006112D01*
X029021Y005862D01*
X029021Y005362D01*
X028021Y005362D02*
X028021Y005862D01*
X028271Y006112D01*
X028771Y006112D01*
X029021Y005862D01*
X030021Y005862D02*
X030271Y006112D01*
X030771Y006112D01*
X031021Y005862D01*
X031271Y006112D01*
X031771Y006112D01*
X032021Y005862D01*
X032021Y005362D01*
X031771Y005112D01*
X031271Y005112D01*
X031021Y005362D01*
X030771Y005112D01*
X030271Y005112D01*
X030021Y005362D01*
X031021Y005362D02*
X031021Y005862D01*
X004856Y005862D02*
X004856Y005362D01*
X004606Y005112D01*
X004106Y005112D01*
X003856Y005362D01*
X003606Y005112D01*
X003106Y005112D01*
X002856Y005362D01*
X002606Y005112D01*
X002106Y005112D01*
X001856Y005362D01*
X001606Y005112D01*
X001106Y005112D01*
X000856Y005362D01*
X000856Y005862D01*
X001106Y006112D01*
X001606Y006112D01*
X001856Y005862D01*
X002106Y006112D01*
X002606Y006112D01*
X002856Y005862D01*
X002856Y005362D01*
X003856Y005362D02*
X003856Y005862D01*
X004106Y006112D01*
X004606Y006112D01*
X004856Y005862D01*
X003856Y005862D02*
X003606Y006112D01*
X003106Y006112D01*
X002856Y005862D01*
X001856Y005862D02*
X001856Y005362D01*
M02*
