G75*
%MOIN*%
%OFA0B0*%
%FSLAX24Y24*%
%IPPOS*%
%LPD*%
%AMOC8*
5,1,8,0,0,1.08239X$1,22.5*
%
%ADD10C,0.0000*%
%ADD11C,0.0600*%
%ADD12OC8,0.0720*%
%ADD13C,0.0740*%
%ADD14OC8,0.0740*%
%ADD15R,0.0760X0.0760*%
%ADD16C,0.0400*%
D10*
X008434Y000694D02*
X008434Y027465D01*
X036781Y027465D01*
X036781Y000694D01*
X008434Y000694D01*
D11*
X010815Y006363D02*
X011415Y006363D01*
X011415Y007363D02*
X010815Y007363D01*
X010815Y008363D02*
X011415Y008363D01*
X011415Y009363D02*
X010815Y009363D01*
X011677Y019182D02*
X012277Y019182D01*
X012277Y020182D02*
X011677Y020182D01*
X011677Y021182D02*
X012277Y021182D01*
X019988Y021556D02*
X020588Y021556D01*
X020588Y020556D02*
X019988Y020556D01*
X019988Y019556D02*
X020588Y019556D01*
X030575Y019729D02*
X031175Y019729D01*
X031175Y020698D02*
X030575Y020698D01*
X030575Y021698D02*
X031175Y021698D01*
X031175Y018729D02*
X030575Y018729D01*
X030575Y017761D02*
X031175Y017761D01*
X031175Y016761D02*
X030575Y016761D01*
X030575Y015666D02*
X031175Y015666D01*
X031175Y014666D02*
X030575Y014666D01*
D12*
X019875Y014444D03*
X019875Y015444D03*
X018875Y015444D03*
X018875Y014444D03*
X018875Y013444D03*
X019875Y013444D03*
X019875Y012444D03*
X018875Y012444D03*
X018875Y011444D03*
X019875Y011444D03*
D13*
X019938Y004694D03*
X020938Y004694D03*
X021938Y004694D03*
X022938Y004694D03*
X023938Y004694D03*
X025938Y004694D03*
X026938Y004694D03*
X027938Y004694D03*
X028938Y004694D03*
X029938Y004694D03*
X030938Y004694D03*
X031938Y004694D03*
X032938Y004694D03*
X033938Y006694D03*
X034938Y006694D03*
X018938Y004694D03*
X017938Y004694D03*
X016938Y004694D03*
X014938Y004694D03*
X013938Y004694D03*
X012938Y004694D03*
X011938Y004694D03*
X010938Y004694D03*
X009938Y004694D03*
X010338Y023694D03*
X011338Y023694D03*
X012338Y023694D03*
X013338Y023694D03*
X014938Y023694D03*
X015938Y023694D03*
X016938Y023694D03*
X017938Y023694D03*
X018938Y023694D03*
X019938Y023694D03*
X020938Y023694D03*
X021938Y023694D03*
X023938Y023694D03*
X024938Y023694D03*
X025938Y023694D03*
X026938Y023694D03*
X027938Y023694D03*
X028938Y023694D03*
X029938Y023694D03*
X030938Y023694D03*
X033938Y023694D03*
X034938Y023694D03*
D14*
X034938Y022694D03*
X033938Y022694D03*
X033938Y021694D03*
X034938Y021694D03*
X034938Y020694D03*
X033938Y020694D03*
X033938Y019694D03*
X034938Y019694D03*
X034938Y018694D03*
X033938Y018694D03*
X033938Y017694D03*
X034938Y017694D03*
X034938Y016694D03*
X033938Y016694D03*
X033938Y015694D03*
X034938Y015694D03*
X034938Y014694D03*
X033938Y014694D03*
X033938Y013694D03*
X034938Y013694D03*
X034938Y012694D03*
X033938Y012694D03*
X033938Y011694D03*
X034938Y011694D03*
X034938Y010694D03*
X033938Y010694D03*
X033938Y009694D03*
X034938Y009694D03*
X034938Y008694D03*
X033938Y008694D03*
X033938Y007694D03*
X034938Y007694D03*
D15*
X030966Y008765D03*
X031950Y010749D03*
X027607Y007426D03*
X025363Y011717D03*
X019458Y017623D03*
X015127Y016835D03*
X012765Y025497D03*
D16*
X021820Y025497D01*
X021820Y024597D02*
X021857Y024594D01*
X021927Y024575D01*
X021948Y024564D01*
X021765Y024564D01*
X021445Y024431D01*
X021438Y024424D01*
X021431Y024431D01*
X021111Y024564D01*
X020765Y024564D01*
X020445Y024431D01*
X020438Y024424D01*
X020431Y024431D01*
X020111Y024564D01*
X019765Y024564D01*
X019445Y024431D01*
X019438Y024424D01*
X019431Y024431D01*
X019111Y024564D01*
X018765Y024564D01*
X018445Y024431D01*
X018438Y024424D01*
X018431Y024431D01*
X018111Y024564D01*
X017765Y024564D01*
X017445Y024431D01*
X017438Y024424D01*
X017431Y024431D01*
X017111Y024564D01*
X016765Y024564D01*
X016445Y024431D01*
X016438Y024424D01*
X016431Y024431D01*
X016111Y024564D01*
X015765Y024564D01*
X015445Y024431D01*
X015438Y024424D01*
X015431Y024431D01*
X015111Y024564D01*
X014765Y024564D01*
X014445Y024431D01*
X014200Y024187D01*
X014138Y024036D01*
X014076Y024187D01*
X013831Y024431D01*
X013511Y024564D01*
X013165Y024564D01*
X012845Y024431D01*
X012838Y024424D01*
X012831Y024431D01*
X012511Y024564D01*
X012165Y024564D01*
X011845Y024431D01*
X011838Y024424D01*
X011831Y024431D01*
X011511Y024564D01*
X011165Y024564D01*
X010845Y024431D01*
X010838Y024424D01*
X010831Y024431D01*
X010511Y024564D01*
X010165Y024564D01*
X009845Y024431D01*
X009600Y024187D01*
X009468Y023867D01*
X009468Y023521D01*
X009600Y023201D01*
X009845Y022956D01*
X010165Y022824D01*
X010511Y022824D01*
X010831Y022956D01*
X010838Y022963D01*
X010845Y022956D01*
X011165Y022824D01*
X011511Y022824D01*
X011831Y022956D01*
X011838Y022963D01*
X011845Y022956D01*
X012165Y022824D01*
X012511Y022824D01*
X012831Y022956D01*
X012838Y022963D01*
X012845Y022956D01*
X013165Y022824D01*
X013511Y022824D01*
X013831Y022956D01*
X014076Y023201D01*
X014138Y023352D01*
X014200Y023201D01*
X014445Y022956D01*
X014765Y022824D01*
X015111Y022824D01*
X015431Y022956D01*
X015438Y022963D01*
X015445Y022956D01*
X015765Y022824D01*
X016111Y022824D01*
X016431Y022956D01*
X016438Y022963D01*
X016445Y022956D01*
X016765Y022824D01*
X017111Y022824D01*
X017431Y022956D01*
X017438Y022963D01*
X017445Y022956D01*
X017765Y022824D01*
X018111Y022824D01*
X018431Y022956D01*
X018438Y022963D01*
X018445Y022956D01*
X018765Y022824D01*
X019111Y022824D01*
X019431Y022956D01*
X019438Y022963D01*
X019445Y022956D01*
X019765Y022824D01*
X020111Y022824D01*
X020431Y022956D01*
X020438Y022963D01*
X020445Y022956D01*
X020765Y022824D01*
X021111Y022824D01*
X021431Y022956D01*
X021438Y022963D01*
X021445Y022956D01*
X021765Y022824D01*
X022101Y022824D01*
X022101Y022510D01*
X022097Y022452D01*
X022067Y022340D01*
X022009Y022240D01*
X021971Y022196D01*
X021883Y022108D01*
X021844Y022070D01*
X021633Y021859D01*
X021560Y021786D01*
X021388Y021528D01*
X021388Y021715D01*
X021267Y022009D01*
X021042Y022234D01*
X020748Y022356D01*
X019829Y022356D01*
X019535Y022234D01*
X019310Y022009D01*
X019188Y021715D01*
X019188Y021397D01*
X019310Y021103D01*
X019357Y021056D01*
X019310Y021009D01*
X019188Y020715D01*
X019188Y020397D01*
X019310Y020103D01*
X019357Y020056D01*
X019310Y020009D01*
X019188Y019715D01*
X019188Y019397D01*
X019310Y019103D01*
X019535Y018878D01*
X019829Y018756D01*
X020748Y018756D01*
X020920Y018827D01*
X020920Y016389D01*
X020913Y016272D01*
X020861Y016043D01*
X020760Y015833D01*
X020734Y015801D01*
X020720Y015815D01*
X020338Y017813D01*
X020338Y018102D01*
X020262Y018286D01*
X020121Y018427D01*
X019937Y018503D01*
X019646Y018503D01*
X019464Y018540D01*
X019268Y018503D01*
X018978Y018503D01*
X018794Y018427D01*
X018654Y018286D01*
X018578Y018102D01*
X018578Y017812D01*
X018540Y017629D01*
X018571Y017465D01*
X018249Y017621D01*
X017747Y017735D01*
X014948Y017735D01*
X014900Y017715D01*
X014648Y017715D01*
X014464Y017639D01*
X014323Y017499D01*
X014247Y017315D01*
X014247Y017063D01*
X014227Y017014D01*
X014227Y016656D01*
X014247Y016608D01*
X014247Y016356D01*
X014323Y016172D01*
X014464Y016032D01*
X014648Y015955D01*
X014900Y015955D01*
X014948Y015935D01*
X017489Y015935D01*
X017544Y015932D01*
X017650Y015908D01*
X017748Y015861D01*
X017833Y015793D01*
X017901Y015708D01*
X017947Y015613D01*
X017632Y015638D01*
X017632Y015638D01*
X016954Y015565D01*
X016302Y015366D01*
X015700Y015048D01*
X015700Y015048D01*
X015167Y014622D01*
X014724Y014104D01*
X014386Y013513D01*
X014386Y013513D01*
X014334Y013360D01*
X014334Y013360D01*
X014308Y013285D01*
X014276Y013190D01*
X014218Y013021D01*
X014133Y012776D01*
X013996Y011909D01*
X014009Y011032D01*
X014173Y010171D01*
X014483Y009350D01*
X014929Y008595D01*
X015499Y007928D01*
X016175Y007369D01*
X016936Y006935D01*
X016936Y006935D01*
X017761Y006637D01*
X017761Y006637D01*
X018625Y006487D01*
X018887Y006487D01*
X018889Y006486D01*
X019066Y006487D01*
X019243Y006487D01*
X019245Y006487D01*
X027790Y006527D01*
X027836Y006546D01*
X028087Y006546D01*
X028271Y006622D01*
X028411Y006763D01*
X028487Y006947D01*
X028487Y007200D01*
X028508Y007251D01*
X028506Y007609D01*
X028487Y007655D01*
X028487Y007905D01*
X028411Y008089D01*
X028271Y008230D01*
X028087Y008306D01*
X028081Y008306D01*
X028290Y008413D01*
X028290Y008413D01*
X028386Y008483D01*
X028386Y008483D01*
X028483Y008554D01*
X028531Y008588D01*
X028631Y008654D01*
X028848Y008752D01*
X029081Y008805D01*
X029319Y008810D01*
X029554Y008766D01*
X029774Y008676D01*
X029973Y008543D01*
X030086Y008428D01*
X030086Y008285D01*
X030162Y008101D01*
X030302Y007961D01*
X030486Y007885D01*
X030777Y007885D01*
X030951Y007847D01*
X031157Y007885D01*
X031445Y007885D01*
X031629Y007961D01*
X031769Y008101D01*
X031846Y008285D01*
X031846Y008576D01*
X031883Y008750D01*
X031846Y008956D01*
X031846Y009244D01*
X031769Y009428D01*
X031629Y009568D01*
X031445Y009645D01*
X031422Y009645D01*
X031131Y009941D01*
X030627Y010279D01*
X030306Y010410D01*
X030731Y010319D01*
X031112Y010166D01*
X031146Y010086D01*
X031287Y009945D01*
X031470Y009869D01*
X031753Y009869D01*
X031984Y009832D01*
X032139Y009869D01*
X032429Y009869D01*
X032613Y009945D01*
X032754Y010086D01*
X032830Y010269D01*
X032830Y010552D01*
X032867Y010783D01*
X032830Y010938D01*
X032830Y011228D01*
X032754Y011412D01*
X032613Y011553D01*
X032429Y011629D01*
X032237Y011629D01*
X032056Y011740D01*
X031261Y012058D01*
X031261Y012058D01*
X030422Y012237D01*
X029566Y012271D01*
X029566Y012271D01*
X028716Y012159D01*
X028716Y012159D01*
X027898Y011904D01*
X027135Y011513D01*
X026935Y011364D01*
X026935Y011364D01*
X026792Y011256D01*
X026697Y011193D01*
X026488Y011097D01*
X026265Y011049D01*
X026156Y011043D01*
X026167Y011054D01*
X026243Y011238D01*
X026243Y011490D01*
X026263Y011538D01*
X026263Y011896D01*
X026243Y011945D01*
X026243Y012197D01*
X026167Y012381D01*
X026026Y012521D01*
X025843Y012597D01*
X025590Y012597D01*
X025542Y012617D01*
X022717Y012617D01*
X022704Y012762D01*
X022518Y013269D01*
X022518Y013269D01*
X022206Y013711D01*
X021791Y014057D01*
X021616Y014138D01*
X021899Y014364D01*
X021899Y014364D01*
X022299Y014865D01*
X022577Y015443D01*
X022720Y016068D01*
X022720Y019957D01*
X022725Y020062D01*
X022766Y020267D01*
X022846Y020461D01*
X022962Y020635D01*
X023033Y020713D01*
X023117Y020797D01*
X023156Y020835D01*
X023370Y021050D01*
X023453Y021132D01*
X023748Y021644D01*
X023748Y021644D01*
X023901Y022215D01*
X023901Y022824D01*
X024111Y022824D01*
X024431Y022956D01*
X024438Y022963D01*
X024445Y022956D01*
X024765Y022824D01*
X025111Y022824D01*
X025431Y022956D01*
X025438Y022963D01*
X025445Y022956D01*
X025765Y022824D01*
X026111Y022824D01*
X026431Y022956D01*
X026438Y022963D01*
X026445Y022956D01*
X026765Y022824D01*
X027111Y022824D01*
X027431Y022956D01*
X027438Y022963D01*
X027445Y022956D01*
X027765Y022824D01*
X028111Y022824D01*
X028431Y022956D01*
X028438Y022963D01*
X028445Y022956D01*
X028765Y022824D01*
X029111Y022824D01*
X029431Y022956D01*
X029438Y022963D01*
X029445Y022956D01*
X029765Y022824D01*
X030111Y022824D01*
X030431Y022956D01*
X030438Y022963D01*
X030445Y022956D01*
X030765Y022824D01*
X031111Y022824D01*
X031431Y022956D01*
X031676Y023201D01*
X031808Y023521D01*
X031808Y023867D01*
X031676Y024187D01*
X031431Y024431D01*
X031111Y024564D01*
X030765Y024564D01*
X030445Y024431D01*
X030438Y024424D01*
X030431Y024431D01*
X030111Y024564D01*
X029765Y024564D01*
X029445Y024431D01*
X029438Y024424D01*
X029431Y024431D01*
X029111Y024564D01*
X028765Y024564D01*
X028445Y024431D01*
X028438Y024424D01*
X028431Y024431D01*
X028111Y024564D01*
X027765Y024564D01*
X027445Y024431D01*
X027438Y024424D01*
X027431Y024431D01*
X027111Y024564D01*
X026765Y024564D01*
X026445Y024431D01*
X026438Y024424D01*
X026431Y024431D01*
X026111Y024564D01*
X025765Y024564D01*
X025445Y024431D01*
X025438Y024424D01*
X025431Y024431D01*
X025111Y024564D01*
X024765Y024564D01*
X024445Y024431D01*
X024438Y024424D01*
X024431Y024431D01*
X024111Y024564D01*
X023901Y024564D01*
X023901Y024590D01*
X023759Y025119D01*
X023485Y025594D01*
X023098Y025981D01*
X023098Y025981D01*
X022623Y026255D01*
X022094Y026397D01*
X012586Y026397D01*
X012537Y026377D01*
X012285Y026377D01*
X012102Y026301D01*
X011961Y026160D01*
X011885Y025976D01*
X011885Y025724D01*
X011865Y025676D01*
X011865Y025318D01*
X011885Y025270D01*
X011885Y025017D01*
X011961Y024834D01*
X012102Y024693D01*
X012285Y024617D01*
X012537Y024617D01*
X012586Y024597D01*
X021820Y024597D01*
X021820Y025497D02*
X021886Y025495D01*
X021952Y025490D01*
X022018Y025480D01*
X022083Y025467D01*
X022147Y025451D01*
X022210Y025431D01*
X022272Y025407D01*
X022332Y025380D01*
X022391Y025350D01*
X022448Y025316D01*
X022503Y025279D01*
X022556Y025239D01*
X022607Y025197D01*
X022655Y025151D01*
X022701Y025103D01*
X022743Y025052D01*
X022783Y024999D01*
X022820Y024944D01*
X022854Y024887D01*
X022884Y024828D01*
X022911Y024768D01*
X022935Y024706D01*
X022955Y024643D01*
X022971Y024579D01*
X022984Y024514D01*
X022994Y024448D01*
X022999Y024382D01*
X023001Y024316D01*
X023001Y022510D01*
X023901Y022611D02*
X033068Y022611D01*
X033068Y022333D02*
X033208Y022194D01*
X033068Y022054D01*
X033068Y021333D01*
X033208Y021194D01*
X033068Y021054D01*
X033068Y020333D01*
X033208Y020194D01*
X033068Y020054D01*
X033068Y019333D01*
X033208Y019194D01*
X033068Y019054D01*
X033068Y018333D01*
X033208Y018194D01*
X033068Y018054D01*
X033068Y017333D01*
X033208Y017194D01*
X033068Y017054D01*
X033068Y016333D01*
X033208Y016194D01*
X033068Y016054D01*
X033068Y015333D01*
X033208Y015194D01*
X033068Y015054D01*
X033068Y014333D01*
X033208Y014194D01*
X033068Y014054D01*
X033068Y013333D01*
X033208Y013194D01*
X033068Y013054D01*
X033068Y012333D01*
X033208Y012194D01*
X033068Y012054D01*
X033068Y011333D01*
X033208Y011194D01*
X033068Y011054D01*
X033068Y010333D01*
X033208Y010194D01*
X033068Y010054D01*
X033068Y009333D01*
X033208Y009194D01*
X033068Y009054D01*
X033068Y008333D01*
X033208Y008194D01*
X033068Y008054D01*
X033068Y007333D01*
X033208Y007194D01*
X033200Y007187D01*
X033068Y006867D01*
X033068Y006521D01*
X033200Y006201D01*
X033445Y005956D01*
X033765Y005824D01*
X034111Y005824D01*
X034431Y005956D01*
X034438Y005963D01*
X034445Y005956D01*
X034765Y005824D01*
X035111Y005824D01*
X035431Y005956D01*
X035676Y006201D01*
X035808Y006521D01*
X035808Y006867D01*
X035676Y007187D01*
X035668Y007194D01*
X035808Y007333D01*
X035808Y008054D01*
X035668Y008194D01*
X035808Y008333D01*
X035808Y009054D01*
X035668Y009194D01*
X035808Y009333D01*
X035808Y010054D01*
X035668Y010194D01*
X035808Y010333D01*
X035808Y011054D01*
X035668Y011194D01*
X035808Y011333D01*
X035808Y012054D01*
X035668Y012194D01*
X035808Y012333D01*
X035808Y013054D01*
X035668Y013194D01*
X035808Y013333D01*
X035808Y014054D01*
X035668Y014194D01*
X035808Y014333D01*
X035808Y015054D01*
X035668Y015194D01*
X035808Y015333D01*
X035808Y016054D01*
X035668Y016194D01*
X035808Y016333D01*
X035808Y017054D01*
X035668Y017194D01*
X035808Y017333D01*
X035808Y018054D01*
X035668Y018194D01*
X035808Y018333D01*
X035808Y019054D01*
X035668Y019194D01*
X035808Y019333D01*
X035808Y020054D01*
X035668Y020194D01*
X035808Y020333D01*
X035808Y021054D01*
X035668Y021194D01*
X035808Y021333D01*
X035808Y022054D01*
X035668Y022194D01*
X035808Y022333D01*
X035808Y023054D01*
X035668Y023194D01*
X035676Y023201D01*
X035808Y023521D01*
X035808Y023867D01*
X035676Y024187D01*
X035431Y024431D01*
X035111Y024564D01*
X034765Y024564D01*
X034445Y024431D01*
X034438Y024424D01*
X034431Y024431D01*
X034111Y024564D01*
X033765Y024564D01*
X033445Y024431D01*
X033200Y024187D01*
X033068Y023867D01*
X033068Y023521D01*
X033200Y023201D01*
X033208Y023194D01*
X033068Y023054D01*
X033068Y022333D01*
X033189Y022213D02*
X031791Y022213D01*
X031853Y022151D02*
X031628Y022376D01*
X031334Y022498D01*
X030416Y022498D01*
X030122Y022376D01*
X029897Y022151D01*
X029775Y021857D01*
X029775Y021539D01*
X029897Y021244D01*
X029944Y021198D01*
X029897Y021151D01*
X029775Y020857D01*
X029775Y020539D01*
X029897Y020244D01*
X029928Y020213D01*
X029897Y020182D01*
X029775Y019888D01*
X029775Y019570D01*
X029897Y019276D01*
X029944Y019229D01*
X029897Y019182D01*
X029775Y018888D01*
X029775Y018570D01*
X029897Y018276D01*
X029928Y018245D01*
X029897Y018214D01*
X029775Y017920D01*
X029775Y017601D01*
X029897Y017307D01*
X029944Y017261D01*
X029897Y017214D01*
X029775Y016920D01*
X029775Y016601D01*
X029897Y016307D01*
X029991Y016213D01*
X029897Y016119D01*
X029775Y015825D01*
X029775Y015507D01*
X029897Y015213D01*
X029944Y015166D01*
X029897Y015119D01*
X029775Y014825D01*
X029775Y014507D01*
X029897Y014213D01*
X030122Y013988D01*
X030416Y013866D01*
X031334Y013866D01*
X031628Y013988D01*
X031853Y014213D01*
X031975Y014507D01*
X031975Y014825D01*
X031853Y015119D01*
X031806Y015166D01*
X031853Y015213D01*
X031975Y015507D01*
X031975Y015825D01*
X031853Y016119D01*
X031759Y016213D01*
X031853Y016307D01*
X031975Y016601D01*
X031975Y016920D01*
X031853Y017214D01*
X031806Y017261D01*
X031853Y017307D01*
X031975Y017601D01*
X031975Y017920D01*
X031853Y018214D01*
X031822Y018245D01*
X031853Y018276D01*
X031975Y018570D01*
X031975Y018888D01*
X031853Y019182D01*
X031806Y019229D01*
X031853Y019276D01*
X031975Y019570D01*
X031975Y019888D01*
X031853Y020182D01*
X031822Y020213D01*
X031853Y020244D01*
X031975Y020539D01*
X031975Y020857D01*
X031853Y021151D01*
X031806Y021198D01*
X031853Y021244D01*
X031975Y021539D01*
X031975Y021857D01*
X031853Y022151D01*
X031975Y021814D02*
X033068Y021814D01*
X033068Y021416D02*
X031924Y021416D01*
X031909Y021017D02*
X033068Y021017D01*
X033068Y020619D02*
X031975Y020619D01*
X031829Y020220D02*
X033181Y020220D01*
X033068Y019822D02*
X031975Y019822D01*
X031914Y019423D02*
X033068Y019423D01*
X033068Y019025D02*
X031918Y019025D01*
X031975Y018626D02*
X033068Y018626D01*
X033174Y018228D02*
X031839Y018228D01*
X031975Y017829D02*
X033068Y017829D01*
X033068Y017431D02*
X031904Y017431D01*
X031928Y017032D02*
X033068Y017032D01*
X033068Y016634D02*
X031975Y016634D01*
X031781Y016235D02*
X033166Y016235D01*
X033068Y015837D02*
X031970Y015837D01*
X031946Y015438D02*
X033068Y015438D01*
X033068Y015040D02*
X031886Y015040D01*
X031975Y014641D02*
X033068Y014641D01*
X033159Y014243D02*
X031866Y014243D01*
X033068Y013844D02*
X022047Y013844D01*
X022206Y013711D02*
X022206Y013711D01*
X022393Y013446D02*
X033068Y013446D01*
X033068Y013047D02*
X022599Y013047D01*
X022704Y012762D02*
X022704Y012762D01*
X022714Y012649D02*
X033068Y012649D01*
X033151Y012250D02*
X030093Y012250D01*
X030422Y012237D02*
X030422Y012237D01*
X029409Y012250D02*
X026221Y012250D01*
X027332Y010536D02*
X027264Y010487D01*
X027193Y010440D01*
X027120Y010397D01*
X027046Y010357D01*
X026970Y010320D01*
X026892Y010287D01*
X026814Y010257D01*
X026733Y010230D01*
X026652Y010207D01*
X026570Y010187D01*
X026487Y010171D01*
X026404Y010158D01*
X026320Y010149D01*
X026235Y010144D01*
X026151Y010142D01*
X026151Y010143D02*
X018670Y010143D01*
X018604Y010145D01*
X018538Y010150D01*
X018472Y010160D01*
X018407Y010173D01*
X018343Y010189D01*
X018280Y010209D01*
X018218Y010233D01*
X018158Y010260D01*
X018099Y010290D01*
X018042Y010324D01*
X017987Y010361D01*
X017934Y010401D01*
X017883Y010443D01*
X017835Y010489D01*
X017789Y010537D01*
X017747Y010588D01*
X017707Y010641D01*
X017670Y010696D01*
X017636Y010753D01*
X017606Y010812D01*
X017579Y010872D01*
X017555Y010934D01*
X017535Y010997D01*
X017519Y011061D01*
X017506Y011126D01*
X017496Y011192D01*
X017491Y011258D01*
X017489Y011324D01*
X017489Y011717D01*
X015127Y012898D02*
X015162Y012994D01*
X015200Y013088D01*
X015242Y013181D01*
X015288Y013272D01*
X015336Y013362D01*
X015389Y013449D01*
X015444Y013535D01*
X015503Y013618D01*
X015565Y013699D01*
X015629Y013778D01*
X015697Y013854D01*
X015768Y013928D01*
X015841Y013998D01*
X015917Y014066D01*
X015995Y014131D01*
X016076Y014194D01*
X016159Y014253D01*
X016244Y014308D01*
X016331Y014361D01*
X016421Y014410D01*
X016512Y014456D01*
X016604Y014498D01*
X016699Y014537D01*
X016794Y014572D01*
X016891Y014604D01*
X016989Y014632D01*
X017088Y014656D01*
X017188Y014677D01*
X017288Y014693D01*
X017389Y014706D01*
X017491Y014715D01*
X017593Y014721D01*
X017694Y014722D01*
X017796Y014719D01*
X017898Y014713D01*
X017999Y014703D01*
X018100Y014689D01*
X018201Y014671D01*
X018300Y014650D01*
X018399Y014624D01*
X018497Y014596D01*
X018593Y014563D01*
X018688Y014527D01*
X018782Y014487D01*
X018874Y014443D01*
X018875Y015444D02*
X018875Y015450D01*
X019875Y015444D02*
X019458Y017623D01*
X018578Y017829D02*
X009034Y017829D01*
X009034Y018228D02*
X018630Y018228D01*
X018249Y017621D02*
X018249Y017621D01*
X017489Y016835D02*
X015127Y016835D01*
X014295Y017431D02*
X009034Y017431D01*
X009034Y017032D02*
X014234Y017032D01*
X014236Y016634D02*
X009034Y016634D01*
X009034Y016235D02*
X014297Y016235D01*
X015690Y015040D02*
X009034Y015040D01*
X009034Y015438D02*
X016540Y015438D01*
X016302Y015366D02*
X016302Y015366D01*
X016954Y015565D02*
X016954Y015565D01*
X017489Y016836D02*
X017562Y016834D01*
X017634Y016828D01*
X017706Y016819D01*
X017777Y016806D01*
X017848Y016789D01*
X017917Y016768D01*
X017986Y016744D01*
X018053Y016716D01*
X018118Y016685D01*
X018182Y016650D01*
X018244Y016612D01*
X018304Y016571D01*
X018361Y016527D01*
X018416Y016480D01*
X018469Y016430D01*
X018519Y016377D01*
X018566Y016322D01*
X018610Y016265D01*
X018651Y016205D01*
X018689Y016143D01*
X018724Y016079D01*
X018755Y016014D01*
X018783Y015947D01*
X018807Y015878D01*
X018828Y015809D01*
X018845Y015738D01*
X018858Y015667D01*
X018867Y015595D01*
X018873Y015523D01*
X018875Y015450D01*
X017778Y015837D02*
X009034Y015837D01*
X009034Y014641D02*
X015191Y014641D01*
X015167Y014622D02*
X015167Y014622D01*
X015167Y014622D01*
X014843Y014243D02*
X009034Y014243D01*
X009034Y013844D02*
X014576Y013844D01*
X014724Y014104D02*
X014724Y014104D01*
X014363Y013446D02*
X009034Y013446D01*
X009034Y013047D02*
X014227Y013047D01*
X014133Y012776D02*
X014133Y012776D01*
X014113Y012649D02*
X009034Y012649D01*
X009034Y012250D02*
X014050Y012250D01*
X013996Y011909D02*
X013996Y011909D01*
X013997Y011852D02*
X009034Y011852D01*
X009034Y011453D02*
X014003Y011453D01*
X014009Y011055D02*
X009034Y011055D01*
X009034Y010656D02*
X014081Y010656D01*
X014157Y010258D02*
X009034Y010258D01*
X009034Y009859D02*
X010180Y009859D01*
X010137Y009816D02*
X010362Y010041D01*
X010656Y010163D01*
X011574Y010163D01*
X011868Y010041D01*
X012093Y009816D01*
X012215Y009522D01*
X012215Y009204D01*
X012093Y008910D01*
X012047Y008863D01*
X012093Y008816D01*
X012215Y008522D01*
X012215Y008204D01*
X012093Y007910D01*
X012047Y007863D01*
X012093Y007816D01*
X012215Y007522D01*
X012215Y007204D01*
X012093Y006910D01*
X012047Y006863D01*
X012093Y006816D01*
X012215Y006522D01*
X012215Y006204D01*
X012093Y005910D01*
X011868Y005685D01*
X011574Y005563D01*
X011113Y005563D01*
X011431Y005431D01*
X011438Y005424D01*
X011445Y005431D01*
X011765Y005564D01*
X012111Y005564D01*
X012431Y005431D01*
X012438Y005424D01*
X012445Y005431D01*
X012765Y005564D01*
X013111Y005564D01*
X013431Y005431D01*
X013438Y005424D01*
X013445Y005431D01*
X013765Y005564D01*
X014111Y005564D01*
X014431Y005431D01*
X014438Y005424D01*
X014445Y005431D01*
X014765Y005564D01*
X015111Y005564D01*
X015431Y005431D01*
X015676Y005187D01*
X015808Y004867D01*
X015808Y004521D01*
X015676Y004201D01*
X015431Y003956D01*
X015111Y003824D01*
X014765Y003824D01*
X014445Y003956D01*
X014438Y003963D01*
X014431Y003956D01*
X014111Y003824D01*
X013765Y003824D01*
X013445Y003956D01*
X013438Y003963D01*
X013431Y003956D01*
X013111Y003824D01*
X012765Y003824D01*
X012445Y003956D01*
X012438Y003963D01*
X012431Y003956D01*
X012111Y003824D01*
X011765Y003824D01*
X011445Y003956D01*
X011438Y003963D01*
X011431Y003956D01*
X011111Y003824D01*
X010765Y003824D01*
X010445Y003956D01*
X010438Y003963D01*
X010431Y003956D01*
X010111Y003824D01*
X009765Y003824D01*
X009445Y003956D01*
X009200Y004201D01*
X009068Y004521D01*
X009068Y004867D01*
X009200Y005187D01*
X009445Y005431D01*
X009765Y005564D01*
X010111Y005564D01*
X010431Y005431D01*
X010438Y005424D01*
X010445Y005431D01*
X010763Y005563D01*
X010656Y005563D01*
X010362Y005685D01*
X010137Y005910D01*
X010015Y006204D01*
X010015Y006522D01*
X010137Y006816D01*
X010184Y006863D01*
X010137Y006910D01*
X010015Y007204D01*
X010015Y007522D01*
X010137Y007816D01*
X010184Y007863D01*
X010137Y007910D01*
X010015Y008204D01*
X010015Y008522D01*
X010137Y008816D01*
X010184Y008863D01*
X010137Y008910D01*
X010015Y009204D01*
X010015Y009522D01*
X010137Y009816D01*
X010015Y009461D02*
X009034Y009461D01*
X009034Y009062D02*
X010074Y009062D01*
X010074Y008664D02*
X009034Y008664D01*
X009034Y008265D02*
X010015Y008265D01*
X010180Y007867D02*
X009034Y007867D01*
X009034Y007468D02*
X010015Y007468D01*
X010071Y007070D02*
X009034Y007070D01*
X009034Y006671D02*
X010077Y006671D01*
X010015Y006273D02*
X009034Y006273D01*
X009034Y005874D02*
X010173Y005874D01*
X010323Y005476D02*
X010552Y005476D01*
X011323Y005476D02*
X011552Y005476D01*
X012058Y005874D02*
X033643Y005874D01*
X033431Y005431D02*
X033111Y005564D01*
X032765Y005564D01*
X032445Y005431D01*
X032438Y005424D01*
X032431Y005431D01*
X032111Y005564D01*
X031765Y005564D01*
X031445Y005431D01*
X031438Y005424D01*
X031431Y005431D01*
X031111Y005564D01*
X030765Y005564D01*
X030445Y005431D01*
X030438Y005424D01*
X030431Y005431D01*
X030111Y005564D01*
X029765Y005564D01*
X029445Y005431D01*
X029438Y005424D01*
X029431Y005431D01*
X029111Y005564D01*
X028765Y005564D01*
X028445Y005431D01*
X028438Y005424D01*
X028431Y005431D01*
X028111Y005564D01*
X027765Y005564D01*
X027445Y005431D01*
X027438Y005424D01*
X027431Y005431D01*
X027111Y005564D01*
X026765Y005564D01*
X026445Y005431D01*
X026438Y005424D01*
X026431Y005431D01*
X026111Y005564D01*
X025765Y005564D01*
X025445Y005431D01*
X025200Y005187D01*
X025068Y004867D01*
X025068Y004521D01*
X025200Y004201D01*
X025445Y003956D01*
X025765Y003824D01*
X026111Y003824D01*
X026431Y003956D01*
X026438Y003963D01*
X026445Y003956D01*
X026765Y003824D01*
X027111Y003824D01*
X027431Y003956D01*
X027438Y003963D01*
X027445Y003956D01*
X027765Y003824D01*
X028111Y003824D01*
X028431Y003956D01*
X028438Y003963D01*
X028445Y003956D01*
X028765Y003824D01*
X029111Y003824D01*
X029431Y003956D01*
X029438Y003963D01*
X029445Y003956D01*
X029765Y003824D01*
X030111Y003824D01*
X030431Y003956D01*
X030438Y003963D01*
X030445Y003956D01*
X030765Y003824D01*
X031111Y003824D01*
X031431Y003956D01*
X031438Y003963D01*
X031445Y003956D01*
X031765Y003824D01*
X032111Y003824D01*
X032431Y003956D01*
X032438Y003963D01*
X032445Y003956D01*
X032765Y003824D01*
X033111Y003824D01*
X033431Y003956D01*
X033676Y004201D01*
X033808Y004521D01*
X033808Y004867D01*
X033676Y005187D01*
X033431Y005431D01*
X033323Y005476D02*
X036181Y005476D01*
X036181Y005874D02*
X035233Y005874D01*
X034643Y005874D02*
X034233Y005874D01*
X033721Y005077D02*
X036181Y005077D01*
X036181Y004679D02*
X033808Y004679D01*
X033708Y004280D02*
X036181Y004280D01*
X036181Y003882D02*
X033251Y003882D01*
X032625Y003882D02*
X032251Y003882D01*
X031625Y003882D02*
X031251Y003882D01*
X030625Y003882D02*
X030251Y003882D01*
X029625Y003882D02*
X029251Y003882D01*
X028625Y003882D02*
X028251Y003882D01*
X027625Y003882D02*
X027251Y003882D01*
X026625Y003882D02*
X026251Y003882D01*
X025625Y003882D02*
X024251Y003882D01*
X024111Y003824D02*
X024431Y003956D01*
X024676Y004201D01*
X024808Y004521D01*
X024808Y004867D01*
X024676Y005187D01*
X024431Y005431D01*
X024111Y005564D01*
X023765Y005564D01*
X023445Y005431D01*
X023438Y005424D01*
X023431Y005431D01*
X023111Y005564D01*
X022765Y005564D01*
X022445Y005431D01*
X022438Y005424D01*
X022431Y005431D01*
X022111Y005564D01*
X021765Y005564D01*
X021445Y005431D01*
X021438Y005424D01*
X021431Y005431D01*
X021111Y005564D01*
X020765Y005564D01*
X020445Y005431D01*
X020438Y005424D01*
X020431Y005431D01*
X020111Y005564D01*
X019765Y005564D01*
X019445Y005431D01*
X019438Y005424D01*
X019431Y005431D01*
X019111Y005564D01*
X018765Y005564D01*
X018445Y005431D01*
X018438Y005424D01*
X018431Y005431D01*
X018111Y005564D01*
X017765Y005564D01*
X017445Y005431D01*
X017438Y005424D01*
X017431Y005431D01*
X017111Y005564D01*
X016765Y005564D01*
X016445Y005431D01*
X016200Y005187D01*
X016068Y004867D01*
X016068Y004521D01*
X016200Y004201D01*
X016445Y003956D01*
X016765Y003824D01*
X017111Y003824D01*
X017431Y003956D01*
X017438Y003963D01*
X017445Y003956D01*
X017765Y003824D01*
X018111Y003824D01*
X018431Y003956D01*
X018438Y003963D01*
X018445Y003956D01*
X018765Y003824D01*
X019111Y003824D01*
X019431Y003956D01*
X019438Y003963D01*
X019445Y003956D01*
X019765Y003824D01*
X020111Y003824D01*
X020431Y003956D01*
X020438Y003963D01*
X020445Y003956D01*
X020765Y003824D01*
X021111Y003824D01*
X021431Y003956D01*
X021438Y003963D01*
X021445Y003956D01*
X021765Y003824D01*
X022111Y003824D01*
X022431Y003956D01*
X022438Y003963D01*
X022445Y003956D01*
X022765Y003824D01*
X023111Y003824D01*
X023431Y003956D01*
X023438Y003963D01*
X023445Y003956D01*
X023765Y003824D01*
X024111Y003824D01*
X023625Y003882D02*
X023251Y003882D01*
X022625Y003882D02*
X022251Y003882D01*
X021625Y003882D02*
X021251Y003882D01*
X020625Y003882D02*
X020251Y003882D01*
X019625Y003882D02*
X019251Y003882D01*
X018625Y003882D02*
X018251Y003882D01*
X017625Y003882D02*
X017251Y003882D01*
X016625Y003882D02*
X015251Y003882D01*
X014625Y003882D02*
X014251Y003882D01*
X013625Y003882D02*
X013251Y003882D01*
X012625Y003882D02*
X012251Y003882D01*
X011625Y003882D02*
X011251Y003882D01*
X010625Y003882D02*
X010251Y003882D01*
X009625Y003882D02*
X009034Y003882D01*
X009034Y003483D02*
X036181Y003483D01*
X036181Y003085D02*
X009034Y003085D01*
X009034Y002686D02*
X036181Y002686D01*
X036181Y002288D02*
X009034Y002288D01*
X009034Y001889D02*
X036181Y001889D01*
X036181Y001491D02*
X009034Y001491D01*
X009034Y001294D02*
X009034Y026865D01*
X036181Y026865D01*
X036181Y001294D01*
X009034Y001294D01*
X009034Y004280D02*
X009168Y004280D01*
X009068Y004679D02*
X009034Y004679D01*
X009034Y005077D02*
X009155Y005077D01*
X009034Y005476D02*
X009552Y005476D01*
X012323Y005476D02*
X012552Y005476D01*
X013323Y005476D02*
X013552Y005476D01*
X014323Y005476D02*
X014552Y005476D01*
X015323Y005476D02*
X016552Y005476D01*
X016155Y005077D02*
X015721Y005077D01*
X015808Y004679D02*
X016068Y004679D01*
X016168Y004280D02*
X015708Y004280D01*
X017323Y005476D02*
X017552Y005476D01*
X018323Y005476D02*
X018552Y005476D01*
X019323Y005476D02*
X019552Y005476D01*
X020323Y005476D02*
X020552Y005476D01*
X021323Y005476D02*
X021552Y005476D01*
X022323Y005476D02*
X022552Y005476D01*
X023323Y005476D02*
X023552Y005476D01*
X024323Y005476D02*
X025552Y005476D01*
X025155Y005077D02*
X024721Y005077D01*
X024808Y004679D02*
X025068Y004679D01*
X025168Y004280D02*
X024708Y004280D01*
X026323Y005476D02*
X026552Y005476D01*
X027323Y005476D02*
X027552Y005476D01*
X028323Y005476D02*
X028552Y005476D01*
X029323Y005476D02*
X029552Y005476D01*
X030323Y005476D02*
X030552Y005476D01*
X031323Y005476D02*
X031552Y005476D01*
X032323Y005476D02*
X032552Y005476D01*
X033171Y006273D02*
X012215Y006273D01*
X012153Y006671D02*
X017668Y006671D01*
X016700Y007070D02*
X012160Y007070D01*
X012215Y007468D02*
X016055Y007468D01*
X016175Y007369D02*
X016175Y007369D01*
X015573Y007867D02*
X012050Y007867D01*
X012215Y008265D02*
X015211Y008265D01*
X014929Y008595D02*
X014929Y008595D01*
X014889Y008664D02*
X012157Y008664D01*
X012156Y009062D02*
X014654Y009062D01*
X014483Y009350D02*
X014483Y009350D01*
X014442Y009461D02*
X012215Y009461D01*
X012050Y009859D02*
X014291Y009859D01*
X014173Y010171D02*
X014173Y010171D01*
X014009Y011032D02*
X014009Y011032D01*
X016308Y011324D02*
X016308Y012111D01*
X016310Y012183D01*
X016316Y012255D01*
X016326Y012327D01*
X016339Y012398D01*
X016357Y012468D01*
X016378Y012537D01*
X016403Y012604D01*
X016431Y012671D01*
X016463Y012735D01*
X016499Y012798D01*
X016538Y012859D01*
X016580Y012918D01*
X016625Y012974D01*
X016673Y013028D01*
X016724Y013079D01*
X016778Y013127D01*
X016834Y013172D01*
X016893Y013214D01*
X016954Y013253D01*
X017017Y013289D01*
X017081Y013321D01*
X017148Y013349D01*
X017215Y013374D01*
X017284Y013395D01*
X017354Y013413D01*
X017425Y013426D01*
X017497Y013436D01*
X017569Y013442D01*
X017641Y013444D01*
X018875Y013444D01*
X019875Y013444D02*
X020881Y013444D01*
X020771Y012544D02*
X020819Y012521D01*
X020870Y012479D01*
X020908Y012425D01*
X020931Y012363D01*
X020934Y012325D01*
X020920Y012290D01*
X020920Y012188D01*
X020903Y012088D01*
X020920Y012011D01*
X020920Y011906D01*
X021047Y011516D01*
X021287Y011185D01*
X021287Y011185D01*
X021287Y011185D01*
X021483Y011043D01*
X020690Y011043D01*
X020735Y011087D01*
X020735Y011800D01*
X020591Y011944D01*
X020735Y012087D01*
X020735Y012544D01*
X020771Y012544D01*
X020881Y013444D02*
X020947Y013431D01*
X021011Y013414D01*
X021075Y013393D01*
X021138Y013368D01*
X021198Y013340D01*
X021258Y013308D01*
X021315Y013273D01*
X021370Y013235D01*
X021423Y013193D01*
X021473Y013149D01*
X021520Y013102D01*
X021565Y013052D01*
X021607Y012999D01*
X021645Y012944D01*
X021681Y012887D01*
X021713Y012828D01*
X021741Y012768D01*
X021766Y012706D01*
X021788Y012642D01*
X021805Y012577D01*
X021819Y012512D01*
X021829Y012445D01*
X021835Y012378D01*
X021837Y012311D01*
X021835Y012244D01*
X021830Y012177D01*
X021820Y012111D01*
X021822Y012072D01*
X021828Y012034D01*
X021837Y011997D01*
X021850Y011960D01*
X021867Y011925D01*
X021886Y011892D01*
X021909Y011861D01*
X021935Y011832D01*
X021964Y011806D01*
X021995Y011783D01*
X022028Y011764D01*
X022063Y011747D01*
X022100Y011734D01*
X022137Y011725D01*
X022175Y011719D01*
X022214Y011717D01*
X025363Y011717D01*
X026167Y011055D02*
X026293Y011055D01*
X026243Y011453D02*
X027054Y011453D01*
X028001Y009316D02*
X027913Y009255D01*
X027824Y009197D01*
X027733Y009143D01*
X027639Y009092D01*
X027544Y009044D01*
X027447Y009000D01*
X027348Y008960D01*
X027249Y008923D01*
X027147Y008890D01*
X027045Y008861D01*
X026942Y008836D01*
X026837Y008814D01*
X026732Y008796D01*
X026627Y008783D01*
X026521Y008773D01*
X026414Y008767D01*
X026308Y008765D01*
X019064Y008765D01*
X019064Y007387D02*
X027607Y007426D01*
X028507Y007468D02*
X033068Y007468D01*
X033068Y007867D02*
X031059Y007867D01*
X030860Y007867D02*
X028487Y007867D01*
X028001Y009315D02*
X028074Y009366D01*
X028149Y009414D01*
X028226Y009458D01*
X028305Y009499D01*
X028385Y009536D01*
X028467Y009571D01*
X028551Y009601D01*
X028636Y009628D01*
X028721Y009651D01*
X028808Y009671D01*
X028895Y009687D01*
X028983Y009699D01*
X029072Y009707D01*
X029160Y009712D01*
X029249Y009713D01*
X029338Y009710D01*
X029426Y009703D01*
X029515Y009692D01*
X029602Y009678D01*
X029689Y009660D01*
X029775Y009638D01*
X029860Y009613D01*
X029944Y009584D01*
X030027Y009551D01*
X030108Y009515D01*
X030188Y009475D01*
X030265Y009432D01*
X030341Y009386D01*
X030415Y009337D01*
X030487Y009284D01*
X030556Y009228D01*
X030623Y009170D01*
X030687Y009109D01*
X030749Y009045D01*
X030807Y008978D01*
X030863Y008909D01*
X030916Y008838D01*
X030966Y008764D01*
X031846Y009062D02*
X033076Y009062D01*
X033068Y009461D02*
X031737Y009461D01*
X031813Y009859D02*
X031211Y009859D01*
X031131Y009941D02*
X031131Y009941D01*
X030884Y010258D02*
X030658Y010258D01*
X030627Y010279D02*
X030627Y010279D01*
X032099Y009859D02*
X033068Y009859D01*
X033144Y010258D02*
X032825Y010258D01*
X032846Y010656D02*
X033068Y010656D01*
X033069Y011055D02*
X032830Y011055D01*
X032713Y011453D02*
X033068Y011453D01*
X033068Y011852D02*
X031777Y011852D01*
X032056Y011740D02*
X032056Y011740D01*
X029884Y014243D02*
X021747Y014243D01*
X021791Y014057D02*
X021791Y014057D01*
X022120Y014641D02*
X029775Y014641D01*
X029864Y015040D02*
X022383Y015040D01*
X022299Y014865D02*
X022299Y014865D01*
X022575Y015438D02*
X029803Y015438D01*
X029780Y015837D02*
X022667Y015837D01*
X022720Y016235D02*
X029969Y016235D01*
X029775Y016634D02*
X022720Y016634D01*
X022720Y017032D02*
X029822Y017032D01*
X029846Y017431D02*
X022720Y017431D01*
X022720Y017829D02*
X029775Y017829D01*
X029911Y018228D02*
X022720Y018228D01*
X022720Y018626D02*
X029775Y018626D01*
X029832Y019025D02*
X022720Y019025D01*
X022720Y019423D02*
X029836Y019423D01*
X029775Y019822D02*
X022720Y019822D01*
X022757Y020220D02*
X029921Y020220D01*
X029775Y020619D02*
X022952Y020619D01*
X023337Y021017D02*
X029841Y021017D01*
X029826Y021416D02*
X023616Y021416D01*
X023453Y021132D02*
X023453Y021132D01*
X023794Y021814D02*
X029775Y021814D01*
X029959Y022213D02*
X023900Y022213D01*
X022607Y021560D02*
X022396Y021349D01*
X021633Y021859D02*
X021633Y021859D01*
X021589Y021814D02*
X021347Y021814D01*
X021560Y021786D02*
X021560Y021786D01*
X021560Y021786D01*
X021985Y022213D02*
X021063Y022213D01*
X022607Y021560D02*
X022656Y021611D01*
X022701Y021664D01*
X022744Y021720D01*
X022784Y021778D01*
X022821Y021838D01*
X022855Y021900D01*
X022885Y021963D01*
X022912Y022028D01*
X022935Y022095D01*
X022955Y022162D01*
X022972Y022231D01*
X022984Y022300D01*
X022994Y022370D01*
X022999Y022440D01*
X023001Y022510D01*
X022101Y022611D02*
X009034Y022611D01*
X009034Y023010D02*
X009792Y023010D01*
X009515Y023408D02*
X009034Y023408D01*
X009034Y023807D02*
X009468Y023807D01*
X009619Y024205D02*
X009034Y024205D01*
X009034Y024604D02*
X012569Y024604D01*
X011891Y025002D02*
X009034Y025002D01*
X009034Y025401D02*
X011865Y025401D01*
X011885Y025799D02*
X009034Y025799D01*
X009034Y026198D02*
X011999Y026198D01*
X014057Y024205D02*
X014219Y024205D01*
X014392Y023010D02*
X013884Y023010D01*
X012731Y021860D02*
X012436Y021982D01*
X011518Y021982D01*
X011224Y021860D01*
X010999Y021635D01*
X010877Y021341D01*
X010877Y021023D01*
X010999Y020729D01*
X011046Y020682D01*
X010999Y020635D01*
X010877Y020341D01*
X010877Y020023D01*
X010999Y019729D01*
X011046Y019682D01*
X010999Y019635D01*
X010877Y019341D01*
X010877Y019023D01*
X010999Y018729D01*
X011224Y018504D01*
X011518Y018382D01*
X012436Y018382D01*
X012731Y018504D01*
X012956Y018729D01*
X013077Y019023D01*
X013077Y019341D01*
X012956Y019635D01*
X012909Y019682D01*
X012956Y019729D01*
X013077Y020023D01*
X013077Y020341D01*
X012956Y020635D01*
X012909Y020682D01*
X012956Y020729D01*
X013077Y021023D01*
X013077Y021341D01*
X012956Y021635D01*
X012731Y021860D01*
X012776Y021814D02*
X019229Y021814D01*
X019188Y021416D02*
X013046Y021416D01*
X013075Y021017D02*
X019318Y021017D01*
X019188Y020619D02*
X012962Y020619D01*
X013077Y020220D02*
X019262Y020220D01*
X019233Y019822D02*
X012994Y019822D01*
X013043Y019423D02*
X019188Y019423D01*
X019388Y019025D02*
X013077Y019025D01*
X012853Y018626D02*
X020920Y018626D01*
X020920Y018228D02*
X020286Y018228D01*
X020338Y017829D02*
X020920Y017829D01*
X020920Y017431D02*
X020411Y017431D01*
X020487Y017032D02*
X020920Y017032D01*
X020920Y016634D02*
X020563Y016634D01*
X021820Y016389D02*
X021818Y016302D01*
X021812Y016215D01*
X021802Y016128D01*
X021789Y016042D01*
X021771Y015956D01*
X021750Y015872D01*
X021725Y015788D01*
X021696Y015706D01*
X021663Y015625D01*
X021627Y015545D01*
X021588Y015467D01*
X021545Y015391D01*
X021498Y015318D01*
X021449Y015246D01*
X021396Y015176D01*
X021340Y015109D01*
X021281Y015045D01*
X021219Y014983D01*
X021155Y014924D01*
X021088Y014868D01*
X021018Y014815D01*
X020946Y014766D01*
X020873Y014719D01*
X020797Y014676D01*
X020719Y014637D01*
X020639Y014601D01*
X020558Y014568D01*
X020476Y014539D01*
X020392Y014514D01*
X020308Y014493D01*
X020222Y014475D01*
X020136Y014462D01*
X020049Y014452D01*
X019962Y014446D01*
X019875Y014444D01*
X020716Y015837D02*
X020762Y015837D01*
X020640Y016235D02*
X020905Y016235D01*
X021820Y016389D02*
X021820Y019957D01*
X021819Y019957D02*
X021821Y020043D01*
X021826Y020129D01*
X021836Y020214D01*
X021849Y020299D01*
X021866Y020383D01*
X021886Y020467D01*
X021910Y020549D01*
X021938Y020630D01*
X021969Y020711D01*
X022003Y020789D01*
X022041Y020866D01*
X022083Y020941D01*
X022127Y021015D01*
X022175Y021086D01*
X022226Y021156D01*
X022280Y021223D01*
X022336Y021287D01*
X022396Y021349D01*
X019514Y022213D02*
X009034Y022213D01*
X009034Y021814D02*
X011178Y021814D01*
X010908Y021416D02*
X009034Y021416D01*
X009034Y021017D02*
X010880Y021017D01*
X010992Y020619D02*
X009034Y020619D01*
X009034Y020220D02*
X010877Y020220D01*
X010961Y019822D02*
X009034Y019822D01*
X009034Y019423D02*
X010911Y019423D01*
X010877Y019025D02*
X009034Y019025D01*
X009034Y018626D02*
X011102Y018626D01*
X018216Y012444D02*
X018875Y012444D01*
X015127Y012899D02*
X015087Y012778D01*
X015052Y012655D01*
X015020Y012531D01*
X014991Y012407D01*
X014967Y012282D01*
X014946Y012156D01*
X014930Y012029D01*
X014917Y011902D01*
X014908Y011775D01*
X014903Y011648D01*
X014902Y011520D01*
X014905Y011392D01*
X014912Y011265D01*
X014922Y011138D01*
X014937Y011011D01*
X014955Y010885D01*
X014978Y010759D01*
X015004Y010634D01*
X015034Y010510D01*
X015068Y010387D01*
X015105Y010265D01*
X015146Y010144D01*
X015191Y010025D01*
X015240Y009907D01*
X015292Y009790D01*
X015348Y009675D01*
X015407Y009562D01*
X015469Y009451D01*
X015535Y009342D01*
X015605Y009235D01*
X015677Y009130D01*
X015753Y009027D01*
X015832Y008927D01*
X015914Y008829D01*
X015999Y008734D01*
X016086Y008641D01*
X016177Y008551D01*
X016270Y008464D01*
X016366Y008380D01*
X016465Y008299D01*
X016565Y008220D01*
X016669Y008145D01*
X016774Y008074D01*
X016882Y008005D01*
X016991Y007940D01*
X017103Y007878D01*
X017217Y007820D01*
X017332Y007765D01*
X017449Y007713D01*
X017567Y007666D01*
X017687Y007622D01*
X017808Y007581D01*
X017930Y007544D01*
X018053Y007512D01*
X018178Y007483D01*
X018303Y007457D01*
X018428Y007436D01*
X018555Y007418D01*
X018682Y007405D01*
X018809Y007395D01*
X018936Y007389D01*
X019064Y007387D01*
X015499Y007928D02*
X015499Y007928D01*
X015499Y007928D01*
X016309Y011324D02*
X016315Y011222D01*
X016324Y011120D01*
X016338Y011020D01*
X016355Y010919D01*
X016376Y010819D01*
X016401Y010721D01*
X016430Y010623D01*
X016462Y010526D01*
X016498Y010431D01*
X016538Y010337D01*
X016582Y010245D01*
X016628Y010155D01*
X016679Y010066D01*
X016732Y009980D01*
X016789Y009895D01*
X016849Y009813D01*
X016912Y009733D01*
X016979Y009655D01*
X017048Y009581D01*
X017120Y009509D01*
X017194Y009439D01*
X017272Y009373D01*
X017351Y009309D01*
X017433Y009249D01*
X017518Y009192D01*
X017604Y009138D01*
X017693Y009088D01*
X017783Y009041D01*
X017875Y008997D01*
X017969Y008957D01*
X018064Y008921D01*
X018160Y008888D01*
X018258Y008859D01*
X018357Y008834D01*
X018456Y008812D01*
X018557Y008795D01*
X018658Y008781D01*
X018759Y008771D01*
X018861Y008765D01*
X018963Y008763D01*
X019064Y008765D01*
X020702Y011055D02*
X021467Y011055D01*
X021092Y011453D02*
X020735Y011453D01*
X021047Y011516D02*
X021047Y011516D01*
X020938Y011852D02*
X020683Y011852D01*
X020735Y012250D02*
X020920Y012250D01*
X018216Y012443D02*
X018164Y012441D01*
X018113Y012436D01*
X018062Y012426D01*
X018011Y012414D01*
X017962Y012397D01*
X017914Y012377D01*
X017868Y012354D01*
X017823Y012328D01*
X017781Y012298D01*
X017741Y012266D01*
X017703Y012230D01*
X017667Y012192D01*
X017635Y012152D01*
X017605Y012110D01*
X017579Y012065D01*
X017556Y012019D01*
X017536Y011971D01*
X017519Y011922D01*
X017507Y011871D01*
X017497Y011820D01*
X017492Y011769D01*
X017490Y011717D01*
X026263Y011852D02*
X027796Y011852D01*
X028653Y008664D02*
X029793Y008664D01*
X030094Y008265D02*
X028185Y008265D01*
X028531Y008588D02*
X028531Y008588D01*
X028487Y007070D02*
X033152Y007070D01*
X033068Y006671D02*
X028320Y006671D01*
X027332Y010536D02*
X027433Y010610D01*
X027538Y010681D01*
X027644Y010749D01*
X027752Y010813D01*
X027862Y010874D01*
X027974Y010932D01*
X028088Y010986D01*
X028203Y011036D01*
X028320Y011083D01*
X028438Y011127D01*
X028557Y011167D01*
X028678Y011203D01*
X028800Y011235D01*
X028922Y011264D01*
X029046Y011289D01*
X029170Y011310D01*
X029294Y011327D01*
X029420Y011341D01*
X029545Y011350D01*
X029671Y011356D01*
X029797Y011358D01*
X029923Y011356D01*
X030048Y011350D01*
X030174Y011341D01*
X030299Y011327D01*
X030424Y011310D01*
X030548Y011289D01*
X030671Y011264D01*
X030794Y011235D01*
X030916Y011203D01*
X031036Y011167D01*
X031156Y011127D01*
X031274Y011083D01*
X031391Y011036D01*
X031506Y010986D01*
X031620Y010932D01*
X031732Y010874D01*
X031842Y010813D01*
X031950Y010749D01*
X031864Y008664D02*
X033068Y008664D01*
X033136Y008265D02*
X031837Y008265D01*
X035740Y008265D02*
X036181Y008265D01*
X036181Y008664D02*
X035808Y008664D01*
X035800Y009062D02*
X036181Y009062D01*
X036181Y009461D02*
X035808Y009461D01*
X035808Y009859D02*
X036181Y009859D01*
X036181Y010258D02*
X035732Y010258D01*
X035808Y010656D02*
X036181Y010656D01*
X036181Y011055D02*
X035807Y011055D01*
X035808Y011453D02*
X036181Y011453D01*
X036181Y011852D02*
X035808Y011852D01*
X035725Y012250D02*
X036181Y012250D01*
X036181Y012649D02*
X035808Y012649D01*
X035808Y013047D02*
X036181Y013047D01*
X036181Y013446D02*
X035808Y013446D01*
X035808Y013844D02*
X036181Y013844D01*
X036181Y014243D02*
X035717Y014243D01*
X035808Y014641D02*
X036181Y014641D01*
X036181Y015040D02*
X035808Y015040D01*
X035808Y015438D02*
X036181Y015438D01*
X036181Y015837D02*
X035808Y015837D01*
X035710Y016235D02*
X036181Y016235D01*
X036181Y016634D02*
X035808Y016634D01*
X035808Y017032D02*
X036181Y017032D01*
X036181Y017431D02*
X035808Y017431D01*
X035808Y017829D02*
X036181Y017829D01*
X036181Y018228D02*
X035702Y018228D01*
X035808Y018626D02*
X036181Y018626D01*
X036181Y019025D02*
X035808Y019025D01*
X035808Y019423D02*
X036181Y019423D01*
X036181Y019822D02*
X035808Y019822D01*
X035695Y020220D02*
X036181Y020220D01*
X036181Y020619D02*
X035808Y020619D01*
X035808Y021017D02*
X036181Y021017D01*
X036181Y021416D02*
X035808Y021416D01*
X035808Y021814D02*
X036181Y021814D01*
X036181Y022213D02*
X035687Y022213D01*
X035808Y022611D02*
X036181Y022611D01*
X036181Y023010D02*
X035808Y023010D01*
X035761Y023408D02*
X036181Y023408D01*
X036181Y023807D02*
X035808Y023807D01*
X035657Y024205D02*
X036181Y024205D01*
X036181Y024604D02*
X023897Y024604D01*
X023790Y025002D02*
X036181Y025002D01*
X036181Y025401D02*
X023597Y025401D01*
X023485Y025594D02*
X023485Y025594D01*
X023280Y025799D02*
X036181Y025799D01*
X036181Y026198D02*
X022722Y026198D01*
X022623Y026255D02*
X022623Y026255D01*
X023759Y025119D02*
X023759Y025119D01*
X031657Y024205D02*
X033219Y024205D01*
X033068Y023807D02*
X031808Y023807D01*
X031761Y023408D02*
X033115Y023408D01*
X033068Y023010D02*
X031484Y023010D01*
X036181Y026596D02*
X009034Y026596D01*
X035808Y007867D02*
X036181Y007867D01*
X036181Y007468D02*
X035808Y007468D01*
X035724Y007070D02*
X036181Y007070D01*
X036181Y006671D02*
X035808Y006671D01*
X035705Y006273D02*
X036181Y006273D01*
M02*
