G75*
%MOIN*%
%OFA0B0*%
%FSLAX24Y24*%
%IPPOS*%
%LPD*%
%AMOC8*
5,1,8,0,0,1.08239X$1,22.5*
%
%ADD10C,0.0000*%
%ADD11C,0.0600*%
%ADD12OC8,0.0720*%
%ADD13C,0.0740*%
%ADD14OC8,0.0740*%
%ADD15C,0.0400*%
%ADD16R,0.0760X0.0760*%
%ADD17C,0.0591*%
%ADD18C,0.0320*%
D10*
X008434Y000694D02*
X008434Y027465D01*
X036781Y027465D01*
X036781Y000694D01*
X008434Y000694D01*
D11*
X010815Y006363D02*
X011415Y006363D01*
X011415Y007363D02*
X010815Y007363D01*
X010815Y008363D02*
X011415Y008363D01*
X011415Y009363D02*
X010815Y009363D01*
X011677Y019182D02*
X012277Y019182D01*
X012277Y020182D02*
X011677Y020182D01*
X011677Y021182D02*
X012277Y021182D01*
X019988Y021556D02*
X020588Y021556D01*
X020588Y020556D02*
X019988Y020556D01*
X019988Y019556D02*
X020588Y019556D01*
X030575Y019729D02*
X031175Y019729D01*
X031175Y020698D02*
X030575Y020698D01*
X030575Y021698D02*
X031175Y021698D01*
X031175Y018729D02*
X030575Y018729D01*
X030575Y017761D02*
X031175Y017761D01*
X031175Y016761D02*
X030575Y016761D01*
X030575Y015666D02*
X031175Y015666D01*
X031175Y014666D02*
X030575Y014666D01*
D12*
X019875Y014444D03*
X019875Y015444D03*
X018875Y015444D03*
X018875Y014444D03*
X018875Y013444D03*
X019875Y013444D03*
X019875Y012444D03*
X018875Y012444D03*
X018875Y011444D03*
X019875Y011444D03*
D13*
X019938Y004694D03*
X020938Y004694D03*
X021938Y004694D03*
X022938Y004694D03*
X023938Y004694D03*
X025938Y004694D03*
X026938Y004694D03*
X027938Y004694D03*
X028938Y004694D03*
X029938Y004694D03*
X030938Y004694D03*
X031938Y004694D03*
X032938Y004694D03*
X033938Y006694D03*
X034938Y006694D03*
X018938Y004694D03*
X017938Y004694D03*
X016938Y004694D03*
X014938Y004694D03*
X013938Y004694D03*
X012938Y004694D03*
X011938Y004694D03*
X010938Y004694D03*
X009938Y004694D03*
X010338Y023694D03*
X011338Y023694D03*
X012338Y023694D03*
X013338Y023694D03*
X014938Y023694D03*
X015938Y023694D03*
X016938Y023694D03*
X017938Y023694D03*
X018938Y023694D03*
X019938Y023694D03*
X020938Y023694D03*
X021938Y023694D03*
X023938Y023694D03*
X024938Y023694D03*
X025938Y023694D03*
X026938Y023694D03*
X027938Y023694D03*
X028938Y023694D03*
X029938Y023694D03*
X030938Y023694D03*
X033938Y023694D03*
X034938Y023694D03*
D14*
X034938Y022694D03*
X033938Y022694D03*
X033938Y021694D03*
X034938Y021694D03*
X034938Y020694D03*
X033938Y020694D03*
X033938Y019694D03*
X034938Y019694D03*
X034938Y018694D03*
X033938Y018694D03*
X033938Y017694D03*
X034938Y017694D03*
X034938Y016694D03*
X033938Y016694D03*
X033938Y015694D03*
X034938Y015694D03*
X034938Y014694D03*
X033938Y014694D03*
X033938Y013694D03*
X034938Y013694D03*
X034938Y012694D03*
X033938Y012694D03*
X033938Y011694D03*
X034938Y011694D03*
X034938Y010694D03*
X033938Y010694D03*
X033938Y009694D03*
X034938Y009694D03*
X034938Y008694D03*
X033938Y008694D03*
X033938Y007694D03*
X034938Y007694D03*
D15*
X034938Y008694D02*
X035002Y008692D01*
X035065Y008686D01*
X035128Y008677D01*
X035190Y008663D01*
X035252Y008646D01*
X035312Y008625D01*
X035371Y008601D01*
X035428Y008573D01*
X035484Y008542D01*
X035537Y008507D01*
X035589Y008469D01*
X035638Y008429D01*
X035684Y008385D01*
X035728Y008339D01*
X035768Y008290D01*
X035806Y008238D01*
X035841Y008185D01*
X035872Y008129D01*
X035900Y008072D01*
X035924Y008013D01*
X035945Y007953D01*
X035962Y007891D01*
X035976Y007829D01*
X035985Y007766D01*
X035991Y007703D01*
X035993Y007639D01*
X035993Y006206D01*
X035991Y006152D01*
X035986Y006099D01*
X035977Y006046D01*
X035964Y005994D01*
X035948Y005942D01*
X035928Y005892D01*
X035905Y005844D01*
X035878Y005797D01*
X035849Y005752D01*
X035816Y005709D01*
X035781Y005669D01*
X035743Y005631D01*
X035703Y005596D01*
X035660Y005563D01*
X035615Y005534D01*
X035568Y005507D01*
X035520Y005484D01*
X035470Y005464D01*
X035418Y005448D01*
X035366Y005435D01*
X035313Y005426D01*
X035260Y005421D01*
X035206Y005419D01*
X035428Y004518D02*
X034738Y004518D01*
X033812Y004646D01*
X033812Y004646D01*
X033808Y004647D01*
X033808Y004521D01*
X033676Y004201D01*
X033431Y003956D01*
X033111Y003824D01*
X032765Y003824D01*
X032445Y003956D01*
X032438Y003963D01*
X032431Y003956D01*
X032111Y003824D01*
X031765Y003824D01*
X031445Y003956D01*
X031438Y003963D01*
X031431Y003956D01*
X031111Y003824D01*
X030765Y003824D01*
X030451Y003954D01*
X030285Y003844D01*
X029934Y003776D01*
X029583Y003848D01*
X029425Y003954D01*
X029111Y003824D01*
X028765Y003824D01*
X028445Y003956D01*
X028438Y003963D01*
X028431Y003956D01*
X028111Y003824D01*
X027765Y003824D01*
X027445Y003956D01*
X027438Y003963D01*
X027431Y003956D01*
X027111Y003824D01*
X026765Y003824D01*
X026445Y003956D01*
X026438Y003963D01*
X026431Y003956D01*
X026111Y003824D01*
X025765Y003824D01*
X025445Y003956D01*
X025200Y004201D01*
X025068Y004521D01*
X025068Y004867D01*
X025200Y005187D01*
X025445Y005431D01*
X025765Y005564D01*
X026111Y005564D01*
X026431Y005431D01*
X026438Y005424D01*
X026445Y005431D01*
X026765Y005564D01*
X027111Y005564D01*
X027431Y005431D01*
X027438Y005424D01*
X027445Y005431D01*
X027765Y005564D01*
X028111Y005564D01*
X028431Y005431D01*
X028438Y005424D01*
X028445Y005431D01*
X028569Y005482D01*
X028451Y005615D01*
X028313Y005733D01*
X028172Y005843D01*
X028172Y005843D01*
X027272Y006546D01*
X027128Y006546D01*
X026944Y006622D01*
X026803Y006763D01*
X026727Y006947D01*
X026727Y007208D01*
X026692Y007494D01*
X026727Y007621D01*
X026727Y007905D01*
X026803Y008089D01*
X026944Y008230D01*
X027128Y008306D01*
X027389Y008306D01*
X027675Y008341D01*
X027802Y008306D01*
X028087Y008306D01*
X028271Y008230D01*
X028411Y008089D01*
X028487Y007905D01*
X028487Y007881D01*
X028652Y007752D01*
X028574Y008308D01*
X028574Y008308D01*
X028599Y008629D01*
X028603Y008807D01*
X028564Y009164D01*
X028464Y009509D01*
X028306Y009831D01*
X028094Y010121D01*
X027835Y010369D01*
X027537Y010569D01*
X027208Y010714D01*
X026860Y010800D01*
X026860Y010800D01*
X026699Y010817D01*
X025184Y010817D01*
X025136Y010837D01*
X024884Y010837D01*
X024700Y010913D01*
X024559Y011054D01*
X024483Y011238D01*
X024483Y011490D01*
X024463Y011538D01*
X024463Y011896D01*
X024483Y011945D01*
X024483Y012197D01*
X024559Y012381D01*
X024700Y012521D01*
X024884Y012597D01*
X025136Y012597D01*
X025184Y012617D01*
X026593Y012617D01*
X026622Y012627D01*
X026771Y012617D01*
X026920Y012617D01*
X026949Y012605D01*
X027138Y012593D01*
X027794Y012432D01*
X027794Y012432D01*
X028411Y012159D01*
X028411Y012159D01*
X028973Y011783D01*
X028973Y011783D01*
X029460Y011316D01*
X029460Y011316D01*
X029859Y010771D01*
X029859Y010771D01*
X030157Y010165D01*
X030157Y010165D01*
X030327Y009579D01*
X030486Y009645D01*
X030775Y009645D01*
X030980Y009682D01*
X031062Y009664D01*
X030978Y010133D01*
X031005Y010711D01*
X031070Y010944D01*
X031070Y011228D01*
X031146Y011412D01*
X031287Y011553D01*
X031470Y011629D01*
X031731Y011629D01*
X032018Y011664D01*
X032144Y011629D01*
X032429Y011629D01*
X032613Y011553D01*
X032754Y011412D01*
X032830Y011228D01*
X032830Y010967D01*
X032865Y010680D01*
X032830Y010554D01*
X032830Y010269D01*
X032800Y010198D01*
X032821Y010082D01*
X032888Y009924D01*
X032989Y009784D01*
X033068Y009715D01*
X033068Y010054D01*
X033208Y010194D01*
X033068Y010333D01*
X033068Y011054D01*
X033208Y011194D01*
X033068Y011333D01*
X033068Y012054D01*
X033208Y012194D01*
X033068Y012333D01*
X033068Y013054D01*
X033208Y013194D01*
X033068Y013333D01*
X033068Y014054D01*
X033208Y014194D01*
X033068Y014333D01*
X033068Y015054D01*
X033208Y015194D01*
X033068Y015333D01*
X033068Y016054D01*
X033208Y016194D01*
X033068Y016333D01*
X033068Y016530D01*
X031641Y016095D01*
X031628Y016082D01*
X031613Y016076D01*
X031633Y016057D01*
X031688Y015981D01*
X031731Y015896D01*
X031760Y015807D01*
X031775Y015713D01*
X031775Y015666D01*
X030875Y015666D01*
X030875Y015666D01*
X029975Y015666D01*
X029975Y015619D01*
X029982Y015573D01*
X027775Y015591D01*
X022720Y020001D01*
X022720Y020994D01*
X022605Y021422D01*
X022605Y021422D01*
X022384Y021806D01*
X022070Y022120D01*
X021686Y022341D01*
X021258Y022456D01*
X015709Y022456D01*
X015700Y022460D01*
X015652Y022460D01*
X015606Y022473D01*
X015474Y022460D01*
X015342Y022460D01*
X015298Y022442D01*
X015216Y022433D01*
X014818Y022281D01*
X014611Y022131D01*
X014430Y022444D01*
X014043Y022831D01*
X014043Y022831D01*
X013828Y022955D01*
X013831Y022956D01*
X014076Y023201D01*
X014138Y023352D01*
X014200Y023201D01*
X014445Y022956D01*
X014765Y022824D01*
X015111Y022824D01*
X015431Y022956D01*
X015438Y022963D01*
X015445Y022956D01*
X015765Y022824D01*
X016111Y022824D01*
X016431Y022956D01*
X016438Y022963D01*
X016445Y022956D01*
X016765Y022824D01*
X017111Y022824D01*
X017431Y022956D01*
X017438Y022963D01*
X017445Y022956D01*
X017765Y022824D01*
X018111Y022824D01*
X018431Y022956D01*
X018438Y022963D01*
X018445Y022956D01*
X018765Y022824D01*
X019111Y022824D01*
X019431Y022956D01*
X019438Y022963D01*
X019445Y022956D01*
X019765Y022824D01*
X020111Y022824D01*
X020431Y022956D01*
X020438Y022963D01*
X020445Y022956D01*
X020765Y022824D01*
X021111Y022824D01*
X021431Y022956D01*
X021438Y022963D01*
X021445Y022956D01*
X021765Y022824D01*
X022111Y022824D01*
X022431Y022956D01*
X022676Y023201D01*
X022808Y023521D01*
X022808Y023867D01*
X022676Y024187D01*
X022431Y024431D01*
X022111Y024564D01*
X021765Y024564D01*
X021445Y024431D01*
X021438Y024424D01*
X021431Y024431D01*
X021111Y024564D01*
X020765Y024564D01*
X020445Y024431D01*
X020438Y024424D01*
X020431Y024431D01*
X020111Y024564D01*
X019765Y024564D01*
X019445Y024431D01*
X019438Y024424D01*
X019431Y024431D01*
X019111Y024564D01*
X018765Y024564D01*
X018445Y024431D01*
X018438Y024424D01*
X018431Y024431D01*
X018111Y024564D01*
X017765Y024564D01*
X017445Y024431D01*
X017438Y024424D01*
X017431Y024431D01*
X017111Y024564D01*
X016765Y024564D01*
X016445Y024431D01*
X016438Y024424D01*
X016431Y024431D01*
X016111Y024564D01*
X015765Y024564D01*
X015445Y024431D01*
X015438Y024424D01*
X015431Y024431D01*
X015111Y024564D01*
X014765Y024564D01*
X014445Y024431D01*
X014200Y024187D01*
X014138Y024036D01*
X014076Y024187D01*
X013831Y024431D01*
X013511Y024564D01*
X013165Y024564D01*
X012845Y024431D01*
X012838Y024424D01*
X012831Y024431D01*
X012550Y024548D01*
X012591Y024567D01*
X012706Y024594D01*
X012765Y024597D01*
X012944Y024597D01*
X012992Y024617D01*
X013244Y024617D01*
X013428Y024693D01*
X013569Y024834D01*
X013645Y025017D01*
X013645Y025270D01*
X013665Y025318D01*
X013665Y025676D01*
X013645Y025724D01*
X013645Y025976D01*
X013569Y026160D01*
X013428Y026301D01*
X013244Y026377D01*
X012992Y026377D01*
X012944Y026397D01*
X012503Y026397D01*
X012415Y026377D01*
X012285Y026377D01*
X012126Y026311D01*
X011991Y026280D01*
X011519Y026053D01*
X011109Y025726D01*
X011109Y025726D01*
X011109Y025726D01*
X010782Y025316D01*
X010555Y024843D01*
X010498Y024594D01*
X010159Y024594D01*
X009828Y024457D01*
X009575Y024204D01*
X009438Y023873D01*
X009438Y023351D01*
X009546Y022880D01*
X009755Y022444D01*
X010057Y022066D01*
X010435Y021765D01*
X010871Y021555D01*
X011160Y021489D01*
X011121Y021412D01*
X011092Y021322D01*
X011077Y021229D01*
X011077Y021182D01*
X011977Y021182D01*
X011977Y021182D01*
X011077Y021182D01*
X011077Y021135D01*
X011092Y021041D01*
X011121Y020952D01*
X011164Y020867D01*
X011193Y020828D01*
X010999Y020635D01*
X010877Y020341D01*
X010877Y020023D01*
X010999Y019729D01*
X011046Y019682D01*
X010999Y019635D01*
X010877Y019341D01*
X010877Y019023D01*
X010999Y018729D01*
X011224Y018504D01*
X011518Y018382D01*
X011557Y018382D01*
X011798Y018282D01*
X013123Y018282D01*
X013392Y018270D01*
X013961Y018374D01*
X014492Y018601D01*
X014492Y018601D01*
X014960Y018941D01*
X015340Y019377D01*
X015614Y019886D01*
X015767Y020444D01*
X015775Y020622D01*
X015785Y020656D01*
X019397Y020656D01*
X019388Y020603D01*
X019388Y020556D01*
X020288Y020556D01*
X020288Y020556D01*
X019388Y020556D01*
X019388Y020509D01*
X019397Y020456D01*
X017395Y020456D01*
X016929Y020331D01*
X016929Y020331D01*
X016510Y020089D01*
X016168Y019748D01*
X016168Y019748D01*
X015927Y019329D01*
X015802Y018862D01*
X015802Y011436D01*
X012015Y011436D01*
X011488Y011295D01*
X011015Y011022D01*
X010629Y010636D01*
X010356Y010163D01*
X010310Y009989D01*
X010137Y009816D01*
X010015Y009522D01*
X010015Y009204D01*
X010120Y008951D01*
X010120Y008775D01*
X010015Y008522D01*
X010015Y008204D01*
X010137Y007910D01*
X010330Y007716D01*
X010302Y007677D01*
X010259Y007593D01*
X010230Y007503D01*
X010215Y007410D01*
X010215Y007363D01*
X010215Y007316D01*
X010230Y007222D01*
X010259Y007133D01*
X010302Y007049D01*
X010358Y006972D01*
X010424Y006905D01*
X010483Y006863D01*
X010424Y006821D01*
X010358Y006754D01*
X010302Y006677D01*
X010259Y006593D01*
X010230Y006503D01*
X010215Y006410D01*
X010215Y006363D01*
X010215Y006316D01*
X010230Y006222D01*
X010259Y006133D01*
X010302Y006049D01*
X010358Y005972D01*
X010424Y005905D01*
X010501Y005850D01*
X010585Y005807D01*
X010675Y005778D01*
X010768Y005763D01*
X011115Y005763D01*
X011115Y006363D01*
X010215Y006363D01*
X011115Y006363D01*
X011115Y006363D01*
X011115Y007363D01*
X010215Y007363D01*
X011115Y007363D01*
X011115Y007363D01*
X011115Y007363D01*
X011115Y006763D01*
X011115Y006363D01*
X011115Y006363D01*
X011115Y006363D01*
X011269Y006363D01*
X011115Y006363D02*
X012015Y006363D01*
X011115Y006363D01*
X011115Y005763D01*
X011462Y005763D01*
X011556Y005778D01*
X011645Y005807D01*
X011730Y005850D01*
X011806Y005905D01*
X011873Y005972D01*
X011928Y006049D01*
X011971Y006133D01*
X012000Y006222D01*
X012015Y006316D01*
X012015Y006363D01*
X012015Y006410D01*
X012000Y006503D01*
X011971Y006593D01*
X011928Y006677D01*
X011873Y006754D01*
X011806Y006821D01*
X011748Y006863D01*
X011806Y006905D01*
X011873Y006972D01*
X011928Y007049D01*
X011971Y007133D01*
X012000Y007222D01*
X012015Y007316D01*
X012015Y007363D01*
X011115Y007363D01*
X012015Y007363D01*
X012015Y007410D01*
X012000Y007503D01*
X011971Y007593D01*
X011928Y007677D01*
X011900Y007716D01*
X012093Y007910D01*
X012215Y008204D01*
X012215Y008522D01*
X012110Y008775D01*
X012110Y008951D01*
X012215Y009204D01*
X012215Y009522D01*
X012178Y009612D01*
X012184Y009615D01*
X012253Y009634D01*
X012288Y009636D01*
X016137Y009636D01*
X016566Y009751D01*
X016835Y009907D01*
X016835Y008420D01*
X016834Y008403D01*
X016825Y008369D01*
X016808Y008339D01*
X016783Y008314D01*
X016753Y008297D01*
X016719Y008288D01*
X016702Y008287D01*
X016480Y008287D01*
X016050Y008172D01*
X015666Y007949D01*
X015666Y007949D01*
X015352Y007635D01*
X015129Y007251D01*
X015129Y007251D01*
X015014Y006821D01*
X015014Y005564D01*
X014765Y005564D01*
X014445Y005431D01*
X014438Y005424D01*
X014431Y005431D01*
X014111Y005564D01*
X013765Y005564D01*
X013445Y005431D01*
X013282Y005268D01*
X013235Y005296D01*
X013154Y005330D01*
X013069Y005352D01*
X012982Y005364D01*
X012938Y005364D01*
X012894Y005364D01*
X012807Y005352D01*
X012722Y005330D01*
X012641Y005296D01*
X012620Y005284D01*
X012448Y005457D01*
X012117Y005594D01*
X011759Y005594D01*
X011428Y005457D01*
X011411Y005439D01*
X011111Y005564D01*
X010765Y005564D01*
X010445Y005431D01*
X010438Y005424D01*
X010431Y005431D01*
X010111Y005564D01*
X009765Y005564D01*
X009445Y005431D01*
X009200Y005187D01*
X009068Y004867D01*
X009068Y004521D01*
X009200Y004201D01*
X009445Y003956D01*
X009765Y003824D01*
X010111Y003824D01*
X010431Y003956D01*
X010438Y003963D01*
X010445Y003956D01*
X010765Y003824D01*
X011111Y003824D01*
X011203Y003862D01*
X011355Y003546D01*
X011355Y003546D01*
X011656Y003168D01*
X011656Y003168D01*
X011656Y003168D01*
X012034Y002867D01*
X012034Y002867D01*
X012469Y002657D01*
X012469Y002657D01*
X012941Y002550D01*
X015349Y002550D01*
X015778Y002665D01*
X016163Y002887D01*
X016163Y002887D01*
X016477Y003201D01*
X016699Y003586D01*
X016763Y003824D01*
X016765Y003824D01*
X017111Y003824D01*
X017431Y003956D01*
X017438Y003963D01*
X017445Y003956D01*
X017765Y003824D01*
X018111Y003824D01*
X018431Y003956D01*
X018438Y003963D01*
X018445Y003956D01*
X018765Y003824D01*
X019111Y003824D01*
X019431Y003956D01*
X019438Y003963D01*
X019445Y003956D01*
X019765Y003824D01*
X020111Y003824D01*
X020431Y003956D01*
X020438Y003963D01*
X020445Y003956D01*
X020765Y003824D01*
X021111Y003824D01*
X021431Y003956D01*
X021438Y003963D01*
X021445Y003956D01*
X021765Y003824D01*
X022111Y003824D01*
X022431Y003956D01*
X022438Y003963D01*
X022445Y003956D01*
X022765Y003824D01*
X023111Y003824D01*
X023431Y003956D01*
X023438Y003963D01*
X023445Y003956D01*
X023765Y003824D01*
X024111Y003824D01*
X024431Y003956D01*
X024676Y004201D01*
X024808Y004521D01*
X024808Y004867D01*
X024676Y005187D01*
X024431Y005431D01*
X024111Y005564D01*
X023765Y005564D01*
X023445Y005431D01*
X023438Y005424D01*
X023431Y005431D01*
X023111Y005564D01*
X022765Y005564D01*
X022445Y005431D01*
X022438Y005424D01*
X022431Y005431D01*
X022111Y005564D01*
X021765Y005564D01*
X021445Y005431D01*
X021438Y005424D01*
X021431Y005431D01*
X021111Y005564D01*
X020765Y005564D01*
X020445Y005431D01*
X020438Y005424D01*
X020431Y005431D01*
X020111Y005564D01*
X019765Y005564D01*
X019445Y005431D01*
X019438Y005424D01*
X019431Y005431D01*
X019111Y005564D01*
X018765Y005564D01*
X018445Y005431D01*
X018438Y005424D01*
X018431Y005431D01*
X018111Y005564D01*
X017765Y005564D01*
X017445Y005431D01*
X017438Y005424D01*
X017431Y005431D01*
X017111Y005564D01*
X016814Y005564D01*
X016814Y006487D01*
X016956Y006487D01*
X017448Y006618D01*
X017448Y006618D01*
X017889Y006873D01*
X018249Y007233D01*
X018503Y007674D01*
X018635Y008166D01*
X018635Y010584D01*
X019231Y010584D01*
X019375Y010727D01*
X019519Y010584D01*
X020231Y010584D01*
X020735Y011087D01*
X020735Y011800D01*
X020591Y011944D01*
X020735Y012087D01*
X020735Y012800D01*
X020591Y012944D01*
X020735Y013087D01*
X020735Y013800D01*
X020591Y013944D01*
X020735Y014087D01*
X020735Y014800D01*
X020591Y014944D01*
X020735Y015087D01*
X020735Y015800D01*
X020231Y016304D01*
X019519Y016304D01*
X019234Y016019D01*
X019148Y016104D01*
X018875Y016104D01*
X018635Y016104D01*
X018635Y016723D01*
X021255Y016723D01*
X021684Y016838D01*
X022069Y017060D01*
X022383Y017374D01*
X022587Y017728D01*
X026817Y014038D01*
X026918Y013935D01*
X026951Y013921D01*
X026977Y013898D01*
X027115Y013852D01*
X027248Y013795D01*
X027283Y013795D01*
X027317Y013784D01*
X027461Y013793D01*
X031047Y013765D01*
X031297Y013866D01*
X031334Y013866D01*
X031628Y013988D01*
X031853Y014213D01*
X031975Y014507D01*
X031975Y014825D01*
X031853Y015119D01*
X031660Y015313D01*
X031688Y015352D01*
X031731Y015436D01*
X031760Y015526D01*
X031775Y015619D01*
X031775Y015666D01*
X030875Y015666D01*
X030875Y015666D01*
X029975Y015666D01*
X029975Y015713D01*
X029990Y015807D01*
X030019Y015896D01*
X030062Y015981D01*
X030117Y016057D01*
X030137Y016076D01*
X030122Y016082D01*
X029897Y016307D01*
X029775Y016601D01*
X029775Y016920D01*
X029897Y017214D01*
X029944Y017261D01*
X029897Y017307D01*
X029775Y017601D01*
X029775Y017920D01*
X029897Y018214D01*
X029928Y018245D01*
X029897Y018276D01*
X029775Y018570D01*
X029775Y018888D01*
X029897Y019182D01*
X029944Y019229D01*
X029897Y019276D01*
X029775Y019570D01*
X029775Y019888D01*
X029897Y020182D01*
X029928Y020213D01*
X029897Y020244D01*
X029775Y020539D01*
X029775Y020857D01*
X029897Y021151D01*
X029944Y021198D01*
X029897Y021244D01*
X029775Y021539D01*
X029775Y021857D01*
X029897Y022151D01*
X030122Y022376D01*
X030416Y022498D01*
X030554Y022498D01*
X033143Y023340D01*
X033068Y023521D01*
X033068Y023867D01*
X033200Y024187D01*
X033445Y024431D01*
X033765Y024564D01*
X034111Y024564D01*
X034431Y024431D01*
X034438Y024424D01*
X034445Y024431D01*
X034765Y024564D01*
X035111Y024564D01*
X035431Y024431D01*
X035676Y024187D01*
X035808Y023867D01*
X035808Y023521D01*
X035676Y023201D01*
X035668Y023194D01*
X035808Y023054D01*
X035808Y022333D01*
X035668Y022194D01*
X035808Y022054D01*
X035808Y021333D01*
X035668Y021194D01*
X035808Y021054D01*
X035808Y020333D01*
X035668Y020194D01*
X035808Y020054D01*
X035808Y019333D01*
X035668Y019194D01*
X035808Y019054D01*
X035808Y018333D01*
X035668Y018194D01*
X035808Y018054D01*
X035808Y017333D01*
X035668Y017194D01*
X035808Y017054D01*
X035808Y016333D01*
X035668Y016194D01*
X035808Y016054D01*
X035808Y015333D01*
X035668Y015194D01*
X035808Y015054D01*
X035808Y014333D01*
X035668Y014194D01*
X035808Y014054D01*
X035808Y013333D01*
X035668Y013194D01*
X035808Y013054D01*
X035808Y012333D01*
X035668Y012194D01*
X035808Y012054D01*
X035808Y011333D01*
X035668Y011194D01*
X035808Y011054D01*
X035808Y010333D01*
X035668Y010194D01*
X035808Y010054D01*
X035808Y009394D01*
X036138Y009203D01*
X036138Y009203D01*
X036138Y009203D01*
X036181Y009161D01*
X036181Y026865D01*
X009034Y026865D01*
X009034Y001294D01*
X036181Y001294D01*
X036181Y004820D01*
X035857Y004633D01*
X035857Y004633D01*
X035428Y004518D01*
X035936Y004679D02*
X036181Y004679D01*
X036181Y004280D02*
X033708Y004280D01*
X033251Y003882D02*
X036181Y003882D01*
X036181Y003483D02*
X016640Y003483D01*
X016477Y003201D02*
X016477Y003201D01*
X016361Y003085D02*
X036181Y003085D01*
X036181Y002686D02*
X015816Y002686D01*
X015778Y002665D02*
X015778Y002665D01*
X015127Y003450D02*
X013182Y003450D01*
X012409Y002686D02*
X009034Y002686D01*
X009034Y002288D02*
X036181Y002288D01*
X036181Y001889D02*
X009034Y001889D01*
X009034Y001491D02*
X036181Y001491D01*
X032625Y003882D02*
X032251Y003882D01*
X031625Y003882D02*
X031251Y003882D01*
X030625Y003882D02*
X030342Y003882D01*
X029532Y003882D02*
X029251Y003882D01*
X028625Y003882D02*
X028251Y003882D01*
X027625Y003882D02*
X027251Y003882D01*
X029938Y004693D02*
X029917Y004796D01*
X029891Y004897D01*
X029862Y004998D01*
X029829Y005098D01*
X029793Y005196D01*
X029754Y005293D01*
X029710Y005388D01*
X029664Y005482D01*
X029614Y005574D01*
X029561Y005664D01*
X029505Y005753D01*
X029445Y005839D01*
X029383Y005923D01*
X029317Y006005D01*
X029249Y006084D01*
X029178Y006161D01*
X029104Y006235D01*
X029028Y006307D01*
X028949Y006376D01*
X028867Y006442D01*
X027607Y007426D01*
X026695Y007468D02*
X018385Y007468D01*
X018503Y007674D02*
X018503Y007674D01*
X018555Y007867D02*
X026727Y007867D01*
X027029Y008265D02*
X018635Y008265D01*
X018635Y008664D02*
X028600Y008664D01*
X028580Y008265D02*
X028185Y008265D01*
X028505Y007867D02*
X028636Y007867D01*
X028576Y009062D02*
X018635Y009062D01*
X018635Y009461D02*
X028478Y009461D01*
X028285Y009859D02*
X018635Y009859D01*
X018635Y010258D02*
X027951Y010258D01*
X027339Y010656D02*
X020304Y010656D01*
X020702Y011055D02*
X024559Y011055D01*
X024483Y011453D02*
X020735Y011453D01*
X020683Y011852D02*
X024463Y011852D01*
X024505Y012250D02*
X020735Y012250D01*
X020735Y012649D02*
X033068Y012649D01*
X033151Y012250D02*
X028205Y012250D01*
X028870Y011852D02*
X033068Y011852D01*
X033068Y011453D02*
X032713Y011453D01*
X032830Y011055D02*
X033069Y011055D01*
X033068Y010656D02*
X032858Y010656D01*
X032825Y010258D02*
X033144Y010258D01*
X030965Y008765D02*
X031021Y008682D01*
X031080Y008601D01*
X031142Y008523D01*
X031207Y008447D01*
X031274Y008374D01*
X031345Y008303D01*
X031418Y008235D01*
X031494Y008170D01*
X031572Y008108D01*
X031653Y008049D01*
X031735Y007993D01*
X031820Y007940D01*
X031907Y007891D01*
X031995Y007845D01*
X032086Y007802D01*
X032177Y007763D01*
X032271Y007727D01*
X032365Y007695D01*
X032461Y007667D01*
X032558Y007642D01*
X032655Y007621D01*
X032754Y007604D01*
X032853Y007590D01*
X032952Y007581D01*
X033052Y007575D01*
X033152Y007573D01*
X033251Y007575D01*
X033351Y007580D01*
X033450Y007590D01*
X033549Y007603D01*
X033648Y007620D01*
X033745Y007641D01*
X033842Y007666D01*
X033938Y007694D01*
X033938Y008694D02*
X033111Y008694D01*
X031368Y006304D02*
X031278Y006316D01*
X031189Y006331D01*
X031101Y006351D01*
X031014Y006374D01*
X030928Y006401D01*
X030843Y006431D01*
X030760Y006466D01*
X030678Y006503D01*
X030597Y006545D01*
X030519Y006589D01*
X030443Y006637D01*
X030368Y006688D01*
X030296Y006742D01*
X030226Y006800D01*
X030159Y006860D01*
X030095Y006923D01*
X030033Y006989D01*
X029974Y007057D01*
X029918Y007128D01*
X029865Y007201D01*
X029816Y007276D01*
X029769Y007353D01*
X029726Y007433D01*
X029686Y007514D01*
X029650Y007596D01*
X029618Y007680D01*
X029589Y007766D01*
X029563Y007852D01*
X029542Y007940D01*
X029524Y008028D01*
X029510Y008117D01*
X029500Y008207D01*
X029494Y008297D01*
X029491Y008387D01*
X029492Y008477D01*
X029498Y008567D01*
X030245Y009859D02*
X031027Y009859D01*
X030984Y010258D02*
X030111Y010258D01*
X029915Y010656D02*
X031003Y010656D01*
X031070Y011055D02*
X029651Y011055D01*
X029316Y011453D02*
X031187Y011453D01*
X032935Y009859D02*
X033068Y009859D01*
X033111Y008694D02*
X033035Y008717D01*
X032960Y008744D01*
X032887Y008774D01*
X032815Y008808D01*
X032745Y008845D01*
X032676Y008885D01*
X032610Y008928D01*
X032546Y008975D01*
X032484Y009025D01*
X032424Y009077D01*
X032367Y009133D01*
X032313Y009191D01*
X032261Y009251D01*
X032213Y009314D01*
X032167Y009379D01*
X032125Y009447D01*
X032086Y009516D01*
X032050Y009587D01*
X032018Y009659D01*
X031989Y009733D01*
X031964Y009808D01*
X031942Y009885D01*
X031924Y009962D01*
X031910Y010040D01*
X031899Y010119D01*
X031892Y010198D01*
X031889Y010278D01*
X031890Y010357D01*
X031894Y010436D01*
X031903Y010515D01*
X031915Y010594D01*
X031930Y010672D01*
X031950Y010749D01*
X033068Y013047D02*
X020695Y013047D01*
X020735Y013446D02*
X033068Y013446D01*
X033068Y013844D02*
X031243Y013844D01*
X031866Y014243D02*
X033159Y014243D01*
X033068Y014641D02*
X031975Y014641D01*
X031886Y015040D02*
X033068Y015040D01*
X033068Y015438D02*
X031732Y015438D01*
X031750Y015837D02*
X033068Y015837D01*
X033166Y016235D02*
X032101Y016235D01*
X030875Y014666D02*
X027434Y014694D01*
X021820Y019591D01*
X021820Y020772D01*
X021819Y020772D02*
X021817Y020828D01*
X021811Y020883D01*
X021801Y020938D01*
X021787Y020993D01*
X021770Y021046D01*
X021748Y021097D01*
X021723Y021147D01*
X021695Y021195D01*
X021663Y021241D01*
X021628Y021285D01*
X021590Y021326D01*
X021549Y021364D01*
X021505Y021399D01*
X021459Y021431D01*
X021411Y021459D01*
X021361Y021484D01*
X021310Y021506D01*
X021257Y021523D01*
X021202Y021537D01*
X021147Y021547D01*
X021092Y021553D01*
X021036Y021555D01*
X021036Y021556D02*
X020288Y021556D01*
X015530Y021556D01*
X015525Y021557D01*
X015521Y021560D01*
X015520Y021559D02*
X015470Y021552D01*
X015419Y021541D01*
X015370Y021527D01*
X015322Y021510D01*
X015276Y021488D01*
X015231Y021464D01*
X015187Y021437D01*
X015146Y021406D01*
X015108Y021373D01*
X015071Y021337D01*
X015038Y021298D01*
X015007Y021257D01*
X014979Y021214D01*
X014954Y021170D01*
X014933Y021123D01*
X014915Y021075D01*
X014900Y021026D01*
X014889Y020976D01*
X014881Y020926D01*
X014878Y020874D01*
X014877Y020823D01*
X014881Y020772D01*
X015706Y020220D02*
X016737Y020220D01*
X016510Y020089D02*
X016510Y020089D01*
X016243Y019822D02*
X015579Y019822D01*
X015614Y019886D02*
X015614Y019886D01*
X015365Y019423D02*
X015981Y019423D01*
X015927Y019329D02*
X015927Y019329D01*
X015845Y019025D02*
X015033Y019025D01*
X014960Y018941D02*
X014960Y018941D01*
X014527Y018626D02*
X015802Y018626D01*
X015802Y018228D02*
X009034Y018228D01*
X009034Y017829D02*
X015802Y017829D01*
X015802Y017431D02*
X009034Y017431D01*
X009034Y017032D02*
X015802Y017032D01*
X015802Y016634D02*
X009034Y016634D01*
X009034Y016235D02*
X015802Y016235D01*
X015802Y015837D02*
X009034Y015837D01*
X009034Y015438D02*
X015802Y015438D01*
X015802Y015040D02*
X009034Y015040D01*
X009034Y014641D02*
X015802Y014641D01*
X015802Y014243D02*
X009034Y014243D01*
X009034Y013844D02*
X015802Y013844D01*
X015802Y013446D02*
X009034Y013446D01*
X009034Y013047D02*
X015802Y013047D01*
X015802Y012649D02*
X009034Y012649D01*
X010008Y011718D02*
X010057Y011769D01*
X010102Y011822D01*
X010145Y011878D01*
X010185Y011936D01*
X010222Y011996D01*
X010256Y012058D01*
X010286Y012121D01*
X010313Y012186D01*
X010336Y012253D01*
X010356Y012320D01*
X010373Y012389D01*
X010385Y012458D01*
X010395Y012528D01*
X010400Y012598D01*
X010402Y012668D01*
X010403Y012668D02*
X010403Y013292D01*
X013158Y013292D01*
X013244Y013294D01*
X013330Y013299D01*
X013415Y013309D01*
X013500Y013322D01*
X013584Y013339D01*
X013668Y013359D01*
X013750Y013383D01*
X013831Y013411D01*
X013912Y013442D01*
X013990Y013476D01*
X014067Y013514D01*
X014142Y013556D01*
X014216Y013600D01*
X014287Y013648D01*
X014357Y013699D01*
X014424Y013753D01*
X014488Y013809D01*
X014550Y013869D01*
X014610Y013931D01*
X014666Y013995D01*
X014720Y014062D01*
X014771Y014132D01*
X014819Y014203D01*
X014863Y014276D01*
X014905Y014352D01*
X014943Y014429D01*
X014977Y014507D01*
X015008Y014588D01*
X015036Y014669D01*
X015060Y014751D01*
X015080Y014835D01*
X015097Y014919D01*
X015110Y015004D01*
X015120Y015089D01*
X015125Y015175D01*
X015127Y015261D01*
X015127Y016835D01*
X015127Y018410D01*
X015340Y019377D02*
X015340Y019377D01*
X013961Y018374D02*
X013961Y018374D01*
X013392Y018270D02*
X013392Y018270D01*
X013143Y019182D02*
X011977Y019182D01*
X011102Y018626D02*
X009034Y018626D01*
X009034Y019025D02*
X010877Y019025D01*
X010911Y019423D02*
X009034Y019423D01*
X009034Y019822D02*
X010961Y019822D01*
X010877Y020220D02*
X009034Y020220D01*
X009034Y020619D02*
X010992Y020619D01*
X011206Y021182D02*
X011151Y021180D01*
X011097Y021175D01*
X011043Y021165D01*
X010989Y021152D01*
X010937Y021136D01*
X010886Y021116D01*
X010837Y021092D01*
X010789Y021065D01*
X010743Y021035D01*
X010699Y021002D01*
X010658Y020966D01*
X010619Y020927D01*
X010583Y020886D01*
X010550Y020842D01*
X010520Y020796D01*
X010493Y020748D01*
X010469Y020699D01*
X010449Y020648D01*
X010433Y020596D01*
X010420Y020542D01*
X010410Y020488D01*
X010405Y020434D01*
X010403Y020379D01*
X010403Y013292D01*
X009034Y012250D02*
X015802Y012250D01*
X015802Y011852D02*
X009034Y011852D01*
X009034Y011453D02*
X015802Y011453D01*
X016701Y011324D02*
X016699Y011270D01*
X016694Y011217D01*
X016685Y011164D01*
X016672Y011112D01*
X016656Y011060D01*
X016636Y011010D01*
X016613Y010962D01*
X016586Y010915D01*
X016557Y010870D01*
X016524Y010827D01*
X016489Y010787D01*
X016451Y010749D01*
X016411Y010714D01*
X016368Y010681D01*
X016323Y010652D01*
X016276Y010625D01*
X016228Y010602D01*
X016178Y010582D01*
X016126Y010566D01*
X016074Y010553D01*
X016021Y010544D01*
X015968Y010539D01*
X015914Y010537D01*
X015914Y010536D02*
X012288Y010536D01*
X011488Y011295D02*
X011488Y011295D01*
X011072Y011055D02*
X009034Y011055D01*
X009615Y010930D02*
X009615Y007863D01*
X010180Y007867D02*
X009034Y007867D01*
X009034Y007468D02*
X010224Y007468D01*
X010291Y007070D02*
X009034Y007070D01*
X009034Y006671D02*
X010299Y006671D01*
X010222Y006273D02*
X009034Y006273D01*
X009034Y005874D02*
X010467Y005874D01*
X010552Y005476D02*
X010323Y005476D01*
X009552Y005476D02*
X009034Y005476D01*
X009034Y005077D02*
X009155Y005077D01*
X009068Y004679D02*
X009034Y004679D01*
X009034Y004280D02*
X009168Y004280D01*
X009034Y003882D02*
X009625Y003882D01*
X009034Y003483D02*
X011405Y003483D01*
X011761Y003085D02*
X009034Y003085D01*
X010251Y003882D02*
X010625Y003882D01*
X012938Y004694D02*
X012936Y004773D01*
X012930Y004853D01*
X012921Y004932D01*
X012908Y005010D01*
X012891Y005087D01*
X012870Y005164D01*
X012846Y005240D01*
X012818Y005314D01*
X012787Y005387D01*
X012752Y005459D01*
X012714Y005529D01*
X012673Y005596D01*
X012629Y005662D01*
X012581Y005726D01*
X012530Y005787D01*
X012477Y005846D01*
X012421Y005902D01*
X012362Y005955D01*
X012301Y006006D01*
X012237Y006054D01*
X012171Y006098D01*
X012104Y006139D01*
X012034Y006177D01*
X011962Y006212D01*
X011889Y006243D01*
X011815Y006271D01*
X011739Y006295D01*
X011662Y006316D01*
X011585Y006333D01*
X011507Y006346D01*
X011428Y006355D01*
X011348Y006361D01*
X011269Y006363D01*
X011115Y006363D02*
X011115Y006363D01*
X011115Y006273D02*
X011115Y006273D01*
X011115Y006671D02*
X011115Y006671D01*
X011115Y007070D02*
X011115Y007070D01*
X011115Y007363D02*
X011115Y007363D01*
X011115Y006363D02*
X011039Y006365D01*
X010963Y006371D01*
X010888Y006380D01*
X010813Y006394D01*
X010739Y006411D01*
X010666Y006432D01*
X010594Y006456D01*
X010523Y006485D01*
X010454Y006516D01*
X010387Y006551D01*
X010322Y006590D01*
X010258Y006632D01*
X010197Y006677D01*
X010138Y006725D01*
X010082Y006776D01*
X010028Y006830D01*
X009977Y006886D01*
X009929Y006945D01*
X009884Y007006D01*
X009842Y007070D01*
X009803Y007135D01*
X009768Y007202D01*
X009737Y007271D01*
X009708Y007342D01*
X009684Y007414D01*
X009663Y007487D01*
X009646Y007561D01*
X009632Y007636D01*
X009623Y007711D01*
X009617Y007787D01*
X009615Y007863D01*
X010015Y008265D02*
X009034Y008265D01*
X009034Y008664D02*
X010074Y008664D01*
X010074Y009062D02*
X009034Y009062D01*
X009034Y009461D02*
X010015Y009461D01*
X010180Y009859D02*
X009034Y009859D01*
X009034Y010258D02*
X010411Y010258D01*
X010356Y010163D02*
X010356Y010163D01*
X010629Y010636D02*
X010629Y010636D01*
X010650Y010656D02*
X009034Y010656D01*
X009615Y010930D02*
X009617Y010991D01*
X009623Y011051D01*
X009632Y011111D01*
X009645Y011171D01*
X009662Y011229D01*
X009682Y011287D01*
X009706Y011343D01*
X009733Y011397D01*
X009763Y011450D01*
X009797Y011500D01*
X009834Y011549D01*
X009874Y011595D01*
X009916Y011638D01*
X009961Y011679D01*
X010009Y011717D01*
X011015Y011022D02*
X011015Y011022D01*
X012215Y009461D02*
X016835Y009461D01*
X016566Y009751D02*
X016566Y009751D01*
X016753Y009859D02*
X016835Y009859D01*
X016835Y009062D02*
X012156Y009062D01*
X011115Y009363D02*
X011117Y009429D01*
X011122Y009494D01*
X011132Y009559D01*
X011144Y009624D01*
X011161Y009688D01*
X011181Y009750D01*
X011204Y009812D01*
X011231Y009872D01*
X011261Y009930D01*
X011295Y009987D01*
X011331Y010042D01*
X011371Y010094D01*
X011413Y010145D01*
X011459Y010192D01*
X011506Y010238D01*
X011557Y010280D01*
X011609Y010320D01*
X011664Y010356D01*
X011721Y010390D01*
X011779Y010420D01*
X011839Y010447D01*
X011901Y010470D01*
X011963Y010490D01*
X012027Y010507D01*
X012092Y010519D01*
X012157Y010529D01*
X012222Y010534D01*
X012288Y010536D01*
X012157Y008664D02*
X016835Y008664D01*
X017735Y008420D02*
X017733Y008358D01*
X017727Y008295D01*
X017718Y008234D01*
X017705Y008173D01*
X017688Y008113D01*
X017668Y008054D01*
X017644Y007996D01*
X017617Y007940D01*
X017586Y007886D01*
X017552Y007833D01*
X017515Y007783D01*
X017475Y007735D01*
X017432Y007690D01*
X017387Y007647D01*
X017339Y007607D01*
X017289Y007570D01*
X017236Y007536D01*
X017182Y007505D01*
X017126Y007478D01*
X017068Y007454D01*
X017009Y007434D01*
X016949Y007417D01*
X016888Y007404D01*
X016827Y007395D01*
X016764Y007389D01*
X016702Y007387D01*
X016702Y007386D02*
X016648Y007384D01*
X016595Y007379D01*
X016542Y007370D01*
X016490Y007357D01*
X016438Y007341D01*
X016388Y007321D01*
X016340Y007298D01*
X016293Y007271D01*
X016248Y007242D01*
X016205Y007209D01*
X016165Y007174D01*
X016127Y007136D01*
X016092Y007096D01*
X016059Y007053D01*
X016030Y007008D01*
X016003Y006961D01*
X015980Y006913D01*
X015960Y006863D01*
X015944Y006811D01*
X015931Y006759D01*
X015922Y006706D01*
X015917Y006653D01*
X015915Y006599D01*
X015914Y006599D02*
X015914Y004237D01*
X015912Y004183D01*
X015907Y004130D01*
X015898Y004077D01*
X015885Y004025D01*
X015869Y003973D01*
X015849Y003923D01*
X015826Y003875D01*
X015799Y003828D01*
X015770Y003783D01*
X015737Y003740D01*
X015702Y003700D01*
X015664Y003662D01*
X015624Y003627D01*
X015581Y003594D01*
X015536Y003565D01*
X015489Y003538D01*
X015441Y003515D01*
X015391Y003495D01*
X015339Y003479D01*
X015287Y003466D01*
X015234Y003457D01*
X015181Y003452D01*
X015127Y003450D01*
X013182Y003450D02*
X013112Y003452D01*
X013043Y003458D01*
X012974Y003468D01*
X012905Y003481D01*
X012838Y003499D01*
X012771Y003520D01*
X012706Y003545D01*
X012642Y003573D01*
X012580Y003605D01*
X012520Y003641D01*
X012462Y003679D01*
X012406Y003721D01*
X012353Y003766D01*
X012302Y003814D01*
X012254Y003865D01*
X012209Y003918D01*
X012167Y003974D01*
X012129Y004032D01*
X012093Y004092D01*
X012061Y004154D01*
X012033Y004218D01*
X012008Y004283D01*
X011987Y004350D01*
X011969Y004417D01*
X011956Y004486D01*
X011946Y004555D01*
X011940Y004624D01*
X011938Y004694D01*
X012402Y005476D02*
X013552Y005476D01*
X012938Y005364D02*
X012938Y004694D01*
X012938Y005364D01*
X012938Y005077D02*
X012938Y005077D01*
X012938Y004694D02*
X012938Y004694D01*
X014323Y005476D02*
X014552Y005476D01*
X015014Y005874D02*
X011763Y005874D01*
X011474Y005476D02*
X011323Y005476D01*
X011115Y005874D02*
X011115Y005874D01*
X012008Y006273D02*
X015014Y006273D01*
X015014Y006671D02*
X011932Y006671D01*
X011939Y007070D02*
X015081Y007070D01*
X015255Y007468D02*
X012006Y007468D01*
X012050Y007867D02*
X015583Y007867D01*
X015352Y007635D02*
X015352Y007635D01*
X016050Y008172D02*
X016050Y008172D01*
X016400Y008265D02*
X012215Y008265D01*
X016814Y006273D02*
X027622Y006273D01*
X028132Y005874D02*
X016814Y005874D01*
X017323Y005476D02*
X017552Y005476D01*
X018323Y005476D02*
X018552Y005476D01*
X019323Y005476D02*
X019552Y005476D01*
X020323Y005476D02*
X020552Y005476D01*
X021323Y005476D02*
X021552Y005476D01*
X022323Y005476D02*
X022552Y005476D01*
X023323Y005476D02*
X023552Y005476D01*
X024323Y005476D02*
X025552Y005476D01*
X025155Y005077D02*
X024721Y005077D01*
X024808Y004679D02*
X025068Y004679D01*
X025168Y004280D02*
X024708Y004280D01*
X024251Y003882D02*
X025625Y003882D01*
X026251Y003882D02*
X026625Y003882D01*
X026552Y005476D02*
X026323Y005476D01*
X027323Y005476D02*
X027552Y005476D01*
X028323Y005476D02*
X028553Y005476D01*
X026895Y006671D02*
X017540Y006671D01*
X017889Y006873D02*
X017889Y006873D01*
X018086Y007070D02*
X026727Y007070D01*
X029496Y008568D02*
X029502Y008676D01*
X029503Y008784D01*
X029500Y008892D01*
X029494Y009000D01*
X029483Y009108D01*
X029469Y009215D01*
X029450Y009321D01*
X029428Y009427D01*
X029402Y009532D01*
X029372Y009636D01*
X029338Y009739D01*
X029301Y009840D01*
X029260Y009940D01*
X029215Y010038D01*
X029167Y010135D01*
X029115Y010230D01*
X029060Y010323D01*
X029001Y010414D01*
X028939Y010502D01*
X028874Y010589D01*
X028806Y010673D01*
X028735Y010754D01*
X028661Y010833D01*
X028584Y010908D01*
X028504Y010982D01*
X028422Y011052D01*
X028337Y011119D01*
X028250Y011183D01*
X028161Y011243D01*
X028069Y011301D01*
X027975Y011355D01*
X027880Y011405D01*
X027783Y011452D01*
X027684Y011496D01*
X027583Y011536D01*
X027481Y011572D01*
X027378Y011604D01*
X027274Y011633D01*
X027169Y011657D01*
X027063Y011678D01*
X026956Y011695D01*
X026849Y011708D01*
X026741Y011717D01*
X025363Y011717D01*
X027132Y013844D02*
X020691Y013844D01*
X020735Y014243D02*
X026582Y014243D01*
X026125Y014641D02*
X020735Y014641D01*
X020687Y015040D02*
X025668Y015040D01*
X025212Y015438D02*
X020735Y015438D01*
X020698Y015837D02*
X024755Y015837D01*
X024298Y016235D02*
X020300Y016235D01*
X019450Y016235D02*
X018635Y016235D01*
X018875Y016104D02*
X018875Y015444D01*
X018875Y015444D01*
X018875Y016104D01*
X018875Y015837D02*
X018875Y015837D01*
X018635Y016634D02*
X023841Y016634D01*
X023384Y017032D02*
X022020Y017032D01*
X021684Y016838D02*
X021684Y016838D01*
X022383Y017374D02*
X022383Y017374D01*
X022415Y017431D02*
X022928Y017431D01*
X021820Y018410D02*
X021820Y019591D01*
X022720Y020220D02*
X029921Y020220D01*
X029775Y019822D02*
X022925Y019822D01*
X023382Y019423D02*
X029836Y019423D01*
X029832Y019025D02*
X023838Y019025D01*
X024295Y018626D02*
X029775Y018626D01*
X029911Y018228D02*
X024752Y018228D01*
X025209Y017829D02*
X029775Y017829D01*
X029846Y017431D02*
X025666Y017431D01*
X026122Y017032D02*
X029822Y017032D01*
X029775Y016634D02*
X026579Y016634D01*
X027036Y016235D02*
X029969Y016235D01*
X030000Y015837D02*
X027493Y015837D01*
X029775Y020619D02*
X022720Y020619D01*
X022714Y021017D02*
X029841Y021017D01*
X029826Y021416D02*
X022607Y021416D01*
X022384Y021806D02*
X022384Y021806D01*
X022375Y021814D02*
X029775Y021814D01*
X029959Y022213D02*
X021909Y022213D01*
X022070Y022120D02*
X022070Y022120D01*
X021686Y022341D02*
X021686Y022341D01*
X022484Y023010D02*
X023392Y023010D01*
X023445Y022956D02*
X023765Y022824D01*
X024111Y022824D01*
X024431Y022956D01*
X024438Y022963D01*
X024445Y022956D01*
X024765Y022824D01*
X025111Y022824D01*
X025431Y022956D01*
X025438Y022963D01*
X025445Y022956D01*
X025765Y022824D01*
X026111Y022824D01*
X026431Y022956D01*
X026438Y022963D01*
X026445Y022956D01*
X026765Y022824D01*
X027111Y022824D01*
X027431Y022956D01*
X027438Y022963D01*
X027445Y022956D01*
X027765Y022824D01*
X028111Y022824D01*
X028431Y022956D01*
X028438Y022963D01*
X028445Y022956D01*
X028765Y022824D01*
X029111Y022824D01*
X029431Y022956D01*
X029438Y022963D01*
X029445Y022956D01*
X029765Y022824D01*
X030111Y022824D01*
X030431Y022956D01*
X030438Y022963D01*
X030445Y022956D01*
X030765Y022824D01*
X031111Y022824D01*
X031431Y022956D01*
X031676Y023201D01*
X031808Y023521D01*
X031808Y023867D01*
X031676Y024187D01*
X031431Y024431D01*
X031111Y024564D01*
X030765Y024564D01*
X030445Y024431D01*
X030438Y024424D01*
X030431Y024431D01*
X030111Y024564D01*
X029765Y024564D01*
X029445Y024431D01*
X029438Y024424D01*
X029431Y024431D01*
X029111Y024564D01*
X028765Y024564D01*
X028445Y024431D01*
X028438Y024424D01*
X028431Y024431D01*
X028111Y024564D01*
X027765Y024564D01*
X027445Y024431D01*
X027438Y024424D01*
X027431Y024431D01*
X027111Y024564D01*
X026765Y024564D01*
X026445Y024431D01*
X026438Y024424D01*
X026431Y024431D01*
X026111Y024564D01*
X025765Y024564D01*
X025445Y024431D01*
X025438Y024424D01*
X025431Y024431D01*
X025111Y024564D01*
X024765Y024564D01*
X024445Y024431D01*
X024438Y024424D01*
X024431Y024431D01*
X024111Y024564D01*
X023765Y024564D01*
X023445Y024431D01*
X023200Y024187D01*
X023068Y023867D01*
X023068Y023521D01*
X023200Y023201D01*
X023445Y022956D01*
X023115Y023408D02*
X022761Y023408D01*
X022808Y023807D02*
X023068Y023807D01*
X023219Y024205D02*
X022657Y024205D01*
X019391Y020619D02*
X015775Y020619D01*
X015767Y020444D02*
X015767Y020444D01*
X017273Y020556D02*
X020288Y020556D01*
X020288Y019556D02*
X017637Y019556D01*
X017578Y019554D01*
X017520Y019549D01*
X017462Y019539D01*
X017404Y019527D01*
X017348Y019510D01*
X017293Y019490D01*
X017239Y019467D01*
X017187Y019440D01*
X017136Y019410D01*
X017087Y019377D01*
X017041Y019341D01*
X016997Y019303D01*
X016955Y019261D01*
X016917Y019217D01*
X016881Y019171D01*
X016848Y019122D01*
X016818Y019071D01*
X016791Y019019D01*
X016768Y018965D01*
X016748Y018910D01*
X016731Y018854D01*
X016719Y018796D01*
X016709Y018738D01*
X016704Y018680D01*
X016702Y018621D01*
X016702Y011324D01*
X019304Y010656D02*
X019446Y010656D01*
X017735Y008420D02*
X017735Y017229D01*
X017737Y017268D01*
X017743Y017306D01*
X017752Y017343D01*
X017765Y017380D01*
X017782Y017415D01*
X017801Y017448D01*
X017824Y017479D01*
X017850Y017508D01*
X017879Y017534D01*
X017910Y017557D01*
X017943Y017576D01*
X017978Y017593D01*
X018015Y017606D01*
X018052Y017615D01*
X018090Y017621D01*
X018129Y017623D01*
X019458Y017623D01*
X021032Y017623D01*
X021086Y017625D01*
X021139Y017630D01*
X021192Y017639D01*
X021244Y017652D01*
X021296Y017668D01*
X021346Y017688D01*
X021394Y017711D01*
X021441Y017738D01*
X021486Y017767D01*
X021529Y017800D01*
X021569Y017835D01*
X021607Y017873D01*
X021642Y017913D01*
X021675Y017956D01*
X021704Y018001D01*
X021731Y018048D01*
X021754Y018096D01*
X021774Y018146D01*
X021790Y018198D01*
X021803Y018250D01*
X021812Y018303D01*
X021817Y018356D01*
X021819Y018410D01*
X017273Y020556D02*
X017182Y020554D01*
X017091Y020548D01*
X017000Y020539D01*
X016910Y020525D01*
X016821Y020508D01*
X016732Y020487D01*
X016645Y020462D01*
X016558Y020433D01*
X016473Y020401D01*
X016389Y020365D01*
X016307Y020326D01*
X016226Y020283D01*
X016148Y020237D01*
X016071Y020188D01*
X015997Y020135D01*
X015925Y020080D01*
X015855Y020021D01*
X015788Y019959D01*
X015724Y019895D01*
X015662Y019828D01*
X015603Y019758D01*
X015548Y019686D01*
X015495Y019612D01*
X015446Y019535D01*
X015400Y019457D01*
X015357Y019376D01*
X015318Y019294D01*
X015282Y019210D01*
X015250Y019125D01*
X015221Y019038D01*
X015196Y018951D01*
X015175Y018862D01*
X015158Y018773D01*
X015144Y018683D01*
X015135Y018592D01*
X015129Y018501D01*
X015127Y018410D01*
X012962Y020182D02*
X011977Y020182D01*
X011100Y021017D02*
X009034Y021017D01*
X009034Y021416D02*
X011123Y021416D01*
X011206Y021182D02*
X011977Y021182D01*
X012877Y021182D01*
X012877Y021229D01*
X012863Y021322D01*
X012833Y021412D01*
X012819Y021440D01*
X012872Y021426D01*
X012936Y021389D01*
X012988Y021337D01*
X013024Y021274D01*
X013043Y021203D01*
X013046Y021166D01*
X013045Y021155D01*
X013039Y021134D01*
X013028Y021115D01*
X013013Y021099D01*
X012994Y021088D01*
X012973Y021083D01*
X012962Y021082D01*
X012869Y021082D01*
X012877Y021135D01*
X012877Y021182D01*
X011977Y021182D01*
X011977Y021182D01*
X010871Y021555D02*
X010871Y021555D01*
X010435Y021765D02*
X010435Y021765D01*
X010373Y021814D02*
X009034Y021814D01*
X009034Y022213D02*
X009940Y022213D01*
X010057Y022066D02*
X010057Y022066D01*
X010057Y022066D01*
X009755Y022444D02*
X009755Y022444D01*
X009675Y022611D02*
X009034Y022611D01*
X009034Y023010D02*
X009516Y023010D01*
X009546Y022880D02*
X009546Y022880D01*
X009438Y023408D02*
X009034Y023408D01*
X009034Y023807D02*
X009438Y023807D01*
X009577Y024205D02*
X009034Y024205D01*
X009034Y024604D02*
X010500Y024604D01*
X010555Y024843D02*
X010555Y024843D01*
X010631Y025002D02*
X009034Y025002D01*
X009034Y025401D02*
X010850Y025401D01*
X010782Y025316D02*
X010782Y025316D01*
X011201Y025799D02*
X009034Y025799D01*
X009034Y026198D02*
X011820Y026198D01*
X011991Y026280D02*
X011991Y026280D01*
X011519Y026053D02*
X011519Y026053D01*
X012960Y024604D02*
X036181Y024604D01*
X036181Y025002D02*
X013638Y025002D01*
X013665Y025401D02*
X036181Y025401D01*
X036181Y025799D02*
X013645Y025799D01*
X013531Y026198D02*
X036181Y026198D01*
X036181Y026596D02*
X009034Y026596D01*
X011338Y024070D02*
X011338Y023694D01*
X010338Y023593D02*
X010340Y023523D01*
X010346Y023453D01*
X010356Y023384D01*
X010369Y023316D01*
X010387Y023248D01*
X010408Y023181D01*
X010433Y023116D01*
X010461Y023052D01*
X010493Y022990D01*
X010529Y022930D01*
X010568Y022872D01*
X010610Y022816D01*
X010655Y022763D01*
X010703Y022712D01*
X010754Y022664D01*
X010807Y022619D01*
X010863Y022577D01*
X010921Y022538D01*
X010981Y022502D01*
X011043Y022470D01*
X011107Y022442D01*
X011172Y022417D01*
X011239Y022396D01*
X011307Y022378D01*
X011375Y022365D01*
X011444Y022355D01*
X011514Y022349D01*
X011584Y022347D01*
X012765Y022347D01*
X012832Y021416D02*
X012890Y021416D01*
X013946Y021166D02*
X013944Y021104D01*
X013938Y021043D01*
X013929Y020982D01*
X013915Y020921D01*
X013898Y020862D01*
X013877Y020804D01*
X013852Y020747D01*
X013824Y020692D01*
X013793Y020639D01*
X013758Y020588D01*
X013720Y020539D01*
X013679Y020492D01*
X013636Y020449D01*
X013589Y020408D01*
X013540Y020370D01*
X013489Y020335D01*
X013436Y020304D01*
X013381Y020276D01*
X013324Y020251D01*
X013266Y020230D01*
X013207Y020213D01*
X013146Y020199D01*
X013085Y020190D01*
X013024Y020184D01*
X012962Y020182D01*
X013143Y019182D02*
X013222Y019180D01*
X013302Y019182D01*
X013381Y019188D01*
X013459Y019198D01*
X013538Y019211D01*
X013615Y019228D01*
X013692Y019249D01*
X013767Y019273D01*
X013841Y019301D01*
X013914Y019333D01*
X013985Y019368D01*
X014055Y019406D01*
X014122Y019447D01*
X014188Y019492D01*
X014251Y019540D01*
X014312Y019591D01*
X014371Y019644D01*
X014427Y019700D01*
X014480Y019759D01*
X014530Y019820D01*
X014577Y019884D01*
X014621Y019950D01*
X014663Y020018D01*
X014700Y020087D01*
X014735Y020159D01*
X014766Y020232D01*
X014793Y020306D01*
X014817Y020382D01*
X014837Y020459D01*
X014854Y020536D01*
X014867Y020614D01*
X014876Y020693D01*
X014881Y020772D01*
X014724Y022213D02*
X014564Y022213D01*
X014430Y022444D02*
X014430Y022444D01*
X014263Y022611D02*
X030903Y022611D01*
X031484Y023010D02*
X032129Y023010D01*
X031761Y023408D02*
X033115Y023408D01*
X033068Y023807D02*
X031808Y023807D01*
X031657Y024205D02*
X033219Y024205D01*
X035657Y024205D02*
X036181Y024205D01*
X036181Y023807D02*
X035808Y023807D01*
X035761Y023408D02*
X036181Y023408D01*
X036181Y023010D02*
X035808Y023010D01*
X035808Y022611D02*
X036181Y022611D01*
X036181Y022213D02*
X035687Y022213D01*
X035808Y021814D02*
X036181Y021814D01*
X036181Y021416D02*
X035808Y021416D01*
X035808Y021017D02*
X036181Y021017D01*
X036181Y020619D02*
X035808Y020619D01*
X035695Y020220D02*
X036181Y020220D01*
X036181Y019822D02*
X035808Y019822D01*
X035808Y019423D02*
X036181Y019423D01*
X036181Y019025D02*
X035808Y019025D01*
X035808Y018626D02*
X036181Y018626D01*
X036181Y018228D02*
X035702Y018228D01*
X035808Y017829D02*
X036181Y017829D01*
X036181Y017431D02*
X035808Y017431D01*
X035808Y017032D02*
X036181Y017032D01*
X036181Y016634D02*
X035808Y016634D01*
X035710Y016235D02*
X036181Y016235D01*
X036181Y015837D02*
X035808Y015837D01*
X035808Y015438D02*
X036181Y015438D01*
X036181Y015040D02*
X035808Y015040D01*
X035808Y014641D02*
X036181Y014641D01*
X036181Y014243D02*
X035717Y014243D01*
X035808Y013844D02*
X036181Y013844D01*
X036181Y013446D02*
X035808Y013446D01*
X035808Y013047D02*
X036181Y013047D01*
X036181Y012649D02*
X035808Y012649D01*
X035725Y012250D02*
X036181Y012250D01*
X036181Y011852D02*
X035808Y011852D01*
X035808Y011453D02*
X036181Y011453D01*
X036181Y011055D02*
X035807Y011055D01*
X035808Y010656D02*
X036181Y010656D01*
X036181Y010258D02*
X035732Y010258D01*
X035808Y009859D02*
X036181Y009859D01*
X036181Y009461D02*
X035808Y009461D01*
X035206Y005418D02*
X035054Y005420D01*
X034902Y005426D01*
X034751Y005436D01*
X034600Y005449D01*
X034449Y005467D01*
X034298Y005488D01*
X034149Y005513D01*
X034000Y005542D01*
X033851Y005575D01*
X033704Y005612D01*
X033558Y005652D01*
X033412Y005697D01*
X033268Y005744D01*
X033125Y005796D01*
X032984Y005851D01*
X032844Y005910D01*
X032843Y005910D02*
X032714Y005964D01*
X032584Y006015D01*
X032453Y006061D01*
X032321Y006105D01*
X032187Y006144D01*
X032052Y006180D01*
X031916Y006212D01*
X031780Y006241D01*
X031643Y006266D01*
X031505Y006287D01*
X031367Y006304D01*
X023625Y003882D02*
X023251Y003882D01*
X022625Y003882D02*
X022251Y003882D01*
X021625Y003882D02*
X021251Y003882D01*
X020625Y003882D02*
X020251Y003882D01*
X019625Y003882D02*
X019251Y003882D01*
X018625Y003882D02*
X018251Y003882D01*
X017625Y003882D02*
X017251Y003882D01*
X018249Y007233D02*
X018249Y007233D01*
X013046Y021166D02*
X013046Y021166D01*
X013946Y021166D02*
X013944Y021232D01*
X013939Y021298D01*
X013929Y021364D01*
X013916Y021429D01*
X013900Y021493D01*
X013880Y021556D01*
X013856Y021618D01*
X013829Y021678D01*
X013799Y021737D01*
X013765Y021794D01*
X013728Y021849D01*
X013688Y021902D01*
X013646Y021953D01*
X013600Y022001D01*
X013552Y022047D01*
X013501Y022089D01*
X013448Y022129D01*
X013393Y022166D01*
X013336Y022200D01*
X013277Y022230D01*
X013217Y022257D01*
X013155Y022281D01*
X013092Y022301D01*
X013028Y022317D01*
X012963Y022330D01*
X012897Y022340D01*
X012831Y022345D01*
X012765Y022347D01*
X013884Y023010D02*
X014392Y023010D01*
X014219Y024205D02*
X014057Y024205D01*
X012765Y025497D02*
X012690Y025495D01*
X012616Y025489D01*
X012542Y025479D01*
X012468Y025466D01*
X012396Y025448D01*
X012324Y025427D01*
X012254Y025402D01*
X012185Y025374D01*
X012117Y025341D01*
X012052Y025306D01*
X011988Y025267D01*
X011926Y025224D01*
X011867Y025179D01*
X011810Y025130D01*
X011756Y025079D01*
X011705Y025025D01*
X011656Y024968D01*
X011611Y024909D01*
X011568Y024847D01*
X011529Y024784D01*
X011494Y024718D01*
X011461Y024650D01*
X011433Y024581D01*
X011408Y024511D01*
X011387Y024439D01*
X011369Y024367D01*
X011356Y024293D01*
X011346Y024219D01*
X011340Y024145D01*
X011338Y024070D01*
X010338Y023694D02*
X010338Y023593D01*
D16*
X012765Y025497D03*
X019458Y017623D03*
X015127Y016835D03*
X025363Y011717D03*
X027607Y007426D03*
X030966Y008765D03*
X031950Y010749D03*
D17*
X011115Y009363D02*
X011115Y008363D01*
X011115Y007363D02*
X011115Y006363D01*
D18*
X030875Y016761D02*
X033938Y017694D01*
X033938Y018694D02*
X030875Y017761D01*
X030875Y018729D02*
X033938Y019694D01*
X033938Y020694D02*
X030875Y019729D01*
X030875Y020698D02*
X033938Y021694D01*
X033938Y022694D02*
X030875Y021698D01*
M02*
