%
M48
M72
T01C0.0236
T02C0.0315
T03C0.0394
T04C0.0400
T05C0.1181
%
T01
X47553Y14291
X48553Y15291
T02
X48553Y20291
X47553Y20291
X48553Y19291
X47553Y19291
X48553Y18291
X47553Y18291
X48553Y17291
X47553Y17291
X48553Y16291
X47553Y16291
X47553Y15291
X48553Y14291
X48553Y13291
X47553Y13291
X30239Y18598
X31239Y18598
X31239Y22598
X30239Y22598
X29239Y22598
X32239Y22598
X33239Y22598
X32239Y18598
X33239Y18598
X29239Y18598
X28239Y18598
X28239Y22598
X24324Y21492
X23324Y21492
X22324Y21492
X21324Y21492
X20324Y21492
X19324Y21492
X18324Y21492
X17324Y21492
X16324Y21492
X15324Y21492
X25324Y21492
X14324Y21492
X20324Y14492
X22324Y14492
X21324Y14492
X19324Y14492
X18324Y14492
X17324Y14492
X28029Y9567
X27017Y28437
X34970Y24933
X35443Y27098
X26242Y12354
X27096Y17059
X48553Y12334
X11742Y24000
X32742Y25067
X31742Y25067
X29742Y25067
X28742Y25067
X31135Y9185
X33135Y9185
X35135Y9185
X37135Y9185
X40135Y9185
X32348Y6948
X34348Y6948
X36348Y6948
X38348Y6948
X41348Y6948
X23513Y17059
X19576Y15996
X16466Y25326
X25915Y6429
T03
X46191Y19027
X41466Y18437
X41466Y20405
T04
X31616Y16421
X31616Y15421
X31616Y14421
X41224Y8067
X42224Y8067
X43224Y8067
X44224Y8067
X45224Y8067
X46224Y8067
X47224Y8067
X40224Y8067
X32224Y8067
X33224Y8067
X34224Y8067
X35224Y8067
X36224Y8067
X37224Y8067
X38224Y8067
X31224Y8067
X30224Y27067
X31224Y27067
X32224Y27067
X33224Y27067
X34224Y27067
X29224Y27067
X26624Y27067
X27624Y27067
X25224Y8067
X26224Y8067
X27224Y8067
X28224Y8067
X29224Y8067
X44224Y27067
X45224Y27067
X24224Y8067
X40224Y10417
X41224Y10417
X40224Y5704
X41224Y5704
X31224Y5704
X32224Y5704
X33224Y5704
X34224Y5704
X35224Y5704
X36224Y5704
X37224Y5704
X38224Y5704
X31224Y10417
X32224Y10417
X33224Y10417
X34224Y10417
X35224Y10417
X36224Y10417
X37224Y10417
X38224Y10417
X26439Y23897
X13120Y6567
X13120Y7567
X13120Y8567
X13120Y9567
X21691Y24972
X20691Y24972
X38242Y24972
X39242Y24972
X23691Y24972
X22691Y24972
X36242Y24972
X37242Y24972
X14179Y29263
X15179Y29263
X16179Y29263
X17179Y29263
X41344Y29263
X42344Y29263
X43344Y29263
X44344Y29263
X48450Y5149
X50230Y5149
X48450Y7709
X50230Y7709
T05
X9380Y6035
X48750Y29263
X47962Y11082
X47962Y22303
X10561Y11082
X10561Y22303
M30
