G75*
%MOIN*%
%OFA0B0*%
%FSLAX24Y24*%
%IPPOS*%
%LPD*%
%AMOC8*
5,1,8,0,0,1.08239X$1,22.5*
%
%ADD10C,0.0000*%
%ADD11C,0.0004*%
%ADD12C,0.0060*%
%ADD13C,0.0020*%
%ADD14R,0.0350X0.0500*%
%ADD15C,0.0080*%
%ADD16C,0.0050*%
D10*
X007411Y004067D02*
X051112Y004067D01*
X051112Y030838D01*
X007411Y030838D01*
X009970Y022303D02*
X009972Y022351D01*
X009978Y022399D01*
X009988Y022446D01*
X010001Y022492D01*
X010019Y022537D01*
X010039Y022581D01*
X010064Y022623D01*
X010092Y022662D01*
X010122Y022699D01*
X010156Y022733D01*
X010193Y022765D01*
X010231Y022794D01*
X010272Y022819D01*
X010315Y022841D01*
X010360Y022859D01*
X010406Y022873D01*
X010453Y022884D01*
X010501Y022891D01*
X010549Y022894D01*
X010597Y022893D01*
X010645Y022888D01*
X010693Y022879D01*
X010739Y022867D01*
X010784Y022850D01*
X010828Y022830D01*
X010870Y022807D01*
X010910Y022780D01*
X010948Y022750D01*
X010983Y022717D01*
X011015Y022681D01*
X011045Y022643D01*
X011071Y022602D01*
X011093Y022559D01*
X011113Y022515D01*
X011128Y022470D01*
X011140Y022423D01*
X011148Y022375D01*
X011152Y022327D01*
X011152Y022279D01*
X011148Y022231D01*
X011140Y022183D01*
X011128Y022136D01*
X011113Y022091D01*
X011093Y022047D01*
X011071Y022004D01*
X011045Y021963D01*
X011015Y021925D01*
X010983Y021889D01*
X010948Y021856D01*
X010910Y021826D01*
X010870Y021799D01*
X010828Y021776D01*
X010784Y021756D01*
X010739Y021739D01*
X010693Y021727D01*
X010645Y021718D01*
X010597Y021713D01*
X010549Y021712D01*
X010501Y021715D01*
X010453Y021722D01*
X010406Y021733D01*
X010360Y021747D01*
X010315Y021765D01*
X010272Y021787D01*
X010231Y021812D01*
X010193Y021841D01*
X010156Y021873D01*
X010122Y021907D01*
X010092Y021944D01*
X010064Y021983D01*
X010039Y022025D01*
X010019Y022069D01*
X010001Y022114D01*
X009988Y022160D01*
X009978Y022207D01*
X009972Y022255D01*
X009970Y022303D01*
X009970Y011082D02*
X009972Y011130D01*
X009978Y011178D01*
X009988Y011225D01*
X010001Y011271D01*
X010019Y011316D01*
X010039Y011360D01*
X010064Y011402D01*
X010092Y011441D01*
X010122Y011478D01*
X010156Y011512D01*
X010193Y011544D01*
X010231Y011573D01*
X010272Y011598D01*
X010315Y011620D01*
X010360Y011638D01*
X010406Y011652D01*
X010453Y011663D01*
X010501Y011670D01*
X010549Y011673D01*
X010597Y011672D01*
X010645Y011667D01*
X010693Y011658D01*
X010739Y011646D01*
X010784Y011629D01*
X010828Y011609D01*
X010870Y011586D01*
X010910Y011559D01*
X010948Y011529D01*
X010983Y011496D01*
X011015Y011460D01*
X011045Y011422D01*
X011071Y011381D01*
X011093Y011338D01*
X011113Y011294D01*
X011128Y011249D01*
X011140Y011202D01*
X011148Y011154D01*
X011152Y011106D01*
X011152Y011058D01*
X011148Y011010D01*
X011140Y010962D01*
X011128Y010915D01*
X011113Y010870D01*
X011093Y010826D01*
X011071Y010783D01*
X011045Y010742D01*
X011015Y010704D01*
X010983Y010668D01*
X010948Y010635D01*
X010910Y010605D01*
X010870Y010578D01*
X010828Y010555D01*
X010784Y010535D01*
X010739Y010518D01*
X010693Y010506D01*
X010645Y010497D01*
X010597Y010492D01*
X010549Y010491D01*
X010501Y010494D01*
X010453Y010501D01*
X010406Y010512D01*
X010360Y010526D01*
X010315Y010544D01*
X010272Y010566D01*
X010231Y010591D01*
X010193Y010620D01*
X010156Y010652D01*
X010122Y010686D01*
X010092Y010723D01*
X010064Y010762D01*
X010039Y010804D01*
X010019Y010848D01*
X010001Y010893D01*
X009988Y010939D01*
X009978Y010986D01*
X009972Y011034D01*
X009970Y011082D01*
X008789Y006035D02*
X008791Y006083D01*
X008797Y006131D01*
X008807Y006178D01*
X008820Y006224D01*
X008838Y006269D01*
X008858Y006313D01*
X008883Y006355D01*
X008911Y006394D01*
X008941Y006431D01*
X008975Y006465D01*
X009012Y006497D01*
X009050Y006526D01*
X009091Y006551D01*
X009134Y006573D01*
X009179Y006591D01*
X009225Y006605D01*
X009272Y006616D01*
X009320Y006623D01*
X009368Y006626D01*
X009416Y006625D01*
X009464Y006620D01*
X009512Y006611D01*
X009558Y006599D01*
X009603Y006582D01*
X009647Y006562D01*
X009689Y006539D01*
X009729Y006512D01*
X009767Y006482D01*
X009802Y006449D01*
X009834Y006413D01*
X009864Y006375D01*
X009890Y006334D01*
X009912Y006291D01*
X009932Y006247D01*
X009947Y006202D01*
X009959Y006155D01*
X009967Y006107D01*
X009971Y006059D01*
X009971Y006011D01*
X009967Y005963D01*
X009959Y005915D01*
X009947Y005868D01*
X009932Y005823D01*
X009912Y005779D01*
X009890Y005736D01*
X009864Y005695D01*
X009834Y005657D01*
X009802Y005621D01*
X009767Y005588D01*
X009729Y005558D01*
X009689Y005531D01*
X009647Y005508D01*
X009603Y005488D01*
X009558Y005471D01*
X009512Y005459D01*
X009464Y005450D01*
X009416Y005445D01*
X009368Y005444D01*
X009320Y005447D01*
X009272Y005454D01*
X009225Y005465D01*
X009179Y005479D01*
X009134Y005497D01*
X009091Y005519D01*
X009050Y005544D01*
X009012Y005573D01*
X008975Y005605D01*
X008941Y005639D01*
X008911Y005676D01*
X008883Y005715D01*
X008858Y005757D01*
X008838Y005801D01*
X008820Y005846D01*
X008807Y005892D01*
X008797Y005939D01*
X008791Y005987D01*
X008789Y006035D01*
X047371Y011082D02*
X047373Y011130D01*
X047379Y011178D01*
X047389Y011225D01*
X047402Y011271D01*
X047420Y011316D01*
X047440Y011360D01*
X047465Y011402D01*
X047493Y011441D01*
X047523Y011478D01*
X047557Y011512D01*
X047594Y011544D01*
X047632Y011573D01*
X047673Y011598D01*
X047716Y011620D01*
X047761Y011638D01*
X047807Y011652D01*
X047854Y011663D01*
X047902Y011670D01*
X047950Y011673D01*
X047998Y011672D01*
X048046Y011667D01*
X048094Y011658D01*
X048140Y011646D01*
X048185Y011629D01*
X048229Y011609D01*
X048271Y011586D01*
X048311Y011559D01*
X048349Y011529D01*
X048384Y011496D01*
X048416Y011460D01*
X048446Y011422D01*
X048472Y011381D01*
X048494Y011338D01*
X048514Y011294D01*
X048529Y011249D01*
X048541Y011202D01*
X048549Y011154D01*
X048553Y011106D01*
X048553Y011058D01*
X048549Y011010D01*
X048541Y010962D01*
X048529Y010915D01*
X048514Y010870D01*
X048494Y010826D01*
X048472Y010783D01*
X048446Y010742D01*
X048416Y010704D01*
X048384Y010668D01*
X048349Y010635D01*
X048311Y010605D01*
X048271Y010578D01*
X048229Y010555D01*
X048185Y010535D01*
X048140Y010518D01*
X048094Y010506D01*
X048046Y010497D01*
X047998Y010492D01*
X047950Y010491D01*
X047902Y010494D01*
X047854Y010501D01*
X047807Y010512D01*
X047761Y010526D01*
X047716Y010544D01*
X047673Y010566D01*
X047632Y010591D01*
X047594Y010620D01*
X047557Y010652D01*
X047523Y010686D01*
X047493Y010723D01*
X047465Y010762D01*
X047440Y010804D01*
X047420Y010848D01*
X047402Y010893D01*
X047389Y010939D01*
X047379Y010986D01*
X047373Y011034D01*
X047371Y011082D01*
X047435Y014291D02*
X047437Y014312D01*
X047443Y014332D01*
X047452Y014352D01*
X047464Y014369D01*
X047479Y014383D01*
X047497Y014395D01*
X047517Y014403D01*
X047537Y014408D01*
X047558Y014409D01*
X047579Y014406D01*
X047599Y014400D01*
X047618Y014389D01*
X047635Y014376D01*
X047648Y014360D01*
X047659Y014342D01*
X047667Y014322D01*
X047671Y014302D01*
X047671Y014280D01*
X047667Y014260D01*
X047659Y014240D01*
X047648Y014222D01*
X047635Y014206D01*
X047618Y014193D01*
X047599Y014182D01*
X047579Y014176D01*
X047558Y014173D01*
X047537Y014174D01*
X047517Y014179D01*
X047497Y014187D01*
X047479Y014199D01*
X047464Y014213D01*
X047452Y014230D01*
X047443Y014250D01*
X047437Y014270D01*
X047435Y014291D01*
X048435Y015291D02*
X048437Y015312D01*
X048443Y015332D01*
X048452Y015352D01*
X048464Y015369D01*
X048479Y015383D01*
X048497Y015395D01*
X048517Y015403D01*
X048537Y015408D01*
X048558Y015409D01*
X048579Y015406D01*
X048599Y015400D01*
X048618Y015389D01*
X048635Y015376D01*
X048648Y015360D01*
X048659Y015342D01*
X048667Y015322D01*
X048671Y015302D01*
X048671Y015280D01*
X048667Y015260D01*
X048659Y015240D01*
X048648Y015222D01*
X048635Y015206D01*
X048618Y015193D01*
X048599Y015182D01*
X048579Y015176D01*
X048558Y015173D01*
X048537Y015174D01*
X048517Y015179D01*
X048497Y015187D01*
X048479Y015199D01*
X048464Y015213D01*
X048452Y015230D01*
X048443Y015250D01*
X048437Y015270D01*
X048435Y015291D01*
X047371Y022303D02*
X047373Y022351D01*
X047379Y022399D01*
X047389Y022446D01*
X047402Y022492D01*
X047420Y022537D01*
X047440Y022581D01*
X047465Y022623D01*
X047493Y022662D01*
X047523Y022699D01*
X047557Y022733D01*
X047594Y022765D01*
X047632Y022794D01*
X047673Y022819D01*
X047716Y022841D01*
X047761Y022859D01*
X047807Y022873D01*
X047854Y022884D01*
X047902Y022891D01*
X047950Y022894D01*
X047998Y022893D01*
X048046Y022888D01*
X048094Y022879D01*
X048140Y022867D01*
X048185Y022850D01*
X048229Y022830D01*
X048271Y022807D01*
X048311Y022780D01*
X048349Y022750D01*
X048384Y022717D01*
X048416Y022681D01*
X048446Y022643D01*
X048472Y022602D01*
X048494Y022559D01*
X048514Y022515D01*
X048529Y022470D01*
X048541Y022423D01*
X048549Y022375D01*
X048553Y022327D01*
X048553Y022279D01*
X048549Y022231D01*
X048541Y022183D01*
X048529Y022136D01*
X048514Y022091D01*
X048494Y022047D01*
X048472Y022004D01*
X048446Y021963D01*
X048416Y021925D01*
X048384Y021889D01*
X048349Y021856D01*
X048311Y021826D01*
X048271Y021799D01*
X048229Y021776D01*
X048185Y021756D01*
X048140Y021739D01*
X048094Y021727D01*
X048046Y021718D01*
X047998Y021713D01*
X047950Y021712D01*
X047902Y021715D01*
X047854Y021722D01*
X047807Y021733D01*
X047761Y021747D01*
X047716Y021765D01*
X047673Y021787D01*
X047632Y021812D01*
X047594Y021841D01*
X047557Y021873D01*
X047523Y021907D01*
X047493Y021944D01*
X047465Y021983D01*
X047440Y022025D01*
X047420Y022069D01*
X047402Y022114D01*
X047389Y022160D01*
X047379Y022207D01*
X047373Y022255D01*
X047371Y022303D01*
X048159Y029263D02*
X048161Y029311D01*
X048167Y029359D01*
X048177Y029406D01*
X048190Y029452D01*
X048208Y029497D01*
X048228Y029541D01*
X048253Y029583D01*
X048281Y029622D01*
X048311Y029659D01*
X048345Y029693D01*
X048382Y029725D01*
X048420Y029754D01*
X048461Y029779D01*
X048504Y029801D01*
X048549Y029819D01*
X048595Y029833D01*
X048642Y029844D01*
X048690Y029851D01*
X048738Y029854D01*
X048786Y029853D01*
X048834Y029848D01*
X048882Y029839D01*
X048928Y029827D01*
X048973Y029810D01*
X049017Y029790D01*
X049059Y029767D01*
X049099Y029740D01*
X049137Y029710D01*
X049172Y029677D01*
X049204Y029641D01*
X049234Y029603D01*
X049260Y029562D01*
X049282Y029519D01*
X049302Y029475D01*
X049317Y029430D01*
X049329Y029383D01*
X049337Y029335D01*
X049341Y029287D01*
X049341Y029239D01*
X049337Y029191D01*
X049329Y029143D01*
X049317Y029096D01*
X049302Y029051D01*
X049282Y029007D01*
X049260Y028964D01*
X049234Y028923D01*
X049204Y028885D01*
X049172Y028849D01*
X049137Y028816D01*
X049099Y028786D01*
X049059Y028759D01*
X049017Y028736D01*
X048973Y028716D01*
X048928Y028699D01*
X048882Y028687D01*
X048834Y028678D01*
X048786Y028673D01*
X048738Y028672D01*
X048690Y028675D01*
X048642Y028682D01*
X048595Y028693D01*
X048549Y028707D01*
X048504Y028725D01*
X048461Y028747D01*
X048420Y028772D01*
X048382Y028801D01*
X048345Y028833D01*
X048311Y028867D01*
X048281Y028904D01*
X048253Y028943D01*
X048228Y028985D01*
X048208Y029029D01*
X048190Y029074D01*
X048177Y029120D01*
X048167Y029167D01*
X048161Y029215D01*
X048159Y029263D01*
D11*
X007411Y030838D02*
X007411Y004067D01*
D12*
X012620Y006317D02*
X012870Y006067D01*
X013370Y006067D01*
X013620Y006317D01*
X013620Y006817D01*
X013370Y007067D01*
X013620Y007317D01*
X013620Y007817D01*
X013370Y008067D01*
X012870Y008067D01*
X012620Y007817D01*
X012620Y007317D01*
X012870Y007067D01*
X013370Y007067D01*
X012870Y007067D02*
X012620Y006817D01*
X012620Y006317D01*
X012870Y008067D02*
X012620Y008317D01*
X012620Y008817D01*
X012870Y009067D01*
X012620Y009317D01*
X012620Y009817D01*
X012870Y010067D01*
X013370Y010067D01*
X013620Y009817D01*
X013620Y009317D01*
X013370Y009067D01*
X013620Y008817D01*
X013620Y008317D01*
X013370Y008067D01*
X013370Y009067D02*
X012870Y009067D01*
X008562Y010199D02*
X007922Y010199D01*
X007922Y010626D01*
X007922Y010843D02*
X007922Y010950D01*
X008562Y010950D01*
X008562Y010843D02*
X008562Y011057D01*
X008455Y011273D02*
X008242Y011273D01*
X008135Y011380D01*
X008135Y011593D01*
X008242Y011700D01*
X008349Y011700D01*
X008349Y011273D01*
X008455Y011273D02*
X008562Y011380D01*
X008562Y011593D01*
X008455Y011918D02*
X008242Y011918D01*
X008135Y012024D01*
X008135Y012238D01*
X008242Y012345D01*
X008349Y012345D01*
X008349Y011918D01*
X008455Y011918D02*
X008562Y012024D01*
X008562Y012238D01*
X008455Y012669D02*
X008028Y012669D01*
X008135Y012562D02*
X008135Y012776D01*
X008135Y012992D02*
X008455Y012992D01*
X008562Y013099D01*
X008455Y013205D01*
X008562Y013312D01*
X008455Y013419D01*
X008135Y013419D01*
X008242Y013636D02*
X008135Y013743D01*
X008135Y013957D01*
X008242Y014064D01*
X008455Y014064D01*
X008562Y013957D01*
X008562Y013743D01*
X008455Y013636D01*
X008242Y013636D01*
X008242Y014281D02*
X008455Y014281D01*
X008562Y014388D01*
X008562Y014601D01*
X008455Y014708D01*
X008242Y014708D01*
X008135Y014601D01*
X008135Y014388D01*
X008242Y014281D01*
X008242Y014926D02*
X008135Y015032D01*
X008135Y015353D01*
X007922Y015353D02*
X008562Y015353D01*
X008562Y015032D01*
X008455Y014926D01*
X008242Y014926D01*
X008562Y016215D02*
X007922Y016215D01*
X008135Y016428D01*
X007922Y016642D01*
X008562Y016642D01*
X008455Y016859D02*
X008028Y016859D01*
X007922Y016966D01*
X007922Y017180D01*
X008028Y017286D01*
X008455Y017286D01*
X008562Y017180D01*
X008562Y016966D01*
X008455Y016859D01*
X008349Y017073D02*
X008562Y017286D01*
X008562Y017717D02*
X007922Y017717D01*
X007922Y017504D02*
X007922Y017931D01*
X007922Y018148D02*
X007922Y018575D01*
X007922Y018362D02*
X008562Y018362D01*
X008455Y019437D02*
X008028Y019437D01*
X007922Y019544D01*
X007922Y019758D01*
X008028Y019864D01*
X008242Y020082D02*
X008135Y020189D01*
X008135Y020402D01*
X008242Y020509D01*
X008455Y020509D01*
X008562Y020402D01*
X008562Y020189D01*
X008455Y020082D01*
X008242Y020082D01*
X008455Y019864D02*
X008562Y019758D01*
X008562Y019544D01*
X008455Y019437D01*
X008562Y020727D02*
X008135Y020727D01*
X008135Y021047D01*
X008242Y021154D01*
X008562Y021154D01*
X008455Y021478D02*
X008028Y021478D01*
X008135Y021371D02*
X008135Y021585D01*
X008135Y021801D02*
X008562Y021801D01*
X008349Y021801D02*
X008135Y022014D01*
X008135Y022121D01*
X008242Y022338D02*
X008135Y022445D01*
X008135Y022658D01*
X008242Y022765D01*
X008455Y022765D01*
X008562Y022658D01*
X008562Y022445D01*
X008455Y022338D01*
X008242Y022338D01*
X008562Y022982D02*
X008562Y023196D01*
X008562Y023089D02*
X007922Y023089D01*
X007922Y022982D01*
X008135Y024057D02*
X008562Y024270D01*
X008135Y024484D01*
X008135Y024701D02*
X007922Y024915D01*
X008562Y024915D01*
X008562Y025128D02*
X008562Y024701D01*
X008562Y025346D02*
X008562Y025453D01*
X008455Y025453D01*
X008455Y025346D01*
X008562Y025346D01*
X008562Y025668D02*
X008562Y026095D01*
X008562Y025882D02*
X007922Y025882D01*
X008135Y025668D01*
X013679Y029013D02*
X013929Y028763D01*
X014429Y028763D01*
X014679Y029013D01*
X014929Y028763D01*
X015429Y028763D01*
X015679Y029013D01*
X015679Y029513D01*
X015429Y029763D01*
X014929Y029763D01*
X014679Y029513D01*
X014679Y029013D01*
X014679Y029513D02*
X014429Y029763D01*
X013929Y029763D01*
X013679Y029513D01*
X013679Y029013D01*
X015679Y029013D02*
X015929Y028763D01*
X016429Y028763D01*
X016679Y029013D01*
X016929Y028763D01*
X017429Y028763D01*
X017679Y029013D01*
X017679Y029513D01*
X017429Y029763D01*
X016929Y029763D01*
X016679Y029513D01*
X016679Y029013D01*
X016679Y029513D02*
X016429Y029763D01*
X015929Y029763D01*
X015679Y029513D01*
X020191Y025222D02*
X020441Y025472D01*
X020941Y025472D01*
X021191Y025222D01*
X021441Y025472D01*
X021941Y025472D01*
X022191Y025222D01*
X022441Y025472D01*
X022941Y025472D01*
X023191Y025222D01*
X023441Y025472D01*
X023941Y025472D01*
X024191Y025222D01*
X024191Y024722D01*
X023941Y024472D01*
X023441Y024472D01*
X023191Y024722D01*
X022941Y024472D01*
X022441Y024472D01*
X022191Y024722D01*
X022191Y025222D01*
X022191Y024722D01*
X021941Y024472D01*
X021441Y024472D01*
X021191Y024722D01*
X020941Y024472D01*
X020441Y024472D01*
X020191Y024722D01*
X020191Y025222D01*
X021191Y025222D02*
X021191Y024722D01*
X023191Y024722D02*
X023191Y025222D01*
X025939Y024147D02*
X025939Y023647D01*
X026189Y023397D01*
X026689Y023397D01*
X026939Y023647D01*
X026939Y024147D01*
X026689Y024397D01*
X026189Y024397D01*
X025939Y024147D01*
X035742Y024722D02*
X035992Y024472D01*
X036492Y024472D01*
X036742Y024722D01*
X036992Y024472D01*
X037492Y024472D01*
X037742Y024722D01*
X037742Y025222D01*
X037492Y025472D01*
X036992Y025472D01*
X036742Y025222D01*
X036742Y024722D01*
X035742Y024722D02*
X035742Y025222D01*
X035992Y025472D01*
X036492Y025472D01*
X036742Y025222D01*
X037742Y025222D02*
X037742Y024722D01*
X037992Y024472D01*
X038492Y024472D01*
X038742Y024722D01*
X038992Y024472D01*
X039492Y024472D01*
X039742Y024722D01*
X039742Y025222D01*
X039492Y025472D01*
X038992Y025472D01*
X038742Y025222D01*
X038742Y024722D01*
X038742Y025222D02*
X038492Y025472D01*
X037992Y025472D01*
X037742Y025222D01*
X041094Y028763D02*
X041594Y028763D01*
X041844Y029013D01*
X042094Y028763D01*
X042594Y028763D01*
X042844Y029013D01*
X042844Y029513D01*
X042594Y029763D01*
X042094Y029763D01*
X041844Y029513D01*
X041844Y029013D01*
X041844Y029513D02*
X041594Y029763D01*
X041094Y029763D01*
X040844Y029513D01*
X040844Y029013D01*
X041094Y028763D01*
X042844Y029013D02*
X043094Y028763D01*
X043594Y028763D01*
X043844Y029013D01*
X044094Y028763D01*
X044594Y028763D01*
X044844Y029013D01*
X044844Y029513D01*
X044594Y029763D01*
X044094Y029763D01*
X043844Y029513D01*
X043844Y029013D01*
X043844Y029513D02*
X043594Y029763D01*
X043094Y029763D01*
X042844Y029513D01*
X038866Y017471D02*
X038116Y017471D01*
X038116Y017121D01*
X037516Y017121D01*
X037516Y017471D01*
X032616Y017471D01*
X032616Y013371D01*
X037516Y013371D01*
X037516Y013721D01*
X038116Y013721D01*
X038116Y013371D01*
X038866Y013371D01*
X038866Y017471D01*
X036806Y015421D02*
X036808Y015474D01*
X036814Y015527D01*
X036824Y015579D01*
X036838Y015630D01*
X036855Y015680D01*
X036876Y015729D01*
X036901Y015776D01*
X036929Y015821D01*
X036961Y015864D01*
X036996Y015904D01*
X037033Y015941D01*
X037073Y015976D01*
X037116Y016008D01*
X037161Y016036D01*
X037208Y016061D01*
X037257Y016082D01*
X037307Y016099D01*
X037358Y016113D01*
X037410Y016123D01*
X037463Y016129D01*
X037516Y016131D01*
X037569Y016129D01*
X037622Y016123D01*
X037674Y016113D01*
X037725Y016099D01*
X037775Y016082D01*
X037824Y016061D01*
X037871Y016036D01*
X037916Y016008D01*
X037959Y015976D01*
X037999Y015941D01*
X038036Y015904D01*
X038071Y015864D01*
X038103Y015821D01*
X038131Y015776D01*
X038156Y015729D01*
X038177Y015680D01*
X038194Y015630D01*
X038208Y015579D01*
X038218Y015527D01*
X038224Y015474D01*
X038226Y015421D01*
X038224Y015368D01*
X038218Y015315D01*
X038208Y015263D01*
X038194Y015212D01*
X038177Y015162D01*
X038156Y015113D01*
X038131Y015066D01*
X038103Y015021D01*
X038071Y014978D01*
X038036Y014938D01*
X037999Y014901D01*
X037959Y014866D01*
X037916Y014834D01*
X037871Y014806D01*
X037824Y014781D01*
X037775Y014760D01*
X037725Y014743D01*
X037674Y014729D01*
X037622Y014719D01*
X037569Y014713D01*
X037516Y014711D01*
X037463Y014713D01*
X037410Y014719D01*
X037358Y014729D01*
X037307Y014743D01*
X037257Y014760D01*
X037208Y014781D01*
X037161Y014806D01*
X037116Y014834D01*
X037073Y014866D01*
X037033Y014901D01*
X036996Y014938D01*
X036961Y014978D01*
X036929Y015021D01*
X036901Y015066D01*
X036876Y015113D01*
X036855Y015162D01*
X036838Y015212D01*
X036824Y015263D01*
X036814Y015315D01*
X036808Y015368D01*
X036806Y015421D01*
X036974Y010917D02*
X036724Y010667D01*
X036724Y010167D01*
X036974Y009917D01*
X037474Y009917D01*
X037724Y010167D01*
X037974Y009917D01*
X038474Y009917D01*
X038724Y010167D01*
X038724Y010667D01*
X038474Y010917D01*
X037974Y010917D01*
X037724Y010667D01*
X037724Y010167D01*
X037724Y010667D02*
X037474Y010917D01*
X036974Y010917D01*
X036724Y010667D02*
X036474Y010917D01*
X035974Y010917D01*
X035724Y010667D01*
X035724Y010167D01*
X035474Y009917D01*
X034974Y009917D01*
X034724Y010167D01*
X034474Y009917D01*
X033974Y009917D01*
X033724Y010167D01*
X033474Y009917D01*
X032974Y009917D01*
X032724Y010167D01*
X032474Y009917D01*
X031974Y009917D01*
X031724Y010167D01*
X031474Y009917D01*
X030974Y009917D01*
X030724Y010167D01*
X030724Y010667D01*
X030974Y010917D01*
X031474Y010917D01*
X031724Y010667D01*
X031974Y010917D01*
X032474Y010917D01*
X032724Y010667D01*
X032724Y010167D01*
X032724Y010667D02*
X032974Y010917D01*
X033474Y010917D01*
X033724Y010667D01*
X033974Y010917D01*
X034474Y010917D01*
X034724Y010667D01*
X034974Y010917D01*
X035474Y010917D01*
X035724Y010667D01*
X035724Y010167D02*
X035974Y009917D01*
X036474Y009917D01*
X036724Y010167D01*
X034724Y010167D02*
X034724Y010667D01*
X033724Y010667D02*
X033724Y010167D01*
X031724Y010167D02*
X031724Y010667D01*
X031474Y006204D02*
X030974Y006204D01*
X030724Y005954D01*
X030724Y005454D01*
X030974Y005204D01*
X031474Y005204D01*
X031724Y005454D01*
X031974Y005204D01*
X032474Y005204D01*
X032724Y005454D01*
X032724Y005954D01*
X032474Y006204D01*
X031974Y006204D01*
X031724Y005954D01*
X031724Y005454D01*
X032724Y005454D02*
X032974Y005204D01*
X033474Y005204D01*
X033724Y005454D01*
X033974Y005204D01*
X034474Y005204D01*
X034724Y005454D01*
X034974Y005204D01*
X035474Y005204D01*
X035724Y005454D01*
X035724Y005954D01*
X035474Y006204D01*
X034974Y006204D01*
X034724Y005954D01*
X034724Y005454D01*
X034724Y005954D02*
X034474Y006204D01*
X033974Y006204D01*
X033724Y005954D01*
X033724Y005454D01*
X033724Y005954D02*
X033474Y006204D01*
X032974Y006204D01*
X032724Y005954D01*
X031724Y005954D02*
X031474Y006204D01*
X035724Y005954D02*
X035974Y006204D01*
X036474Y006204D01*
X036724Y005954D01*
X036974Y006204D01*
X037474Y006204D01*
X037724Y005954D01*
X037974Y006204D01*
X038474Y006204D01*
X038724Y005954D01*
X038724Y005454D01*
X038474Y005204D01*
X037974Y005204D01*
X037724Y005454D01*
X037474Y005204D01*
X036974Y005204D01*
X036724Y005454D01*
X036474Y005204D01*
X035974Y005204D01*
X035724Y005454D01*
X036724Y005454D02*
X036724Y005954D01*
X037724Y005954D02*
X037724Y005454D01*
X039724Y005454D02*
X039974Y005204D01*
X040474Y005204D01*
X040724Y005454D01*
X040974Y005204D01*
X041474Y005204D01*
X041724Y005454D01*
X041724Y005954D01*
X041474Y006204D01*
X040974Y006204D01*
X040724Y005954D01*
X040724Y005454D01*
X040724Y005954D02*
X040474Y006204D01*
X039974Y006204D01*
X039724Y005954D01*
X039724Y005454D01*
X039974Y009917D02*
X040474Y009917D01*
X040724Y010167D01*
X040974Y009917D01*
X041474Y009917D01*
X041724Y010167D01*
X041724Y010667D01*
X041474Y010917D01*
X040974Y010917D01*
X040724Y010667D01*
X040724Y010167D01*
X040724Y010667D02*
X040474Y010917D01*
X039974Y010917D01*
X039724Y010667D01*
X039724Y010167D01*
X039974Y009917D01*
X048140Y007279D02*
X048140Y006929D01*
X048140Y005929D01*
X048140Y005579D01*
X048940Y005229D02*
X049040Y005229D01*
X049040Y005129D01*
X049640Y005129D01*
X049640Y005229D01*
X049740Y005229D01*
X050540Y005579D02*
X050540Y005929D01*
X050540Y006879D01*
X050540Y007279D01*
X049740Y007629D02*
X049640Y007629D01*
X049640Y007729D01*
X049040Y007729D01*
X049040Y007629D01*
X048940Y007629D01*
X049240Y006429D02*
X049242Y006449D01*
X049248Y006467D01*
X049257Y006485D01*
X049269Y006500D01*
X049284Y006512D01*
X049302Y006521D01*
X049320Y006527D01*
X049340Y006529D01*
X049360Y006527D01*
X049378Y006521D01*
X049396Y006512D01*
X049411Y006500D01*
X049423Y006485D01*
X049432Y006467D01*
X049438Y006449D01*
X049440Y006429D01*
X049438Y006409D01*
X049432Y006391D01*
X049423Y006373D01*
X049411Y006358D01*
X049396Y006346D01*
X049378Y006337D01*
X049360Y006331D01*
X049340Y006329D01*
X049320Y006331D01*
X049302Y006337D01*
X049284Y006346D01*
X049269Y006358D01*
X049257Y006373D01*
X049248Y006391D01*
X049242Y006409D01*
X049240Y006429D01*
X048640Y006429D02*
X048642Y006481D01*
X048648Y006533D01*
X048658Y006585D01*
X048671Y006635D01*
X048688Y006685D01*
X048709Y006733D01*
X048734Y006779D01*
X048762Y006823D01*
X048793Y006865D01*
X048827Y006905D01*
X048864Y006942D01*
X048904Y006976D01*
X048946Y007007D01*
X048990Y007035D01*
X049036Y007060D01*
X049084Y007081D01*
X049134Y007098D01*
X049184Y007111D01*
X049236Y007121D01*
X049288Y007127D01*
X049340Y007129D01*
X049392Y007127D01*
X049444Y007121D01*
X049496Y007111D01*
X049546Y007098D01*
X049596Y007081D01*
X049644Y007060D01*
X049690Y007035D01*
X049734Y007007D01*
X049776Y006976D01*
X049816Y006942D01*
X049853Y006905D01*
X049887Y006865D01*
X049918Y006823D01*
X049946Y006779D01*
X049971Y006733D01*
X049992Y006685D01*
X050009Y006635D01*
X050022Y006585D01*
X050032Y006533D01*
X050038Y006481D01*
X050040Y006429D01*
X050038Y006377D01*
X050032Y006325D01*
X050022Y006273D01*
X050009Y006223D01*
X049992Y006173D01*
X049971Y006125D01*
X049946Y006079D01*
X049918Y006035D01*
X049887Y005993D01*
X049853Y005953D01*
X049816Y005916D01*
X049776Y005882D01*
X049734Y005851D01*
X049690Y005823D01*
X049644Y005798D01*
X049596Y005777D01*
X049546Y005760D01*
X049496Y005747D01*
X049444Y005737D01*
X049392Y005731D01*
X049340Y005729D01*
X049288Y005731D01*
X049236Y005737D01*
X049184Y005747D01*
X049134Y005760D01*
X049084Y005777D01*
X049036Y005798D01*
X048990Y005823D01*
X048946Y005851D01*
X048904Y005882D01*
X048864Y005916D01*
X048827Y005953D01*
X048793Y005993D01*
X048762Y006035D01*
X048734Y006079D01*
X048709Y006125D01*
X048688Y006173D01*
X048671Y006223D01*
X048658Y006273D01*
X048648Y006325D01*
X048642Y006377D01*
X048640Y006429D01*
X008242Y010199D02*
X008242Y010412D01*
X008455Y012669D02*
X008562Y012776D01*
X008455Y021478D02*
X008562Y021585D01*
D13*
X032866Y017221D02*
X032866Y013621D01*
X036116Y013621D01*
X036116Y017221D01*
X032866Y017221D01*
X048140Y006929D02*
X048240Y006929D01*
X048240Y005929D01*
X048140Y005929D01*
X050440Y005929D02*
X050540Y005929D01*
X050440Y005929D02*
X050440Y006879D01*
X050540Y006879D01*
D14*
X032441Y014421D03*
X032441Y015421D03*
X032441Y016421D03*
D15*
X032474Y008567D02*
X031974Y008567D01*
X031724Y008317D01*
X031474Y008567D01*
X030974Y008567D01*
X030724Y008317D01*
X030724Y007817D01*
X030974Y007567D01*
X031474Y007567D01*
X031724Y007817D01*
X031974Y007567D01*
X032474Y007567D01*
X032724Y007817D01*
X032974Y007567D01*
X033474Y007567D01*
X033724Y007817D01*
X033974Y007567D01*
X034474Y007567D01*
X034724Y007817D01*
X034974Y007567D01*
X035474Y007567D01*
X035724Y007817D01*
X035974Y007567D01*
X036474Y007567D01*
X036724Y007817D01*
X036974Y007567D01*
X037474Y007567D01*
X037724Y007817D01*
X037974Y007567D01*
X038474Y007567D01*
X038724Y007817D01*
X038724Y008317D01*
X038474Y008567D01*
X037974Y008567D01*
X037724Y008317D01*
X037474Y008567D01*
X036974Y008567D01*
X036724Y008317D01*
X036474Y008567D01*
X035974Y008567D01*
X035724Y008317D01*
X035474Y008567D01*
X034974Y008567D01*
X034724Y008317D01*
X034474Y008567D01*
X033974Y008567D01*
X033724Y008317D01*
X033474Y008567D01*
X032974Y008567D01*
X032724Y008317D01*
X032474Y008567D01*
X029724Y008317D02*
X029724Y007817D01*
X029474Y007567D01*
X028974Y007567D01*
X028724Y007817D01*
X028474Y007567D01*
X027974Y007567D01*
X027724Y007817D01*
X027474Y007567D01*
X026974Y007567D01*
X026724Y007817D01*
X026474Y007567D01*
X025974Y007567D01*
X025724Y007817D01*
X025474Y007567D01*
X024974Y007567D01*
X024724Y007817D01*
X024474Y007567D01*
X023974Y007567D01*
X023724Y007817D01*
X023724Y008317D01*
X023974Y008567D01*
X024474Y008567D01*
X024724Y008317D01*
X024974Y008567D01*
X025474Y008567D01*
X025724Y008317D01*
X025974Y008567D01*
X026474Y008567D01*
X026724Y008317D01*
X026974Y008567D01*
X027474Y008567D01*
X027724Y008317D01*
X027974Y008567D01*
X028474Y008567D01*
X028724Y008317D01*
X028974Y008567D01*
X029474Y008567D01*
X029724Y008317D01*
X039724Y008317D02*
X039724Y007817D01*
X039974Y007567D01*
X040474Y007567D01*
X040724Y007817D01*
X040974Y007567D01*
X041474Y007567D01*
X041724Y007817D01*
X041974Y007567D01*
X042474Y007567D01*
X042724Y007817D01*
X042974Y007567D01*
X043474Y007567D01*
X043724Y007817D01*
X043974Y007567D01*
X044474Y007567D01*
X044724Y007817D01*
X044974Y007567D01*
X045474Y007567D01*
X045724Y007817D01*
X045974Y007567D01*
X046474Y007567D01*
X046724Y007817D01*
X046974Y007567D01*
X047474Y007567D01*
X047724Y007817D01*
X047724Y008317D01*
X047474Y008567D01*
X046974Y008567D01*
X046724Y008317D01*
X046474Y008567D01*
X045974Y008567D01*
X045724Y008317D01*
X045474Y008567D01*
X044974Y008567D01*
X044724Y008317D01*
X044474Y008567D01*
X043974Y008567D01*
X043724Y008317D01*
X043474Y008567D01*
X042974Y008567D01*
X042724Y008317D01*
X042474Y008567D01*
X041974Y008567D01*
X041724Y008317D01*
X041474Y008567D01*
X040974Y008567D01*
X040724Y008317D01*
X040474Y008567D01*
X039974Y008567D01*
X039724Y008317D01*
X043974Y026567D02*
X043724Y026817D01*
X043724Y027317D01*
X043974Y027567D01*
X044474Y027567D01*
X044724Y027317D01*
X044974Y027567D01*
X045474Y027567D01*
X045724Y027317D01*
X045724Y026817D01*
X045474Y026567D01*
X044974Y026567D01*
X044724Y026817D01*
X044474Y026567D01*
X043974Y026567D01*
X034724Y026817D02*
X034724Y027317D01*
X034474Y027567D01*
X033974Y027567D01*
X033724Y027317D01*
X033474Y027567D01*
X032974Y027567D01*
X032724Y027317D01*
X032474Y027567D01*
X031974Y027567D01*
X031724Y027317D01*
X031474Y027567D01*
X030974Y027567D01*
X030724Y027317D01*
X030474Y027567D01*
X029974Y027567D01*
X029724Y027317D01*
X029474Y027567D01*
X028974Y027567D01*
X028724Y027317D01*
X028724Y026817D01*
X028974Y026567D01*
X029474Y026567D01*
X029724Y026817D01*
X029974Y026567D01*
X030474Y026567D01*
X030724Y026817D01*
X030974Y026567D01*
X031474Y026567D01*
X031724Y026817D01*
X031974Y026567D01*
X032474Y026567D01*
X032724Y026817D01*
X032974Y026567D01*
X033474Y026567D01*
X033724Y026817D01*
X033974Y026567D01*
X034474Y026567D01*
X034724Y026817D01*
X028124Y026817D02*
X027874Y026567D01*
X027374Y026567D01*
X027124Y026817D01*
X026874Y026567D01*
X026374Y026567D01*
X026124Y026817D01*
X026124Y027317D01*
X026374Y027567D01*
X026874Y027567D01*
X027124Y027317D01*
X027374Y027567D01*
X027874Y027567D01*
X028124Y027317D01*
X028124Y026817D01*
D16*
X025974Y026567D02*
X025974Y027567D01*
X023974Y027567D01*
X023974Y026567D01*
X025974Y026567D01*
X026000Y025093D02*
X026225Y025093D01*
X026301Y025018D01*
X026301Y024867D01*
X026225Y024792D01*
X026000Y024792D01*
X026000Y024642D02*
X026000Y025093D01*
X025840Y025018D02*
X025840Y024867D01*
X025765Y024792D01*
X025540Y024792D01*
X025540Y024642D02*
X025540Y025093D01*
X025765Y025093D01*
X025840Y025018D01*
X026150Y024792D02*
X026301Y024642D01*
X026461Y024717D02*
X026461Y025018D01*
X026536Y025093D01*
X026686Y025093D01*
X026761Y025018D01*
X026761Y024717D01*
X026686Y024642D01*
X026536Y024642D01*
X026461Y024717D01*
X026921Y024642D02*
X027221Y025093D01*
X026921Y025093D02*
X027221Y024642D01*
X027739Y023098D02*
X033739Y023098D01*
X033739Y018098D01*
X027739Y018098D01*
X027739Y023098D01*
X025824Y021992D02*
X025824Y013992D01*
X013824Y013992D01*
X013824Y021992D01*
X025824Y021992D01*
X034724Y026567D02*
X034724Y027567D01*
X036724Y027567D01*
X036724Y026567D01*
X034724Y026567D01*
X044773Y021555D02*
X044773Y013216D01*
X013750Y013216D01*
X013750Y021555D01*
X044773Y021555D01*
X046683Y022539D02*
X046880Y022539D01*
X046880Y011200D01*
X046683Y011200D01*
X046683Y011004D01*
X041958Y011004D01*
X041565Y010610D01*
X017155Y010610D01*
X016761Y011004D01*
X011643Y011004D01*
X011643Y011200D01*
X011446Y011200D01*
X011446Y022539D01*
X011643Y022539D01*
X011643Y022736D01*
X046683Y022736D01*
X046683Y022539D01*
X049242Y023287D02*
X049242Y010098D01*
X009675Y010098D01*
X009675Y023287D01*
X049242Y023287D01*
X049724Y027567D02*
X047724Y027567D01*
X047724Y009567D01*
X049724Y009567D01*
X049724Y027567D01*
M02*
