#define alloff_width 15
#define alloff_height 17
static unsigned char alloff_bits[] = {
   0x80, 0x00, 0xc0, 0x01, 0xc0, 0x01, 0xd8, 0x0d, 0xdc, 0x1d, 0xc6, 0x31,
   0xc6, 0x31, 0x83, 0x60, 0x03, 0x60, 0x03, 0x60, 0x03, 0x60, 0x03, 0x60,
   0x06, 0x30, 0x06, 0x30, 0x1c, 0x1c, 0xf8, 0x0f, 0xe0, 0x03 };
