#define audio_width 24
#define audio_height 24
static unsigned char audio_bits[] = {
   0x00, 0x00, 0x0e, 0x00, 0x80, 0x0f, 0x00, 0xc0, 0x0f, 0x00, 0xf0, 0x09,
   0x00, 0xfe, 0x0c, 0x80, 0x3f, 0x0b, 0x80, 0xcf, 0x08, 0x80, 0x31, 0x08,
   0x80, 0x0f, 0x08, 0x80, 0x00, 0x18, 0x80, 0x00, 0x10, 0x80, 0x00, 0x10,
   0x80, 0x00, 0x10, 0x80, 0x01, 0x1c, 0x00, 0x01, 0x1f, 0x00, 0x81, 0x1f,
   0x00, 0xc1, 0x1f, 0xc0, 0xc1, 0x0f, 0xf0, 0x81, 0x07, 0xf8, 0x01, 0x00,
   0xfc, 0x01, 0x00, 0xfc, 0x00, 0x00, 0x78, 0x00, 0x00, 0x00, 0x00, 0x00 };
