#define bulb_24_width 24
#define bulb_24_height 24
static unsigned char bulb_24_bits[] = {
   0x00, 0x3e, 0x00, 0x80, 0xff, 0x00, 0xc0, 0xc1, 0x01, 0x60, 0x00, 0x03,
   0x60, 0x20, 0x03, 0x30, 0x40, 0x06, 0x30, 0x40, 0x06, 0x30, 0x00, 0x06,
   0x30, 0x00, 0x06, 0x30, 0x00, 0x06, 0x60, 0x00, 0x03, 0xc0, 0x80, 0x01,
   0x80, 0x80, 0x00, 0x80, 0xc1, 0x00, 0x00, 0x41, 0x00, 0x00, 0x63, 0x00,
   0x00, 0x22, 0x00, 0x00, 0x3e, 0x00, 0x00, 0x22, 0x00, 0x00, 0x3e, 0x00,
   0x00, 0x22, 0x00, 0x00, 0x3e, 0x00, 0x00, 0x1c, 0x00, 0x00, 0x08, 0x00 };
