#define music_width 24
#define music_height 24
static unsigned char music_bits[] = {
   0x00, 0x00, 0x0e, 0x00, 0x80, 0x1f, 0x00, 0xc0, 0x1f, 0x00, 0xf0, 0x19,
   0x00, 0xfe, 0x1c, 0x80, 0x3f, 0x1b, 0x80, 0xcf, 0x18, 0x80, 0x31, 0x18,
   0x80, 0x0f, 0x18, 0x80, 0x01, 0x38, 0x80, 0x01, 0x30, 0x80, 0x01, 0x30,
   0x80, 0x01, 0x30, 0x80, 0x03, 0x30, 0x00, 0x03, 0x3c, 0x00, 0x03, 0x3f,
   0x00, 0x83, 0x3f, 0x00, 0xc3, 0x3f, 0xc0, 0xc3, 0x1f, 0xf0, 0x83, 0x07,
   0xf8, 0x03, 0x00, 0xfc, 0x03, 0x00, 0xfc, 0x01, 0x00, 0x78, 0x00, 0x00 };
