#define mvhr_width 24
#define mvhr_height 24
static unsigned char mvhr_bits[] = {
   0x00, 0x00, 0x00, 0x00, 0x00, 0x00, 0x00, 0x0c, 0x00, 0x00, 0x6e, 0x00,
   0x00, 0x8f, 0x00, 0x00, 0x0f, 0x00, 0x80, 0x0f, 0x00, 0x80, 0x0f, 0x00,
   0x88, 0x8f, 0x03, 0x04, 0xcf, 0x0f, 0x04, 0xee, 0x1f, 0x00, 0xfc, 0x3f,
   0xfe, 0xff, 0x3f, 0xfe, 0x1f, 0x00, 0xfc, 0x3b, 0x10, 0xf8, 0x79, 0x10,
   0xe0, 0xf8, 0x08, 0x00, 0xf8, 0x00, 0x00, 0xf8, 0x00, 0x00, 0x78, 0x00,
   0x80, 0x78, 0x00, 0x00, 0x3b, 0x00, 0x00, 0x18, 0x00, 0x00, 0x00, 0x00 };
