#define other_width 24
#define other_height 24
static unsigned char other_bits[] = {
   0x00, 0x00, 0x00, 0x00, 0x00, 0x00, 0x02, 0x00, 0x20, 0xfb, 0xff, 0x6f,
   0xfb, 0xff, 0x6f, 0xf2, 0xff, 0x27, 0xf0, 0xff, 0x07, 0xf0, 0xff, 0x07,
   0xf0, 0xff, 0x07, 0xf0, 0xff, 0x07, 0xf0, 0xff, 0x07, 0xf0, 0xff, 0x07,
   0xf0, 0xff, 0x07, 0xf0, 0xff, 0x07, 0x00, 0x00, 0x00, 0xf0, 0xff, 0x07,
   0x00, 0x08, 0x00, 0x00, 0x08, 0x00, 0x00, 0x1c, 0x00, 0x00, 0x36, 0x00,
   0x00, 0x22, 0x00, 0x00, 0x36, 0x00, 0x00, 0x1c, 0x00, 0x00, 0x00, 0x00 };
