#define pause_width 10
#define pause_height 13
static unsigned char pause_bits[] = {
   0xcc, 0x00, 0xcc, 0x00, 0xcc, 0x00, 0xcc, 0x00, 0xcc, 0x00, 0xcc, 0x00,
   0xcc, 0x00, 0xcc, 0x00, 0xcc, 0x00, 0xcc, 0x00, 0xcc, 0x00, 0xcc, 0x00,
   0xcc, 0x00 };
