#define play_width 10
#define play_height 13
static unsigned char play_bits[] = {
   0x01, 0x00, 0x07, 0x00, 0x0f, 0x00, 0x3f, 0x00, 0x7f, 0x00, 0xff, 0x01,
   0xff, 0x03, 0xff, 0x01, 0x7f, 0x00, 0x3f, 0x00, 0x0f, 0x00, 0x07, 0x00,
   0x01, 0x00 };
