#define temp_width 24
#define temp_height 24
static unsigned char temp_bits[] = {
   0x00, 0x1c, 0x00, 0x00, 0x26, 0x00, 0x00, 0x26, 0x00, 0x00, 0xe6, 0x00,
   0x00, 0x26, 0x00, 0x00, 0xe6, 0x01, 0x00, 0x26, 0x00, 0x00, 0xee, 0x00,
   0x00, 0x2e, 0x00, 0x00, 0xee, 0x01, 0x00, 0x2e, 0x00, 0x00, 0xee, 0x00,
   0x00, 0x2e, 0x00, 0x00, 0x2e, 0x00, 0x00, 0x3e, 0x00, 0x00, 0x3e, 0x00,
   0x00, 0x63, 0x00, 0x80, 0xc1, 0x00, 0x80, 0x80, 0x00, 0x80, 0xc1, 0x00,
   0x80, 0xff, 0x00, 0x00, 0x7f, 0x00, 0x00, 0x7f, 0x00, 0x00, 0x1c, 0x00 };
